<?xml version="1.0" encoding="utf-8"?>
<!-- Generator: Adobe Illustrator 28.3.0, SVG Export Plug-In . SVG Version: 6.00 Build 0)  -->
<svg version="1.1" id="Layer_1" xmlns="http://www.w3.org/2000/svg" xmlns:xlink="http://www.w3.org/1999/xlink" x="0px" y="0px"
	 viewBox="0 0 1000 1000" style="enable-background:new 0 0 1000 1000;" xml:space="preserve">
<style type="text/css">
	.st0{fill:#2F2B73;}
</style>
<path class="st0" d="M471,236.9c-5,2.4-9.5,4.4-13.9,6.6c-21.7,10.9-33.1,29.4-36.2,54.1c-2.9,23.6-2.9,48.3-3,72.9
	c-0.1,48.5,0.1,97,0.3,145.6c0,3.4-1.2,4.4-4.8,4.3c-21.2-0.2-42.3-0.1-63.5-0.1c-0.3-0.5-0.7-1-0.7-1.3c0.6-64.6-0.9-129.9,1.3-194
	c0.6-18.4,2.6-36.1,11.2-50.6c13.7-23.1,37-35.2,67.9-38.7C442.5,234.3,456,234.6,471,236.9z"/>
<path class="st0" d="M554.9,236.9c-4.5,2-8.3,3.7-12,5.5c-24.5,11.5-36.4,32.3-38.9,59.9c-3.1,34.3-2.4,69.9-2.5,105.3
	c0,36.1,0.2,72.2,0.5,108.4c0,3.2-0.9,4.5-4.7,4.5c-20.3-0.2-40.5-0.2-60.6-0.1c-3,0-3.8-0.4-3.8-3.4c0.5-63.9-0.3-128.3,1.1-191.9
	c0.4-18.3,2.8-35.8,11.2-50.2c13.7-23.6,37.2-36,68.9-39.1C526.7,234.5,540,234.9,554.9,236.9z"/>
<path class="st0" d="M598.2,520.4c0-26.5,0-52.2-0.1-78c-0.2-37.1,0.6-74-0.8-111.5c-0.4-12.2-2.1-24.6-7.6-37.8
	c-6.5-15.5-17.8-28.5-33.4-38.8c-5.2-3.4-3.8-4.2-1.4-5.9c18.7-13.2,61.7-8.4,91.4,34c12.7,18.1,17,35.9,18.5,53.3
	c2.2,25.8,0.8,50.4,0.9,75.6c0.2,35.2-0.1,70.2-0.2,105.3c0,1.8,0.7,3.9-2.4,3.9C641.7,520.3,620.3,520.4,598.2,520.4z"/>
<path class="st0" d="M516.6,520.4c-0.1-17.7-0.3-34.7-0.2-51.7c0.1-49-1.4-98.6,0.3-147c0.7-20.1,3.9-39,14.5-54
	c2.8-4.1,6.3-7.6,9.8-11.1c1.5-1.5,2.9-1.4,5.5,0.6c22.5,16.5,33.9,35.9,35.6,56.9c2,25,1.1,49.1,1.3,73.6
	c0.2,43,0.1,85.9,0.2,128.8c0,3-1,4-4.3,4C558.6,520.3,538,520.4,516.6,520.4z"/>
<g>
	<path class="st0" d="M121.1,651c0.3,0.1,0.6,0.4,0.8,0.9l7.7,13.8l7.6-13.8c0.3-0.5,0.6-0.8,0.8-0.9s0.7-0.2,1.2-0.2h3.3V676h-4.8
		l0-15.3l-5.9,10.6c-0.3,0.4-0.6,0.8-1,1c-0.4,0.2-0.8,0.3-1.3,0.3c-0.4,0-0.9-0.1-1.3-0.3c-0.4-0.2-0.7-0.5-1-1l-6-10.7V676h-4.8
		v-25.2h3.3C120.4,650.9,120.8,650.9,121.1,651z"/>
	<path class="st0" d="M160.1,650.9l10,25.2h-3.9c-1,0-1.7-0.5-2.1-1.4l-1.9-4.9h-8.9l-1.9,4.8c-0.1,0.4-0.4,0.7-0.7,1
		c-0.4,0.3-0.8,0.4-1.3,0.4h-3.9l10.1-25.2H160.1z M160.5,665.4l-2.7-7.1l-2.7,7.1H160.5z"/>
	<path class="st0" d="M176.6,651.1c0.3,0.1,0.5,0.4,0.8,0.8l11.4,14.8c0-0.2,0-0.4,0-0.7v-0.7v-14.4h4.8V676h-2.6
		c-0.5,0-0.8-0.1-1.1-0.2c-0.3-0.1-0.6-0.4-0.8-0.8l-11.4-14.8V676h-4.8v-25.2h2.7C176,650.9,176.4,650.9,176.6,651.1z"/>
	<path class="st0" d="M198.2,676v-25.2h5.2V676H198.2z"/>
	<path class="st0" d="M224.8,676v-25.2h5.2v20.4h10v4.7H224.8z"/>
	<path class="st0" d="M256,650.9l10,25.2h-3.9c-1,0-1.7-0.5-2.1-1.4l-1.9-4.9h-8.9l-1.9,4.8c-0.1,0.4-0.4,0.7-0.7,1
		c-0.4,0.3-0.8,0.4-1.3,0.4h-3.9l10.1-25.2H256z M256.5,665.4l-2.7-7.1l-2.7,7.1H256.5z"/>
	<path class="st0" d="M268.3,650.9c1.1,0,1.8,0.5,2.1,1.5l4.2,14.2l4.8-14.3c0.1-0.4,0.4-0.7,0.7-1c0.4-0.3,0.8-0.4,1.3-0.4h0.9
		c1.1,0,1.7,0.5,2.1,1.5l4.8,14.3l4.2-14.3c0.1-0.4,0.4-0.7,0.7-1c0.4-0.3,0.8-0.4,1.4-0.4h3.8l-7.8,25.2h-4.3l-5.4-16.3l-5.4,16.3
		h-4.4l-7.8-25.2H268.3z"/>
	<path class="st0" d="M310.3,676v-25.2h16.3v4.7h-11.1v5.9h9.5v4.7h-9.5v9.9H310.3z"/>
	<path class="st0" d="M330.3,676v-25.2h5.2V676H330.3z"/>
	<path class="st0" d="M340.1,650.9h7.5c3.3,0,5.7,0.7,7.2,2c1.5,1.3,2.3,3.1,2.3,5.4c0,1.6-0.4,3.1-1.2,4.2s-2,2.1-3.5,2.8
		c0.1,0.2,0.3,0.4,0.4,0.6c0.1,0.2,0.3,0.4,0.5,0.6l7,9.5h-4.9c-0.8,0-1.5-0.4-2.1-1.1l-6-8.2c-0.1-0.1-0.1-0.2-0.2-0.2
		s-0.2-0.1-0.4-0.1h-1.3v9.6h-5.2V650.9z M345.2,662h2.2c1.5,0,2.6-0.3,3.3-1c0.7-0.6,1.1-1.5,1.1-2.5c0-2-1.5-3-4.4-3.1h-2.4V662z"
		/>
	<path class="st0" d="M367,651c0.3,0.1,0.6,0.4,0.8,0.9l7.7,13.8l7.6-13.8c0.3-0.5,0.6-0.8,0.8-0.9s0.7-0.2,1.2-0.2h3.3V676h-4.8
		l0-15.3l-5.9,10.6c-0.3,0.4-0.6,0.8-1,1c-0.4,0.2-0.8,0.3-1.3,0.3c-0.4,0-0.9-0.1-1.3-0.3c-0.4-0.2-0.7-0.5-1-1l-6-10.7V676h-4.8
		v-25.2h3.3C366.3,650.9,366.7,650.9,367,651z"/>
	<path class="st0" d="M414,650.9l10,25.2h-3.9c-1,0-1.7-0.5-2.1-1.4l-1.9-4.9h-8.9l-1.9,4.8c-0.1,0.4-0.4,0.7-0.7,1
		c-0.4,0.3-0.8,0.4-1.3,0.4h-3.9l10.1-25.2H414z M414.4,665.4l-2.7-7.1l-2.7,7.1H414.4z"/>
	<path class="st0" d="M430.6,651.1c0.3,0.1,0.5,0.4,0.8,0.8l11.4,14.8c0-0.2,0-0.4,0-0.7v-0.7v-14.4h4.8V676H445
		c-0.5,0-0.8-0.1-1.1-0.2c-0.3-0.1-0.6-0.4-0.8-0.8l-11.4-14.8V676h-4.8v-25.2h2.7C430,650.9,430.3,650.9,430.6,651.1z"/>
	<path class="st0" d="M452.1,650.9h9.7c1.9,0,3.6,0.3,5.1,0.9c1.5,0.6,2.8,1.5,3.9,2.6s1.9,2.4,2.5,4s0.9,3.3,0.9,5.1
		c0,1.8-0.3,3.5-0.9,5.1c-0.6,1.5-1.4,2.9-2.5,4s-2.4,2-3.9,2.6c-1.5,0.6-3.2,0.9-5.1,0.9h-9.7V650.9z M467,669.3
		c1.3-1.4,1.9-3.3,1.9-5.8s-0.6-4.5-1.9-5.8c-1.3-1.4-3-2.1-5.2-2.1h-4.4v15.8h4.4C464,671.4,465.7,670.7,467,669.3z"/>
	<path class="st0" d="M486.5,676v-25.2h5.2v20.4h10v4.7H486.5z"/>
	<path class="st0" d="M505.5,676v-25.2h16.3v4.7h-11.1v5.5h9v4.6h-9v5.8h11.1v4.7H505.5z"/>
	<path class="st0" d="M532.9,675.4c-1.6-0.6-3-1.5-4.2-2.6s-2.1-2.5-2.7-4c-0.7-1.6-1-3.4-1-5.3c0-1.9,0.3-3.7,0.9-5.3
		c0.6-1.6,1.5-2.9,2.6-4.1s2.5-2,4.1-2.6c1.6-0.6,3.3-0.9,5.2-0.9c3.6,0,6.8,1.3,9.5,3.8c-0.2,0.4-0.5,0.7-0.7,1.1
		c-0.2,0.4-0.4,0.7-0.7,1.1s-0.5,0.6-0.7,0.7c-0.2,0.1-0.5,0.2-0.7,0.2c-0.2,0-0.4,0-0.6-0.1c-0.4-0.2-0.8-0.4-1.2-0.6
		c-0.3-0.2-0.7-0.4-1.1-0.6c-0.4-0.2-0.9-0.4-1.5-0.5c-0.6-0.2-1.4-0.2-2.3-0.2c-1.1,0-2.2,0.2-3.1,0.6c-0.9,0.4-1.7,0.9-2.4,1.6
		c-0.6,0.7-1.1,1.5-1.5,2.5c-0.4,1-0.5,2.1-0.5,3.3c0,2.6,0.7,4.6,2.1,6c1.4,1.4,3.3,2.2,5.7,2.2c0.8,0,1.6-0.1,2.3-0.2
		c0.7-0.2,1.3-0.4,1.9-0.7v-3.4h-2.5c-0.5,0-1-0.1-1.3-0.4s-0.5-0.7-0.5-1.2v-2.9h9.2v10.4c-1.4,1-2.8,1.8-4.3,2.3
		c-1.5,0.5-3.1,0.8-4.8,0.8C536.3,676.3,534.5,676,532.9,675.4z"/>
	<path class="st0" d="M563.3,650.9l10,25.2h-3.9c-1,0-1.7-0.5-2.1-1.4l-1.9-4.9h-8.9l-1.9,4.8c-0.1,0.4-0.4,0.7-0.7,1
		c-0.4,0.3-0.8,0.4-1.3,0.4h-3.9l10.1-25.2H563.3z M563.7,665.4l-2.7-7.1l-2.7,7.1H563.7z"/>
	<path class="st0" d="M576.1,676v-25.2h5.2v20.4h10v4.7H576.1z"/>
	<path class="st0" d="M614,676.1c-1.9,0-3.6-0.3-5.1-1c-1.5-0.7-2.7-1.6-3.8-2.8c-1-1.2-1.8-2.5-2.4-4.1c-0.5-1.6-0.8-3.2-0.8-5
		c0-1.8,0.3-3.5,0.9-5.1c0.6-1.6,1.4-2.9,2.5-4.1s2.4-2,3.9-2.7c1.5-0.7,3.2-1,5.1-1c1.8,0,3.4,0.3,4.9,1c1.5,0.7,2.9,1.6,4.1,2.8
		l-1.2,1.8c-0.5,0.7-1.1,1.1-1.8,1.1c-0.6,0-1.1-0.2-1.7-0.6c-0.6-0.4-1.2-0.7-1.9-0.9c-0.7-0.2-1.5-0.3-2.5-0.3
		c-1.1,0-2,0.2-2.9,0.5c-0.9,0.4-1.6,0.9-2.2,1.6c-0.6,0.7-1.1,1.5-1.4,2.5c-0.3,1-0.5,2.1-0.5,3.4c0,1.3,0.2,2.4,0.5,3.4
		c0.4,1,0.8,1.8,1.5,2.5c0.6,0.7,1.4,1.2,2.2,1.6s1.8,0.5,2.7,0.5c0.9,0,1.7-0.2,2.6-0.5s1.6-0.7,2.2-1.1c0.6-0.3,1.2-0.5,1.8-0.5
		c0.8,0,1.4,0.3,1.9,1l1,1.3C621.1,674.5,617.9,676.1,614,676.1z"/>
	<path class="st0" d="M633.8,675.3c-1.5-0.6-2.8-1.5-3.9-2.7s-1.9-2.5-2.5-4.1c-0.6-1.6-0.9-3.3-0.9-5.1c0-1.8,0.3-3.6,0.9-5.1
		s1.4-2.9,2.5-4.1c1.1-1.1,2.4-2,3.9-2.7c1.5-0.6,3.2-1,5.1-1c1.9,0,3.6,0.3,5.1,1c1.5,0.6,2.8,1.5,3.9,2.7c1.1,1.1,1.9,2.5,2.5,4.1
		c0.6,1.6,0.9,3.3,0.9,5.1c0,1.8-0.3,3.6-0.9,5.1c-0.6,1.6-1.4,2.9-2.5,4.1c-1.1,1.1-2.4,2-3.9,2.7c-1.5,0.6-3.2,1-5.1,1
		C637,676.3,635.3,676,633.8,675.3z M644.1,669.3c1.3-1.4,1.9-3.4,1.9-5.9c0-2.5-0.6-4.5-1.9-5.9c-1.3-1.4-3-2.1-5.2-2.1
		c-2.2,0-3.9,0.7-5.2,2.1c-1.3,1.4-1.9,3.4-1.9,5.9c0,2.5,0.6,4.5,1.9,5.9c1.3,1.4,3,2.1,5.2,2.1
		C641.1,671.4,642.8,670.7,644.1,669.3z"/>
	<path class="st0" d="M659.3,651.1c0.3,0.1,0.5,0.4,0.8,0.8l11.4,14.8c0-0.2,0-0.4,0-0.7v-0.7v-14.4h4.8V676h-2.6
		c-0.5,0-0.8-0.1-1.1-0.2c-0.3-0.1-0.6-0.4-0.8-0.8l-11.4-14.8V676h-4.8v-25.2h2.7C658.7,650.9,659.1,650.9,659.3,651.1z"/>
	<path class="st0" d="M683.6,675.2c-1.4-0.7-2.7-1.7-3.9-2.9l1.3-2.2c0.2-0.3,0.4-0.6,0.7-0.7c0.2-0.1,0.5-0.2,0.7-0.2
		c0.3,0,0.6,0.1,1,0.2c0.3,0.2,0.6,0.4,1,0.6c0.7,0.5,1.3,0.8,1.9,1.1s1.3,0.4,2.1,0.4c1.1,0,2-0.3,2.7-0.9c0.7-0.6,1-1.3,1-2.3
		c0-0.4-0.1-0.8-0.3-1.1s-0.5-0.6-0.9-0.8s-0.8-0.4-1.3-0.6c-0.5-0.2-1-0.3-1.5-0.5c-0.8-0.2-1.7-0.5-2.5-0.8
		c-0.8-0.3-1.6-0.8-2.3-1.3s-1.2-1.3-1.6-2.1c-0.4-0.9-0.6-1.9-0.6-3.2c0-1.1,0.2-2.2,0.7-3.1c0.4-0.9,1-1.7,1.8-2.3
		c0.7-0.6,1.6-1.1,2.6-1.5c1-0.3,2-0.5,3.1-0.5c2.9,0,5.4,1.1,7.6,3.2l-1.1,2.1c-0.4,0.7-0.9,1.1-1.5,1.1c-0.3,0-0.6-0.1-1-0.3
		c-0.4-0.2-0.7-0.4-0.9-0.5c-0.3-0.2-0.5-0.3-0.8-0.5c-0.3-0.1-0.6-0.3-0.9-0.3c-0.3-0.1-0.8-0.1-1.2-0.1c-1.1,0-1.9,0.2-2.4,0.7
		s-0.8,1.1-0.8,1.8c0,0.4,0.1,0.7,0.3,1s0.5,0.5,0.9,0.8c0.4,0.2,0.8,0.4,1.3,0.6c0.5,0.2,1,0.3,1.5,0.5c0.8,0.3,1.7,0.6,2.5,0.9
		c0.9,0.3,1.6,0.8,2.3,1.3c0.7,0.5,1.2,1.2,1.6,2s0.6,1.8,0.6,3.1c0,1.3-0.2,2.4-0.7,3.5c-0.4,1-1.1,1.9-1.9,2.6s-1.7,1.3-2.8,1.7
		c-1.1,0.4-2.2,0.6-3.5,0.6C686.5,676.3,685,676,683.6,675.2z"/>
	<path class="st0" d="M706.3,675.5c-1.3-0.5-2.3-1.3-3.2-2.2c-0.9-0.9-1.6-2-2-3.3c-0.5-1.3-0.7-2.6-0.7-4.1v-15.1h5.2v15.1
		c0,0.8,0.1,1.5,0.4,2.2c0.2,0.7,0.6,1.3,1,1.8c0.4,0.5,1,0.9,1.6,1.1c0.6,0.3,1.3,0.4,2.1,0.4c1.6,0,2.8-0.5,3.7-1.5
		c0.9-1,1.3-2.3,1.3-3.9v-15.1h5.2V666c0,1.5-0.2,2.8-0.7,4.1c-0.5,1.3-1.1,2.3-2,3.3c-0.9,0.9-2,1.7-3.2,2.2
		c-1.3,0.5-2.7,0.8-4.3,0.8C709,676.3,707.6,676,706.3,675.5z"/>
	<path class="st0" d="M725.4,676v-25.2h5.2v20.4h10v4.7H725.4z"/>
	<path class="st0" d="M747.4,676v-20.4h-7.5v-4.7H760v4.7h-7.5V676H747.4z"/>
	<path class="st0" d="M773.3,650.9l10,25.2h-3.9c-1,0-1.7-0.5-2.1-1.4l-1.9-4.9h-8.9l-1.9,4.8c-0.1,0.4-0.4,0.7-0.7,1
		c-0.4,0.3-0.8,0.4-1.3,0.4h-3.9l10.1-25.2H773.3z M773.7,665.4l-2.7-7.1l-2.7,7.1H773.7z"/>
	<path class="st0" d="M789.3,676v-20.4h-7.5v-4.7H802v4.7h-7.5V676H789.3z"/>
	<path class="st0" d="M805.9,676v-25.2h5.2V676H805.9z"/>
	<path class="st0" d="M822,675.3c-1.5-0.6-2.8-1.5-3.9-2.7s-1.9-2.5-2.5-4.1c-0.6-1.6-0.9-3.3-0.9-5.1c0-1.8,0.3-3.6,0.9-5.1
		s1.4-2.9,2.5-4.1c1.1-1.1,2.4-2,3.9-2.7c1.5-0.6,3.2-1,5.1-1c1.9,0,3.6,0.3,5.1,1c1.5,0.6,2.8,1.5,3.9,2.7c1.1,1.1,1.9,2.5,2.5,4.1
		c0.6,1.6,0.9,3.3,0.9,5.1c0,1.8-0.3,3.6-0.9,5.1c-0.6,1.6-1.4,2.9-2.5,4.1c-1.1,1.1-2.4,2-3.9,2.7c-1.5,0.6-3.2,1-5.1,1
		C825.2,676.3,823.5,676,822,675.3z M832.3,669.3c1.3-1.4,1.9-3.4,1.9-5.9c0-2.5-0.6-4.5-1.9-5.9c-1.3-1.4-3-2.1-5.2-2.1
		c-2.2,0-3.9,0.7-5.2,2.1c-1.3,1.4-1.9,3.4-1.9,5.9c0,2.5,0.6,4.5,1.9,5.9c1.3,1.4,3,2.1,5.2,2.1C829.3,671.4,831,670.7,832.3,669.3
		z"/>
	<path class="st0" d="M847.5,651.1c0.3,0.1,0.5,0.4,0.8,0.8l11.4,14.8c0-0.2,0-0.4,0-0.7v-0.7v-14.4h4.8V676h-2.6
		c-0.5,0-0.8-0.1-1.1-0.2c-0.3-0.1-0.6-0.4-0.8-0.8l-11.4-14.8V676h-4.8v-25.2h2.7C846.9,650.9,847.3,650.9,847.5,651.1z"/>
	<path class="st0" d="M871.7,675.2c-1.4-0.7-2.7-1.7-3.9-2.9l1.3-2.2c0.2-0.3,0.4-0.6,0.7-0.7c0.2-0.1,0.5-0.2,0.7-0.2
		c0.3,0,0.6,0.1,1,0.2c0.3,0.2,0.6,0.4,1,0.6c0.7,0.5,1.3,0.8,1.9,1.1s1.3,0.4,2.1,0.4c1.1,0,2-0.3,2.7-0.9c0.7-0.6,1-1.3,1-2.3
		c0-0.4-0.1-0.8-0.3-1.1s-0.5-0.6-0.9-0.8s-0.8-0.4-1.3-0.6c-0.5-0.2-1-0.3-1.5-0.5c-0.8-0.2-1.7-0.5-2.5-0.8
		c-0.8-0.3-1.6-0.8-2.3-1.3s-1.2-1.3-1.6-2.1c-0.4-0.9-0.6-1.9-0.6-3.2c0-1.1,0.2-2.2,0.7-3.1c0.4-0.9,1-1.7,1.8-2.3
		c0.7-0.6,1.6-1.1,2.6-1.5c1-0.3,2-0.5,3.1-0.5c2.9,0,5.4,1.1,7.6,3.2l-1.1,2.1c-0.4,0.7-0.9,1.1-1.5,1.1c-0.3,0-0.6-0.1-1-0.3
		c-0.4-0.2-0.7-0.4-0.9-0.5c-0.3-0.2-0.5-0.3-0.8-0.5c-0.3-0.1-0.6-0.3-0.9-0.3c-0.3-0.1-0.8-0.1-1.2-0.1c-1.1,0-1.9,0.2-2.4,0.7
		s-0.8,1.1-0.8,1.8c0,0.4,0.1,0.7,0.3,1s0.5,0.5,0.9,0.8c0.4,0.2,0.8,0.4,1.3,0.6c0.5,0.2,1,0.3,1.5,0.5c0.8,0.3,1.7,0.6,2.5,0.9
		c0.9,0.3,1.6,0.8,2.3,1.3c0.7,0.5,1.2,1.2,1.6,2s0.6,1.8,0.6,3.1c0,1.3-0.2,2.4-0.7,3.5c-0.4,1-1.1,1.9-1.9,2.6s-1.7,1.3-2.8,1.7
		c-1.1,0.4-2.2,0.6-3.5,0.6C874.7,676.3,873.2,676,871.7,675.2z"/>
</g>
<g>
	<path class="st0" d="M129.5,621.8h-6.8c-1.9,0-3.5-0.4-4.8-1.2c-1.3-0.8-2.3-1.8-3.1-3s-1.3-2.6-1.7-4.1c-0.3-1.5-0.5-3-0.5-4.5
		c0-1.8,0.2-3.4,0.7-5s1.1-3,2.1-4.2c0.9-1.2,2.1-2.2,3.5-2.9s3.1-1.1,5-1.1c0.8,0,1.6,0.1,2.3,0.3c0.7,0.2,1.4,0.4,1.9,0.7
		c0.7,0.3,1.3,0.6,1.8,1c0.3-0.6,0.6-1,1-1.2s0.8-0.4,1.1-0.4h3.6v19.4c0,0.1,0.1,0.2,0.2,0.2h3.8v6.1h-2.8c-1.4,0-2.7-0.4-3.7-1.2
		C132.1,621.3,130.9,621.8,129.5,621.8z M118.2,592c-0.7-0.7-1.1-1.6-1.1-2.6c0-1,0.4-1.9,1.1-2.6c0.7-0.7,1.6-1.1,2.6-1.1
		c1,0,1.9,0.4,2.6,1.1c0.7,0.7,1.1,1.6,1.1,2.6c0,1-0.4,1.9-1.1,2.6c-0.7,0.7-1.6,1.1-2.6,1.1C119.8,593,118.9,592.7,118.2,592z
		 M122.4,602.3c-0.6,0.4-1.1,0.9-1.5,1.5c-0.4,0.7-0.7,1.4-0.8,2.3s-0.2,1.7-0.2,2.7c0,0.7,0.1,1.5,0.2,2.3c0.1,0.8,0.3,1.6,0.6,2.3
		c0.3,0.7,0.7,1.2,1.3,1.7c0.6,0.4,1.3,0.7,2.2,0.7h4.6c0.1,0,0.1,0,0.1,0v-12.2c-1-1.1-2.3-1.7-3.9-1.7
		C123.8,601.7,123,601.9,122.4,602.3z M127.1,592c-0.7-0.7-1.1-1.6-1.1-2.6c0-1,0.4-1.9,1.1-2.6c0.7-0.7,1.6-1.1,2.6-1.1
		c1,0,1.9,0.4,2.6,1.1c0.7,0.7,1.1,1.6,1.1,2.6c0,1-0.4,1.9-1.1,2.6c-0.7,0.7-1.6,1.1-2.6,1.1C128.6,593,127.8,592.7,127.1,592z"/>
	<path class="st0" d="M138.5,621.7c-0.3,0-0.5,0-0.8-0.1c-0.2,0-0.4-0.1-0.6-0.3c-0.2-0.1-0.2-0.3-0.2-0.6v-4.1
		c0-0.2,0.1-0.4,0.3-0.5c0.2-0.1,0.4-0.2,0.6-0.3c0.2-0.1,0.5-0.1,0.8-0.1c0.3,0,0.5,0,0.7,0h7.9c0,0,0,0,0,0v-19.6h7v19.4
		c0,0.1,0.1,0.2,0.2,0.2h3.8v6.1h-2.8c-1.4,0-2.7-0.4-3.7-1.2c-1,0.8-2.2,1.2-3.7,1.2h-8.8C139,621.8,138.8,621.7,138.5,621.7z
		 M141.8,630.3c-0.7-0.7-1.1-1.6-1.1-2.6c0-1,0.4-1.9,1.1-2.6c0.7-0.7,1.6-1.1,2.6-1.1c1,0,1.9,0.4,2.6,1.1c0.7,0.7,1.1,1.6,1.1,2.6
		c0,1-0.4,1.9-1.1,2.6c-0.7,0.7-1.6,1.1-2.6,1.1C143.4,631.3,142.5,631,141.8,630.3z M150.6,630.3c-0.7-0.7-1.1-1.6-1.1-2.6
		c0-1,0.4-1.9,1.1-2.6c0.7-0.7,1.6-1.1,2.6-1.1c1,0,1.9,0.4,2.6,1.1c0.7,0.7,1.1,1.6,1.1,2.6c0,1-0.4,1.9-1.1,2.6
		c-0.7,0.7-1.6,1.1-2.6,1.1C152.2,631.3,151.4,631,150.6,630.3z"/>
	<path class="st0" d="M156.8,621.7c-0.3,0-0.5,0-0.8-0.1c-0.2,0-0.4-0.1-0.6-0.3c-0.2-0.1-0.2-0.3-0.2-0.6v-4.1
		c0-0.2,0.1-0.4,0.3-0.5c0.2-0.1,0.4-0.2,0.6-0.3c0.2-0.1,0.5-0.1,0.8-0.1c0.3,0,0.5,0,0.7,0h7.9c0.1,0,0.1,0,0.1,0v-19.6h6.9v19.6
		c0,0.8-0.2,1.6-0.5,2.3c-0.3,0.8-0.7,1.4-1.3,2c-0.6,0.6-1.2,1-2,1.3s-1.5,0.5-2.4,0.5h-8.8C157.4,621.8,157.1,621.7,156.8,621.7z
		 M166.4,591.6c-0.7-0.7-1.1-1.6-1.1-2.6c0-1,0.4-1.9,1.1-2.6c0.7-0.7,1.6-1.1,2.6-1.1c1,0,1.9,0.4,2.6,1.1c0.7,0.7,1.1,1.6,1.1,2.6
		c0,1-0.4,1.9-1.1,2.6c-0.7,0.7-1.6,1.1-2.6,1.1C168,592.6,167.1,592.3,166.4,591.6z"/>
	<path class="st0" d="M190.5,621.8c-2,0-3.7-0.3-5.2-0.9s-2.8-1.5-3.9-2.6c-1.1-1.1-1.9-2.5-2.4-4.1c-0.6-1.6-0.8-3.4-0.8-5.3
		c0-1.9,0.3-3.6,0.8-5.2c0.5-1.6,1.3-3,2.3-4.1c1-1.2,2.3-2.1,3.9-2.7c1.5-0.7,3.3-1,5.3-1c2,0,3.7,0.3,5.2,0.9s2.8,1.5,3.9,2.7
		c1,1.2,1.8,2.5,2.4,4.1c0.6,1.6,0.8,3.4,0.8,5.3v6.9h3.5v6.1h-3.5c0,1.3-0.3,2.5-0.8,3.6s-1.3,2.1-2.3,2.9c-1,0.8-2.2,1.4-3.7,1.9
		s-3.2,0.7-5.1,0.7c-1.5,0-2.6-0.1-3.5-0.3c-0.9-0.2-1.7-0.4-2.3-0.7l0.3-3.2c0.1-0.6,0.3-1,0.6-1.3c0.4-0.3,0.8-0.5,1.3-0.5
		c3,0,5.2-0.2,6.5-0.7c1.3-0.4,2-1.2,2-2.4H190.5z M195.8,615.7v-6.9c0-0.9-0.1-1.8-0.3-2.7c-0.2-0.8-0.5-1.6-0.9-2.2
		c-0.4-0.6-1-1.1-1.7-1.5c-0.7-0.4-1.5-0.6-2.5-0.6c-1,0-1.9,0.2-2.5,0.6s-1.2,0.9-1.6,1.5s-0.7,1.4-0.9,2.3
		c-0.2,0.9-0.2,1.8-0.2,2.7c0,0.9,0.1,1.7,0.3,2.5c0.2,0.8,0.5,1.5,0.9,2.2s1,1.1,1.6,1.5c0.7,0.4,1.5,0.6,2.5,0.6H195.8z"/>
	<path class="st0" d="M205.1,621.7c-0.3,0-0.5,0-0.8-0.1c-0.2,0-0.4-0.1-0.6-0.3c-0.2-0.1-0.2-0.3-0.2-0.6v-4.1
		c0-0.2,0.1-0.4,0.3-0.5c0.2-0.1,0.4-0.2,0.6-0.3c0.2-0.1,0.5-0.1,0.8-0.1c0.3,0,0.5,0,0.7,0h7.9c0.1,0,0.1,0,0.1,0v-19.6h6.9v19.6
		c0,0.8-0.2,1.6-0.5,2.3c-0.3,0.8-0.7,1.4-1.3,2c-0.6,0.6-1.2,1-2,1.3s-1.5,0.5-2.4,0.5h-8.8C205.6,621.8,205.3,621.7,205.1,621.7z
		 M214.6,591.6c-0.7-0.7-1.1-1.6-1.1-2.6c0-1,0.4-1.9,1.1-2.6c0.7-0.7,1.6-1.1,2.6-1.1c1,0,1.9,0.4,2.6,1.1c0.7,0.7,1.1,1.6,1.1,2.6
		c0,1-0.4,1.9-1.1,2.6c-0.7,0.7-1.6,1.1-2.6,1.1C216.2,592.6,215.3,592.3,214.6,591.6z"/>
	<path class="st0" d="M233.7,621.8c-0.8,0-1.6-0.2-2.4-0.5c-0.8-0.3-1.4-0.8-2-1.3c-0.6-0.6-1-1.2-1.3-2c-0.3-0.8-0.5-1.5-0.5-2.3
		v-29.9h6.9v29.9c0,0,0,0,0.1,0h3.9v6.1H233.7z"/>
	<path class="st0" d="M237.2,621.8c-0.2,0-0.5,0-0.8,0c-0.3,0-0.5,0-0.8-0.1c-0.2,0-0.4-0.1-0.6-0.3c-0.2-0.1-0.2-0.3-0.2-0.6v-4.1
		c0-0.2,0.1-0.4,0.3-0.5c0.2-0.1,0.4-0.2,0.6-0.3c0.2-0.1,0.5-0.1,0.8-0.1c0.3,0,0.5,0,0.7,0h6.8c-1-2-1.6-4.3-1.6-6.9
		c0-1.9,0.3-3.6,0.8-5.2c0.5-1.6,1.3-3,2.3-4.1c1-1.2,2.3-2.1,3.8-2.7s3.3-1,5.3-1c2,0,3.7,0.3,5.3,1c1.5,0.6,2.8,1.5,3.9,2.7
		c1,1.1,1.8,2.5,2.4,4.1c0.6,1.6,0.8,3.4,0.8,5.3v6.9h3.5v6.1H237.2z M247.8,591.6c-0.7-0.7-1.1-1.6-1.1-2.6c0-1,0.4-1.9,1.1-2.6
		c0.7-0.7,1.6-1.1,2.6-1.1c1,0,1.9,0.4,2.6,1.1c0.7,0.7,1.1,1.6,1.1,2.6c0,1-0.4,1.9-1.1,2.6c-0.7,0.7-1.6,1.1-2.6,1.1
		C249.4,592.6,248.5,592.3,247.8,591.6z M260,608.8c0-0.9-0.1-1.8-0.2-2.7c-0.2-0.8-0.4-1.6-0.9-2.2c-0.4-0.6-0.9-1.1-1.6-1.5
		s-1.5-0.6-2.5-0.6c-1,0-1.8,0.2-2.5,0.5c-0.7,0.4-1.2,0.8-1.6,1.5c-0.4,0.6-0.7,1.3-0.9,2.2c-0.2,0.8-0.3,1.7-0.3,2.7
		c0,0.9,0.1,1.8,0.3,2.7c0.2,0.8,0.5,1.6,0.9,2.2c0.4,0.6,1,1.1,1.6,1.5c0.7,0.4,1.5,0.5,2.5,0.5h5.2V608.8z M256.6,591.6
		c-0.7-0.7-1.1-1.6-1.1-2.6c0-1,0.4-1.9,1.1-2.6c0.7-0.7,1.6-1.1,2.6-1.1c1,0,1.9,0.4,2.6,1.1c0.7,0.7,1.1,1.6,1.1,2.6
		c0,1-0.4,1.9-1.1,2.6c-0.7,0.7-1.6,1.1-2.6,1.1C258.2,592.6,257.3,592.3,256.6,591.6z"/>
	<path class="st0" d="M276.8,615.6v-29.9h6.9v29.9c0,0.8-0.2,1.6-0.5,2.3c-0.3,0.8-0.8,1.4-1.3,2c-0.6,0.6-1.2,1-2,1.3
		s-1.5,0.5-2.4,0.5h-7.4c-0.2,0-0.5,0-0.8,0c-0.3,0-0.5,0-0.8-0.1c-0.2,0-0.4-0.1-0.6-0.3c-0.2-0.1-0.2-0.3-0.2-0.6v-4.1
		c0-0.2,0.1-0.4,0.3-0.5c0.2-0.1,0.4-0.2,0.6-0.3c0.2-0.1,0.5-0.1,0.8-0.1c0.3,0,0.5,0,0.7,0L276.8,615.6
		C276.7,615.7,276.8,615.7,276.8,615.6z"/>
	<path class="st0" d="M289.6,621.8v-36h6.9v36H289.6z"/>
	<path class="st0" d="M318.9,620.7c-1.4-0.7-2.6-1.7-3.6-2.9c-1-1.2-1.7-2.6-2.2-4.2c-0.5-1.6-0.7-3.3-0.7-5c0-1.8,0.3-3.5,0.9-5.4
		s1.6-3.5,3.1-5h1.4l2.1,2.1c0.5,0.6,0.7,1.1,0.8,1.7c0.1,0.6,0,1.2-0.3,1.9c-0.4,0.7-0.6,1.5-0.8,2.2c-0.1,0.8-0.2,1.6-0.2,2.4
		c0,0.9,0.1,1.7,0.3,2.6c0.2,0.8,0.5,1.6,0.9,2.3c0.4,0.7,0.9,1.2,1.6,1.6c0.7,0.4,1.5,0.6,2.4,0.6h17.1c0,0,0,0,0,0v-19.6h6.9v19.6
		c0,0.8-0.2,1.6-0.5,2.3c-0.3,0.8-0.7,1.4-1.3,2c-0.6,0.6-1.2,1-2,1.3c-0.8,0.3-1.5,0.5-2.4,0.5h-18.7
		C322,621.8,320.4,621.4,318.9,620.7z M323.8,598.7c-0.7-0.7-1.1-1.6-1.1-2.6c0-1,0.4-1.9,1.1-2.6c0.7-0.7,1.6-1.1,2.6-1.1
		c1,0,1.9,0.4,2.6,1.1c0.7,0.7,1.1,1.6,1.1,2.6c0,1-0.4,1.9-1.1,2.6c-0.7,0.7-1.6,1.1-2.6,1.1C325.4,599.7,324.5,599.4,323.8,598.7z
		 M332.7,598.7c-0.7-0.7-1.1-1.6-1.1-2.6c0-1,0.4-1.9,1.1-2.6c0.7-0.7,1.6-1.1,2.6-1.1c1,0,1.9,0.4,2.6,1.1c0.7,0.7,1.1,1.6,1.1,2.6
		c0,1-0.4,1.9-1.1,2.6c-0.7,0.7-1.6,1.1-2.6,1.1C334.3,599.7,333.4,599.4,332.7,598.7z"/>
	<path class="st0" d="M354.6,621.8v-36h6.9v36H354.6z"/>
	<path class="st0" d="M365.2,629.8l0.4-3.3c0.1-0.5,0.2-0.8,0.3-1c0.1-0.2,0.3-0.4,0.6-0.5c0.2-0.1,0.5-0.1,0.8-0.1h1.1
		c1.3,0,1.9-0.7,1.9-2v-26.8h6.9v26.8c0,2.4-0.7,4.4-2,5.8c-1.3,1.4-3.3,2.2-5.9,2.2C368.1,630.8,366.8,630.5,365.2,629.8z"/>
	<path class="st0" d="M389.3,621.8c-0.8,0-1.6-0.2-2.4-0.5c-0.8-0.3-1.4-0.8-2-1.3c-0.6-0.6-1-1.2-1.3-2c-0.3-0.8-0.5-1.5-0.5-2.3
		v-29.9h6.9v29.9c0,0,0,0,0.1,0h3.9v6.1H389.3z"/>
	<path class="st0" d="M424.9,601.7c-0.3-0.7-0.4-1.4-0.5-2.1c0-0.7,0.3-1.3,0.9-1.9l2.7-2.6c3.1,3.2,4.6,6.8,4.6,10.8v9.6
		c0,0.1,0.1,0.1,0.2,0.1h3.8v6.1h-2.8c-1.4,0-2.6-0.4-3.6-1.2c-1,0.8-2.3,1.2-3.7,1.2h-4.6c-1.6,0-3-0.4-4.2-1.2
		c-1,0.8-2.2,1.2-3.7,1.2h-4.6c-1.6,0-3-0.4-4.2-1.2c-1,0.8-2.2,1.2-3.7,1.2h-8.8c-0.2,0-0.5,0-0.8,0c-0.3,0-0.5,0-0.8-0.1
		c-0.2,0-0.4-0.1-0.6-0.3c-0.2-0.1-0.2-0.3-0.2-0.6v-4.1c0-0.2,0.1-0.4,0.3-0.5c0.2-0.1,0.4-0.2,0.6-0.3c0.2-0.1,0.5-0.1,0.8-0.1
		c0.3,0,0.5,0,0.7,0h7.9c0.1,0,0.1,0,0.1,0v-16.4h6.9v16.3c0,0.1,0.1,0.1,0.2,0.1h5.2c0.1,0,0.1,0,0.1,0v-16.4h6.9v16.3
		c0,0.1,0.1,0.1,0.2,0.1h5.2c0.1,0,0.1,0,0.1,0v-9.7C425.7,604.4,425.4,603,424.9,601.7z M409.1,594.3c-0.7-0.7-1.1-1.6-1.1-2.6
		c0-1,0.4-1.9,1.1-2.6c0.7-0.7,1.6-1.1,2.6-1.1c1,0,1.9,0.4,2.6,1.1c0.7,0.7,1.1,1.6,1.1,2.6c0,1-0.4,1.9-1.1,2.6
		c-0.7,0.7-1.6,1.1-2.6,1.1C410.7,595.4,409.8,595,409.1,594.3z M413.6,586.9c-0.7-0.7-1.1-1.6-1.1-2.6c0-1,0.4-1.9,1.1-2.6
		c0.7-0.7,1.6-1.1,2.6-1.1c1,0,1.9,0.4,2.6,1.1c0.7,0.7,1.1,1.6,1.1,2.6c0,1-0.4,1.9-1.1,2.6c-0.7,0.7-1.6,1.1-2.6,1.1
		C415.2,588,414.3,587.6,413.6,586.9z M418,594.3c-0.7-0.7-1.1-1.6-1.1-2.6c0-1,0.4-1.9,1.1-2.6c0.7-0.7,1.6-1.1,2.6-1.1
		c1,0,1.9,0.4,2.6,1.1c0.7,0.7,1.1,1.6,1.1,2.6c0,1-0.4,1.9-1.1,2.6c-0.7,0.7-1.6,1.1-2.6,1.1C419.6,595.4,418.7,595,418,594.3z"/>
	<path class="st0" d="M435.5,621.7c-0.3,0-0.5,0-0.8-0.1c-0.2,0-0.4-0.1-0.6-0.3c-0.2-0.1-0.2-0.3-0.2-0.6v-4.1
		c0-0.2,0.1-0.4,0.3-0.5c0.2-0.1,0.4-0.2,0.6-0.3c0.2-0.1,0.5-0.1,0.8-0.1c0.3,0,0.5,0,0.7,0h7.9c0,0,0,0,0,0v-19.6h7v19.4
		c0,0.1,0.1,0.2,0.2,0.2h3.8v6.1h-2.8c-1.4,0-2.7-0.4-3.7-1.2c-1,0.8-2.2,1.2-3.7,1.2h-8.8C436,621.8,435.7,621.7,435.5,621.7z
		 M440.1,591.6c-0.7-0.7-1.1-1.6-1.1-2.6c0-1,0.4-1.9,1.1-2.6c0.7-0.7,1.6-1.1,2.6-1.1c1,0,1.9,0.4,2.6,1.1c0.7,0.7,1.1,1.6,1.1,2.6
		c0,1-0.4,1.9-1.1,2.6c-0.7,0.7-1.6,1.1-2.6,1.1C441.7,592.6,440.9,592.3,440.1,591.6z M449,591.6c-0.7-0.7-1.1-1.6-1.1-2.6
		c0-1,0.4-1.9,1.1-2.6c0.7-0.7,1.6-1.1,2.6-1.1c1,0,1.9,0.4,2.6,1.1c0.7,0.7,1.1,1.6,1.1,2.6c0,1-0.4,1.9-1.1,2.6
		c-0.7,0.7-1.6,1.1-2.6,1.1C450.6,592.6,449.7,592.3,449,591.6z"/>
	<path class="st0" d="M486.9,601.7c-0.3-0.7-0.4-1.4-0.5-2.1c0-0.7,0.3-1.3,0.9-1.9l2.7-2.6c3.1,3.2,4.6,6.8,4.6,10.8v9.7
		c0,0.8-0.2,1.6-0.5,2.3c-0.3,0.8-0.8,1.4-1.3,2c-0.6,0.6-1.2,1-2,1.3c-0.8,0.3-1.5,0.5-2.4,0.5h-4.6c-1.6,0-3-0.4-4.2-1.2
		c-1,0.8-2.2,1.2-3.7,1.2h-4.6c-1.6,0-3-0.4-4.2-1.2c-1,0.8-2.2,1.2-3.7,1.2h-8.8c-0.2,0-0.5,0-0.8,0c-0.3,0-0.5,0-0.8-0.1
		c-0.2,0-0.4-0.1-0.6-0.3c-0.2-0.1-0.2-0.3-0.2-0.6v-4.1c0-0.2,0.1-0.4,0.3-0.5c0.2-0.1,0.4-0.2,0.6-0.3c0.2-0.1,0.5-0.1,0.8-0.1
		c0.3,0,0.5,0,0.7,0h7.9c0.1,0,0.1,0,0.1,0v-16.4h6.9v16.3c0,0.1,0.1,0.1,0.2,0.1h5.2c0.1,0,0.1,0,0.1,0v-16.4h6.9v16.3
		c0,0.1,0.1,0.1,0.2,0.1h5.2c0.1,0,0.1,0,0.1,0v-9.7C487.6,604.4,487.4,603,486.9,601.7z"/>
	<path class="st0" d="M498.6,620.8c0-0.3,0.1-0.5,0.1-0.7c0-0.2,0-0.4,0-0.6c0-0.2,0-0.5,0.1-0.8c0-0.3,0.1-0.7,0.1-1.1
		c0.1-0.6,0.3-1,0.7-1.4s0.9-0.5,1.4-0.5h14.6c0.1,0,0.1,0,0.1-0.1v-29.8h7v29.9c0,0.8-0.2,1.6-0.5,2.4s-0.8,1.4-1.3,2
		c-0.6,0.6-1.2,1-2,1.3c-0.8,0.3-1.6,0.5-2.4,0.5h-13.8C501.6,621.8,500.2,621.4,498.6,620.8z M503.2,611.6v-18.6h6.9v18.6H503.2z"
		/>
	<path class="st0" d="M528.6,621.8v-36h6.9v36H528.6z"/>
	<path class="st0" d="M541,603.7c0.5-1.6,1.3-3,2.3-4.2c1-1.2,2.3-2.1,3.8-2.8s3.3-1,5.4-1c2,0,3.7,0.3,5.2,1
		c1.5,0.6,2.8,1.5,3.9,2.7s1.9,2.5,2.4,4.2s0.8,3.4,0.8,5.4v11.2c0,3.7-1,6.4-3.1,8.1c-2,1.7-5,2.6-8.8,2.6c-1.5,0-2.6-0.1-3.5-0.3
		c-0.9-0.2-1.7-0.4-2.3-0.7l0.3-3.3c0.1-0.6,0.3-1,0.6-1.3c0.4-0.3,0.8-0.5,1.3-0.5c3,0,5.2-0.2,6.5-0.7c1.3-0.5,2-1.4,2-2.8v-0.1
		c-0.7,0.3-1.4,0.5-2.3,0.7c-0.9,0.2-1.9,0.3-3,0.3c-2,0-3.7-0.3-5.3-1c-1.5-0.6-2.8-1.5-3.9-2.7c-1-1.2-1.8-2.6-2.4-4.2
		c-0.6-1.6-0.8-3.4-0.8-5.4C540.2,607,540.5,605.3,541,603.7z M550.1,602.4c-0.7,0.4-1.2,0.9-1.6,1.5c-0.4,0.6-0.7,1.4-0.9,2.2
		c-0.2,0.9-0.3,1.8-0.3,2.7s0.1,1.8,0.3,2.7c0.2,0.8,0.5,1.6,0.9,2.3c0.4,0.7,1,1.2,1.6,1.6c0.7,0.4,1.5,0.6,2.5,0.6
		c1.2,0,2.2-0.1,2.9-0.4c0.7-0.2,1.2-0.6,1.5-1c0.3-0.4,0.6-1,0.6-1.6s0.1-1.4,0.1-2.2v-1.9c0-0.9-0.1-1.8-0.2-2.7
		c-0.2-0.8-0.4-1.6-0.8-2.2c-0.4-0.7-0.9-1.2-1.6-1.5c-0.7-0.4-1.5-0.6-2.5-0.6C551.6,601.8,550.8,602,550.1,602.4z"/>
	<path class="st0" d="M580.5,603.9c0.5-1.6,1.1-3,2.1-4.2c0.9-1.2,2.1-2.2,3.5-2.9s3.1-1.1,5-1.1c0.8,0,1.6,0.1,2.3,0.3
		c0.7,0.2,1.4,0.4,1.9,0.7c0.7,0.3,1.3,0.6,1.8,1c0.3-0.6,0.6-1,1-1.2s0.8-0.4,1.1-0.4h3.6v19.6c0,0.8-0.2,1.6-0.5,2.3
		c-0.3,0.8-0.8,1.4-1.3,2c-0.6,0.6-1.2,1-2,1.3c-0.8,0.3-1.5,0.5-2.4,0.5h-6.8c-1.9,0-3.5-0.4-4.8-1.2c-1.3-0.8-2.3-1.8-3.1-3
		s-1.3-2.6-1.7-4.1c-0.3-1.5-0.5-3-0.5-4.5C579.8,607.2,580.1,605.5,580.5,603.9z M585.3,591.6c-0.7-0.7-1.1-1.6-1.1-2.6
		c0-1,0.4-1.9,1.1-2.6c0.7-0.7,1.6-1.1,2.6-1.1c1,0,1.9,0.4,2.6,1.1c0.7,0.7,1.1,1.6,1.1,2.6c0,1-0.4,1.9-1.1,2.6
		c-0.7,0.7-1.6,1.1-2.6,1.1C586.9,592.6,586,592.3,585.3,591.6z M589.6,602.3c-0.6,0.4-1.1,0.9-1.5,1.5c-0.4,0.7-0.7,1.4-0.8,2.3
		s-0.2,1.7-0.2,2.7c0,0.7,0.1,1.5,0.2,2.3c0.1,0.8,0.3,1.6,0.6,2.3c0.3,0.7,0.7,1.2,1.3,1.7c0.6,0.4,1.3,0.7,2.2,0.7h4.6
		c0.1,0,0.1,0,0.1,0v-12.2c-1-1.1-2.3-1.7-3.9-1.7C591,601.7,590.2,601.9,589.6,602.3z M594.2,591.6c-0.7-0.7-1.1-1.6-1.1-2.6
		c0-1,0.4-1.9,1.1-2.6c0.7-0.7,1.6-1.1,2.6-1.1c1,0,1.9,0.4,2.6,1.1c0.7,0.7,1.1,1.6,1.1,2.6c0,1-0.4,1.9-1.1,2.6
		c-0.7,0.7-1.6,1.1-2.6,1.1C595.8,592.6,594.9,592.3,594.2,591.6z"/>
	<path class="st0" d="M614.9,621.8c-0.8,0-1.6-0.2-2.4-0.5c-0.8-0.3-1.4-0.8-2-1.3c-0.6-0.6-1-1.2-1.3-2c-0.3-0.8-0.5-1.5-0.5-2.3
		v-29.9h6.9v29.9c0,0,0,0,0.1,0h3.9v6.1H614.9z"/>
	<path class="st0" d="M630.3,619.8c-1.2,1.3-2.7,1.9-4.5,1.9h-7.4c-0.2,0-0.5,0-0.8,0c-0.3,0-0.5,0-0.8-0.1c-0.2,0-0.4-0.1-0.6-0.3
		c-0.2-0.1-0.2-0.3-0.2-0.6v-4.1c0-0.2,0.1-0.4,0.3-0.5c0.2-0.1,0.4-0.2,0.6-0.3c0.2-0.1,0.5-0.1,0.8-0.1c0.3,0,0.5,0,0.7,0h6.5
		c0,0,0,0,0,0v-6.9c0-1.9,0.3-3.6,0.8-5.2c0.5-1.6,1.3-3,2.4-4.1c1-1.2,2.3-2.1,3.9-2.7c1.5-0.7,3.3-1,5.3-1c2,0,3.7,0.3,5.2,1
		c1.5,0.6,2.8,1.5,3.8,2.7c1,1.1,1.8,2.5,2.4,4.1c0.6,1.6,0.8,3.4,0.8,5.3v6.8c0,1.9-0.6,3.4-1.7,4.5c-1.1,1.1-2.6,1.7-4.5,1.7h-6.2
		C634.6,621.8,632.3,621.1,630.3,619.8z M642.5,615.5v-6.8c0-0.9-0.1-1.8-0.2-2.7s-0.4-1.6-0.8-2.2c-0.4-0.6-0.9-1.1-1.6-1.5
		c-0.7-0.4-1.5-0.5-2.5-0.5c-1,0-1.8,0.2-2.5,0.5c-0.7,0.3-1.2,0.8-1.6,1.4s-0.7,1.4-0.9,2.2c-0.2,0.8-0.3,1.8-0.3,2.7v0.9
		c0,1.8,0.4,3.2,1.2,4.4s2.2,1.7,4,1.7h5.1C642.4,615.7,642.5,615.6,642.5,615.5z"/>
	<path class="st0" d="M661.6,621.8c-0.8,0-1.6-0.2-2.4-0.5c-0.8-0.3-1.4-0.8-2-1.3c-0.6-0.6-1-1.2-1.3-2c-0.3-0.8-0.5-1.5-0.5-2.3
		v-29.9h6.9v29.9c0,0,0,0,0.1,0h3.9v6.1H661.6z"/>
	<path class="st0" d="M665.2,621.8c-0.2,0-0.5,0-0.8,0c-0.3,0-0.5,0-0.8-0.1c-0.2,0-0.4-0.1-0.6-0.3c-0.2-0.1-0.2-0.3-0.2-0.6v-4.1
		c0-0.2,0.1-0.4,0.3-0.5c0.2-0.1,0.4-0.2,0.6-0.3c0.2-0.1,0.5-0.1,0.8-0.1c0.3,0,0.5,0,0.7,0H687c-0.8-2.9-1.5-5.2-2.1-7
		c-0.5-1.8-0.9-3-1.1-3.7c-0.3-0.9-0.8-1.6-1.6-2.3c-0.8-0.6-1.9-0.9-3.3-0.9c-0.8,0-1.4,0.1-1.8,0.2c-0.5,0.2-1,0.4-1.6,0.8
		c-0.6,0.5-1.2,0.7-1.9,0.7c-0.8,0-1.4-0.4-2-1.2c0-0.1-0.1-0.2-0.3-0.5s-0.4-0.5-0.6-0.8c-0.2-0.3-0.4-0.5-0.6-0.8
		c-0.2-0.2-0.3-0.4-0.3-0.4c3-2.9,6.1-4.3,9.4-4.3c2.7,0,5,0.7,7,2.1c2,1.4,3.5,3.4,4.4,6.2c0.1,0.3,0.2,0.6,0.3,1s0.3,0.9,0.4,1.4
		l2.1,6.8c0.2,0.5,0.3,1,0.4,1.4c0.1,0.4,0.2,0.8,0.3,1h1v6.1H665.2z"/>
	<path class="st0" d="M706.2,619.8c-1.2,1.3-2.7,1.9-4.5,1.9h-6.9c-0.2,0-0.5,0-0.8,0c-0.3,0-0.5,0-0.8-0.1c-0.2,0-0.4-0.1-0.6-0.3
		c-0.2-0.1-0.2-0.3-0.2-0.6v-4.1c0-0.2,0.1-0.4,0.3-0.5c0.2-0.1,0.4-0.2,0.6-0.3c0.2-0.1,0.5-0.1,0.8-0.1c0.3,0,0.5,0,0.7,0h6
		c0,0,0,0,0,0v-6.9c0-1.9,0.3-3.6,0.8-5.2c0.5-1.6,1.3-3,2.4-4.1c1-1.2,2.3-2.1,3.9-2.7c1.5-0.7,3.3-1,5.3-1c2,0,3.7,0.3,5.2,1
		c1.5,0.6,2.8,1.5,3.8,2.7c1,1.1,1.8,2.5,2.4,4.1c0.6,1.6,0.8,3.4,0.8,5.3v6.8c0,0.1,0.1,0.1,0.2,0.1h3.3v6.1h-2.3
		c-1.4,0-2.5-0.4-3.5-1.2c-0.5,0.4-1.1,0.6-1.7,0.9c-0.6,0.2-1.3,0.3-2.1,0.3h-6.2C710.4,621.8,708.1,621.1,706.2,619.8z
		 M710.7,602.4c-0.7,0.3-1.2,0.8-1.6,1.4s-0.7,1.4-0.9,2.2c-0.2,0.8-0.3,1.8-0.3,2.7v0.9c0,1.8,0.4,3.2,1.2,4.4s2.2,1.7,4,1.7h5.1
		c0.1,0,0.1,0,0.1-0.1v-6.8c0-0.9-0.1-1.8-0.2-2.7s-0.4-1.6-0.8-2.2c-0.4-0.6-0.9-1.1-1.6-1.5c-0.7-0.4-1.5-0.5-2.5-0.5
		C712.2,601.8,711.3,602,710.7,602.4z"/>
	<path class="st0" d="M727.8,621.7c-0.3,0-0.5,0-0.8-0.1c-0.2,0-0.4-0.1-0.6-0.3c-0.2-0.1-0.2-0.3-0.2-0.6v-4.1
		c0-0.2,0.1-0.4,0.3-0.5c0.2-0.1,0.4-0.2,0.6-0.3c0.2-0.1,0.5-0.1,0.8-0.1c0.3,0,0.5,0,0.7,0h7.9c0,0,0,0,0,0v-29.9h7v29.7
		c0,0.1,0.1,0.2,0.2,0.2h3.8v6.1h-2.8c-1.4,0-2.7-0.4-3.7-1.2c-1,0.8-2.2,1.2-3.7,1.2h-8.8C728.3,621.8,728,621.7,727.8,621.7z"/>
	<path class="st0" d="M753.7,615.6v-29.9h6.9v29.9c0,0.8-0.2,1.6-0.5,2.3c-0.3,0.8-0.8,1.4-1.3,2c-0.6,0.6-1.2,1-2,1.3
		s-1.5,0.5-2.4,0.5h-7.4c-0.2,0-0.5,0-0.8,0c-0.3,0-0.5,0-0.8-0.1c-0.2,0-0.4-0.1-0.6-0.3c-0.2-0.1-0.2-0.3-0.2-0.6v-4.1
		c0-0.2,0.1-0.4,0.3-0.5c0.2-0.1,0.4-0.2,0.6-0.3c0.2-0.1,0.5-0.1,0.8-0.1c0.3,0,0.5,0,0.7,0L753.7,615.6
		C753.7,615.7,753.7,615.7,753.7,615.6z"/>
	<path class="st0" d="M819.2,621.8c-0.8,0-1.6-0.2-2.4-0.5s-1.4-0.8-1.9-1.3c-0.6-0.6-1-1.2-1.3-2c-0.3-0.8-0.5-1.5-0.5-2.3v-13.5
		h-3.9l0,0v13.4c0,0.8-0.2,1.6-0.5,2.4c-0.3,0.8-0.8,1.4-1.3,2c-0.6,0.6-1.2,1-2,1.3s-1.6,0.5-2.4,0.5h-15.3c-1.8,0-3.4-0.4-4.8-1.1
		c-1.4-0.7-2.6-1.7-3.5-2.9s-1.7-2.6-2.1-4.2c-0.5-1.6-0.7-3.3-0.7-5c0-1.8,0.3-3.5,0.9-5.4s1.6-3.5,3.1-5h1.4l2.1,2.1
		c0.5,0.5,0.7,1.1,0.8,1.7c0.1,0.6,0,1.3-0.3,1.9c-0.6,1.2-0.9,2.7-0.9,4.6c0,0.9,0.1,1.7,0.2,2.6c0.2,0.8,0.4,1.6,0.8,2.3
		c0.4,0.7,0.9,1.2,1.5,1.6c0.6,0.4,1.4,0.6,2.3,0.6h13.6c0,0,0,0,0,0v-13.4c0-0.9,0.2-1.7,0.5-2.4c0.3-0.8,0.8-1.4,1.3-2
		c0.6-0.6,1.2-1,2-1.3c0.8-0.3,1.5-0.5,2.4-0.5H820v19.6l0,0h3.9v6.1H819.2z M788.1,630.3c-0.7-0.7-1.1-1.6-1.1-2.6
		c0-1,0.4-1.9,1.1-2.6c0.7-0.7,1.6-1.1,2.6-1.1c1,0,1.9,0.4,2.6,1.1c0.7,0.7,1.1,1.6,1.1,2.6c0,1-0.4,1.9-1.1,2.6
		c-0.7,0.7-1.6,1.1-2.6,1.1C789.7,631.3,788.8,631,788.1,630.3z M797,630.3c-0.7-0.7-1.1-1.6-1.1-2.6c0-1,0.4-1.9,1.1-2.6
		c0.7-0.7,1.6-1.1,2.6-1.1c1,0,1.9,0.4,2.6,1.1c0.7,0.7,1.1,1.6,1.1,2.6c0,1-0.4,1.9-1.1,2.6c-0.7,0.7-1.6,1.1-2.6,1.1
		C798.6,631.3,797.7,631,797,630.3z"/>
	<path class="st0" d="M822.8,621.7c-0.3,0-0.5,0-0.8-0.1c-0.2,0-0.4-0.1-0.6-0.3c-0.2-0.1-0.2-0.3-0.2-0.6v-4.1
		c0-0.2,0.1-0.4,0.3-0.5c0.2-0.1,0.4-0.2,0.6-0.3c0.2-0.1,0.5-0.1,0.8-0.1c0.3,0,0.5,0,0.7,0h7.9c0.1,0,0.1,0,0.1,0v-19.6h6.9v19.6
		c0,0.8-0.2,1.6-0.5,2.3c-0.3,0.8-0.7,1.4-1.3,2c-0.6,0.6-1.2,1-2,1.3s-1.5,0.5-2.4,0.5h-8.8C823.4,621.8,823.1,621.7,822.8,621.7z
		 M832.4,591.6c-0.7-0.7-1.1-1.6-1.1-2.6c0-1,0.4-1.9,1.1-2.6c0.7-0.7,1.6-1.1,2.6-1.1c1,0,1.9,0.4,2.6,1.1c0.7,0.7,1.1,1.6,1.1,2.6
		c0,1-0.4,1.9-1.1,2.6c-0.7,0.7-1.6,1.1-2.6,1.1C834,592.6,833.1,592.3,832.4,591.6z"/>
	<path class="st0" d="M851.5,621.8c-0.8,0-1.6-0.2-2.4-0.5c-0.8-0.3-1.4-0.8-2-1.3c-0.6-0.6-1-1.2-1.3-2c-0.3-0.8-0.5-1.5-0.5-2.3
		v-29.9h6.9v29.9c0,0,0,0,0.1,0h3.9v6.1H851.5z"/>
	<path class="st0" d="M866.9,619.8c-1.2,1.3-2.7,1.9-4.5,1.9H855c-0.2,0-0.5,0-0.8,0c-0.3,0-0.5,0-0.8-0.1c-0.2,0-0.4-0.1-0.6-0.3
		c-0.2-0.1-0.2-0.3-0.2-0.6v-4.1c0-0.2,0.1-0.4,0.3-0.5c0.2-0.1,0.4-0.2,0.6-0.3c0.2-0.1,0.5-0.1,0.8-0.1c0.3,0,0.5,0,0.7,0h6.5
		c0,0,0,0,0,0v-6.9c0-1.9,0.3-3.6,0.8-5.2c0.5-1.6,1.3-3,2.4-4.1c1-1.2,2.3-2.1,3.9-2.7c1.5-0.7,3.3-1,5.3-1c2,0,3.7,0.3,5.2,1
		c1.5,0.6,2.8,1.5,3.8,2.7c1,1.1,1.8,2.5,2.4,4.1c0.6,1.6,0.8,3.4,0.8,5.3v6.8c0,1.9-0.6,3.4-1.7,4.5c-1.1,1.1-2.6,1.7-4.5,1.7h-6.2
		C871.2,621.8,868.8,621.1,866.9,619.8z M879.1,615.5v-6.8c0-0.9-0.1-1.8-0.2-2.7s-0.4-1.6-0.8-2.2c-0.4-0.6-0.9-1.1-1.6-1.5
		c-0.7-0.4-1.5-0.5-2.5-0.5c-1,0-1.8,0.2-2.5,0.5c-0.7,0.3-1.2,0.8-1.6,1.4s-0.7,1.4-0.9,2.2c-0.2,0.8-0.3,1.8-0.3,2.7v0.9
		c0,1.8,0.4,3.2,1.2,4.4s2.2,1.7,4,1.7h5.1C879,615.7,879.1,615.6,879.1,615.5z"/>
</g>
<g>
	<g>
		<g>
			<path class="st0" d="M595.3,725c-0.7,0-1.4-0.2-2-0.7c-0.6,0.5-1.2,0.7-2,0.7h-11.9c-1.1,0-2-0.2-2.8-0.6c-0.8-0.4-1.5-0.9-2-1.6
				c-0.5-0.7-0.9-1.4-1.2-2.3c-0.3-0.9-0.4-1.8-0.4-2.8c0-1,0.2-2,0.5-3c0.3-1,0.9-1.9,1.7-2.8h0.8l1.1,1.2c0.3,0.3,0.5,0.6,0.5,1
				c0,0.4-0.1,0.8-0.3,1.2c-0.3,0.7-0.4,1.5-0.4,2.4c0,0.5,0,0.9,0.1,1.4c0.1,0.5,0.2,0.9,0.5,1.3c0.2,0.4,0.5,0.7,0.9,0.9
				c0.4,0.2,0.8,0.4,1.4,0.4h11c0,0,0,0,0,0V705h3.9v16.6c0,0.1,0,0.1,0.1,0.1h2.1v3.4H595.3z M581.2,714.9c0-0.3,0-0.5,0-0.6
				c0-0.3,0.1-0.5,0.2-0.6c0.1-0.1,0.2-0.2,0.3-0.2h0.1c-0.1-0.2-0.2-0.3-0.2-0.6c-0.1-0.2-0.1-0.5-0.1-0.9c0-0.4,0.1-0.7,0.2-1.1
				c0.1-0.3,0.3-0.7,0.6-1s0.6-0.5,1-0.7c0.4-0.2,0.8-0.3,1.3-0.3c0.5,0,0.9,0.1,1.4,0.4c0.5,0.2,0.8,0.5,1.2,0.9
				c0,0-0.1,0.1-0.1,0.2c-0.1,0.1-0.2,0.2-0.2,0.4c-0.1,0.1-0.2,0.3-0.2,0.4c-0.1,0.1-0.1,0.2-0.1,0.2c-0.1,0.2-0.2,0.2-0.4,0.2
				c-0.1,0-0.3,0-0.4-0.1c-0.1-0.1-0.3-0.2-0.4-0.3s-0.3-0.1-0.6-0.1c-0.3,0-0.5,0.1-0.7,0.3c-0.2,0.2-0.3,0.5-0.3,0.8
				c0,0.4,0.1,0.6,0.3,0.8c0.2,0.2,0.5,0.3,1,0.3h2.3v2.3h-4.8c-0.2,0-0.4,0-0.6-0.1c-0.2-0.1-0.4-0.1-0.6-0.2
				C581.2,715.3,581.2,715.1,581.2,714.9z"/>
			<path class="st0" d="M596.2,725c-0.2,0-0.3,0-0.4-0.1c-0.1,0-0.2-0.1-0.3-0.2s-0.1-0.2-0.1-0.3v-2.3c0-0.1,0-0.2,0.1-0.3
				c0.1-0.1,0.2-0.1,0.4-0.2c0.1,0,0.3-0.1,0.4-0.1c0.2,0,0.3,0,0.4,0h6.3v3.4h-6.3C596.5,725,596.4,725,596.2,725z"/>
			<path class="st0" d="M602.2,725c-0.2,0-0.3,0-0.4-0.1c-0.1,0-0.2-0.1-0.3-0.2s-0.1-0.2-0.1-0.3v-2.3c0-0.1,0-0.2,0.1-0.3
				c0.1-0.1,0.2-0.1,0.4-0.2c0.1,0,0.3-0.1,0.4-0.1c0.2,0,0.3,0,0.4,0h6.3v3.4h-6.3C602.5,725,602.4,725,602.2,725z"/>
			<path class="st0" d="M608.2,725c-0.2,0-0.3,0-0.4-0.1c-0.1,0-0.2-0.1-0.3-0.2s-0.1-0.2-0.1-0.3v-2.3c0-0.1,0-0.2,0.1-0.3
				c0.1-0.1,0.2-0.1,0.4-0.2c0.1,0,0.3-0.1,0.4-0.1c0.2,0,0.3,0,0.4,0h6.3v3.4h-6.3C608.5,725,608.4,725,608.2,725z"/>
			<path class="st0" d="M614.3,725c-0.2,0-0.3,0-0.4-0.1c-0.1,0-0.2-0.1-0.3-0.2s-0.1-0.2-0.1-0.3v-2.3c0-0.1,0-0.2,0.1-0.3
				c0.1-0.1,0.2-0.1,0.4-0.2c0.1,0,0.3-0.1,0.4-0.1c0.2,0,0.3,0,0.4,0h6.3v3.4h-6.3C614.5,725,614.4,725,614.3,725z"/>
			<path class="st0" d="M620.3,725c-0.2,0-0.3,0-0.4-0.1c-0.1,0-0.2-0.1-0.3-0.2s-0.1-0.2-0.1-0.3v-2.3c0-0.1,0-0.2,0.1-0.3
				c0.1-0.1,0.2-0.1,0.4-0.2c0.1,0,0.3-0.1,0.4-0.1c0.2,0,0.3,0,0.4,0h4.4c0,0,0,0,0,0v-10.9h3.9v10.8c0,0.1,0,0.1,0.1,0.1h2.1v3.4
				h-1.6c-0.8,0-1.5-0.2-2-0.7c-0.6,0.5-1.2,0.7-2,0.7h-4.9C620.6,725,620.4,725,620.3,725z M625.6,729.8c-0.4-0.4-0.6-0.9-0.6-1.4
				c0-0.6,0.2-1.1,0.6-1.5c0.4-0.4,0.9-0.6,1.5-0.6c0.6,0,1,0.2,1.4,0.6c0.4,0.4,0.6,0.9,0.6,1.5c0,0.6-0.2,1-0.6,1.4
				c-0.4,0.4-0.9,0.6-1.4,0.6C626.5,730.4,626,730.2,625.6,729.8z"/>
			<path class="st0" d="M630.6,725c-0.2,0-0.3,0-0.4-0.1c-0.1,0-0.2-0.1-0.3-0.2s-0.1-0.2-0.1-0.3v-2.3c0-0.1,0-0.2,0.1-0.3
				c0.1-0.1,0.2-0.1,0.4-0.2c0.1,0,0.3-0.1,0.4-0.1c0.2,0,0.3,0,0.4,0h4.4c0,0,0.1,0,0.1,0v-10.9h3.9v10.9c0,0.5-0.1,0.9-0.3,1.3
				s-0.4,0.8-0.7,1.1c-0.3,0.3-0.7,0.6-1.1,0.7s-0.9,0.3-1.3,0.3H631C630.9,725,630.7,725,630.6,725z M635.9,708.3
				c-0.4-0.4-0.6-0.9-0.6-1.4c0-0.6,0.2-1.1,0.6-1.5c0.4-0.4,0.9-0.6,1.5-0.6c0.6,0,1,0.2,1.4,0.6c0.4,0.4,0.6,0.9,0.6,1.5
				c0,0.6-0.2,1-0.6,1.4s-0.9,0.6-1.4,0.6C636.8,708.9,636.3,708.7,635.9,708.3z"/>
			<path class="st0" d="M646.5,725c-0.5,0-0.9-0.1-1.3-0.3s-0.8-0.4-1.1-0.7c-0.3-0.3-0.6-0.7-0.7-1.1s-0.3-0.9-0.3-1.3V705h3.9
				v16.6c0,0,0,0,0.1,0h2.2v3.4H646.5z"/>
			<path class="st0" d="M648.4,725c-0.1,0-0.3,0-0.4,0c-0.2,0-0.3,0-0.4-0.1c-0.1,0-0.2-0.1-0.3-0.2s-0.1-0.2-0.1-0.3v-2.3
				c0-0.1,0-0.2,0.1-0.3c0.1-0.1,0.2-0.1,0.4-0.2c0.1,0,0.3-0.1,0.4-0.1c0.2,0,0.3,0,0.4,0h12.2c-0.5-1.6-0.9-2.9-1.1-3.9
				c-0.3-1-0.5-1.7-0.6-2c-0.2-0.5-0.5-0.9-0.9-1.3c-0.4-0.3-1-0.5-1.8-0.5c-0.4,0-0.8,0-1,0.1c-0.3,0.1-0.6,0.2-0.9,0.5
				c-0.3,0.3-0.7,0.4-1,0.4c-0.4,0-0.8-0.2-1.1-0.7c0,0-0.1-0.1-0.2-0.3c-0.1-0.1-0.2-0.3-0.3-0.4c-0.1-0.2-0.2-0.3-0.3-0.4
				c-0.1-0.1-0.2-0.2-0.2-0.2c1.6-1.6,3.4-2.4,5.2-2.4c1.5,0,2.8,0.4,3.9,1.2s1.9,1.9,2.4,3.4c0,0.1,0.1,0.3,0.2,0.6
				c0.1,0.2,0.2,0.5,0.2,0.8l1.2,3.8c0.1,0.3,0.2,0.6,0.2,0.8c0.1,0.2,0.1,0.4,0.2,0.6h0.5v3.4H648.4z M655,729.8
				c-0.4-0.4-0.6-0.9-0.6-1.4c0-0.6,0.2-1.1,0.6-1.5c0.4-0.4,0.9-0.6,1.5-0.6c0.6,0,1,0.2,1.4,0.6c0.4,0.4,0.6,0.9,0.6,1.5
				c0,0.6-0.2,1-0.6,1.4c-0.4,0.4-0.9,0.6-1.4,0.6C655.9,730.4,655.4,730.2,655,729.8z"/>
			<path class="st0" d="M664.5,725c-0.2,0-0.3,0-0.4-0.1c-0.1,0-0.2-0.1-0.3-0.2s-0.1-0.2-0.1-0.3v-2.3c0-0.1,0-0.2,0.1-0.3
				c0.1-0.1,0.2-0.1,0.4-0.2c0.1,0,0.3-0.1,0.4-0.1c0.2,0,0.3,0,0.4,0h4.4c0,0,0.1,0,0.1,0v-10.9h3.9v10.9c0,0.5-0.1,0.9-0.3,1.3
				s-0.4,0.8-0.7,1.1c-0.3,0.3-0.7,0.6-1.1,0.7s-0.9,0.3-1.3,0.3h-4.9C664.8,725,664.6,725,664.5,725z M669.6,729.8
				c-0.4-0.4-0.6-0.9-0.6-1.4c0-0.6,0.2-1.1,0.6-1.5c0.4-0.4,0.9-0.6,1.5-0.6c0.6,0,1,0.2,1.4,0.6s0.6,0.9,0.6,1.5
				c0,0.6-0.2,1-0.6,1.4c-0.4,0.4-0.9,0.6-1.4,0.6C670.5,730.4,670,730.2,669.6,729.8z"/>
			<path class="st0" d="M688.4,725c-1,0-1.9-0.2-2.7-0.6c-0.8-0.4-1.5-0.9-2-1.6c-0.5-0.7-1-1.4-1.2-2.3c-0.3-0.9-0.4-1.8-0.4-2.8
				c0-1,0.2-2,0.5-3c0.3-1,0.9-1.9,1.7-2.8h0.8l1.1,1.2c0.3,0.3,0.5,0.7,0.5,1.1c0,0.4-0.1,0.8-0.3,1.2c-0.3,0.7-0.4,1.4-0.4,2.3
				c0,0.5,0,1,0.1,1.5c0.1,0.5,0.2,0.9,0.5,1.3c0.2,0.4,0.5,0.7,0.9,0.9c0.4,0.2,0.8,0.3,1.4,0.3h5.3c-0.6-1.1-0.9-2.4-0.9-3.8
				c0-1,0.1-2,0.4-2.9c0.3-0.9,0.7-1.7,1.3-2.3s1.3-1.2,2.2-1.5c0.9-0.4,1.8-0.6,3-0.6c1.1,0,2.1,0.2,2.9,0.5s1.6,0.8,2.1,1.5
				c0.6,0.6,1,1.4,1.3,2.3s0.4,1.9,0.4,3v3.8h2v3.4H688.4z M703,717.8c0-0.5,0-1-0.1-1.5c-0.1-0.5-0.2-0.9-0.5-1.2s-0.5-0.6-0.9-0.8
				s-0.8-0.3-1.4-0.3c-0.5,0-1,0.1-1.4,0.3c-0.4,0.2-0.7,0.5-0.9,0.8c-0.2,0.4-0.4,0.8-0.5,1.2s-0.1,1-0.1,1.5c0,0.5,0,1,0.1,1.5
				s0.3,0.9,0.5,1.2c0.2,0.3,0.5,0.6,0.9,0.8c0.4,0.2,0.8,0.3,1.4,0.3h2.9V717.8z M698.7,708.3c-0.4-0.4-0.6-0.9-0.6-1.4
				c0-0.6,0.2-1.1,0.6-1.5c0.4-0.4,0.9-0.6,1.5-0.6c0.6,0,1,0.2,1.4,0.6c0.4,0.4,0.6,0.9,0.6,1.5c0,0.6-0.2,1-0.6,1.4
				c-0.4,0.4-0.9,0.6-1.4,0.6C699.6,708.9,699.1,708.7,698.7,708.3z"/>
			<path class="st0" d="M708.2,725c-0.2,0-0.3,0-0.4-0.1c-0.1,0-0.2-0.1-0.3-0.2s-0.1-0.2-0.1-0.3v-2.3c0-0.1,0-0.2,0.1-0.3
				c0.1-0.1,0.2-0.1,0.4-0.2c0.1,0,0.3-0.1,0.4-0.1c0.2,0,0.3,0,0.4,0h6.3v3.4h-6.3C708.5,725,708.4,725,708.2,725z"/>
			<path class="st0" d="M714.2,725c-0.2,0-0.3,0-0.4-0.1c-0.1,0-0.2-0.1-0.3-0.2s-0.1-0.2-0.1-0.3v-2.3c0-0.1,0-0.2,0.1-0.3
				c0.1-0.1,0.2-0.1,0.4-0.2c0.1,0,0.3-0.1,0.4-0.1c0.2,0,0.3,0,0.4,0h6.3v3.4h-6.3C714.5,725,714.4,725,714.2,725z"/>
			<path class="st0" d="M720.7,725c-0.1,0-0.3,0-0.4,0c-0.2,0-0.3,0-0.4-0.1c-0.1,0-0.2-0.1-0.3-0.2s-0.1-0.2-0.1-0.3v-2.3
				c0-0.1,0-0.2,0.1-0.3c0.1-0.1,0.2-0.1,0.4-0.2c0.1,0,0.3-0.1,0.4-0.1c0.2,0,0.3,0,0.4,0h3.8c-0.6-1.1-0.9-2.4-0.9-3.9
				c0-1,0.1-2,0.4-2.9c0.3-0.9,0.7-1.6,1.3-2.3c0.6-0.7,1.3-1.2,2.1-1.5c0.9-0.4,1.8-0.5,2.9-0.5c1.1,0,2.1,0.2,2.9,0.5
				c0.9,0.4,1.6,0.8,2.2,1.5s1,1.4,1.3,2.3s0.5,1.9,0.5,3v3.8h1.9v3.4H720.7z M726.5,708.3c-0.4-0.4-0.6-0.9-0.6-1.4
				c0-0.6,0.2-1.1,0.6-1.5c0.4-0.4,0.9-0.6,1.5-0.6c0.6,0,1,0.2,1.4,0.6c0.4,0.4,0.6,0.9,0.6,1.5c0,0.6-0.2,1-0.6,1.4
				s-0.9,0.6-1.4,0.6C727.4,708.9,726.9,708.7,726.5,708.3z M733.3,717.8c0-0.5,0-1-0.1-1.5c-0.1-0.5-0.2-0.9-0.5-1.2
				s-0.5-0.6-0.9-0.8s-0.8-0.3-1.4-0.3c-0.5,0-1,0.1-1.4,0.3c-0.4,0.2-0.7,0.5-0.9,0.8c-0.2,0.3-0.4,0.7-0.5,1.2
				c-0.1,0.5-0.1,1-0.1,1.5c0,0.5,0,1,0.1,1.5c0.1,0.5,0.3,0.9,0.5,1.2c0.2,0.4,0.5,0.6,0.9,0.8c0.4,0.2,0.8,0.3,1.4,0.3h2.9V717.8z
				 M731.4,708.3c-0.4-0.4-0.6-0.9-0.6-1.4c0-0.6,0.2-1.1,0.6-1.5c0.4-0.4,0.9-0.6,1.5-0.6c0.6,0,1,0.2,1.4,0.6
				c0.4,0.4,0.6,0.9,0.6,1.5c0,0.6-0.2,1-0.6,1.4s-0.9,0.6-1.4,0.6C732.3,708.9,731.8,708.7,731.4,708.3z"/>
			<path class="st0" d="M738.5,725c-0.2,0-0.3,0-0.4-0.1c-0.1,0-0.2-0.1-0.3-0.2s-0.1-0.2-0.1-0.3v-2.3c0-0.1,0-0.2,0.1-0.3
				c0.1-0.1,0.2-0.1,0.4-0.2c0.1,0,0.3-0.1,0.4-0.1c0.2,0,0.3,0,0.4,0h4.4c0,0,0.1,0,0.1,0v-10.9h3.9v10.9c0,0.5-0.1,0.9-0.3,1.3
				s-0.4,0.8-0.7,1.1c-0.3,0.3-0.7,0.6-1.1,0.7s-0.9,0.3-1.3,0.3h-4.9C738.8,725,738.7,725,738.5,725z M743.8,708.3
				c-0.4-0.4-0.6-0.9-0.6-1.4c0-0.6,0.2-1.1,0.6-1.5c0.4-0.4,0.9-0.6,1.5-0.6c0.6,0,1,0.2,1.4,0.6c0.4,0.4,0.6,0.9,0.6,1.5
				c0,0.6-0.2,1-0.6,1.4s-0.9,0.6-1.4,0.6C744.7,708.9,744.2,708.7,743.8,708.3z"/>
		</g>
	</g>
	<g>
		<g>
			<path class="st0" d="M260.4,724.2c-1.1-0.6-2.1-1.3-3-2.2l1-1.7c0.2-0.3,0.3-0.4,0.5-0.5c0.2-0.1,0.4-0.2,0.6-0.2
				c0.3,0,0.5,0.1,0.7,0.2c0.2,0.1,0.5,0.3,0.7,0.5c0.5,0.4,1,0.6,1.5,0.8c0.4,0.2,1,0.3,1.6,0.3c0.9,0,1.6-0.2,2.1-0.7
				c0.5-0.4,0.8-1,0.8-1.8c0-0.3-0.1-0.6-0.3-0.9c-0.2-0.2-0.4-0.5-0.7-0.6c-0.3-0.2-0.6-0.3-1-0.4s-0.8-0.2-1.2-0.4
				c-0.7-0.2-1.3-0.4-2-0.7c-0.7-0.3-1.2-0.6-1.8-1c-0.5-0.4-1-1-1.3-1.6s-0.5-1.5-0.5-2.5c0-0.9,0.2-1.7,0.5-2.4s0.8-1.3,1.4-1.8
				c0.6-0.5,1.3-0.9,2-1.1c0.8-0.3,1.6-0.4,2.4-0.4c2.2,0,4.2,0.8,5.9,2.5l-0.9,1.7c-0.3,0.6-0.7,0.8-1.1,0.8
				c-0.2,0-0.5-0.1-0.8-0.2c-0.3-0.1-0.5-0.3-0.7-0.4c-0.2-0.1-0.4-0.3-0.6-0.4c-0.2-0.1-0.5-0.2-0.7-0.3c-0.3-0.1-0.6-0.1-1-0.1
				c-0.8,0-1.4,0.2-1.9,0.6c-0.4,0.4-0.6,0.8-0.6,1.4c0,0.3,0.1,0.5,0.3,0.8s0.4,0.4,0.7,0.6c0.3,0.2,0.6,0.3,1,0.5
				c0.4,0.1,0.8,0.3,1.2,0.4c0.7,0.2,1.3,0.4,2,0.7c0.7,0.3,1.3,0.6,1.8,1c0.5,0.4,0.9,0.9,1.3,1.5s0.5,1.4,0.5,2.4
				c0,1-0.2,1.9-0.5,2.7c-0.3,0.8-0.8,1.5-1.4,2c-0.6,0.6-1.3,1-2.2,1.3c-0.8,0.3-1.7,0.4-2.7,0.4
				C262.7,725,261.5,724.8,260.4,724.2z"/>
			<path class="st0" d="M278.3,724.8V709h-5.8v-3.7h15.6v3.7h-5.8v15.8H278.3z"/>
			<path class="st0" d="M298.3,705.3l7.7,19.5h-3c-0.8,0-1.3-0.4-1.6-1.1L300,720h-6.9l-1.4,3.8c-0.1,0.3-0.3,0.6-0.6,0.8
				c-0.3,0.2-0.6,0.3-1,0.3h-3l7.8-19.5H298.3z M298.7,716.6l-2.1-5.5l-2.1,5.5H298.7z"/>
			<path class="st0" d="M311.2,705.5c0.2,0.1,0.4,0.3,0.6,0.6l8.8,11.5c0-0.2,0-0.3,0-0.5v-0.6v-11.1h3.8v19.5h-2
				c-0.4,0-0.7-0.1-0.9-0.2c-0.2-0.1-0.4-0.3-0.7-0.6l-8.8-11.5v12.3h-3.8v-19.5h2.1C310.7,705.3,311,705.4,311.2,705.5z"/>
			<path class="st0" d="M327.9,705.3h7.5c1.5,0,2.8,0.2,3.9,0.7s2.2,1.1,3,2c0.8,0.9,1.5,1.9,2,3.1c0.5,1.2,0.7,2.5,0.7,4
				c0,1.4-0.2,2.7-0.7,3.9c-0.5,1.2-1.1,2.2-2,3.1c-0.8,0.9-1.9,1.5-3,2s-2.5,0.7-3.9,0.7h-7.5V705.3z M339.4,719.6
				c1-1.1,1.5-2.6,1.5-4.5s-0.5-3.4-1.5-4.5c-1-1.1-2.3-1.6-4-1.6h-3.4v12.3h3.4C337.1,721.2,338.4,720.7,339.4,719.6z"/>
			<path class="st0" d="M348.2,724.8v-19.5h4.1v19.5H348.2z"/>
			<path class="st0" d="M358.7,705.5c0.2,0.1,0.4,0.3,0.6,0.6l8.8,11.5c0-0.2,0-0.3,0-0.5v-0.6v-11.1h3.8v19.5h-2
				c-0.4,0-0.7-0.1-0.9-0.2c-0.2-0.1-0.4-0.3-0.7-0.6l-8.8-11.5v12.3h-3.8v-19.5h2.1C358.2,705.3,358.5,705.4,358.7,705.5z"/>
			<path class="st0" d="M381.1,724.3c-1.3-0.5-2.3-1.1-3.2-2c-0.9-0.9-1.6-1.9-2.1-3.1c-0.5-1.2-0.8-2.6-0.8-4.1
				c0-1.5,0.2-2.9,0.7-4.1s1.2-2.3,2-3.1s1.9-1.5,3.1-2c1.2-0.5,2.6-0.7,4.1-0.7c2.8,0,5.3,1,7.4,2.9c-0.2,0.3-0.4,0.6-0.5,0.9
				c-0.2,0.3-0.3,0.6-0.5,0.8c-0.2,0.3-0.4,0.5-0.6,0.6c-0.2,0.1-0.4,0.2-0.6,0.2c-0.1,0-0.3,0-0.4-0.1c-0.3-0.1-0.6-0.3-0.9-0.4
				c-0.3-0.2-0.6-0.3-0.9-0.5c-0.3-0.2-0.7-0.3-1.2-0.4c-0.5-0.1-1.1-0.2-1.8-0.2c-0.9,0-1.7,0.1-2.4,0.4c-0.7,0.3-1.3,0.7-1.8,1.3
				s-0.9,1.2-1.2,2c-0.3,0.8-0.4,1.6-0.4,2.6c0,2,0.5,3.5,1.6,4.7c1.1,1.1,2.6,1.7,4.4,1.7c0.6,0,1.2-0.1,1.8-0.2s1-0.3,1.5-0.5
				v-2.6h-2c-0.4,0-0.7-0.1-1-0.3c-0.2-0.2-0.4-0.5-0.4-0.9v-2.2h7.1v8.1c-1.1,0.8-2.2,1.4-3.3,1.8c-1.2,0.4-2.4,0.6-3.7,0.6
				C383.8,725,382.4,724.8,381.1,724.3z"/>
			<path class="st0" d="M403.8,705.3c0.9,0,1.4,0.4,1.6,1.2l3.3,11l3.8-11.1c0.1-0.3,0.3-0.6,0.6-0.8s0.6-0.3,1-0.3h0.7
				c0.8,0,1.4,0.4,1.6,1.1l3.8,11.1l3.3-11.1c0.1-0.3,0.3-0.6,0.6-0.8c0.3-0.2,0.6-0.3,1-0.3h3l-6.1,19.5h-3.3l-4.2-12.6l-4.2,12.6
				h-3.4l-6.1-19.5H403.8z"/>
			<path class="st0" d="M430.1,724.8v-19.5h4.1v19.5H430.1z"/>
			<path class="st0" d="M442.9,724.8V709h-5.8v-3.7h15.6v3.7h-5.8v15.8H442.9z"/>
			<path class="st0" d="M467.7,724.8v-8.1h-8v8.1h-4.1v-19.5h4.1v8h8v-8h4.1v19.5H467.7z"/>
			<path class="st0" d="M483.8,705.3c0.7,0,1.2,0.3,1.5,1l4.1,6.9l4.1-6.9c0.2-0.3,0.4-0.6,0.6-0.7c0.2-0.2,0.5-0.3,0.9-0.3h3.6
				l-7.2,11.8v7.7h-4.1v-7.7l-7.2-11.8H483.8z"/>
			<path class="st0" d="M504.4,724.3c-1.2-0.5-2.2-1.2-3-2.1s-1.5-1.9-1.9-3.2c-0.5-1.2-0.7-2.5-0.7-4s0.2-2.8,0.7-4
				c0.5-1.2,1.1-2.3,1.9-3.2s1.8-1.6,3-2.1c1.2-0.5,2.5-0.7,4-0.7c1.5,0,2.8,0.2,4,0.7s2.2,1.2,3,2.1s1.5,1.9,1.9,3.2
				c0.5,1.2,0.7,2.5,0.7,4s-0.2,2.8-0.7,4c-0.5,1.2-1.1,2.3-1.9,3.2s-1.9,1.6-3,2.1s-2.5,0.7-4,0.7
				C506.9,725,505.6,724.8,504.4,724.3z M512.4,719.6c1-1.1,1.5-2.6,1.5-4.5c0-2-0.5-3.5-1.5-4.6c-1-1.1-2.3-1.6-4-1.6
				c-1.7,0-3,0.5-4,1.6c-1,1.1-1.5,2.6-1.5,4.6c0,1.9,0.5,3.5,1.5,4.5c1,1.1,2.3,1.6,4,1.6C510.1,721.3,511.4,720.7,512.4,719.6z"/>
			<path class="st0" d="M525.8,724.4c-1-0.4-1.8-1-2.5-1.7c-0.7-0.7-1.2-1.6-1.6-2.5s-0.6-2-0.6-3.2v-11.7h4V717
				c0,0.6,0.1,1.2,0.3,1.7c0.2,0.5,0.4,1,0.8,1.4c0.3,0.4,0.7,0.7,1.2,0.9c0.5,0.2,1,0.3,1.6,0.3c1.2,0,2.2-0.4,2.9-1.2
				c0.7-0.8,1-1.8,1-3.1v-11.7h4.1V717c0,1.1-0.2,2.2-0.5,3.2c-0.4,1-0.9,1.8-1.6,2.5c-0.7,0.7-1.5,1.3-2.5,1.7
				c-1,0.4-2.1,0.6-3.3,0.6C527.8,725,526.8,724.8,525.8,724.4z"/>
		</g>
	</g>
	<g>
		<path class="st0" d="M553.4,726.9v-25h3.3v25H553.4z"/>
	</g>
</g>
</svg>
