<?xml version="1.0" encoding="utf-8"?>
<!-- Generator: Adobe Illustrator 28.3.0, SVG Export Plug-In . SVG Version: 6.00 Build 0)  -->
<svg version="1.1" id="Layer_1" xmlns="http://www.w3.org/2000/svg" xmlns:xlink="http://www.w3.org/1999/xlink" x="0px" y="0px"
	 viewBox="0 0 1000 1000" style="enable-background:new 0 0 1000 1000;" xml:space="preserve">
<style type="text/css">
	.st0{fill:#2F2B73;}
</style>
<path class="st0" d="M771.9,389.1c-3.2,1.5-6,2.8-8.8,4.2c-13.7,6.9-21,18.6-22.9,34.3c-1.9,14.9-1.9,30.5-1.9,46.1
	c-0.1,30.7,0,61.4,0.2,92.2c0,2.2-0.8,2.8-3,2.8c-13.4-0.1-26.8-0.1-40.2-0.1c-0.2-0.3-0.4-0.6-0.4-0.8c0.4-40.9-0.6-82.2,0.8-122.8
	c0.4-11.7,1.7-22.9,7.1-32c8.7-14.6,23.4-22.3,43-24.5C753.9,387.5,762.4,387.7,771.9,389.1z"/>
<path class="st0" d="M825,389.1c-2.8,1.3-5.2,2.4-7.6,3.5c-15.5,7.3-23,20.4-24.6,37.9c-1.9,21.7-1.5,44.2-1.6,66.6
	c0,22.8,0.1,45.7,0.3,68.6c0,2-0.6,2.9-3,2.8c-12.8-0.2-25.6-0.1-38.4,0c-1.9,0-2.4-0.3-2.4-2.2c0.3-40.5-0.2-81.2,0.7-121.4
	c0.3-11.6,1.8-22.7,7.1-31.8c8.7-14.9,23.6-22.8,43.6-24.8C807.2,387.6,815.6,387.8,825,389.1z"/>
<path class="st0" d="M852.4,568.5c0-16.8,0-33.1-0.1-49.4c-0.1-23.5,0.4-46.8-0.5-70.6c-0.3-7.7-1.3-15.6-4.8-24
	c-4.1-9.8-11.2-18-21.1-24.5c-3.3-2.2-2.4-2.6-0.9-3.7c11.8-8.4,39-5.3,57.8,21.5c8,11.5,10.8,22.7,11.7,33.7
	c1.4,16.3,0.5,31.9,0.6,47.8c0.1,22.3,0,44.4-0.1,66.6c0,1.2,0.4,2.5-1.5,2.5C879.9,568.5,866.4,568.5,852.4,568.5z"/>
<path class="st0" d="M800.7,568.5c-0.1-11.2-0.2-22-0.1-32.7c0.1-31-0.9-62.4,0.2-93.1c0.4-12.7,2.5-24.7,9.1-34.2
	c1.8-2.6,4-4.8,6.2-7c1-1,1.8-0.9,3.5,0.4c14.3,10.5,21.5,22.7,22.6,36c1.3,15.8,0.7,31.1,0.8,46.6c0.1,27.2,0.1,54.3,0.2,81.5
	c0,1.9-0.6,2.5-2.7,2.5C827.4,568.5,814.3,568.5,800.7,568.5z"/>
<g>
	<path class="st0" d="M115.7,505.1c0.2,0.1,0.4,0.3,0.6,0.7l5.5,9.9l5.5-9.9c0.2-0.4,0.4-0.6,0.6-0.7s0.5-0.1,0.9-0.1h2.4v18.1h-3.5
		l0-11l-4.2,7.6c-0.2,0.3-0.4,0.6-0.7,0.7s-0.6,0.2-0.9,0.2s-0.6-0.1-0.9-0.2c-0.3-0.2-0.5-0.4-0.7-0.7l-4.3-7.7v11h-3.5V505h2.4
		C115.2,505,115.5,505,115.7,505.1z"/>
	<path class="st0" d="M143.7,505l7.2,18.1H148c-0.7,0-1.2-0.3-1.5-1l-1.3-3.5h-6.4l-1.3,3.5c-0.1,0.3-0.3,0.5-0.5,0.7
		c-0.3,0.2-0.6,0.3-1,0.3h-2.8l7.2-18.1H143.7z M144,515.4l-2-5.1l-2,5.1H144z"/>
	<path class="st0" d="M155.6,505.1c0.2,0.1,0.4,0.3,0.6,0.5l8.2,10.6c0-0.2,0-0.3,0-0.5v-0.5V505h3.5v18.1h-1.9
		c-0.3,0-0.6-0.1-0.8-0.2c-0.2-0.1-0.4-0.3-0.6-0.6l-8.2-10.7v11.4h-3.5V505h1.9C155.1,505,155.4,505,155.6,505.1z"/>
	<path class="st0" d="M171,523.1V505h3.8v18.1H171z"/>
	<path class="st0" d="M190.1,523.1V505h3.7v14.7h7.2v3.4H190.1z"/>
	<path class="st0" d="M212.6,505l7.2,18.1h-2.8c-0.7,0-1.2-0.3-1.5-1l-1.3-3.5h-6.4l-1.3,3.5c-0.1,0.3-0.3,0.5-0.5,0.7
		c-0.3,0.2-0.6,0.3-1,0.3h-2.8l7.2-18.1H212.6z M212.9,515.4l-2-5.1l-2,5.1H212.9z"/>
	<path class="st0" d="M221.4,505c0.8,0,1.3,0.4,1.5,1.1l3,10.2l3.5-10.3c0.1-0.3,0.3-0.5,0.5-0.7s0.6-0.3,1-0.3h0.6
		c0.8,0,1.3,0.4,1.5,1.1l3.5,10.3l3-10.3c0.1-0.3,0.3-0.5,0.5-0.7c0.3-0.2,0.6-0.3,1-0.3h2.7l-5.6,18.1H235l-3.9-11.7l-3.9,11.7
		h-3.1l-5.6-18.1H221.4z"/>
	<path class="st0" d="M251.5,523.1V505h11.7v3.4h-8v4.3h6.8v3.4h-6.8v7.1H251.5z"/>
	<path class="st0" d="M265.9,523.1V505h3.8v18.1H265.9z"/>
	<path class="st0" d="M272.9,505h5.4c2.4,0,4.1,0.5,5.2,1.4c1.1,1,1.7,2.3,1.7,3.9c0,1.2-0.3,2.2-0.9,3s-1.4,1.5-2.5,2
		c0.1,0.1,0.2,0.3,0.3,0.4c0.1,0.1,0.2,0.3,0.3,0.4l5,6.8h-3.5c-0.6,0-1.1-0.3-1.5-0.8l-4.3-5.9c0-0.1-0.1-0.1-0.2-0.2
		c-0.1,0-0.2-0.1-0.3-0.1h-1v6.9h-3.7V505z M276.6,513h1.6c1.1,0,1.9-0.2,2.4-0.7c0.5-0.5,0.8-1.1,0.8-1.8c0-1.4-1-2.2-3.1-2.2h-1.7
		V513z"/>
	<path class="st0" d="M292.2,505.1c0.2,0.1,0.4,0.3,0.6,0.7l5.5,9.9l5.5-9.9c0.2-0.4,0.4-0.6,0.6-0.7s0.5-0.1,0.9-0.1h2.4v18.1h-3.5
		l0-11l-4.2,7.6c-0.2,0.3-0.4,0.6-0.7,0.7s-0.6,0.2-0.9,0.2s-0.6-0.1-0.9-0.2c-0.3-0.2-0.5-0.4-0.7-0.7l-4.3-7.7v11H289V505h2.4
		C291.7,505,292,505,292.2,505.1z"/>
	<path class="st0" d="M326,505l7.2,18.1h-2.8c-0.7,0-1.2-0.3-1.5-1l-1.3-3.5h-6.4l-1.3,3.5c-0.1,0.3-0.3,0.5-0.5,0.7
		c-0.3,0.2-0.6,0.3-1,0.3h-2.8l7.2-18.1H326z M326.3,515.4l-2-5.1l-2,5.1H326.3z"/>
	<path class="st0" d="M337.9,505.1c0.2,0.1,0.4,0.3,0.6,0.5l8.2,10.6c0-0.2,0-0.3,0-0.5v-0.5V505h3.5v18.1h-1.9
		c-0.3,0-0.6-0.1-0.8-0.2c-0.2-0.1-0.4-0.3-0.6-0.6l-8.2-10.7v11.4h-3.5V505h1.9C337.5,505,337.7,505,337.9,505.1z"/>
	<path class="st0" d="M353.4,505h6.9c1.3,0,2.6,0.2,3.7,0.7c1.1,0.4,2,1.1,2.8,1.9c0.8,0.8,1.4,1.7,1.8,2.8c0.4,1.1,0.6,2.3,0.6,3.7
		c0,1.3-0.2,2.5-0.6,3.7c-0.4,1.1-1,2.1-1.8,2.9c-0.8,0.8-1.7,1.4-2.8,1.9c-1.1,0.4-2.3,0.7-3.7,0.7h-6.9V505z M364,518.2
		c0.9-1,1.4-2.4,1.4-4.2c0-1.8-0.5-3.2-1.4-4.2c-0.9-1-2.1-1.5-3.7-1.5h-3.2v11.4h3.2C361.9,519.7,363.1,519.2,364,518.2z"/>
	<path class="st0" d="M378,523.1V505h3.7v14.7h7.2v3.4H378z"/>
	<path class="st0" d="M391.7,523.1V505h11.7v3.4h-8v4h6.4v3.3h-6.4v4.1h8v3.4H391.7z"/>
	<path class="st0" d="M411.4,522.6c-1.2-0.4-2.2-1.1-3-1.9c-0.8-0.8-1.5-1.8-2-2.9s-0.7-2.4-0.7-3.8c0-1.4,0.2-2.7,0.7-3.8
		c0.4-1.1,1.1-2.1,1.9-2.9c0.8-0.8,1.8-1.4,2.9-1.9c1.1-0.4,2.4-0.7,3.8-0.7c2.6,0,4.9,0.9,6.8,2.7c-0.2,0.3-0.3,0.5-0.5,0.8
		c-0.2,0.3-0.3,0.5-0.5,0.8s-0.4,0.4-0.5,0.5c-0.2,0.1-0.3,0.2-0.5,0.2c-0.1,0-0.3,0-0.4-0.1c-0.3-0.1-0.6-0.3-0.8-0.4
		c-0.2-0.2-0.5-0.3-0.8-0.5c-0.3-0.2-0.7-0.3-1.1-0.4c-0.4-0.1-1-0.2-1.7-0.2c-0.8,0-1.6,0.1-2.2,0.4c-0.7,0.3-1.2,0.7-1.7,1.2
		s-0.8,1.1-1.1,1.8s-0.4,1.5-0.4,2.4c0,1.8,0.5,3.3,1.5,4.3c1,1,2.4,1.5,4.1,1.5c0.6,0,1.1-0.1,1.6-0.2c0.5-0.1,1-0.3,1.4-0.5v-2.4
		h-1.8c-0.4,0-0.7-0.1-0.9-0.3c-0.2-0.2-0.3-0.5-0.3-0.9v-2.1h6.6v7.5c-1,0.7-2,1.3-3.1,1.6c-1.1,0.4-2.2,0.6-3.5,0.6
		C413.8,523.3,412.5,523,411.4,522.6z"/>
	<path class="st0" d="M433.2,505l7.2,18.1h-2.8c-0.7,0-1.2-0.3-1.5-1l-1.3-3.5h-6.4L427,522c-0.1,0.3-0.3,0.5-0.5,0.7
		c-0.3,0.2-0.6,0.3-1,0.3h-2.8l7.2-18.1H433.2z M433.5,515.4l-2-5.1l-2,5.1H433.5z"/>
	<path class="st0" d="M442.4,523.1V505h3.7v14.7h7.2v3.4H442.4z"/>
	<path class="st0" d="M469.6,523.1c-1.4,0-2.6-0.2-3.6-0.7c-1.1-0.5-2-1.1-2.7-2c-0.7-0.8-1.3-1.8-1.7-2.9c-0.4-1.1-0.6-2.3-0.6-3.6
		c0-1.3,0.2-2.5,0.6-3.7c0.4-1.1,1-2.1,1.8-2.9c0.8-0.8,1.7-1.5,2.8-1.9c1.1-0.5,2.3-0.7,3.7-0.7c1.3,0,2.4,0.2,3.5,0.7
		c1.1,0.5,2.1,1.2,3,2l-0.9,1.3c-0.4,0.5-0.8,0.8-1.3,0.8c-0.4,0-0.8-0.1-1.2-0.4c-0.4-0.3-0.9-0.5-1.3-0.7
		c-0.5-0.2-1.1-0.2-1.8-0.2c-0.8,0-1.4,0.1-2.1,0.4s-1.1,0.6-1.6,1.1c-0.4,0.5-0.8,1.1-1,1.8c-0.2,0.7-0.4,1.5-0.4,2.4
		c0,0.9,0.1,1.7,0.4,2.4s0.6,1.3,1,1.8c0.4,0.5,1,0.9,1.6,1.1s1.3,0.4,2,0.4c0.6,0,1.3-0.1,1.8-0.4c0.6-0.2,1.1-0.5,1.6-0.8
		c0.5-0.2,0.9-0.3,1.3-0.3c0.6,0,1,0.2,1.4,0.7l0.7,1C474.7,522,472.4,523.1,469.6,523.1z"/>
	<path class="st0" d="M483.8,522.6c-1.1-0.5-2-1.1-2.8-1.9s-1.4-1.8-1.8-2.9c-0.4-1.1-0.6-2.4-0.6-3.7c0-1.3,0.2-2.6,0.6-3.7
		c0.4-1.1,1-2.1,1.8-2.9c0.8-0.8,1.7-1.5,2.8-1.9c1.1-0.5,2.3-0.7,3.7-0.7c1.4,0,2.6,0.2,3.7,0.7c1.1,0.5,2,1.1,2.8,1.9
		c0.8,0.8,1.4,1.8,1.8,2.9c0.4,1.1,0.6,2.4,0.6,3.7c0,1.3-0.2,2.6-0.6,3.7c-0.4,1.1-1,2.1-1.8,2.9c-0.8,0.8-1.7,1.5-2.8,1.9
		c-1.1,0.5-2.3,0.7-3.7,0.7C486.1,523.3,484.9,523,483.8,522.6z M491.2,518.2c0.9-1,1.4-2.4,1.4-4.2c0-1.8-0.5-3.2-1.4-4.2
		s-2.2-1.5-3.7-1.5c-1.5,0-2.8,0.5-3.7,1.5s-1.4,2.4-1.4,4.2c0,1.8,0.5,3.2,1.4,4.2c0.9,1,2.2,1.5,3.7,1.5
		C489.1,519.8,490.3,519.2,491.2,518.2z"/>
	<path class="st0" d="M502.2,505.1c0.2,0.1,0.4,0.3,0.6,0.5l8.2,10.6c0-0.2,0-0.3,0-0.5v-0.5V505h3.5v18.1h-1.9
		c-0.3,0-0.6-0.1-0.8-0.2c-0.2-0.1-0.4-0.3-0.6-0.6l-8.2-10.7v11.4h-3.5V505h1.9C501.7,505,502,505,502.2,505.1z"/>
	<path class="st0" d="M519.6,522.5c-1-0.5-2-1.2-2.8-2.1l1-1.6c0.2-0.2,0.3-0.4,0.5-0.5s0.3-0.2,0.5-0.2c0.2,0,0.5,0.1,0.7,0.2
		c0.2,0.1,0.5,0.3,0.7,0.4c0.5,0.3,0.9,0.6,1.3,0.8s0.9,0.3,1.5,0.3c0.8,0,1.4-0.2,1.9-0.6c0.5-0.4,0.7-1,0.7-1.7
		c0-0.3-0.1-0.6-0.2-0.8c-0.2-0.2-0.4-0.4-0.6-0.6c-0.3-0.2-0.6-0.3-0.9-0.4c-0.3-0.1-0.7-0.2-1.1-0.3c-0.6-0.2-1.2-0.4-1.8-0.6
		c-0.6-0.2-1.2-0.5-1.6-0.9c-0.5-0.4-0.9-0.9-1.2-1.5c-0.3-0.6-0.5-1.4-0.5-2.3c0-0.8,0.2-1.6,0.5-2.2c0.3-0.7,0.7-1.2,1.3-1.7
		c0.5-0.5,1.2-0.8,1.9-1c0.7-0.2,1.5-0.4,2.3-0.4c2,0,3.9,0.8,5.4,2.3l-0.8,1.5c-0.3,0.5-0.6,0.8-1.1,0.8c-0.2,0-0.5-0.1-0.7-0.2
		c-0.3-0.1-0.5-0.3-0.7-0.4c-0.2-0.1-0.4-0.2-0.6-0.3c-0.2-0.1-0.4-0.2-0.7-0.2c-0.2-0.1-0.5-0.1-0.9-0.1c-0.8,0-1.3,0.2-1.7,0.5
		s-0.6,0.8-0.6,1.3c0,0.3,0.1,0.5,0.2,0.7c0.2,0.2,0.4,0.4,0.6,0.6c0.3,0.2,0.6,0.3,0.9,0.4c0.4,0.1,0.7,0.2,1.1,0.4
		c0.6,0.2,1.2,0.4,1.8,0.6c0.6,0.2,1.2,0.5,1.6,0.9s0.9,0.9,1.2,1.4c0.3,0.6,0.5,1.3,0.5,2.2c0,0.9-0.2,1.8-0.5,2.5
		c-0.3,0.7-0.8,1.4-1.3,1.9c-0.6,0.5-1.2,0.9-2,1.2c-0.8,0.3-1.6,0.4-2.5,0.4C521.7,523.3,520.6,523,519.6,522.5z"/>
	<path class="st0" d="M535.9,522.7c-0.9-0.4-1.7-0.9-2.3-1.6s-1.1-1.5-1.5-2.4c-0.3-0.9-0.5-1.9-0.5-2.9V505h3.7v10.8
		c0,0.6,0.1,1.1,0.3,1.6c0.2,0.5,0.4,0.9,0.7,1.3s0.7,0.6,1.1,0.8c0.4,0.2,0.9,0.3,1.5,0.3c1.1,0,2-0.4,2.7-1.1s0.9-1.7,0.9-2.8V505
		h3.8v10.8c0,1.1-0.2,2-0.5,2.9s-0.8,1.7-1.5,2.4c-0.6,0.7-1.4,1.2-2.3,1.6s-1.9,0.6-3.1,0.6C537.8,523.3,536.8,523.1,535.9,522.7z"
		/>
	<path class="st0" d="M549.6,523.1V505h3.7v14.7h7.2v3.4H549.6z"/>
	<path class="st0" d="M565.4,523.1v-14.7H560V505h14.5v3.4h-5.4v14.7H565.4z"/>
	<path class="st0" d="M584,505l7.2,18.1h-2.8c-0.7,0-1.2-0.3-1.5-1l-1.3-3.5h-6.4l-1.3,3.5c-0.1,0.3-0.3,0.5-0.5,0.7
		c-0.3,0.2-0.6,0.3-1,0.3h-2.8l7.2-18.1H584z M584.3,515.4l-2-5.1l-2,5.1H584.3z"/>
	<path class="st0" d="M595.5,523.1v-14.7h-5.4V505h14.5v3.4h-5.4v14.7H595.5z"/>
	<path class="st0" d="M607.4,523.1V505h3.8v18.1H607.4z"/>
	<path class="st0" d="M619,522.6c-1.1-0.5-2-1.1-2.8-1.9s-1.4-1.8-1.8-2.9c-0.4-1.1-0.6-2.4-0.6-3.7c0-1.3,0.2-2.6,0.6-3.7
		c0.4-1.1,1-2.1,1.8-2.9c0.8-0.8,1.7-1.5,2.8-1.9c1.1-0.5,2.3-0.7,3.7-0.7c1.4,0,2.6,0.2,3.7,0.7c1.1,0.5,2,1.1,2.8,1.9
		c0.8,0.8,1.4,1.8,1.8,2.9c0.4,1.1,0.6,2.4,0.6,3.7c0,1.3-0.2,2.6-0.6,3.7c-0.4,1.1-1,2.1-1.8,2.9c-0.8,0.8-1.7,1.5-2.8,1.9
		c-1.1,0.5-2.3,0.7-3.7,0.7C621.3,523.3,620.1,523,619,522.6z M626.4,518.2c0.9-1,1.4-2.4,1.4-4.2c0-1.8-0.5-3.2-1.4-4.2
		s-2.2-1.5-3.7-1.5c-1.5,0-2.8,0.5-3.7,1.5s-1.4,2.4-1.4,4.2c0,1.8,0.5,3.2,1.4,4.2c0.9,1,2.2,1.5,3.7,1.5
		C624.2,519.8,625.4,519.2,626.4,518.2z"/>
	<path class="st0" d="M637.3,505.1c0.2,0.1,0.4,0.3,0.6,0.5l8.2,10.6c0-0.2,0-0.3,0-0.5v-0.5V505h3.5v18.1h-1.9
		c-0.3,0-0.6-0.1-0.8-0.2c-0.2-0.1-0.4-0.3-0.6-0.6l-8.2-10.7v11.4h-3.5V505h1.9C636.8,505,637.1,505,637.3,505.1z"/>
	<path class="st0" d="M654.7,522.5c-1-0.5-2-1.2-2.8-2.1l1-1.6c0.2-0.2,0.3-0.4,0.5-0.5s0.3-0.2,0.5-0.2c0.2,0,0.5,0.1,0.7,0.2
		c0.2,0.1,0.5,0.3,0.7,0.4c0.5,0.3,0.9,0.6,1.3,0.8s0.9,0.3,1.5,0.3c0.8,0,1.4-0.2,1.9-0.6c0.5-0.4,0.7-1,0.7-1.7
		c0-0.3-0.1-0.6-0.2-0.8c-0.2-0.2-0.4-0.4-0.6-0.6c-0.3-0.2-0.6-0.3-0.9-0.4c-0.3-0.1-0.7-0.2-1.1-0.3c-0.6-0.2-1.2-0.4-1.8-0.6
		c-0.6-0.2-1.2-0.5-1.6-0.9c-0.5-0.4-0.9-0.9-1.2-1.5c-0.3-0.6-0.5-1.4-0.5-2.3c0-0.8,0.2-1.6,0.5-2.2c0.3-0.7,0.7-1.2,1.3-1.7
		c0.5-0.5,1.2-0.8,1.9-1c0.7-0.2,1.5-0.4,2.3-0.4c2,0,3.9,0.8,5.4,2.3l-0.8,1.5c-0.3,0.5-0.6,0.8-1.1,0.8c-0.2,0-0.5-0.1-0.7-0.2
		c-0.3-0.1-0.5-0.3-0.7-0.4c-0.2-0.1-0.4-0.2-0.6-0.3c-0.2-0.1-0.4-0.2-0.7-0.2c-0.2-0.1-0.5-0.1-0.9-0.1c-0.8,0-1.3,0.2-1.7,0.5
		s-0.6,0.8-0.6,1.3c0,0.3,0.1,0.5,0.2,0.7c0.2,0.2,0.4,0.4,0.6,0.6c0.3,0.2,0.6,0.3,0.9,0.4c0.4,0.1,0.7,0.2,1.1,0.4
		c0.6,0.2,1.2,0.4,1.8,0.6c0.6,0.2,1.2,0.5,1.6,0.9s0.9,0.9,1.2,1.4c0.3,0.6,0.5,1.3,0.5,2.2c0,0.9-0.2,1.8-0.5,2.5
		c-0.3,0.7-0.8,1.4-1.3,1.9c-0.6,0.5-1.2,0.9-2,1.2c-0.8,0.3-1.6,0.4-2.5,0.4C656.8,523.3,655.7,523,654.7,522.5z"/>
</g>
<g>
	<path class="st0" d="M124.1,484.3h-4.9c-1.4,0-2.5-0.3-3.4-0.8s-1.7-1.3-2.2-2.2s-1-1.9-1.2-2.9c-0.2-1.1-0.4-2.2-0.4-3.2
		c0-1.3,0.2-2.5,0.5-3.6c0.3-1.1,0.8-2.2,1.5-3c0.7-0.9,1.5-1.6,2.5-2.1c1-0.5,2.2-0.8,3.6-0.8c0.6,0,1.1,0.1,1.6,0.2
		c0.5,0.1,1,0.3,1.4,0.5c0.5,0.2,0.9,0.4,1.3,0.7c0.2-0.4,0.4-0.7,0.7-0.9c0.3-0.2,0.5-0.3,0.8-0.3h2.6v13.9c0,0.1,0,0.1,0.1,0.1
		h2.7v4.3h-2c-1,0-1.9-0.3-2.6-0.9C125.9,484,125.1,484.3,124.1,484.3z M116,463c-0.5-0.5-0.8-1.1-0.8-1.9c0-0.7,0.3-1.4,0.8-1.9
		c0.5-0.5,1.1-0.8,1.9-0.8c0.7,0,1.3,0.3,1.8,0.8c0.5,0.5,0.8,1.1,0.8,1.9c0,0.7-0.3,1.3-0.8,1.9c-0.5,0.5-1.1,0.8-1.8,0.8
		C117.2,463.8,116.5,463.5,116,463z M119,470.4c-0.5,0.3-0.8,0.6-1.1,1.1c-0.3,0.5-0.5,1-0.6,1.6c-0.1,0.6-0.2,1.2-0.2,1.9
		c0,0.5,0,1.1,0.1,1.6c0.1,0.6,0.2,1.1,0.5,1.6c0.2,0.5,0.5,0.9,0.9,1.2c0.4,0.3,0.9,0.5,1.5,0.5h3.3c0,0,0.1,0,0.1,0v-8.7
		c-0.7-0.8-1.6-1.2-2.8-1.2C120,470,119.5,470.1,119,470.4z M122.3,463c-0.5-0.5-0.8-1.1-0.8-1.9c0-0.7,0.3-1.4,0.8-1.9
		c0.5-0.5,1.1-0.8,1.9-0.8c0.7,0,1.3,0.3,1.8,0.8c0.5,0.5,0.8,1.1,0.8,1.9c0,0.7-0.3,1.3-0.8,1.9c-0.5,0.5-1.1,0.8-1.8,0.8
		C123.5,463.8,122.9,463.5,122.3,463z"/>
	<path class="st0" d="M130.5,484.3c-0.2,0-0.4,0-0.6-0.1s-0.3-0.1-0.4-0.2s-0.2-0.2-0.2-0.4v-2.9c0-0.2,0.1-0.3,0.2-0.4
		s0.3-0.2,0.5-0.2c0.2,0,0.4-0.1,0.6-0.1c0.2,0,0.4,0,0.5,0h5.7c0,0,0,0,0,0v-14h5v13.9c0,0.1,0,0.1,0.1,0.1h2.7v4.3h-2
		c-1,0-1.9-0.3-2.6-0.9c-0.7,0.6-1.6,0.9-2.6,0.9h-6.3C130.9,484.3,130.7,484.3,130.5,484.3z M132.9,490.4c-0.5-0.5-0.8-1.1-0.8-1.9
		c0-0.7,0.3-1.4,0.8-1.9c0.5-0.5,1.1-0.8,1.9-0.8c0.7,0,1.3,0.3,1.8,0.8c0.5,0.5,0.8,1.1,0.8,1.9c0,0.7-0.3,1.3-0.8,1.9
		c-0.5,0.5-1.1,0.8-1.8,0.8C134,491.1,133.4,490.9,132.9,490.4z M139.2,490.4c-0.5-0.5-0.8-1.1-0.8-1.9c0-0.7,0.3-1.4,0.8-1.9
		c0.5-0.5,1.1-0.8,1.9-0.8c0.7,0,1.3,0.3,1.8,0.8c0.5,0.5,0.8,1.1,0.8,1.9c0,0.7-0.3,1.3-0.8,1.9c-0.5,0.5-1.1,0.8-1.8,0.8
		C140.3,491.1,139.7,490.9,139.2,490.4z"/>
	<path class="st0" d="M143.6,484.3c-0.2,0-0.4,0-0.6-0.1s-0.3-0.1-0.4-0.2s-0.2-0.2-0.2-0.4v-2.9c0-0.2,0.1-0.3,0.2-0.4
		s0.3-0.2,0.5-0.2c0.2,0,0.4-0.1,0.6-0.1c0.2,0,0.4,0,0.5,0h5.6c0,0,0.1,0,0.1,0v-14h5v14c0,0.6-0.1,1.1-0.3,1.7
		c-0.2,0.5-0.5,1-0.9,1.4s-0.9,0.7-1.4,0.9c-0.5,0.2-1.1,0.3-1.7,0.3h-6.3C144,484.3,143.8,484.3,143.6,484.3z M150.5,462.7
		c-0.5-0.5-0.8-1.1-0.8-1.9c0-0.7,0.3-1.4,0.8-1.9c0.5-0.5,1.1-0.8,1.9-0.8c0.7,0,1.3,0.3,1.8,0.8c0.5,0.5,0.8,1.1,0.8,1.9
		c0,0.7-0.3,1.3-0.8,1.9c-0.5,0.5-1.1,0.8-1.8,0.8C151.6,463.5,151,463.2,150.5,462.7z"/>
	<path class="st0" d="M167.7,484.3c-1.4,0-2.6-0.2-3.7-0.7s-2-1.1-2.8-1.9c-0.8-0.8-1.3-1.8-1.7-2.9s-0.6-2.4-0.6-3.8
		c0-1.3,0.2-2.6,0.6-3.7s0.9-2.1,1.7-3s1.7-1.5,2.8-2s2.4-0.7,3.8-0.7c1.4,0,2.6,0.2,3.7,0.7c1.1,0.4,2,1.1,2.8,1.9s1.3,1.8,1.7,3
		s0.6,2.4,0.6,3.8v4.9h2.5v4.3h-2.5c0,0.9-0.2,1.8-0.6,2.6c-0.4,0.8-0.9,1.5-1.6,2c-0.7,0.6-1.6,1-2.7,1.4s-2.3,0.5-3.7,0.5
		c-1,0-1.9-0.1-2.5-0.2c-0.6-0.1-1.2-0.3-1.7-0.5l0.2-2.3c0-0.4,0.2-0.7,0.5-0.9c0.3-0.2,0.6-0.3,0.9-0.3c2.1,0,3.7-0.2,4.7-0.5
		c1-0.3,1.4-0.9,1.4-1.7H167.7z M171.5,479.9V475c0-0.7-0.1-1.3-0.2-1.9c-0.1-0.6-0.4-1.1-0.7-1.6c-0.3-0.5-0.7-0.8-1.2-1.1
		c-0.5-0.3-1.1-0.4-1.8-0.4c-0.7,0-1.3,0.1-1.8,0.4s-0.9,0.6-1.2,1.1c-0.3,0.5-0.5,1-0.6,1.6c-0.1,0.6-0.2,1.3-0.2,1.9
		c0,0.6,0.1,1.2,0.2,1.8c0.1,0.6,0.3,1.1,0.6,1.5c0.3,0.4,0.7,0.8,1.2,1.1c0.5,0.3,1.1,0.4,1.8,0.4H171.5z"/>
	<path class="st0" d="M178.1,484.3c-0.2,0-0.4,0-0.6-0.1s-0.3-0.1-0.4-0.2s-0.2-0.2-0.2-0.4v-2.9c0-0.2,0.1-0.3,0.2-0.4
		s0.3-0.2,0.5-0.2c0.2,0,0.4-0.1,0.6-0.1c0.2,0,0.4,0,0.5,0h5.6c0,0,0.1,0,0.1,0v-14h5v14c0,0.6-0.1,1.1-0.3,1.7
		c-0.2,0.5-0.5,1-0.9,1.4s-0.9,0.7-1.4,0.9c-0.5,0.2-1.1,0.3-1.7,0.3h-6.3C178.5,484.3,178.3,484.3,178.1,484.3z M185,462.7
		c-0.5-0.5-0.8-1.1-0.8-1.9c0-0.7,0.3-1.4,0.8-1.9c0.5-0.5,1.1-0.8,1.9-0.8c0.7,0,1.3,0.3,1.8,0.8c0.5,0.5,0.8,1.1,0.8,1.9
		c0,0.7-0.3,1.3-0.8,1.9c-0.5,0.5-1.1,0.8-1.8,0.8C186.1,463.5,185.5,463.2,185,462.7z"/>
	<path class="st0" d="M198.6,484.3c-0.6,0-1.2-0.1-1.7-0.3c-0.5-0.2-1-0.5-1.4-0.9s-0.7-0.9-0.9-1.4s-0.3-1.1-0.3-1.7v-21.4h5v21.4
		c0,0,0,0,0.1,0h2.8v4.3H198.6z"/>
	<path class="st0" d="M201.1,484.3c-0.2,0-0.3,0-0.5,0s-0.4,0-0.6-0.1s-0.3-0.1-0.4-0.2s-0.2-0.2-0.2-0.4v-2.9
		c0-0.2,0.1-0.3,0.2-0.4s0.3-0.2,0.5-0.2c0.2,0,0.4-0.1,0.6-0.1c0.2,0,0.4,0,0.5,0h4.8c-0.7-1.4-1.1-3.1-1.1-5
		c0-1.3,0.2-2.6,0.6-3.7s0.9-2.1,1.7-3s1.6-1.5,2.7-2s2.4-0.7,3.8-0.7c1.4,0,2.7,0.2,3.8,0.7s2,1.1,2.8,1.9c0.7,0.8,1.3,1.8,1.7,2.9
		c0.4,1.1,0.6,2.4,0.6,3.8v4.9h2.5v4.3H201.1z M208.6,462.7c-0.5-0.5-0.8-1.1-0.8-1.9c0-0.7,0.3-1.4,0.8-1.9
		c0.5-0.5,1.1-0.8,1.9-0.8c0.7,0,1.3,0.3,1.8,0.8c0.5,0.5,0.8,1.1,0.8,1.9c0,0.7-0.2,1.3-0.8,1.9c-0.5,0.5-1.1,0.8-1.8,0.8
		C209.8,463.5,209.1,463.2,208.6,462.7z M217.4,475c0-0.7-0.1-1.3-0.2-1.9c-0.1-0.6-0.3-1.1-0.6-1.6c-0.3-0.5-0.7-0.8-1.2-1.1
		s-1.1-0.4-1.8-0.4c-0.7,0-1.3,0.1-1.8,0.4c-0.5,0.3-0.9,0.6-1.2,1c-0.3,0.4-0.5,1-0.6,1.6c-0.1,0.6-0.2,1.2-0.2,1.9
		c0,0.7,0.1,1.3,0.2,1.9c0.1,0.6,0.3,1.1,0.6,1.6c0.3,0.5,0.7,0.8,1.2,1.1c0.5,0.3,1.1,0.4,1.8,0.4h3.7V475z M215,462.7
		c-0.5-0.5-0.8-1.1-0.8-1.9c0-0.7,0.3-1.4,0.8-1.9c0.5-0.5,1.1-0.8,1.9-0.8c0.7,0,1.3,0.3,1.8,0.8c0.5,0.5,0.8,1.1,0.8,1.9
		c0,0.7-0.2,1.3-0.8,1.9c-0.5,0.5-1.1,0.8-1.8,0.8C216.1,463.5,215.5,463.2,215,462.7z"/>
	<path class="st0" d="M229.4,479.9v-21.4h5v21.4c0,0.6-0.1,1.1-0.4,1.7c-0.2,0.5-0.5,1-0.9,1.4c-0.4,0.4-0.9,0.7-1.4,0.9
		c-0.5,0.2-1.1,0.3-1.7,0.3h-5.3c-0.2,0-0.3,0-0.5,0s-0.4,0-0.6-0.1s-0.3-0.1-0.4-0.2s-0.2-0.2-0.2-0.4v-2.9c0-0.2,0.1-0.3,0.2-0.4
		s0.3-0.2,0.5-0.2c0.2,0,0.4-0.1,0.6-0.1c0.2,0,0.4,0,0.5,0L229.4,479.9C229.4,479.9,229.4,479.9,229.4,479.9z"/>
	<path class="st0" d="M238.5,484.3v-25.7h5v25.7H238.5z"/>
	<path class="st0" d="M259.5,483.5c-1-0.5-1.9-1.2-2.6-2.1c-0.7-0.9-1.2-1.9-1.6-3c-0.3-1.1-0.5-2.3-0.5-3.6c0-1.3,0.2-2.5,0.7-3.8
		c0.4-1.3,1.2-2.5,2.2-3.5h1l1.5,1.5c0.3,0.4,0.5,0.8,0.6,1.2c0.1,0.4,0,0.9-0.2,1.3c-0.3,0.5-0.4,1-0.5,1.6
		c-0.1,0.5-0.2,1.1-0.2,1.7c0,0.6,0.1,1.2,0.2,1.9c0.1,0.6,0.3,1.1,0.6,1.6c0.3,0.5,0.7,0.9,1.1,1.2c0.5,0.3,1,0.4,1.7,0.4h12.2
		c0,0,0,0,0,0v-14h5v14c0,0.6-0.1,1.1-0.3,1.7s-0.5,1-0.9,1.4s-0.9,0.7-1.4,0.9c-0.5,0.2-1.1,0.3-1.7,0.3h-13.4
		C261.7,484.3,260.6,484,259.5,483.5z M263,467.8c-0.5-0.5-0.8-1.1-0.8-1.9c0-0.7,0.3-1.4,0.8-1.9c0.5-0.5,1.1-0.8,1.9-0.8
		c0.7,0,1.3,0.3,1.9,0.8c0.5,0.5,0.8,1.1,0.8,1.9c0,0.7-0.3,1.3-0.8,1.9s-1.1,0.8-1.9,0.8C264.1,468.5,263.5,468.3,263,467.8z
		 M269.4,467.8c-0.5-0.5-0.8-1.1-0.8-1.9c0-0.7,0.3-1.4,0.8-1.9c0.5-0.5,1.1-0.8,1.9-0.8c0.7,0,1.3,0.3,1.8,0.8
		c0.5,0.5,0.8,1.1,0.8,1.9c0,0.7-0.3,1.3-0.8,1.9s-1.1,0.8-1.8,0.8C270.5,468.5,269.9,468.3,269.4,467.8z"/>
	<path class="st0" d="M285,484.3v-25.7h5v25.7H285z"/>
	<path class="st0" d="M292.6,490l0.3-2.3c0-0.3,0.1-0.6,0.2-0.7c0.1-0.2,0.2-0.3,0.4-0.4s0.4-0.1,0.6-0.1h0.8c0.9,0,1.4-0.5,1.4-1.4
		v-19.1h5v19.1c0,1.7-0.5,3.1-1.4,4.2s-2.3,1.5-4.2,1.5C294.7,490.8,293.7,490.5,292.6,490z"/>
	<path class="st0" d="M309.8,484.3c-0.6,0-1.2-0.1-1.7-0.3c-0.5-0.2-1-0.5-1.4-0.9s-0.7-0.9-0.9-1.4s-0.3-1.1-0.3-1.7v-21.4h5v21.4
		c0,0,0,0,0.1,0h2.8v4.3H309.8z"/>
	<path class="st0" d="M335.3,470c-0.2-0.5-0.3-1-0.3-1.5s0.2-0.9,0.6-1.3l1.9-1.9c2.2,2.3,3.3,4.8,3.3,7.7v6.9c0,0.1,0,0.1,0.1,0.1
		h2.7v4.3h-2c-1,0-1.9-0.3-2.6-0.9c-0.7,0.6-1.6,0.9-2.7,0.9h-3.3c-1.2,0-2.2-0.3-3-0.9c-0.7,0.6-1.6,0.9-2.6,0.9h-3.3
		c-1.2,0-2.2-0.3-3-0.9c-0.7,0.6-1.6,0.9-2.6,0.9h-6.3c-0.2,0-0.3,0-0.5,0s-0.4,0-0.6-0.1s-0.3-0.1-0.4-0.2s-0.2-0.2-0.2-0.4v-2.9
		c0-0.2,0.1-0.3,0.2-0.4s0.3-0.2,0.5-0.2c0.2,0,0.4-0.1,0.6-0.1c0.2,0,0.4,0,0.5,0h5.7c0,0,0.1,0,0.1,0v-11.8h5v11.7
		c0,0.1,0.1,0.1,0.2,0.1h3.7c0,0,0.1,0,0.1,0v-11.8h5v11.7c0,0.1,0,0.1,0.1,0.1h3.7c0,0,0.1,0,0.1,0v-7
		C335.8,471.9,335.7,470.9,335.3,470z M324,464.7c-0.5-0.5-0.8-1.1-0.8-1.9c0-0.7,0.3-1.4,0.8-1.9c0.5-0.5,1.1-0.8,1.9-0.8
		c0.7,0,1.3,0.3,1.9,0.8c0.5,0.5,0.8,1.1,0.8,1.9c0,0.7-0.3,1.3-0.8,1.9c-0.5,0.5-1.1,0.8-1.9,0.8
		C325.1,465.4,324.5,465.2,324,464.7z M327.2,459.4c-0.5-0.5-0.8-1.1-0.8-1.9c0-0.7,0.3-1.4,0.8-1.9c0.5-0.5,1.1-0.8,1.9-0.8
		c0.7,0,1.3,0.3,1.8,0.8c0.5,0.5,0.8,1.1,0.8,1.9c0,0.7-0.3,1.3-0.8,1.9s-1.1,0.8-1.8,0.8C328.3,460.2,327.7,459.9,327.2,459.4z
		 M330.4,464.7c-0.5-0.5-0.8-1.1-0.8-1.9c0-0.7,0.3-1.4,0.8-1.9c0.5-0.5,1.1-0.8,1.9-0.8c0.7,0,1.3,0.3,1.8,0.8
		c0.5,0.5,0.8,1.1,0.8,1.9c0,0.7-0.3,1.3-0.8,1.9c-0.5,0.5-1.1,0.8-1.8,0.8C331.5,465.4,330.9,465.2,330.4,464.7z"/>
	<path class="st0" d="M342.8,484.3c-0.2,0-0.4,0-0.6-0.1s-0.3-0.1-0.4-0.2s-0.2-0.2-0.2-0.4v-2.9c0-0.2,0.1-0.3,0.2-0.4
		s0.3-0.2,0.5-0.2c0.2,0,0.4-0.1,0.6-0.1c0.2,0,0.4,0,0.5,0h5.7c0,0,0,0,0,0v-14h5v13.9c0,0.1,0,0.1,0.1,0.1h2.7v4.3h-2
		c-1,0-1.9-0.3-2.6-0.9c-0.7,0.6-1.6,0.9-2.6,0.9h-6.3C343.2,484.3,343,484.3,342.8,484.3z M346.2,462.7c-0.5-0.5-0.8-1.1-0.8-1.9
		c0-0.7,0.3-1.4,0.8-1.9c0.5-0.5,1.1-0.8,1.9-0.8c0.7,0,1.3,0.3,1.8,0.8c0.5,0.5,0.8,1.1,0.8,1.9c0,0.7-0.3,1.3-0.8,1.9
		c-0.5,0.5-1.1,0.8-1.8,0.8C347.3,463.5,346.7,463.2,346.2,462.7z M352.5,462.7c-0.5-0.5-0.8-1.1-0.8-1.9c0-0.7,0.3-1.4,0.8-1.9
		c0.5-0.5,1.1-0.8,1.9-0.8c0.7,0,1.3,0.3,1.8,0.8c0.5,0.5,0.8,1.1,0.8,1.9c0,0.7-0.3,1.3-0.8,1.9c-0.5,0.5-1.1,0.8-1.8,0.8
		C353.6,463.5,353,463.2,352.5,462.7z"/>
	<path class="st0" d="M379.6,470c-0.2-0.5-0.3-1-0.3-1.5s0.2-0.9,0.6-1.3l1.9-1.9c2.2,2.3,3.3,4.8,3.3,7.7v7c0,0.6-0.1,1.1-0.3,1.7
		s-0.5,1-0.9,1.4s-0.9,0.7-1.4,0.9c-0.5,0.2-1.1,0.3-1.7,0.3h-3.3c-1.2,0-2.2-0.3-3-0.9c-0.7,0.6-1.6,0.9-2.6,0.9h-3.3
		c-1.2,0-2.2-0.3-3-0.9c-0.7,0.6-1.6,0.9-2.6,0.9h-6.3c-0.2,0-0.3,0-0.5,0s-0.4,0-0.6-0.1s-0.3-0.1-0.4-0.2s-0.2-0.2-0.2-0.4v-2.9
		c0-0.2,0.1-0.3,0.2-0.4s0.3-0.2,0.5-0.2c0.2,0,0.4-0.1,0.6-0.1c0.2,0,0.4,0,0.5,0h5.7c0,0,0.1,0,0.1,0v-11.8h5v11.7
		c0,0.1,0.1,0.1,0.2,0.1h3.7c0,0,0.1,0,0.1,0v-11.8h5v11.7c0,0.1,0,0.1,0.1,0.1h3.7c0,0,0.1,0,0.1,0v-7
		C380.1,471.9,379.9,470.9,379.6,470z"/>
	<path class="st0" d="M387.9,483.6c0-0.2,0-0.4,0.1-0.5c0-0.1,0-0.3,0-0.5c0-0.2,0-0.4,0.1-0.6c0-0.2,0-0.5,0.1-0.8
		c0-0.4,0.2-0.7,0.5-1c0.3-0.3,0.6-0.4,1-0.4h10.5c0.1,0,0.1,0,0.1-0.1v-21.3h5v21.4c0,0.6-0.1,1.2-0.3,1.7c-0.2,0.5-0.5,1-0.9,1.4
		c-0.4,0.4-0.9,0.7-1.4,0.9c-0.5,0.2-1.1,0.3-1.7,0.3h-9.9C390.1,484.3,389.1,484.1,387.9,483.6z M391.3,477v-13.3h5V477H391.3z"/>
	<path class="st0" d="M409.4,484.3v-25.7h5v25.7H409.4z"/>
	<path class="st0" d="M418.3,471.4c0.4-1.1,0.9-2.1,1.7-3c0.7-0.9,1.6-1.5,2.7-2s2.4-0.7,3.8-0.7c1.4,0,2.6,0.2,3.7,0.7
		s2,1.1,2.8,1.9c0.8,0.8,1.3,1.8,1.7,3c0.4,1.2,0.6,2.4,0.6,3.8v8c0,2.6-0.7,4.6-2.2,5.8c-1.5,1.2-3.6,1.9-6.3,1.9
		c-1,0-1.9-0.1-2.5-0.2c-0.6-0.1-1.2-0.3-1.7-0.5l0.2-2.3c0-0.4,0.2-0.7,0.5-0.9c0.3-0.2,0.6-0.3,0.9-0.3c2.1,0,3.7-0.2,4.7-0.5
		c1-0.3,1.4-1,1.4-2v-0.1c-0.5,0.2-1,0.3-1.6,0.5c-0.6,0.1-1.4,0.2-2.2,0.2c-1.4,0-2.7-0.2-3.8-0.7s-2-1.1-2.8-1.9
		c-0.7-0.8-1.3-1.8-1.7-3c-0.4-1.2-0.6-2.4-0.6-3.8C417.7,473.8,417.9,472.5,418.3,471.4z M424.8,470.5c-0.5,0.3-0.9,0.6-1.2,1.1
		s-0.5,1-0.6,1.6c-0.1,0.6-0.2,1.3-0.2,1.9c0,0.7,0.1,1.3,0.2,1.9c0.1,0.6,0.3,1.1,0.6,1.6s0.7,0.8,1.2,1.1c0.5,0.3,1.1,0.4,1.8,0.4
		c0.9,0,1.6-0.1,2.1-0.3s0.9-0.4,1.1-0.7c0.2-0.3,0.4-0.7,0.5-1.2c0.1-0.5,0.1-1,0.1-1.6v-1.3c0-0.7-0.1-1.3-0.2-1.9
		c-0.1-0.6-0.3-1.1-0.6-1.6c-0.3-0.5-0.7-0.8-1.1-1.1c-0.5-0.3-1.1-0.4-1.8-0.4C425.9,470.1,425.3,470.2,424.8,470.5z"/>
	<path class="st0" d="M446.5,471.6c0.3-1.1,0.8-2.2,1.5-3c0.7-0.9,1.5-1.6,2.5-2.1c1-0.5,2.2-0.8,3.6-0.8c0.6,0,1.1,0.1,1.6,0.2
		c0.5,0.1,1,0.3,1.4,0.5c0.5,0.2,0.9,0.4,1.3,0.7c0.2-0.4,0.4-0.7,0.7-0.9c0.3-0.2,0.5-0.3,0.8-0.3h2.6v14c0,0.6-0.1,1.1-0.3,1.7
		s-0.5,1-0.9,1.4s-0.9,0.7-1.4,0.9c-0.5,0.2-1.1,0.3-1.7,0.3h-4.9c-1.4,0-2.5-0.3-3.4-0.8s-1.7-1.3-2.2-2.2s-1-1.9-1.2-2.9
		c-0.2-1.1-0.4-2.2-0.4-3.2C446,473.9,446.2,472.7,446.5,471.6z M450,462.7c-0.5-0.5-0.8-1.1-0.8-1.9c0-0.7,0.3-1.4,0.8-1.9
		c0.5-0.5,1.1-0.8,1.9-0.8c0.7,0,1.3,0.3,1.9,0.8c0.5,0.5,0.8,1.1,0.8,1.9c0,0.7-0.3,1.3-0.8,1.9c-0.5,0.5-1.1,0.8-1.9,0.8
		C451.1,463.5,450.5,463.2,450,462.7z M453,470.4c-0.5,0.3-0.8,0.6-1.1,1.1c-0.3,0.5-0.5,1-0.6,1.6s-0.2,1.2-0.2,1.9
		c0,0.5,0,1.1,0.1,1.6c0.1,0.6,0.2,1.1,0.5,1.6c0.2,0.5,0.5,0.9,0.9,1.2c0.4,0.3,0.9,0.5,1.5,0.5h3.3c0,0,0.1,0,0.1,0v-8.7
		c-0.7-0.8-1.6-1.2-2.8-1.2C454,470,453.5,470.1,453,470.4z M456.3,462.7c-0.5-0.5-0.8-1.1-0.8-1.9c0-0.7,0.3-1.4,0.8-1.9
		c0.5-0.5,1.1-0.8,1.9-0.8c0.7,0,1.3,0.3,1.8,0.8c0.5,0.5,0.8,1.1,0.8,1.9c0,0.7-0.2,1.3-0.8,1.9c-0.5,0.5-1.1,0.8-1.8,0.8
		C457.5,463.5,456.8,463.2,456.3,462.7z"/>
	<path class="st0" d="M471.1,484.3c-0.6,0-1.2-0.1-1.7-0.3c-0.5-0.2-1-0.5-1.4-0.9s-0.7-0.9-0.9-1.4s-0.3-1.1-0.3-1.7v-21.4h5v21.4
		c0,0,0,0,0.1,0h2.8v4.3H471.1z"/>
	<path class="st0" d="M482.1,482.9c-0.9,0.9-1.9,1.4-3.2,1.4h-5.3c-0.2,0-0.3,0-0.5,0s-0.4,0-0.6-0.1s-0.3-0.1-0.4-0.2
		s-0.2-0.2-0.2-0.4v-2.9c0-0.2,0.1-0.3,0.2-0.4s0.3-0.2,0.5-0.2c0.2,0,0.4-0.1,0.6-0.1c0.2,0,0.4,0,0.5,0h4.6c0,0,0,0,0,0V475
		c0-1.3,0.2-2.6,0.6-3.7s1-2.1,1.7-3s1.7-1.5,2.8-2s2.4-0.7,3.8-0.7c1.4,0,2.6,0.2,3.7,0.7c1.1,0.5,2,1.1,2.7,1.9
		c0.7,0.8,1.3,1.8,1.7,2.9c0.4,1.1,0.6,2.4,0.6,3.8v4.9c0,1.3-0.4,2.4-1.2,3.2c-0.8,0.8-1.9,1.2-3.2,1.2h-4.4
		C485.2,484.3,483.5,483.8,482.1,482.9z M490.8,479.8V475c0-0.7-0.1-1.3-0.2-1.9c-0.1-0.6-0.3-1.1-0.6-1.6c-0.3-0.5-0.7-0.8-1.1-1.1
		c-0.5-0.3-1.1-0.4-1.8-0.4c-0.7,0-1.3,0.1-1.8,0.4c-0.5,0.2-0.9,0.6-1.2,1c-0.3,0.4-0.5,1-0.6,1.6c-0.1,0.6-0.2,1.3-0.2,2v0.6
		c0,1.3,0.3,2.3,0.9,3.1c0.6,0.8,1.5,1.2,2.9,1.2h3.6C490.8,479.9,490.8,479.9,490.8,479.8z"/>
	<path class="st0" d="M504.5,484.3c-0.6,0-1.2-0.1-1.7-0.3c-0.5-0.2-1-0.5-1.4-0.9s-0.7-0.9-0.9-1.4s-0.3-1.1-0.3-1.7v-21.4h5v21.4
		c0,0,0,0,0.1,0h2.8v4.3H504.5z"/>
	<path class="st0" d="M507,484.3c-0.2,0-0.3,0-0.5,0s-0.4,0-0.6-0.1s-0.3-0.1-0.4-0.2s-0.2-0.2-0.2-0.4v-2.9c0-0.2,0.1-0.3,0.2-0.4
		s0.3-0.2,0.5-0.2c0.2,0,0.4-0.1,0.6-0.1c0.2,0,0.4,0,0.5,0h15.6c-0.6-2.1-1.1-3.7-1.5-5c-0.4-1.3-0.6-2.1-0.8-2.6
		c-0.2-0.6-0.6-1.2-1.1-1.6c-0.5-0.4-1.3-0.7-2.4-0.7c-0.5,0-1,0.1-1.3,0.2s-0.7,0.3-1.2,0.6c-0.4,0.4-0.9,0.5-1.3,0.5
		c-0.5,0-1-0.3-1.4-0.8c0,0-0.1-0.2-0.2-0.3s-0.3-0.4-0.4-0.6c-0.1-0.2-0.3-0.4-0.4-0.6c-0.1-0.2-0.2-0.3-0.2-0.3
		c2.1-2.1,4.4-3.1,6.7-3.1c1.9,0,3.6,0.5,5,1.5c1.4,1,2.5,2.5,3.1,4.4c0,0.2,0.1,0.4,0.2,0.7c0.1,0.3,0.2,0.6,0.3,1l1.5,4.9
		c0.1,0.4,0.2,0.7,0.3,1c0.1,0.3,0.2,0.5,0.2,0.7h0.7v4.3H507z"/>
	<path class="st0" d="M536.3,482.9c-0.9,0.9-1.9,1.4-3.2,1.4h-5c-0.2,0-0.3,0-0.5,0s-0.4,0-0.6-0.1s-0.3-0.1-0.4-0.2
		s-0.2-0.2-0.2-0.4v-2.9c0-0.2,0.1-0.3,0.2-0.4s0.3-0.2,0.5-0.2c0.2,0,0.4-0.1,0.6-0.1c0.2,0,0.4,0,0.5,0h4.3c0,0,0,0,0,0V475
		c0-1.3,0.2-2.6,0.6-3.7s1-2.1,1.7-3s1.7-1.5,2.8-2s2.4-0.7,3.8-0.7c1.4,0,2.6,0.2,3.7,0.7s2,1.1,2.7,1.9c0.7,0.8,1.3,1.8,1.7,2.9
		s0.6,2.4,0.6,3.8v4.8c0,0.1,0,0.1,0.1,0.1h2.4v4.3H551c-1,0-1.8-0.3-2.5-0.8c-0.4,0.3-0.8,0.5-1.2,0.6c-0.5,0.2-1,0.2-1.5,0.2h-4.4
		C539.4,484.3,537.7,483.8,536.3,482.9z M539.6,470.4c-0.5,0.2-0.9,0.6-1.2,1c-0.3,0.4-0.5,1-0.6,1.6c-0.1,0.6-0.2,1.3-0.2,2v0.6
		c0,1.3,0.3,2.3,0.9,3.1c0.6,0.8,1.5,1.2,2.9,1.2h3.6c0.1,0,0.1,0,0.1-0.1V475c0-0.7-0.1-1.3-0.2-1.9c-0.1-0.6-0.3-1.1-0.6-1.6
		c-0.3-0.5-0.7-0.8-1.1-1.1c-0.5-0.3-1.1-0.4-1.8-0.4C540.7,470.1,540.1,470.2,539.6,470.4z"/>
	<path class="st0" d="M551.8,484.3c-0.2,0-0.4,0-0.6-0.1s-0.3-0.1-0.4-0.2s-0.2-0.2-0.2-0.4v-2.9c0-0.2,0.1-0.3,0.2-0.4
		s0.3-0.2,0.5-0.2c0.2,0,0.4-0.1,0.6-0.1c0.2,0,0.4,0,0.5,0h5.7c0,0,0,0,0,0v-21.4h5v21.3c0,0.1,0,0.1,0.1,0.1h2.7v4.3h-2
		c-1,0-1.9-0.3-2.6-0.9c-0.7,0.6-1.6,0.9-2.6,0.9h-6.3C552.2,484.3,552,484.3,551.8,484.3z"/>
	<path class="st0" d="M570.3,479.9v-21.4h5v21.4c0,0.6-0.1,1.1-0.3,1.7c-0.2,0.5-0.5,1-0.9,1.4c-0.4,0.4-0.9,0.7-1.4,0.9
		c-0.5,0.2-1.1,0.3-1.7,0.3h-5.3c-0.2,0-0.3,0-0.5,0s-0.4,0-0.6-0.1s-0.3-0.1-0.4-0.2s-0.2-0.2-0.2-0.4v-2.9c0-0.2,0.1-0.3,0.2-0.4
		s0.3-0.2,0.5-0.2c0.2,0,0.4-0.1,0.6-0.1c0.2,0,0.4,0,0.5,0L570.3,479.9C570.3,479.9,570.3,479.9,570.3,479.9z"/>
	<path class="st0" d="M617.2,484.3c-0.6,0-1.2-0.1-1.7-0.3c-0.5-0.2-1-0.5-1.4-0.9c-0.4-0.4-0.7-0.9-0.9-1.4
		c-0.2-0.5-0.4-1.1-0.4-1.7v-9.7H610l0,0v9.6c0,0.6-0.1,1.2-0.4,1.7c-0.2,0.5-0.5,1-0.9,1.4c-0.4,0.4-0.9,0.7-1.4,0.9
		c-0.5,0.2-1.1,0.3-1.7,0.3h-10.9c-1.3,0-2.4-0.3-3.4-0.8c-1-0.5-1.8-1.2-2.5-2.1c-0.7-0.9-1.2-1.9-1.5-3c-0.3-1.1-0.5-2.3-0.5-3.6
		c0-1.3,0.2-2.5,0.7-3.8s1.2-2.5,2.2-3.5h1l1.5,1.5c0.3,0.4,0.5,0.8,0.6,1.2c0.1,0.5,0,0.9-0.2,1.3c-0.4,0.9-0.7,2-0.7,3.3
		c0,0.6,0.1,1.2,0.2,1.9c0.1,0.6,0.3,1.1,0.6,1.6c0.3,0.5,0.6,0.9,1.1,1.2c0.4,0.3,1,0.4,1.6,0.4h9.7c0,0,0,0,0,0v-9.6
		c0-0.6,0.1-1.2,0.4-1.7c0.2-0.5,0.5-1,0.9-1.4c0.4-0.4,0.9-0.7,1.4-0.9c0.5-0.2,1.1-0.3,1.7-0.3h8.4v14l0,0h2.8v4.3H617.2z
		 M594.9,490.4c-0.5-0.5-0.8-1.1-0.8-1.9c0-0.7,0.3-1.4,0.8-1.9c0.5-0.5,1.1-0.8,1.9-0.8c0.7,0,1.3,0.3,1.8,0.8
		c0.5,0.5,0.8,1.1,0.8,1.9c0,0.7-0.2,1.3-0.8,1.9c-0.5,0.5-1.1,0.8-1.8,0.8C596.1,491.1,595.4,490.9,594.9,490.4z M601.3,490.4
		c-0.5-0.5-0.8-1.1-0.8-1.9c0-0.7,0.3-1.4,0.8-1.9c0.5-0.5,1.1-0.8,1.9-0.8c0.7,0,1.3,0.3,1.8,0.8c0.5,0.5,0.8,1.1,0.8,1.9
		c0,0.7-0.2,1.3-0.8,1.9c-0.5,0.5-1.1,0.8-1.8,0.8C602.4,491.1,601.8,490.9,601.3,490.4z"/>
	<path class="st0" d="M619.8,484.3c-0.2,0-0.4,0-0.6-0.1s-0.3-0.1-0.4-0.2s-0.2-0.2-0.2-0.4v-2.9c0-0.2,0.1-0.3,0.2-0.4
		s0.3-0.2,0.5-0.2c0.2,0,0.4-0.1,0.6-0.1c0.2,0,0.4,0,0.5,0h5.6c0,0,0.1,0,0.1,0v-14h5v14c0,0.6-0.1,1.1-0.3,1.7
		c-0.2,0.5-0.5,1-0.9,1.4s-0.9,0.7-1.4,0.9c-0.5,0.2-1.1,0.3-1.7,0.3h-6.3C620.1,484.3,620,484.3,619.8,484.3z M626.6,462.7
		c-0.5-0.5-0.8-1.1-0.8-1.9c0-0.7,0.3-1.4,0.8-1.9c0.5-0.5,1.1-0.8,1.9-0.8c0.7,0,1.3,0.3,1.8,0.8c0.5,0.5,0.8,1.1,0.8,1.9
		c0,0.7-0.3,1.3-0.8,1.9c-0.5,0.5-1.1,0.8-1.8,0.8C627.7,463.5,627.1,463.2,626.6,462.7z"/>
	<path class="st0" d="M640.2,484.3c-0.6,0-1.2-0.1-1.7-0.3c-0.5-0.2-1-0.5-1.4-0.9s-0.7-0.9-0.9-1.4s-0.3-1.1-0.3-1.7v-21.4h5v21.4
		c0,0,0,0,0.1,0h2.8v4.3H640.2z"/>
	<path class="st0" d="M651.3,482.9c-0.9,0.9-1.9,1.4-3.2,1.4h-5.3c-0.2,0-0.3,0-0.5,0s-0.4,0-0.6-0.1s-0.3-0.1-0.4-0.2
		s-0.2-0.2-0.2-0.4v-2.9c0-0.2,0.1-0.3,0.2-0.4s0.3-0.2,0.5-0.2c0.2,0,0.4-0.1,0.6-0.1c0.2,0,0.4,0,0.5,0h4.6c0,0,0,0,0,0V475
		c0-1.3,0.2-2.6,0.6-3.7s1-2.1,1.7-3s1.7-1.5,2.8-2s2.4-0.7,3.8-0.7c1.4,0,2.6,0.2,3.7,0.7c1.1,0.5,2,1.1,2.7,1.9
		c0.7,0.8,1.3,1.8,1.7,2.9c0.4,1.1,0.6,2.4,0.6,3.8v4.9c0,1.3-0.4,2.4-1.2,3.2c-0.8,0.8-1.9,1.2-3.2,1.2h-4.4
		C654.3,484.3,652.7,483.8,651.3,482.9z M660,479.8V475c0-0.7-0.1-1.3-0.2-1.9c-0.1-0.6-0.3-1.1-0.6-1.6c-0.3-0.5-0.7-0.8-1.1-1.1
		c-0.5-0.3-1.1-0.4-1.8-0.4c-0.7,0-1.3,0.1-1.8,0.4c-0.5,0.2-0.9,0.6-1.2,1c-0.3,0.4-0.5,1-0.6,1.6c-0.1,0.6-0.2,1.3-0.2,2v0.6
		c0,1.3,0.3,2.3,0.9,3.1c0.6,0.8,1.5,1.2,2.9,1.2h3.6C659.9,479.9,660,479.9,660,479.8z"/>
</g>
<g>
	<g>
		<g>
			<path class="st0" d="M493.3,567c-0.8,0-1.6-0.3-2.3-0.8c-0.6,0.5-1.4,0.8-2.3,0.8h-13.4c-1.2,0-2.2-0.2-3.1-0.7
				c-0.9-0.4-1.7-1-2.3-1.8c-0.6-0.7-1.1-1.6-1.4-2.6c-0.3-1-0.5-2-0.5-3.1c0-1.1,0.2-2.2,0.6-3.4s1-2.2,1.9-3.1h0.9l1.3,1.3
				c0.3,0.3,0.5,0.7,0.5,1.2c0,0.5-0.1,0.9-0.3,1.3c-0.3,0.8-0.5,1.6-0.5,2.7c0,0.5,0.1,1.1,0.2,1.6c0.1,0.5,0.3,1,0.5,1.4
				c0.2,0.4,0.6,0.8,1,1s0.9,0.4,1.6,0.4h12.4c0,0,0,0,0,0v-18.7h4.4v18.7c0,0.1,0,0.1,0.1,0.1h2.4v3.8H493.3z M477.4,555.5
				c0-0.3,0-0.5,0-0.7c0-0.3,0.1-0.6,0.2-0.7s0.2-0.2,0.4-0.2h0.1c-0.1-0.2-0.2-0.4-0.3-0.6c-0.1-0.2-0.1-0.6-0.1-1
				c0-0.4,0.1-0.8,0.2-1.2c0.1-0.4,0.4-0.7,0.7-1.1c0.3-0.3,0.7-0.6,1.1-0.8c0.4-0.2,0.9-0.3,1.5-0.3c0.5,0,1.1,0.1,1.6,0.4
				s1,0.6,1.3,1c0,0-0.1,0.1-0.2,0.3c-0.1,0.1-0.2,0.3-0.3,0.4s-0.2,0.3-0.3,0.4c-0.1,0.1-0.1,0.2-0.2,0.2c-0.1,0.2-0.2,0.3-0.5,0.3
				c-0.1,0-0.3-0.1-0.5-0.2s-0.3-0.2-0.4-0.3c-0.1-0.1-0.3-0.1-0.6-0.1c-0.3,0-0.6,0.1-0.8,0.4s-0.3,0.5-0.3,0.9
				c0,0.4,0.1,0.7,0.3,0.9c0.2,0.2,0.6,0.3,1.1,0.3h2.6v2.5h-5.4c-0.2,0-0.4,0-0.6-0.1c-0.2-0.1-0.4-0.1-0.6-0.2
				C477.4,556,477.4,555.8,477.4,555.5z"/>
			<path class="st0" d="M494.3,567c-0.2,0-0.3,0-0.5-0.1s-0.3-0.1-0.4-0.2c-0.1-0.1-0.2-0.2-0.2-0.4v-2.6c0-0.1,0.1-0.3,0.2-0.3
				c0.1-0.1,0.2-0.1,0.4-0.2c0.2,0,0.3-0.1,0.5-0.1c0.2,0,0.3,0,0.4,0h7.1v3.8h-7.1C494.6,567,494.5,567,494.3,567z"/>
			<path class="st0" d="M501.1,567c-0.2,0-0.3,0-0.5-0.1s-0.3-0.1-0.4-0.2c-0.1-0.1-0.2-0.2-0.2-0.4v-2.6c0-0.1,0.1-0.3,0.2-0.3
				c0.1-0.1,0.2-0.1,0.4-0.2c0.2,0,0.3-0.1,0.5-0.1c0.2,0,0.3,0,0.4,0h7.1v3.8h-7.1C501.4,567,501.3,567,501.1,567z"/>
			<path class="st0" d="M507.9,567c-0.2,0-0.3,0-0.5-0.1s-0.3-0.1-0.4-0.2c-0.1-0.1-0.2-0.2-0.2-0.4v-2.6c0-0.1,0.1-0.3,0.2-0.3
				c0.1-0.1,0.2-0.1,0.4-0.2c0.2,0,0.3-0.1,0.5-0.1c0.2,0,0.3,0,0.4,0h7.1v3.8h-7.1C508.2,567,508,567,507.9,567z"/>
			<path class="st0" d="M514.6,567c-0.2,0-0.3,0-0.5-0.1s-0.3-0.1-0.4-0.2c-0.1-0.1-0.2-0.2-0.2-0.4v-2.6c0-0.1,0.1-0.3,0.2-0.3
				c0.1-0.1,0.2-0.1,0.4-0.2c0.2,0,0.3-0.1,0.5-0.1c0.2,0,0.3,0,0.4,0h7.1v3.8h-7.1C515,567,514.8,567,514.6,567z"/>
			<path class="st0" d="M521.4,567c-0.2,0-0.3,0-0.5-0.1s-0.3-0.1-0.4-0.2c-0.1-0.1-0.2-0.2-0.2-0.4v-2.6c0-0.1,0.1-0.3,0.2-0.3
				c0.1-0.1,0.2-0.1,0.4-0.2c0.2,0,0.3-0.1,0.5-0.1c0.2,0,0.3,0,0.4,0h5c0,0,0,0,0,0v-12.3h4.4v12.2c0,0.1,0,0.1,0.1,0.1h2.4v3.8
				H532c-0.9,0-1.7-0.3-2.3-0.8c-0.6,0.5-1.4,0.8-2.3,0.8h-5.5C521.7,567,521.6,567,521.4,567z M527.4,572.3c-0.4-0.4-0.7-1-0.7-1.6
				c0-0.7,0.2-1.2,0.7-1.7c0.5-0.4,1-0.7,1.7-0.7c0.6,0,1.2,0.2,1.6,0.7c0.4,0.4,0.7,1,0.7,1.7c0,0.6-0.2,1.2-0.7,1.6
				s-1,0.7-1.6,0.7C528.4,573,527.9,572.8,527.4,572.3z"/>
			<path class="st0" d="M533,567c-0.2,0-0.3,0-0.5-0.1s-0.3-0.1-0.4-0.2c-0.1-0.1-0.2-0.2-0.2-0.4v-2.6c0-0.1,0.1-0.3,0.2-0.3
				c0.1-0.1,0.2-0.1,0.4-0.2c0.2,0,0.3-0.1,0.5-0.1c0.2,0,0.3,0,0.4,0h4.9c0,0,0.1,0,0.1,0v-12.3h4.4v12.3c0,0.5-0.1,1-0.3,1.5
				c-0.2,0.5-0.5,0.9-0.8,1.2c-0.3,0.3-0.8,0.6-1.2,0.8c-0.5,0.2-1,0.3-1.5,0.3h-5.5C533.4,567,533.2,567,533,567z M539,548.1
				c-0.5-0.4-0.7-1-0.7-1.6c0-0.7,0.2-1.2,0.7-1.7c0.4-0.4,1-0.7,1.7-0.7c0.6,0,1.2,0.2,1.6,0.7c0.4,0.4,0.7,1,0.7,1.7
				c0,0.6-0.2,1.2-0.7,1.6s-1,0.7-1.6,0.7C540,548.7,539.5,548.5,539,548.1z"/>
			<path class="st0" d="M551,567c-0.5,0-1-0.1-1.5-0.3c-0.5-0.2-0.9-0.5-1.2-0.8c-0.3-0.3-0.6-0.8-0.8-1.2c-0.2-0.5-0.3-1-0.3-1.5
				v-18.7h4.4v18.7c0,0,0,0,0.1,0h2.5v3.8H551z"/>
			<path class="st0" d="M553.2,567c-0.1,0-0.3,0-0.5,0s-0.3,0-0.5-0.1s-0.3-0.1-0.4-0.2c-0.1-0.1-0.2-0.2-0.2-0.4v-2.6
				c0-0.1,0.1-0.3,0.2-0.3c0.1-0.1,0.2-0.1,0.4-0.2c0.2,0,0.3-0.1,0.5-0.1c0.2,0,0.3,0,0.4,0h13.7c-0.5-1.8-1-3.3-1.3-4.4
				c-0.3-1.1-0.6-1.9-0.7-2.3c-0.2-0.6-0.5-1-1-1.4c-0.5-0.4-1.2-0.6-2.1-0.6c-0.5,0-0.9,0.1-1.2,0.2c-0.3,0.1-0.6,0.3-1,0.5
				c-0.4,0.3-0.8,0.5-1.2,0.5c-0.5,0-0.9-0.2-1.2-0.7c0,0-0.1-0.1-0.2-0.3c-0.1-0.2-0.2-0.3-0.4-0.5c-0.1-0.2-0.2-0.3-0.4-0.5
				s-0.2-0.2-0.2-0.3c1.9-1.8,3.8-2.7,5.9-2.7c1.7,0,3.1,0.4,4.4,1.3c1.3,0.9,2.2,2.2,2.7,3.9c0,0.2,0.1,0.4,0.2,0.6
				c0.1,0.3,0.2,0.6,0.3,0.9l1.3,4.3c0.1,0.3,0.2,0.6,0.3,0.9s0.1,0.5,0.2,0.6h0.6v3.8H553.2z M560.6,572.3c-0.4-0.4-0.7-1-0.7-1.6
				c0-0.7,0.2-1.2,0.7-1.7c0.4-0.4,1-0.7,1.7-0.7c0.6,0,1.2,0.2,1.6,0.7c0.4,0.4,0.7,1,0.7,1.7c0,0.6-0.2,1.2-0.7,1.6
				s-1,0.7-1.6,0.7C561.6,573,561.1,572.8,560.6,572.3z"/>
			<path class="st0" d="M571.3,567c-0.2,0-0.3,0-0.5-0.1s-0.3-0.1-0.4-0.2c-0.1-0.1-0.2-0.2-0.2-0.4v-2.6c0-0.1,0.1-0.3,0.2-0.3
				c0.1-0.1,0.2-0.1,0.4-0.2c0.2,0,0.3-0.1,0.5-0.1c0.2,0,0.3,0,0.4,0h4.9c0,0,0.1,0,0.1,0v-12.3h4.4v12.3c0,0.5-0.1,1-0.3,1.5
				c-0.2,0.5-0.5,0.9-0.8,1.2c-0.3,0.3-0.8,0.6-1.2,0.8c-0.5,0.2-1,0.3-1.5,0.3h-5.5C571.6,567,571.4,567,571.3,567z M577,572.3
				c-0.5-0.4-0.7-1-0.7-1.6c0-0.7,0.2-1.2,0.7-1.7c0.4-0.4,1-0.7,1.7-0.7c0.6,0,1.2,0.2,1.6,0.7c0.4,0.4,0.7,1,0.7,1.7
				c0,0.6-0.2,1.2-0.7,1.6s-1,0.7-1.6,0.7C578,573,577.5,572.8,577,572.3z"/>
			<path class="st0" d="M598.2,567c-1.2,0-2.2-0.2-3.1-0.7s-1.7-1-2.3-1.8c-0.6-0.8-1.1-1.6-1.4-2.6c-0.3-1-0.5-2-0.5-3.1
				c0-1.1,0.2-2.2,0.6-3.4s1-2.2,1.9-3.1h0.9l1.3,1.3c0.4,0.3,0.6,0.7,0.6,1.2s-0.1,0.9-0.3,1.3c-0.3,0.7-0.5,1.6-0.5,2.6
				c0,0.6,0.1,1.1,0.2,1.6s0.3,1,0.5,1.5c0.3,0.4,0.6,0.8,1,1c0.4,0.3,0.9,0.4,1.5,0.4h6c-0.7-1.2-1-2.7-1-4.3
				c0-1.2,0.2-2.2,0.5-3.2c0.3-1,0.8-1.9,1.5-2.6s1.5-1.3,2.4-1.7s2.1-0.6,3.3-0.6c1.2,0,2.3,0.2,3.3,0.6c1,0.4,1.8,1,2.4,1.7
				c0.7,0.7,1.2,1.6,1.5,2.6c0.3,1,0.5,2.1,0.5,3.3v4.3h2.2v3.8H598.2z M614.7,558.9c0-0.6-0.1-1.1-0.2-1.7c-0.1-0.5-0.3-1-0.5-1.4
				s-0.6-0.7-1-1s-0.9-0.4-1.6-0.4c-0.6,0-1.1,0.1-1.5,0.3c-0.4,0.2-0.8,0.5-1,0.9c-0.3,0.4-0.5,0.9-0.6,1.4s-0.2,1.1-0.2,1.7
				c0,0.6,0.1,1.1,0.2,1.7s0.3,1,0.6,1.4c0.3,0.4,0.6,0.7,1,0.9c0.4,0.2,1,0.4,1.6,0.4h3.2V558.9z M609.8,548.1
				c-0.5-0.4-0.7-1-0.7-1.6c0-0.7,0.2-1.2,0.7-1.7c0.4-0.4,1-0.7,1.7-0.7c0.6,0,1.2,0.2,1.6,0.7c0.4,0.4,0.7,1,0.7,1.7
				c0,0.6-0.2,1.2-0.7,1.6s-1,0.7-1.6,0.7C610.8,548.7,610.3,548.5,609.8,548.1z"/>
			<path class="st0" d="M620.6,567c-0.2,0-0.3,0-0.5-0.1s-0.3-0.1-0.4-0.2c-0.1-0.1-0.2-0.2-0.2-0.4v-2.6c0-0.1,0.1-0.3,0.2-0.3
				c0.1-0.1,0.2-0.1,0.4-0.2c0.2,0,0.3-0.1,0.5-0.1c0.2,0,0.3,0,0.4,0h7.1v3.8h-7.1C620.9,567,620.8,567,620.6,567z"/>
			<path class="st0" d="M627.4,567c-0.2,0-0.3,0-0.5-0.1s-0.3-0.1-0.4-0.2c-0.1-0.1-0.2-0.2-0.2-0.4v-2.6c0-0.1,0.1-0.3,0.2-0.3
				c0.1-0.1,0.2-0.1,0.4-0.2c0.2,0,0.3-0.1,0.5-0.1c0.2,0,0.3,0,0.4,0h7.1v3.8h-7.1C627.7,567,627.5,567,627.4,567z"/>
			<path class="st0" d="M634.6,567c-0.1,0-0.3,0-0.5,0s-0.3,0-0.5-0.1s-0.3-0.1-0.4-0.2c-0.1-0.1-0.2-0.2-0.2-0.4v-2.6
				c0-0.1,0.1-0.3,0.2-0.3c0.1-0.1,0.2-0.1,0.4-0.2c0.2,0,0.3-0.1,0.5-0.1c0.2,0,0.3,0,0.4,0h4.2c-0.7-1.2-1-2.7-1-4.4
				c0-1.2,0.2-2.2,0.5-3.2s0.8-1.9,1.5-2.6c0.6-0.7,1.4-1.3,2.4-1.7c1-0.4,2.1-0.6,3.3-0.6c1.2,0,2.3,0.2,3.3,0.6
				c1,0.4,1.8,1,2.4,1.7s1.2,1.6,1.5,2.6s0.5,2.1,0.5,3.3v4.3h2.2v3.8H634.6z M641.2,548.1c-0.4-0.4-0.7-1-0.7-1.6
				c0-0.7,0.2-1.2,0.7-1.7c0.5-0.4,1-0.7,1.7-0.7c0.6,0,1.2,0.2,1.6,0.7c0.4,0.4,0.7,1,0.7,1.7c0,0.6-0.2,1.2-0.7,1.6
				c-0.4,0.4-1,0.7-1.6,0.7C642.2,548.7,641.6,548.5,641.2,548.1z M648.9,558.9c0-0.6-0.1-1.1-0.2-1.7c-0.1-0.5-0.3-1-0.5-1.4
				c-0.3-0.4-0.6-0.7-1-1s-0.9-0.4-1.6-0.4c-0.6,0-1.1,0.1-1.6,0.3c-0.4,0.2-0.8,0.5-1,0.9c-0.3,0.4-0.4,0.8-0.6,1.4
				s-0.2,1.1-0.2,1.7c0,0.6,0.1,1.2,0.2,1.7s0.3,1,0.6,1.4c0.3,0.4,0.6,0.7,1,0.9c0.4,0.2,0.9,0.3,1.6,0.3h3.2V558.9z M646.7,548.1
				c-0.4-0.4-0.7-1-0.7-1.6c0-0.7,0.2-1.2,0.7-1.7c0.5-0.4,1-0.7,1.7-0.7c0.6,0,1.2,0.2,1.6,0.7c0.4,0.4,0.7,1,0.7,1.7
				c0,0.6-0.2,1.2-0.7,1.6s-1,0.7-1.6,0.7C647.8,548.7,647.2,548.5,646.7,548.1z"/>
			<path class="st0" d="M654.7,567c-0.2,0-0.3,0-0.5-0.1s-0.3-0.1-0.4-0.2c-0.1-0.1-0.2-0.2-0.2-0.4v-2.6c0-0.1,0.1-0.3,0.2-0.3
				c0.1-0.1,0.2-0.1,0.4-0.2c0.2,0,0.3-0.1,0.5-0.1c0.2,0,0.3,0,0.4,0h4.9c0,0,0.1,0,0.1,0v-12.3h4.4v12.3c0,0.5-0.1,1-0.3,1.5
				c-0.2,0.5-0.5,0.9-0.8,1.2c-0.3,0.3-0.8,0.6-1.2,0.8c-0.5,0.2-1,0.3-1.5,0.3h-5.5C655.1,567,654.9,567,654.7,567z M660.7,548.1
				c-0.5-0.4-0.7-1-0.7-1.6c0-0.7,0.2-1.2,0.7-1.7c0.4-0.4,1-0.7,1.7-0.7c0.6,0,1.2,0.2,1.6,0.7c0.4,0.4,0.7,1,0.7,1.7
				c0,0.6-0.2,1.2-0.7,1.6s-1,0.7-1.6,0.7C661.7,548.7,661.2,548.5,660.7,548.1z"/>
		</g>
	</g>
	<g>
		<g>
			<path class="st0" d="M115.7,566c-1.3-0.6-2.4-1.5-3.4-2.5l1.2-1.9c0.2-0.3,0.4-0.5,0.6-0.6s0.4-0.2,0.6-0.2
				c0.3,0,0.6,0.1,0.8,0.2c0.3,0.1,0.6,0.3,0.8,0.5c0.6,0.4,1.1,0.7,1.6,1c0.5,0.2,1.1,0.3,1.8,0.3c1,0,1.8-0.3,2.3-0.8
				c0.6-0.5,0.9-1.2,0.9-2c0-0.4-0.1-0.7-0.3-1c-0.2-0.3-0.4-0.5-0.8-0.7c-0.3-0.2-0.7-0.4-1.1-0.5c-0.4-0.1-0.9-0.3-1.3-0.4
				c-0.7-0.2-1.5-0.4-2.2-0.7c-0.7-0.3-1.4-0.7-2-1.1c-0.6-0.5-1.1-1.1-1.4-1.8c-0.4-0.7-0.6-1.7-0.6-2.8c0-1,0.2-1.9,0.6-2.7
				c0.4-0.8,0.9-1.5,1.6-2c0.7-0.6,1.4-1,2.3-1.3c0.9-0.3,1.8-0.4,2.7-0.4c2.5,0,4.7,0.9,6.6,2.8l-1,1.9c-0.3,0.6-0.8,1-1.3,1
				c-0.3,0-0.6-0.1-0.9-0.2c-0.3-0.2-0.6-0.3-0.8-0.5c-0.2-0.2-0.5-0.3-0.7-0.4c-0.2-0.1-0.5-0.2-0.8-0.3c-0.3-0.1-0.7-0.1-1.1-0.1
				c-0.9,0-1.6,0.2-2.1,0.6s-0.7,0.9-0.7,1.6c0,0.3,0.1,0.6,0.3,0.9c0.2,0.3,0.4,0.5,0.8,0.7c0.3,0.2,0.7,0.4,1.1,0.5
				c0.4,0.2,0.9,0.3,1.3,0.4c0.7,0.2,1.5,0.5,2.2,0.8s1.4,0.7,2,1.1c0.6,0.5,1.1,1,1.4,1.7c0.4,0.7,0.6,1.6,0.6,2.7
				c0,1.1-0.2,2.1-0.6,3c-0.4,0.9-0.9,1.7-1.6,2.3c-0.7,0.6-1.5,1.1-2.4,1.5c-0.9,0.3-1.9,0.5-3,0.5C118.3,567,117,566.7,115.7,566z
				"/>
			<path class="st0" d="M135.8,566.7v-17.8h-6.5v-4.1h17.6v4.1h-6.5v17.8H135.8z"/>
			<path class="st0" d="M158.5,544.8l8.7,22h-3.4c-0.9,0-1.5-0.4-1.8-1.2l-1.6-4.3h-7.8l-1.6,4.2c-0.1,0.3-0.3,0.6-0.6,0.9
				c-0.3,0.2-0.7,0.4-1.2,0.4h-3.4l8.8-22H158.5z M158.8,557.4l-2.4-6.2l-2.4,6.2H158.8z"/>
			<path class="st0" d="M172.9,544.9c0.2,0.1,0.5,0.3,0.7,0.7l10,12.9c0-0.2,0-0.4,0-0.6v-0.6v-12.5h4.2v22h-2.3
				c-0.4,0-0.7-0.1-1-0.2s-0.5-0.3-0.7-0.7l-9.9-13v13.8h-4.2v-22h2.3C172.4,544.8,172.7,544.8,172.9,544.9z"/>
			<path class="st0" d="M191.7,544.8h8.4c1.6,0,3.1,0.3,4.4,0.8c1.3,0.5,2.5,1.3,3.4,2.3c1,1,1.7,2.1,2.2,3.5
				c0.5,1.3,0.8,2.8,0.8,4.5c0,1.6-0.3,3.1-0.8,4.4c-0.5,1.3-1.3,2.5-2.2,3.5c-1,1-2.1,1.7-3.4,2.3c-1.3,0.5-2.8,0.8-4.4,0.8h-8.4
				V544.8z M204.7,560.8c1.1-1.2,1.7-2.9,1.7-5.1c0-2.2-0.6-3.9-1.7-5.1c-1.1-1.2-2.6-1.8-4.5-1.8h-3.9v13.8h3.9
				C202.1,562.7,203.6,562,204.7,560.8z"/>
			<path class="st0" d="M214.7,566.7v-22h4.6v22H214.7z"/>
			<path class="st0" d="M226.5,544.9c0.2,0.1,0.5,0.3,0.7,0.7l10,12.9c0-0.2,0-0.4,0-0.6v-0.6v-12.5h4.2v22h-2.3
				c-0.4,0-0.7-0.1-1-0.2s-0.5-0.3-0.7-0.7l-9.9-13v13.8h-4.2v-22h2.3C226,544.8,226.3,544.8,226.5,544.9z"/>
			<path class="st0" d="M251.8,566.2c-1.4-0.5-2.6-1.3-3.6-2.3c-1-1-1.8-2.1-2.4-3.5c-0.6-1.4-0.9-2.9-0.9-4.6
				c0-1.7,0.3-3.2,0.8-4.6c0.5-1.4,1.3-2.6,2.3-3.5c1-1,2.2-1.7,3.5-2.3c1.4-0.5,2.9-0.8,4.6-0.8c3.2,0,6,1.1,8.3,3.3
				c-0.2,0.3-0.4,0.6-0.6,1c-0.2,0.3-0.4,0.6-0.6,0.9c-0.2,0.3-0.4,0.5-0.6,0.6c-0.2,0.1-0.4,0.2-0.6,0.2c-0.1,0-0.3,0-0.5-0.1
				c-0.4-0.1-0.7-0.3-1-0.5c-0.3-0.2-0.6-0.4-1-0.6c-0.4-0.2-0.8-0.3-1.3-0.5c-0.5-0.1-1.2-0.2-2-0.2c-1,0-1.9,0.2-2.7,0.5
				c-0.8,0.3-1.5,0.8-2.1,1.4c-0.6,0.6-1,1.3-1.3,2.2s-0.5,1.8-0.5,2.9c0,2.2,0.6,4,1.8,5.3c1.2,1.3,2.9,1.9,5,1.9
				c0.7,0,1.4-0.1,2-0.2c0.6-0.1,1.2-0.3,1.7-0.6v-2.9h-2.2c-0.5,0-0.8-0.1-1.1-0.4c-0.3-0.2-0.4-0.6-0.4-1.1v-2.5h8v9.1
				c-1.2,0.9-2.4,1.5-3.8,2s-2.7,0.7-4.2,0.7C254.8,567,253.2,566.7,251.8,566.2z"/>
			<path class="st0" d="M277.3,544.8c1,0,1.6,0.4,1.8,1.3l3.7,12.4l4.2-12.5c0.1-0.3,0.3-0.6,0.6-0.9c0.3-0.3,0.7-0.4,1.2-0.4h0.8
				c0.9,0,1.5,0.4,1.8,1.3l4.2,12.5l3.7-12.5c0.1-0.3,0.3-0.6,0.6-0.9c0.3-0.3,0.7-0.4,1.2-0.4h3.3l-6.8,22h-3.8l-4.7-14.2
				l-4.7,14.2h-3.8l-6.8-22H277.3z"/>
			<path class="st0" d="M307,566.7v-22h4.6v22H307z"/>
			<path class="st0" d="M321.4,566.7v-17.8h-6.5v-4.1h17.6v4.1H326v17.8H321.4z"/>
			<path class="st0" d="M349.4,566.7v-9.1h-9v9.1h-4.6v-22h4.6v9h9v-9h4.6v22H349.4z"/>
			<path class="st0" d="M367.5,544.8c0.7,0,1.3,0.4,1.7,1.1l4.6,7.8l4.6-7.8c0.2-0.3,0.4-0.6,0.7-0.8c0.3-0.2,0.6-0.3,1-0.3h4
				l-8.1,13.3v8.7h-4.6V558l-8.1-13.3H367.5z"/>
			<path class="st0" d="M390.8,566.1c-1.3-0.6-2.5-1.3-3.4-2.3s-1.7-2.2-2.2-3.6c-0.5-1.4-0.8-2.9-0.8-4.5c0-1.6,0.3-3.1,0.8-4.5
				s1.2-2.6,2.2-3.6c0.9-1,2.1-1.8,3.4-2.3c1.3-0.6,2.8-0.8,4.5-0.8c1.7,0,3.2,0.3,4.5,0.8c1.3,0.6,2.5,1.3,3.4,2.3
				c1,1,1.7,2.2,2.2,3.6s0.8,2.9,0.8,4.5c0,1.6-0.3,3.1-0.8,4.5c-0.5,1.4-1.2,2.6-2.2,3.6c-1,1-2.1,1.8-3.4,2.3
				c-1.3,0.6-2.8,0.8-4.5,0.8C393.6,567,392.1,566.7,390.8,566.1z M399.8,560.9c1.1-1.2,1.7-2.9,1.7-5.1c0-2.2-0.6-3.9-1.7-5.2
				c-1.1-1.2-2.6-1.9-4.6-1.9c-1.9,0-3.4,0.6-4.5,1.9s-1.7,3-1.7,5.2c0,2.2,0.6,3.9,1.7,5.1s2.6,1.8,4.5,1.8
				C397.2,562.7,398.7,562.1,399.8,560.9z"/>
			<path class="st0" d="M414.9,566.3c-1.1-0.5-2-1.1-2.8-1.9c-0.8-0.8-1.4-1.8-1.8-2.9s-0.6-2.3-0.6-3.6v-13.2h4.5v13.2
				c0,0.7,0.1,1.3,0.3,1.9s0.5,1.1,0.9,1.5s0.8,0.8,1.4,1c0.5,0.2,1.1,0.4,1.8,0.4c1.4,0,2.5-0.4,3.2-1.3c0.8-0.9,1.1-2,1.1-3.4
				v-13.2h4.6v13.2c0,1.3-0.2,2.5-0.6,3.6c-0.4,1.1-1,2-1.8,2.9c-0.8,0.8-1.7,1.5-2.8,1.9c-1.1,0.5-2.4,0.7-3.7,0.7
				C417.2,567,416,566.7,414.9,566.3z"/>
		</g>
	</g>
	<g>
		<path class="st0" d="M446.1,569v-28.2h3.8V569H446.1z"/>
	</g>
</g>
</svg>
