<?xml version="1.0" encoding="UTF-8"?>
<svg id="Layer_1" data-name="Layer 1" xmlns="http://www.w3.org/2000/svg" version="1.1" viewBox="0 0 383.27 105.83">
  <defs>
    <style>
      .cls-1 {
        font-size: 11.39px;
      }

      .cls-1, .cls-2 {
        font-family: AlilatoW05-Black, AlilatoW05-Black;
        font-weight: 800;
      }

      .cls-1, .cls-2, .cls-3 {
        fill: #fff;
      }

      .cls-2 {
        font-size: 15.88px;
      }

      .cls-3 {
        stroke-width: 0px;
      }
    </style>
  </defs>
  <path class="cls-3" d="M312.1,5.27c-1.63.77-3.09,1.43-4.52,2.14-7.04,3.54-10.74,9.55-11.74,17.57-.95,7.65-.95,15.66-.97,23.66-.04,15.73.02,31.49.11,47.25,0,1.11-.4,1.42-1.56,1.41-6.88-.06-13.72-.03-20.6-.03-.09-.16-.23-.32-.23-.43.21-20.96-.28-42.16.41-62.95.2-5.98.85-11.73,3.64-16.42,4.45-7.48,12.02-11.42,22.04-12.56,4.17-.47,8.56-.38,13.43.36Z"/>
  <path class="cls-3" d="M339.32,5.26c-1.45.66-2.68,1.21-3.89,1.78-7.96,3.74-11.82,10.47-12.62,19.45-.99,11.13-.79,22.68-.81,34.16-.02,11.71.06,23.45.15,35.19,0,1.05-.29,1.47-1.52,1.46-6.59-.08-13.14-.05-19.68-.02-.97,0-1.24-.13-1.23-1.11.16-20.75-.1-41.64.37-62.28.14-5.95.92-11.62,3.63-16.3,4.44-7.65,12.09-11.67,22.35-12.7,4.12-.42,8.44-.28,13.26.37Z"/>
  <path class="cls-3" d="M353.39,97.27c0-8.6.01-16.95-.03-25.33-.06-12.05.18-24-.26-36.18-.14-3.95-.69-8-2.46-12.28-2.09-5.04-5.77-9.24-10.84-12.58-1.68-1.11-1.24-1.35-.46-1.91,6.05-4.28,20.02-2.72,29.66,11.04,4.12,5.89,5.52,11.64,6,17.3.7,8.37.25,16.37.29,24.52.06,11.42-.02,22.79-.05,34.18,0,.6.22,1.28-.79,1.27-6.96-.04-13.9-.02-21.06-.02Z"/>
  <path class="cls-3" d="M326.88,97.27c-.03-5.74-.08-11.27-.07-16.78.03-15.91-.46-32,.09-47.72.23-6.52,1.28-12.65,4.69-17.52.92-1.32,2.04-2.47,3.19-3.6.5-.49.94-.44,1.79.19,7.31,5.36,11.01,11.65,11.57,18.48.66,8.12.37,15.95.41,23.87.06,13.95.03,27.86.08,41.81,0,.97-.32,1.3-1.38,1.29-6.72-.05-13.41-.03-20.37-.03Z"/>
  <text class="cls-1" transform="translate(8.13 97.29)"><tspan x="0" y="0" xml:space="preserve">MANI  LAW FIRM AND LEGAL CONSULTATIONS</tspan></text>
  <text class="cls-2" transform="translate(8.82 79.68)"><tspan x="0" y="0">ةينوناقلا تاراشتسااو ةاماحملل ينام</tspan></text>
</svg>