<?xml version="1.0" encoding="UTF-8"?>
<svg id="Layer_2" data-name="Layer 2" xmlns="http://www.w3.org/2000/svg" viewBox="0 0 800.5 323.87">
  <defs>
    <style>
      .cls-1 {
        fill: #fffffe;
      }

      .cls-1, .cls-2, .cls-3 {
        stroke-width: 0px;
      }

      .cls-2 {
        fill: #c5b56a;
      }

      .cls-3 {
        fill: #387f63;
      }
    </style>
  </defs>
  <g id="Layer_1-2" data-name="Layer 1">
    <g>
      <path class="cls-3" d="M550.93,102.04c.23,16.01-5.23,30.17-14.94,42.47-19.5,24.67-45.94,38.69-75.5,47.58-.95.29-1.94.46-2.93.57-1.14.13-2.52.35-2.72-1.29-.16-1.31.97-1.5,1.98-1.69,13.61-2.63,25.59-9.16,37.48-15.83,12.87-7.23,24.4-16.11,33.72-27.7,20.15-25.05,18.26-57.82-4.74-80.33-22.27-21.8-49.51-33.71-79.63-39.75-7-1.4-14.11-2.23-21.14-3.48-2.36-.42-4.02.1-5.75,1.84-24.04,24.21-48.12,48.38-72.28,72.46-2.07,2.06-1.84,3.18.11,5.08,10.37,10.1,20.69,20.26,30.85,30.57,2.17,2.2,3.29,2.2,5.45,0,9.68-9.85,19.66-19.41,29.3-29.3,2.81-2.89,3.59-1.91,4.8,1.11,4.32,10.75,4,12.73-4.3,21.06-9.87,9.9-19.82,19.72-29.6,29.71-2.13,2.18-3.32,2.68-5.79.18-17.76-18.02-35.67-35.88-53.64-53.69-2.07-2.05-2.49-3.12-.17-5.43,30.69-30.51,61.26-61.13,91.84-91.75,1.47-1.47,2.86-2.55,5.16-2.33,46.89,4.45,88.45,19.65,118.62,58.21,9.64,12.33,13.65,26.36,13.79,41.74Z"/>
      <path class="cls-2" d="M242.31,97.75c-.24-26.3,7.65-43.31,21.35-57.32,19.22-19.66,42.72-32.43,69.18-39.78.48-.13.96-.34,1.45-.36,1.24-.03,3.05-.95,3.52.66.67,2.27-1.66,2.03-2.9,2.34-20.89,5.34-39.01,16.05-55.59,29.38-9.89,7.95-18.48,17.23-23.56,29.24-9.16,21.68-5.01,41.48,9.15,59.3,14.38,18.1,33.93,29.03,55.15,37.25,16.53,6.41,33.73,9.89,51.3,11.88,2.16.24,3.39-.39,4.76-1.77,23.95-24.06,47.89-48.12,71.94-72.09,2.31-2.3,2.32-3.68,0-5.95-10.23-10.01-20.38-20.1-30.33-30.38-2.53-2.61-3.82-1.82-5.88.28-9.45,9.61-19.18,18.95-28.47,28.71-3.34,3.51-4.39,2.18-5.87-1.25-3.43-8-2.72-12.35,3.29-18.43,10.41-10.54,20.85-21.03,31.15-31.68,2.21-2.29,3.49-2.5,5.88-.08,17.66,17.88,35.43,35.65,53.3,53.31,2.5,2.47,2.43,3.75-.03,6.2-29.62,29.45-59.21,58.93-88.55,88.67-3.83,3.88-7.59,5.37-12.69,4.68-24.67-3.35-48.71-8.73-70.62-21.28-16.78-9.61-31.54-21.46-43.45-36.87-9.38-12.14-13.2-25.86-13.48-34.66Z"/>
      <path class="cls-3" d="M89.68,218.88c.86,8.26,1.82,15.96,2.39,23.7.22,2.98,1.26,4.17,4.2,4.12,4.99-.09,9.98-.14,14.96.03,2.43.08,3.75-1.14,4.61-3.04,1.07-2.37,2.69-4.1,4.92-5.42,5.52-3.29,6.16-3.13,8.35,2.6,1.47,3.84,3.52,6.71,8.38,5.87,1.94-.33,3.99-.15,5.97-.03,4.08.24,8.01.64,7.67-5.52-.1-1.8,1.95-2.91,3.32-4.06.28.19.71.35.71.51.05,9.05.05,9.19,9.22,9.01,6.92-.14,13.93.96,21.31-1.21-3.8-3.9-7.91-4.22-12.57-2.74,3.44-7.35,6.84-8.74,13.5-5.74,4.39,1.98,8.75,4.02,13.07,6.15,1.23.61,3.78.42,3.35,2.18-.47,1.91-1.97,3.93-4.27,4.44-1.26.28-2.68.14-3.97-.11-4.8-.93-9.2-.2-13.29,2.57-3.3,2.24-7.22,1.75-10.67,1.18-6.4-1.05-13.34,1.87-19.26-2.53-.25-.19-.82-.39-.89-.31-3.89,4.99-9.28,1.58-13.89,2.43-2.95.54-6.38-.9-8.46,2.65-.69,1.19-1.8.25-2.61-.16-2.07-1.06-4.07-2.25-6.13-3.33-2.47-1.29-4.96-3.72-7.39.25-.35.57-1.82.6-2.78.64-5.97.21-11.95.21-17.91.58-3.29.21-4.25-1.03-4.43-4.19-.4-6.96-.93-13.95-1.96-20.84-.62-4.16.33-7.11,4.52-9.64ZM119.68,243.74c2.32,1.98,4.3,4.13,7.22,3.37,1-.26.04-2.1-.58-2.97-1.86-2.58-4.03-1.88-6.64-.41Z"/>
      <path class="cls-3" d="M643.36,247.35c-2.45,1.24-2.91,5.12-6.62,3.72-2.25-.85-6.33-.14-6.65-2.1-.5-3,.45-7.2,3.27-8.92,4.8-2.94,8.03-6.91,10.77-13.36,1.05,6.12,2.17,10.57,2.48,15.08.29,4.22,2.18,5.43,6.04,4.95,1.8-.23,3.65,0,5.48-.05,5.54-.14,12.1,2.08,14.01-6.34.23-1.03,1.76-1.77,3.35-3.26-.24,1.68-.3,2.43-.46,3.15-1.39,6.22-.44,7.21,5.91,6.5,1.57-.18,2.46-.51,2.45-2.29-.01-2.94,2.29-4.11,4.88-6.21-.47,2.24-.71,3.63-1.06,5-.39,1.51-1.71,3.43,1.36,3.42,1.69,0,4.25,1.05,3.39-2.78-.54-2.39,1.79-4.07,3.07-5.94.29.28.64.46.72.71.79,2.53-1.66,6.06.43,7.41,2.04,1.32,5.45.51,8.25.63.5.02,1,.02,1.5,0,4.89-.18,10.75,1.86,12.3-5.74.26-1.26,1.71-2.27,2.87-3.73.72,2.14.07,3.21-.06,4.33-.19,1.65-2.61,4.06.76,4.77,2.42.51,5.79,1.92,6.56-2.62.35-2.05,1.81-3.44,4.19-4.94-.22,1.96-.39,3.46-.55,4.95-.13,1.27-.71,2.77,1.45,2.92,1.63.12,3.09.08,2.74-2.24-.45-2.99,2.32-4.16,3.79-7.31,1.06,5.4.83,9.61-.62,13.85-.73,2.12-2.27,2.4-3.93,2.04-6.39-1.4-12.95,1.5-19.47-1.11-1.6-.64-4.83,1.2-7.51,1.18-10.54-.08-21.08.27-31.61-.12-9.11-.34-18.17-.06-27.23.63-4.52.34-4.83-3.15-6.25-6.2ZM636.43,243.16c2.41.4,4.97,2.49,6.71.55,1.11-1.24-.51-3.56-1-5.74-2.41,1.48-3.46,3.94-5.71,5.18Z"/>
      <path class="cls-3" d="M397.14,218.82c.69,7.44,1.5,14.35,1.91,21.29.29,4.86,2.05,7.39,7.32,6.62,2.12-.31,4.33-.2,6.48-.02,4.07.35,7.55.36,7.57-5.33,0-1.89,2-3.19,3.6-4.64.24.73.43,1,.41,1.25-.63,7.83,4.04,11.32,11.45,8.67,1.74-.62,1.17-1.75,1.05-2.78-.47-3.8-1.03-7.58-1.57-11.37q-.83-5.81,4.06-11.38c.81,7.41,1.8,14.37,2.25,21.37.21,3.27,1.3,4.22,4.48,4.24,8.59.06,8.64.18,6.95-8.43-.71-3.65-.7-7.34-2.83-10.85-1.41-2.33,2.03-4.5,2.7-6.89,1.32-.05,1.3,1.1,1.91,1.5,4.31,2.86,9.72,5.34,3.02,11.26-.58.51-.22,2.21-.11,3.34.24,2.32.73,4.61.91,6.93.65,8.13-1,10.07-9.04,9.82-3.92-.12-8.32,1.44-11.58-2.33-.6-.7-1.02.11-1.56.41-4.8,2.71-9.69,2.02-14.56.17-.69-.26-1.09-1.4-2.08-.77-6.8,4.36-14.49,1.09-21.64,2.56-2.31.48-3.12-.82-3.3-3.12-.55-7.29-1.17-14.58-2.06-21.84-.46-3.79.2-6.87,4.24-9.68Z"/>
      <path class="cls-3" d="M312.11,218.57c.82,8.07,1.7,15.48,2.26,22.9.3,3.94,1.9,5.74,5.94,5.24,1.64-.2,3.33-.14,4.98-.01,2.81.21,4.81-.14,4.81-3.78,0-2.64,2.04-4.24,3.99-5.89.44.69.65.91.74,1.18.94,2.57-2.68,6.01.67,7.74,3.56,1.84,7.82.57,11.77.64,1.93.04,1.82-1.64,1.88-2.9.13-3.01,1.32-5.3,3.97-6.81.29.36.64.58.64.8-.16,8.63,2.74,10.8,11.64,9.03,2.21-.44,2.29-2.07,2.86-3.55,1.95-5.04,5.78-7.91,10.78-9.54,2.38-.78,3.91-.23,4.45,2.27.97,4.51,4.18,8.83.45,13.69-1.55,2.02-2.73,3.06-5.2,1.87-1.49-.72-3.14-1.09-4.65-1.75-2.79-1.22-5.33-2.05-6.68,1.93-.55,1.63-2.07,1.98-3.7,1.88-4.55-.26-9.36.88-13.31-2.57-.27-.23-.87-.3-1.23-.18-8.75,3.07-10.12,3.12-18.24.15-.52-.19-.82-.26-1.22.03-5.37,3.97-11.64,1.83-17.48,2.54-1.72.21-2.22-.78-2.36-2.38-.75-8.6-1.63-17.19-2.41-25.79-.29-3.17,2.29-4.42,4.64-6.73ZM373.1,241.82c2.93.17,4.22,2.12,6.41,1.45-.7-4.13-2.64-4.38-6.41-1.45Z"/>
      <path class="cls-3" d="M540.54,218.66c.77,8.04,1.59,15.44,2.13,22.85.27,3.68,1.69,5.34,5.57,5.22,6.64-.22,13.3-.06,20.15-.06-.7-3.71-4.12-2.78-6.2-3.84,2.7-6.37,7.53-8.93,12.61-6.81,4.26,1.78,5.13,4.52,3.2,10.1.24.16.49.48.72.47,3.9-.23,10.21,1.76,11.18-.9,1.71-4.65.13-10.88-2.23-15.32-2.42-4.56-.29-6.71,1.93-10.43.93,1.22,1.42,2.41,2.3,2.93,4.3,2.51,7.94,4.95,2.51,9.96-1.41,1.29-.36,3.17-.14,4.78,2.11,15.59,1.86,15.95-13.76,15.83-2.92-.02-6.47,1.43-8.41-2.41-.15-.3-.88-.56-1.2.09-1.93,3.91-5.53,2.21-8.42,2.3-6.78.21-13.57-.67-20.36.08-2.51.28-3.49-.66-3.69-3.27-.64-8.12-1.53-16.22-2.38-24.32-.35-3.38,2-4.91,4.5-7.25Z"/>
      <path class="cls-3" d="M75.51,241.91c-3.37-1.91-6.58-3.11-10.04-3.02-2.1.06-5.13-.26-5.7,1.9-.53,2,2.19,3.39,3.8,4.78,1.54,1.33,3.42,1.01,5.23,1.01,3.13,0,6.26,0,9.65,0-.98,4.61-3.24,6.88-8.45,6.52-6.62-.46-13.29-.12-19.93-.11-1.99,0-4,.17-5.6-1.43-.53-.52-1.06-1.29-2.08-.66-7.6,4.74-16.09.9-24.08,2.39-3.19.6-3.39-3.32-4.48-5.58-2.33.66-2.54,4.49-5.54,3.59-2.81-.84-7.6,0-8.05-2.42-.54-2.91.89-7.37,3.85-9.23,4.54-2.86,7.9-6.37,10.55-11.27.89,5,1.95,9.98,2.58,15.01.33,2.59,1.41,3.34,3.84,3.3,5.98-.1,11.97-.1,17.95,0,2.27.04,3.45-.66,3.37-3.06-.1-3.12,1.49-5.21,4.56-7.06-.2,2.41-.42,4.3-.51,6.2-.15,2.93,1.93,3.51,4.2,3.84,2.13.31,3.31-.25,3.66-2.74.46-3.27,2.93-5.47,5.14-7.74,6.06-6.2,12.82-4.8,16.09,5.76ZM12.04,238.09c-2.08,1.93-3.82,3.55-5.74,5.34,2.5.11,4.97,2.17,6.76.32,1.39-1.44.02-3.67-1.01-5.65Z"/>
      <path class="cls-3" d="M378.31,123.56c-4.06-7.5-3.24-14.56,4.22-21.85,9.85-9.63,19.89-19.05,29.72-28.45,4.07,5.85,4.02,14.81-2.22,21.05-10.23,10.22-21.23,19.65-31.72,29.24Z"/>
      <path class="cls-3" d="M741.86,260.1c8.11,2.92,14.31.15,19.5-5.67-.16-1.41-1.07-1.4-1.84-1.52-8.33-1.29-9.51-3.32-5.87-10.73,1.69-3.44,2.57-8.61,7.5-8.12,4.58.45,4.9,5.49,5.56,9.03.76,4.12,3.32,3.81,6.12,3.55,4.04-.38,1.96-3.37,1.59-4.91-1.07-4.43-.9-9.06-3.31-13.34-1.34-2.39,1.44-4.88,3.03-7.03.54.31.87.41,1.08.63,3.76,3.96,7.11,7.36,3.56,13.97-2.21,4.11-.44,9.46,5.13,11.82,2.57,1.09,3.07,2.96,1.99,5.69-1.09,2.73-1.86,3.06-4.41,1.25-5.68-4.01-13.64-2.11-17.22,3.68-5.72,9.23-12.68,9.96-22.41,1.7ZM755.93,243.06c.25,1.69,1.31,2.59,2.96,2.59.96,0,2.7.73,2.62-1.07-.07-1.61-1.02-3.29-2.74-3.73-1.48-.38-2.29.88-2.84,2.21Z"/>
      <path class="cls-3" d="M493.51,247.5c-2.18,1.01-2.57,5.01-6.3,3.56-2.33-.91-6.58.03-6.81-2.42-.27-2.91.63-7.1,3.58-8.84,4.71-2.78,7.8-6.58,10.54-11.53.75,4.38,1.68,8.75,2.19,13.16.42,3.62,1.48,5.46,5.76,5.42,4.92-.04,9.13,0,10.36-6.04.21-1.01,1.3-1.89,2.09-2.73,3.54-3.76,9.54-5.79,11.2-3.83,3.56,4.19,3.42,13.7-.05,17.08-1.16,1.13-2.09.69-3.12.35-2.51-.85-4.98-1.8-7.47-2.7-1.5-.54-2.62-.52-3.85,1-5.06,6.28-14.77,4.9-18.12-2.46ZM486.33,243.46c2.68.1,5.02,2.03,6.65.41,1.55-1.55-.22-3.73-.48-6.04-2.14,1.95-3.9,3.56-6.17,5.64ZM522.88,243.71c-.77-4.77-2.85-4.69-5.76-2.56,1.59,1.29,3.37,1.94,5.76,2.56Z"/>
      <path class="cls-3" d="M234.63,219.39c.98.85,1.91,1.78,2.96,2.55,3.94,2.91,3.79,4.54.48,8.16-3.65,3.99-6.48,8.31-4.13,14.46,2.31,6.06.35,8.44-5.86,8.44-2.66,0-5.32.04-7.98,0-4.17-.08-6.04-3.38-4.07-7.01.47-.87.88-1.36,1.85-.73,4,2.6,5.44-1.54,7.85-3.03,1.46-.9.51-1.99-.17-2.89-1.43-1.89-2.6-4.72-5.34-4.23-3.93.7-6.08-2-8.48-3.84-1.84-1.41-1.12-5.34-.05-5.81,2.12-.92,4.56-3.33,7.43-1.02,4.14,3.33,7.28,7.6,11.02,11.7,3.62-5.33-2.74-12.85,4.51-16.73Z"/>
      <path class="cls-2" d="M22.75,304.71c-2.13-.1-3.59-.26-5.05-.23-2.15.05-2.36-1.26-2.36-2.93,0-1.66.21-2.96,2.35-2.93,3.32.06,6.64-.04,9.96.03,3.38.07,2.44,2.47,2.09,4.32-1.58,8.48-8.44,13.61-16.43,12.39-8.16-1.24-14.04-9-13.25-17.75.55-6.15,3.06-11.28,8.96-13.95,5.38-2.44,10.74-1.9,15.63,1.39,1.42.96,3.87,1.96,1.89,4.63-1.68,2.27-3.08,2.06-5.25.37-3.73-2.91-7.85-2.45-11.58.14-3.87,2.68-4.66,6.64-3.75,11.03.94,4.55,3.86,7.35,8.26,8.29,3.55.76,6.47-.48,8.52-4.81Z"/>
      <path class="cls-2" d="M197.51,298.75c.15,9.07-6.69,16.74-14.93,16.75-8.48,0-14.9-7.12-14.97-16.62-.07-9.51,6.29-16.71,14.8-16.77,8.26-.05,14.94,7.31,15.09,16.63ZM173.08,298.92c.03,5.98,4.34,10.74,9.59,10.61,4.86-.13,9-5.02,9.07-10.71.07-5.8-4.38-10.97-9.4-10.91-5,.06-9.29,5.17-9.26,11.02Z"/>
      <path class="cls-2" d="M228.7,313.15c-6.37,2.36-10.46,1.51-13.33-2.75-3.21-4.78-3.02-12.36.54-16.38,2.37-2.67,5.44-4.11,8.95-3.07,2.5.74,4.63,1.29,7.28.27,2.19-.85,3.13.72,3.08,3.07-.13,5.99.03,11.98-.07,17.97-.1,5.94-2.98,10.17-7.34,11.16-6.46,1.46-10.86-.53-14.3-6.65,2.63-1.32,4.89-.36,7.42.44,3.43,1.09,7.41,2.23,8.54-3.29.35-.37.57-.79.02-1.11-.15-.08-.52.22-.78.34ZM230.1,302.24c-.33-3.03-1.61-5.71-5.59-5.81-4.07-.1-5.47,2.48-5.6,6.06-.14,3.94,2.38,6.99,5.69,6.65,3.74-.38,5.39-2.83,5.5-6.9Z"/>
      <path class="cls-2" d="M589.14,303.4c-.9,3.14,2.22,8.52-1.52,10.68-2.83,1.64-7.55.66-11.43,1-3.61.32-6.07-2.2-7.79-5.27-2.64-4.7-2.19-11.42,1.13-15.45,3.3-4.01,7.29-4.85,11.9-2.29.28.15.7.42.88.32,2.05-1.15,4.52-2.55,6.24-.47,1.56,1.89.4,4.8.57,7.25.08,1.15.01,2.32.01,4.22ZM572.4,303.16c.26,3.69,1.58,6.57,5.85,6.44,4.01-.12,5.3-3.11,5.32-6.48.02-3.57-1.26-6.63-5.6-6.68-4.49-.05-5.25,3.16-5.56,6.72Z"/>
      <path class="cls-2" d="M142.96,302.93c0,1.49,0,2.98,0,4.47,0,6.34,0,6.3-6.32,6.19-.76-.01-1.51.57-2.28.85-4.61,1.68-8.47.7-11.42-3.31-3.54-4.81-3.45-11.98.3-16.71,3.08-3.88,7.02-4.68,11.55-2.8.61.25,1.49.95,1.74.76,1.87-1.41,4.21-2.28,5.79-.63,1.6,1.67.46,4.43.62,6.7.11,1.48.02,2.98.02,4.47ZM132.13,309.77c3.52-.74,5.57-2.93,5.32-6.89-.22-3.4-1.25-6.37-5.39-6.43-4.27-.06-5.75,2.65-5.86,6.45-.11,3.87,1.51,6.36,5.94,6.87Z"/>
      <path class="cls-2" d="M261.51,303.01c0,1.49.01,2.99,0,4.48-.04,4.17,1.21,9.66-6.35,6.14-.4-.19-1.17.48-1.79.68-6.69,2.16-11.62-.55-13.68-7.49-2-6.76,1.54-14.33,7.43-15.87,1.65-.43,3.42-.56,4.89.17,1.97.98,3.5,1.15,5.69.17,2.36-1.05,4.04.22,3.85,3.26-.18,2.81-.04,5.64-.04,8.46ZM256.22,302.89c-.18-3.29-.98-6.38-5.42-6.46-4.3-.08-5.66,2.65-5.78,6.38-.12,3.78,1.3,6.61,5.42,6.78,4.23.18,5.63-2.66,5.78-6.7Z"/>
      <path class="cls-2" d="M339.39,303.07c0,1.82-.04,3.65,0,5.47.12,4.12.4,8.29-5.9,5.12-.61-.31-1.8.54-2.72.86-4.71,1.65-8.47.3-11.32-3.67-3.35-4.68-3.17-11.84.43-16.27,3.08-3.79,6.87-5.01,11.47-2.88.59.27,1.47.95,1.72.77,1.84-1.36,4.09-2.41,5.69-.61,1.55,1.74.45,4.46.6,6.75.1,1.49.02,2.98.02,4.47ZM322.91,302.04c-.08,4.32,1.09,7.29,5.25,7.55,4.17.26,5.85-2.41,5.9-6.24.05-3.6-.83-6.66-5.21-6.91-4.33-.24-5.64,2.52-5.94,5.6Z"/>
      <path class="cls-2" d="M724.63,303.07c0,2.99-.07,5.99.02,8.98.06,2.01-1.02,2.99-2.72,2.43-2.82-.94-5.28-.03-7.94.55-4.31.93-7.46-1.26-9.51-4.85-2.77-4.84-2.82-9.9.11-14.68,2.88-4.7,6.87-5.85,12.03-3.89.61.23,1.16.84,1.74.85,6.28.12,6.28.1,6.28,6.62,0,1.33,0,2.66,0,3.99ZM714.11,296.35c-4.21.18-5.6,2.61-5.74,6.23-.14,3.76.92,6.77,5.19,7.01,4.29.24,5.77-2.7,5.91-6.42.14-3.78-1.42-6.39-5.36-6.83Z"/>
      <path class="cls-2" d="M82.37,302.85c.1-6.57,4.42-11.74,10.17-12.17,6.08-.45,10.89,3.44,12.04,9.57.58,3.08.05,4.77-3.63,4.49-3.31-.26-6.65-.08-9.98-.03-.92.01-2.14-.36-2.51.94-.3,1.05.34,1.96,1.05,2.66,2.24,2.2,5.02,2.19,7.33.66,2.48-1.64,4.58-.75,5.54.98,1.13,2.06-1.42,2.97-2.88,3.8-8.16,4.61-17.26-1.21-17.12-10.89ZM88.24,299.52h10.47c-3.34-5.12-5.94-5.22-10.47,0Z"/>
      <path class="cls-2" d="M32.74,303.39c-.06-6.69,4.78-12.4,10.79-12.72,6.16-.33,11.13,4.18,11.69,10.43.22,2.43-.26,3.76-3.09,3.62-3.64-.18-7.29-.07-10.93-.01-.76.01-1.86.08-2.19.55-.67.94.19,1.91.79,2.62,2.18,2.57,5.07,2.73,7.6,1.08,2.51-1.64,4.62-.73,5.4,1.1.75,1.76-1.72,2.92-3.23,3.72-7.77,4.08-16.73-1.5-16.81-10.39ZM49.32,299.01c-1.39-2.5-3.3-3.68-6.01-3.18-1.63.3-3.74,1.12-3.66,2.77.1,2.06,2.37,1.07,3.65,1.09,1.87.03,3.86.58,6.02-.69Z"/>
      <path class="cls-2" d="M778.35,303.4c0-7.16,3.96-12.14,9.79-12.7,5.74-.55,10.74,3.13,12.06,8.94.73,3.22.41,5.53-3.95,5.11-3.29-.32-6.64-.08-9.96-.04-.77,0-1.78-.34-2.23.55-.54,1.06.27,1.91.9,2.63,2.21,2.55,5.09,2.74,7.62,1.08,2.27-1.5,4.19-.82,5.2.71,1.39,2.11-1.26,3.06-2.48,3.95-3.42,2.49-7.35,2.25-10.89.45-4.37-2.22-6.49-6.04-6.06-10.67ZM784.33,299.53c2.03.09,3.61.29,5.18.19,1.54-.09,3.29.7,4.53-.76.18-.21-.28-1.23-.68-1.62-1.52-1.46-3.37-2.1-5.43-1.41-1.4.47-2.69,1.22-3.6,3.59Z"/>
      <path class="cls-2" d="M494.53,315.51c-3.45-.02-6.09-1.22-7.89-3.92-.85-1.27-2.41-2.58-.15-4.13,1.58-1.08,2.81-2.29,4.46.03,1.3,1.83,3.29,3.44,5.32,1.11,1.77-2.03.46-3.99-1.2-5.65-2.46-2.47-5.05-4.86-7.23-7.57-2.99-3.71-2.24-8.76,1.38-11.53,3.36-2.57,8.29-1.96,11.24,1.3,1.09,1.2,2.06,2.27.43,3.74-1.2,1.09-2.22,2.75-4.05.82-1.27-1.34-2.95-2.18-4.26-.49-1.35,1.74.44,3.02,1.52,4.2,2.36,2.57,4.95,4.94,7.14,7.64,2.44,3,2.24,6.52.74,9.87-1.45,3.22-4.31,4.43-7.45,4.58Z"/>
      <path class="cls-3" d="M271.66,235.03q.73,11.45,12.38,11.45c3.83,0,7.66-.03,11.48,0,2.22.02,3.44-.84,2-2.93-2.44-3.54-.56-6.13,1.32-8.91,4.35,3.99,4.62,13.53.66,17.5-1.14,1.14-2.46.83-3.74.84-5.83.04-11.65.04-17.48.01-8.48-.04-11.06-3.24-9.29-11.39.48-2.2.81-4.44,2.66-6.57Z"/>
      <path class="cls-2" d="M625.86,302.89c0-1.83.03-3.66,0-5.48-.1-4.27-.5-8.8,6.15-5.22.44.24,1.42-.57,2.17-.81,6.22-2.02,10.51.9,10.83,7.55.2,4.15-.04,8.31.08,12.46.07,2.29-.64,3.24-3.1,3.24-2.6,0-3.02-1.32-3.02-3.42,0-3.32-.11-6.65-.18-9.97-.05-2.28-.31-4.64-3.22-4.68-2.97-.04-3.84,2.25-3.93,4.76-.13,3.32-.16,6.65-.08,9.97.05,2.23-.56,3.37-3.07,3.31-2.42-.05-2.64-1.39-2.61-3.24.05-2.82.01-5.65.01-8.48Z"/>
      <path class="cls-2" d="M266.32,302.92c0-2.99.05-5.99-.02-8.98-.04-1.76.64-3.5,2.4-2.73,3.5,1.54,6.55-.27,9.8-.43,3.89-.2,6.1,2.26,6.76,5.98.91,5.11.25,10.28.41,15.42.06,2.06-1.18,2.39-2.91,2.41-1.88.03-2.7-.68-2.73-2.6-.06-3.82-.24-7.64-.4-11.46-.08-1.94-.51-3.72-2.85-4.02-2.5-.32-3.91,1.26-4.16,3.36-.45,3.78-.55,7.61-.58,11.42-.02,2.22-.57,3.37-3.08,3.31-2.38-.05-2.69-1.33-2.66-3.21.05-2.82.01-5.65.01-8.48Z"/>
      <path class="cls-2" d="M458.84,303.06c-.02,6.81-5.32,12.3-11.79,12.2-5.88-.09-10.68-5.51-10.71-12.1-.03-6.91,5.25-12.65,11.49-12.5,6.22.16,11.03,5.56,11,12.39ZM447.3,296.51c-3.81.27-5.35,3.07-5.36,6.67,0,3.36,1.29,6.23,5.32,6.46,3.35.19,6.46-2.84,6.17-6.31-.29-3.46-1.48-6.52-6.13-6.81Z"/>
      <path class="cls-2" d="M528.75,302.88c.07,7.17-4.8,12.17-12.07,12.37-5.12.14-10.3-5.75-10.48-11.93-.2-6.78,5.09-12.68,11.34-12.65,6.15.03,11.14,5.46,11.21,12.21ZM516.79,296.54c-3.49.46-5.07,3.04-5.01,6.81.05,3.59,1.63,6.09,5.54,6.28,3.3.16,6.46-3.08,6.02-6.48-.44-3.4-1.58-6.58-6.55-6.61Z"/>
      <path class="cls-2" d="M391.23,302.51c0-2.82.04-5.65-.01-8.47-.03-1.75.77-3.56,2.4-2.81,3.53,1.62,6.54-.44,9.78-.48,4.2-.06,6.47,2.68,6.81,6.53.43,4.94.26,9.94.36,14.91.04,2.08-1.22,2.37-2.93,2.39-1.86.02-2.73-.64-2.72-2.59,0-3.65-.03-7.31-.25-10.95-.13-2.19-.58-4.48-3.51-4.55-2.82-.06-3.73,2.13-3.96,4.28-.35,3.29-.25,6.63-.29,9.95-.02,2.07.15,3.96-2.96,3.9-3.26-.06-2.68-2.22-2.71-4.13-.04-2.66-.01-5.31,0-7.97Z"/>
      <path class="cls-2" d="M387.06,303.19c-.04,7.57-4.66,12.15-12.17,12.07-5.35-.06-9.89-5.69-9.89-12.27,0-7.14,4.54-12.29,10.88-12.32,6.58-.04,11.22,5.16,11.17,12.53ZM381.87,303.22c-.2-3.74-1.47-6.56-5.71-6.64-4.28-.08-5.79,2.78-5.86,6.41-.07,3.65,1.45,6.53,5.65,6.63,4.27.1,5.51-2.84,5.92-6.4Z"/>
      <path class="cls-2" d="M59.42,302.55c0-2.83.13-5.66-.04-8.48-.15-2.57,1.34-3.72,3.26-2.84,2.56,1.18,4.56.23,6.87-.31,4.39-1.04,8.29,1.43,8.68,5.9.44,5.12.15,10.3.22,15.45.02,1.73-.85,2.27-2.46,2.3-1.79.04-2.81-.47-2.85-2.47-.08-3.66-.27-7.31-.47-10.96-.12-2.25-.52-4.6-3.39-4.62-2.89-.02-3.97,2.03-4.01,4.67-.06,3.49-.13,6.99-.08,10.48.03,2.13-.85,2.91-2.97,2.92-2.27.01-2.84-1.05-2.78-3.07.09-2.99.02-5.99.02-8.98Z"/>
      <path class="cls-2" d="M729.87,302.59c0-2.83.03-5.66-.01-8.48-.02-1.71.69-3.64,2.34-2.86,3.55,1.67,6.55-.56,9.78-.5,3.95.07,6.21,2.58,6.48,6.29.36,4.97.1,9.97.18,14.96.03,1.94-.83,2.59-2.71,2.6-2.01,0-2.53-.95-2.56-2.75-.05-3.49-.24-6.98-.42-10.46-.13-2.38-.21-5.05-3.56-4.84-2.95.18-3.61,2.6-3.73,5.05-.16,3.32-.22,6.65-.18,9.98.03,2.03-.56,3.04-2.81,3.05-2.25,0-2.89-1-2.84-3.03.07-2.99.02-5.99.02-8.98Z"/>
      <path class="cls-2" d="M685.45,300.37c0,2.16.18,4.33-.04,6.46-.5,5.04-3.62,8.14-8.19,8.4-5.33.3-8.41-2.02-9.69-7.24-1.16-4.75-.5-9.58-.71-14.37-.08-2,.94-2.54,2.75-2.57,2.1-.04,2.98.74,2.92,2.91-.09,3.64-.14,7.31.14,10.94.18,2.29.8,4.89,3.99,4.62,2.8-.23,3.21-2.43,3.24-4.75.04-3.48.16-6.97.11-10.45-.03-2.27.78-3.33,3.19-3.28,2.5.05,2.48,1.58,2.44,3.35-.05,1.99-.01,3.98-.01,5.97h-.14Z"/>
      <path class="cls-2" d="M531.76,302.45c.34-4.57,2.32-8.73,7.02-10.77,4.12-1.79,8.49-1.91,12.16,1.36.95.84,3.16,1.76,1.85,3.39-1.1,1.37-2.62,2.53-5.15,1.2-5.67-2.96-10-.48-10.15,5.32-.13,5.04,3.96,8,8.71,6.25.92-.34,1.69-1.17,2.63-1.4,1.97-.49,3.11,1.12,3.98,2.36.86,1.24-.64,2.07-1.52,2.7-4.17,2.95-8.68,3.29-13.22,1.09-4.53-2.2-6.2-6.22-6.3-11.5Z"/>
      <path class="cls-2" d="M765.12,290.66c2.37,0,4.76.25,6.42,2.1.95,1.06,3.55,1.78,2.07,3.75-1.08,1.44-2.65,2.34-5.12,1.01-5.06-2.73-9.35-.56-10.03,4.51-.35,2.63.19,5,2.56,6.56,2.27,1.5,4.84,1.77,6.98.13,2.44-1.87,4.36-.82,5.41,1,1.49,2.57-1.37,3.27-2.87,4.13-4.18,2.4-10.56,1.68-14.06-1.33-3.48-3-4.89-9.12-3.16-13.73,2.03-5.4,6.11-8.21,11.79-8.13Z"/>
      <path class="cls-2" d="M656.4,315.23c-2.53.04-4.18-.25-5.57-1.25-1.29-.93-3.1-1.77-1.68-3.91,1.07-1.62,2.1-3.01,4.3-1.26,1.17.93,3.01,1.59,3.94-.05,1.04-1.83-.99-2.46-2.13-3.29-1.34-.97-2.86-1.74-4.07-2.85-2.98-2.74-3.25-7.02-.78-9.83,2.45-2.79,7.42-2.94,10.36-.27.93.85,2.44,1.68.96,3.18-.99,1-1.48,3.42-3.78,1.56-1.04-.84-2.58-1.58-3.3.1-.55,1.29,1.06,1.82,2.01,2.43,1.25.81,2.64,1.46,3.75,2.43,2.62,2.29,3.57,5.15,2.24,8.52-1.26,3.22-3.84,4.39-6.26,4.49Z"/>
      <path class="cls-2" d="M297.77,314.56c3.24-6.22,6.1-11.73,9.01-17.32-1.92-1.16-3.76-.59-5.48-.63-2.18-.05-2.29-1.33-2.32-2.96-.02-1.58.47-2.57,2.21-2.54.5,0,1,0,1.49-.03q13.21-.55,7.39,11.14c-.44.89-.77,1.85-1.3,2.68-2.22,3.39-2.18,5.36,2.7,4.82,1.59-.18,3.4-.37,3.48,2.25.09,2.93-1.87,2.58-3.68,2.59-4.25.01-8.49,0-13.51,0Z"/>
      <path class="cls-2" d="M425.81,305.46c-.43-3.32-.31-6.69-1.41-10.29-1.13-3.71.96-8.51,3.06-12.18,1.29-2.27,4.85-2.14,6.65-.36,1.62,1.59,1.11,3.7-1.67,4.92-1.52.67-1.36,2.71.54,3.39,2.58.92,2.35,3.85,1.53,4.36-5.23,3.29-2.26,8.26-2.96,12.41-.27,1.62-.03,3.31-.11,4.97-.08,1.89-1.48,1.89-2.86,1.88-1.39,0-2.75-.03-2.76-1.96-.01-2.32,0-4.65,0-7.14Z"/>
      <path class="cls-2" d="M345.05,305.27c-.56-3.19,1.5-7.24-2.46-10.05-.48-.34-.32-2.86.24-3.19,2.79-1.65,2.25-4.2,2.16-6.59-.08-2.25.97-2.82,3.01-2.82,2.04,0,2.61,1,2.55,2.77-.09,2.64-.35,5.27,2.86,6.64.48.21.72,2.84.24,3.18-5.76,4.03-2.06,9.92-3.07,14.84-.16.8-.03,1.66-.06,2.49-.06,1.83-1.29,2.05-2.75,2.02-1.42-.03-2.73-.11-2.73-2.02,0-2.33,0-4.65,0-7.27Z"/>
      <path class="cls-2" d="M620.54,298.65c0,4.32-.06,8.64.03,12.96.04,2.09-.68,2.99-2.86,2.99-2.09,0-2.99-.7-2.97-2.88.07-8.64.07-17.28,0-25.92-.02-2.09.68-3.02,2.86-3.01,2.08.01,3.02.71,2.97,2.9-.1,4.32-.03,8.64-.03,12.96Z"/>
      <path class="cls-2" d="M107.56,302.52c0-.33,0-.66,0-.99.02-2.98-.58-6.13.22-8.88,1.17-4.05,4.94.65,7.17-1.44.98-.92,2.91-.94,3.49.37.65,1.48.05,4.06-1.27,4.32-4.61.91-3.58,4.51-3.94,7.32-.33,2.61-.18,5.28-.11,7.93.05,2.07-.23,3.48-2.88,3.45-2.81-.02-2.69-1.77-2.68-3.65.02-2.81,0-5.62,0-8.43Z"/>
      <path class="cls-2" d="M689.73,302.53c0-2.81.13-5.63-.04-8.43-.18-2.99,1.58-3.55,3.71-2.82,1.44.49,2.35,1.03,3.8-.07,1.18-.91,3.2-1.08,3.76.67.47,1.48-.33,3.97-1.75,4.18-4.59.69-3.54,4.09-3.74,6.82-.2,2.79-.13,5.62-.03,8.42.08,2.22-.54,3.35-3.04,3.3-2.33-.05-2.72-1.24-2.68-3.15.06-2.97.02-5.95.02-8.92Z"/>
      <path class="cls-2" d="M200.61,302.82c0-1.33,0-2.65,0-3.98,0-7.72,1.51-9.05,9.19-8.1.88.11,1.88.41,1.75,1.34-.19,1.45-.43,3.68-1.74,3.91-4.82.86-3.56,4.43-3.69,7.36-.12,2.82-.06,5.64,0,8.46.04,1.79-.52,2.74-2.52,2.78-2.08.04-3.08-.61-3.02-2.81.09-2.98.02-5.97.02-8.96Z"/>
      <path class="cls-2" d="M461.84,302.27c0-1.33-.24-2.71.04-3.97.67-3-2.71-9.99,5.58-6.02.22.11.79-.53,1.2-.8,1.36-.87,3.02-1.42,3.89.22.83,1.57-.05,3.98-1.44,4.24-4.17.78-3.47,3.86-3.64,6.49-.2,3.14-.14,6.3-.11,9.46.02,1.84-.65,2.68-2.61,2.71-2.11.03-3.02-.7-2.95-2.87.1-3.15.03-6.31.02-9.46Z"/>
      <path class="cls-2" d="M147.23,298.61c0-4.3.02-8.6,0-12.91,0-1.76,0-3.28,2.48-3.3,2.3-.02,2.76,1.13,2.75,3.08-.04,8.6-.03,17.21,0,25.81,0,1.77-.06,3.22-2.52,3.29-2.83.08-2.72-1.67-2.71-3.57.02-4.14,0-8.27,0-12.41Z"/>
      <path class="cls-2" d="M598.79,298.81c0,4.31-.03,8.62.01,12.93.02,1.72-.36,2.79-2.44,2.85-2.24.06-2.85-.92-2.84-2.97.06-8.78.04-17.57.01-26.36,0-1.72.39-2.8,2.45-2.86,2.23-.06,2.87.93,2.83,2.98-.08,4.47-.02,8.95-.03,13.43Z"/>
      <path class="cls-3" d="M796.71,252.61c-.85-6.9-1.26-13.21-2.49-19.36-.94-4.65.66-7.97,3.53-11.28,3.32,10.1,3.01,24.58-1.03,30.63Z"/>
      <path class="cls-3" d="M253.02,220.73c-.32,11.41,3.82,21.5-2,31.37-.91-7.75-2.01-15.49-2.62-23.27-.21-2.67,1.97-4.76,4.63-8.11Z"/>
      <path class="cls-3" d="M610.5,222.23c-.21,9.91,5.04,19.97-1.1,29.56.53-9.88-6.47-19.98,1.1-29.56Z"/>
      <path class="cls-2" d="M295.58,302.68c0,2.97-.02,5.95,0,8.92.01,1.95-.65,3-2.89,3.01-2.4,0-2.64-1.28-2.62-3.15.05-5.78.08-11.56-.01-17.34-.03-2.1.73-3,2.84-3.03,2.31-.04,2.74,1.27,2.71,3.17-.05,2.81-.01,5.61-.02,8.42Z"/>
      <path class="cls-2" d="M361.09,303.1c0,2.81-.05,5.63.02,8.44.05,1.97-.44,3.11-2.75,3.04-2.01-.05-2.51-1.01-2.5-2.78.04-5.96.06-11.92,0-17.87-.02-1.98.9-2.55,2.73-2.56,2.01,0,2.54,1.02,2.51,2.79-.05,2.98-.01,5.96-.01,8.94Z"/>
      <path class="cls-2" d="M562.89,303.15c0,2.81-.06,5.62.02,8.43.06,2-.52,3.07-2.79,3.01-2.06-.06-2.45-1.12-2.43-2.84.04-5.79.06-11.57-.01-17.36-.02-2,.48-3.09,2.76-3.01,2.03.07,2.48,1.12,2.46,2.84-.04,2.98-.01,5.95,0,8.93Z"/>
      <path class="cls-3" d="M750.24,235.07c-.55-1.61,2.69-2.34.52-3.53-2.38-1.31-2.09-2.8-.88-4.41,1.49-1.98,3.1-4.03,6.04-3.75.84.08,1.76.33,1.7,1.41-.06,1.04-.51,2.06-1.76,1.96-1.56-.13-3.99-1.07-3.86,1.18.1,1.73,2.89,1.49,4.67,1.55,1.1.04,2.31-.33,3.62.92-3.04,2.63-6.83,3.01-10.06,4.67Z"/>
      <path class="cls-3" d="M156.06,226.09c-1.56,2.75-3.01,5.28-6.49,2.73-1.54-1.12-2.64-.3-3.92.62-1.96,1.41-3.43-.29-4.86-1.21-1.53-.99-.3-1.95.4-2.8,1.28-1.56,2.61-2.45,4.58-.87.8.64,1.92,1.78,3.03.58,2.98-3.23,4.88-.2,7.26.95Z"/>
      <path class="cls-3" d="M409,227.05c1.43-1.36,2.23-4.14,4.54-3.12,2.36,1.04,4,2.19,6.46,0,1.31-1.18,2.99.71,4.31,1.57,1.26.83.32,1.7-.29,2.44-.92,1.11-1.79,2.79-3.55,1.86-2.31-1.23-4.13-1.56-6.68-.06-1.47.87-3.52-1-4.79-2.68Z"/>
      <path class="cls-3" d="M340.29,262.26c.75-.83,2.25-2.76,2.41-2.65,3.11,2.05,6.2-.25,9.18.19.9.14,3.47.76,2.29,2.81-.74,1.28-1.59,3.78-4.1,2.24-1.69-1.03-3.02-1.37-4.87.07-1.43,1.11-5.04-.95-4.9-2.66Z"/>
      <path class="cls-3" d="M7.79,224.71c-1.25-.89-2.71-1.54-3.56-2.65-.64-.85.65-1.68,1.22-2.45.89-1.22,1.99-1.92,3.28-.65,1.76,1.74,3.02.94,4.63-.33,1.78-1.42,2.97.67,4.31,1.34,1.26.63.52,1.63-.2,2.41-1.07,1.19-2,3.05-3.93,1.33-2.3-2.06-3.86.1-5.74,1Z"/>
      <path class="cls-3" d="M635.21,218.12c2.08,2.85,4.18,1.34,6.64.08.71-.36,2.67,1.1,3.65,2.11.89.93-.44,1.72-1,2.44-.81,1.04-1.65,2.23-3.22,1.05-1.62-1.21-3.03-1.44-4.81.09-1.62,1.39-2.99-.47-4.32-1.26-.87-.52-.82-1.39-.09-2.07.92-.86,1.32-2.37,3.17-2.45Z"/>
      <path class="cls-3" d="M494.13,221.48c-1.29,1.44-2.73,3.59-3.14,3.41-3.05-1.34-5.96-.16-8.91-.18-1.02,0-3.44-.83-2.41-2.75.73-1.37,1.77-4.16,4.4-2.1,1.61,1.26,2.73,1.02,4.31-.18,2.46-1.87,3.56.99,5.75,1.8Z"/>
      <path class="cls-3" d="M44.72,266.22c-2.76-3.34-5.18-1.7-7.78-1.01-.86.23-2.48-1.05-3.22-2.03-.93-1.24.76-1.9,1.31-2.81.91-1.52,2.09-1.39,3.25-.31,1.6,1.5,2.79.87,4.23-.39,1.72-1.51,2.97.42,4.36,1.04.73.33,1.59.82.85,1.82-.86,1.18-1.84,2.27-3,3.69Z"/>
      <path class="cls-3" d="M285.49,229.03c-.79.45-1.58,1.2-2.48,1.35-1.51.26-2.89-.56-4.05-1.43-1.01-.76,0-1.41.53-1.92,1.11-1.08,2.05-2.82,4.03-1.23,1.12.9,2.3,1.25,3.53.11,2.12-1.97,3.61.13,5.18.96.99.52.22,1.35-.29,2.01-1.25,1.62-2.6,2.48-4.56,1.04-.52-.38-1.19-.56-1.89-.88Z"/>
      <path class="cls-3" d="M216.4,261.39c1.45,2.74,4.82.27,4.58,2.71-.22,2.32-3.51,1.87-5.38,2.61-1.96.77-3-2.05-3.59-2.98-1.11-1.73,1.06-3.46,2.63-4.64,1.05-.79,2.57-1.47,3.64-.4,2.02,2.03-2.15,2.02-1.88,2.7Z"/>
      <path class="cls-3" d="M392.98,217.79c-2.64-5.55-2.01-8.26,2.05-8.87,1.25-.19,3.07.25,2.33,1.38-2.19,3.36.97,3,2.58,3.86-1.92,2.47-4.88,2.2-7.04,3.51l.08.11ZM394.53,213.6c.96.14,1.51-.46,1.49-1.04-.01-.39-.8-.94-1.32-1.07-.77-.19-1.66.12-1.58,1.07.03.38.92.69,1.41,1.04Z"/>
      <path class="cls-3" d="M187.29,264.75c-1.87-1.18-4.82-1.4-4.92-3.2-.1-1.91,2.16-4.08,4.19-4.12,1.86-.04,4.96.97,5.05,2.97.08,1.8-2.59,3.09-4.33,4.35Z"/>
      <path class="cls-3" d="M333.48,228c-1.07,1.82-2.59,3.3-4.56,3.23-1.94-.07-4.15-1.4-4.04-3.48.1-1.82,2.03-3.82,3.9-3.77,2.09.06,3.36,2.29,4.69,4.02Z"/>
      <path class="cls-2" d="M560.24,281.88c1.99.06,3.22,1.1,3.29,3.01.07,1.93-.66,3.74-2.84,4.05-2.26.32-3.41-1.25-3.55-3.25-.13-2.03.99-3.43,3.09-3.81Z"/>
      <path class="cls-2" d="M292.64,289.03c-2.4-.16-2.92-2.15-3.08-3.83-.21-2.12,1.33-3.3,3.41-3.26,2.04.04,2.86,1.52,2.78,3.34-.08,1.93-.84,3.52-3.11,3.75Z"/>
      <path class="cls-2" d="M361.76,285.11c-.1,2.58-1.24,3.92-3.39,3.86-1.9-.05-2.99-1.4-3.06-3.29-.08-2.13,1.01-3.54,3.15-3.74,2.5-.23,2.75,1.85,3.3,3.17Z"/>
      <path class="cls-3" d="M392.9,217.67c-.17.21-.34.43-.51.64l-.13-.62c.24.03.48.07.72.1,0,0-.08-.11-.08-.11Z"/>
      <path class="cls-1" d="M228.7,313.15c.27-.12.64-.42.78-.34.55.32.32.74-.02,1.11-.25-.26-.51-.51-.76-.77Z"/>
    </g>
  </g>
</svg>