<?xml version="1.0" encoding="UTF-8"?>
<svg id="Layer_2" data-name="Layer 2" xmlns="http://www.w3.org/2000/svg" viewBox="0 0 1658.84 374.76">
  <defs>
    <style>
      .cls-1 {
        fill: #246136;
      }

      .cls-1, .cls-2, .cls-3 {
        stroke-width: 0px;
      }

      .cls-2 {
        fill: #514e4f;
      }

      .cls-3 {
        fill: #fdfdfd;
      }
    </style>
  </defs>
  <g id="Layer_1-2" data-name="Layer 1">
    <g>
      <path class="cls-1" d="M0,167.41c1.65-8.91,3.18-17.84,4.97-26.72,3.65-18.12,3.59-18.4,20.68-25.08,5.81-2.27,8.82-5.84,11.26-11.27,17.88-39.73,46.09-69.49,86.43-86.94C150.94,5.47,179.91-1.02,210.08.13c14.24.54,28.34,3.42,42.06,7.64,1.98.61,3.01,1.81,3.98,3.41,3.62,5.97,7.05,12.02,9.04,18.78.57,1.93,1.35,3.26,3.66,4.1,55.89,20.29,89.44,60.79,104.64,117.06,8.57,31.73,7.13,63.74-.98,95.5-.61,2.39-1.91,4.07-3.88,5.5-5.59,4.05-12.03,6.32-18.31,8.92-2.11.88-3.51,2.06-4.37,4.29-18.4,47.74-53.43,78.56-100.1,97.33-15.49,6.23-31.67,9.93-48.37,11.22-.68.05-1.3.14-1.6.87h-31.98c-3.07-1.86-6.6-1.5-9.93-1.98-16.56-2.38-33.51-4.02-37.58-25.08-.63-3.28-3.13-4.97-6.28-6.35C52.39,315.96,16.33,273,3.76,210.91,2.64,205.37,2.82,199.49,0,194.33,0,185.36,0,176.38,0,167.41ZM271.92,46.68c-.23-.5-.46-.99-.69-1.49-.6.67-.39,1.37-.1,2.08,2.94,15.44,5.97,30.88,6.43,47.52C205.73,16.83,87.71,39.54,49.06,107.73c15.11-2.47,29.86-6.6,45.69-5.18-71.78,65.24-61.38,182.85,14.61,225.11-3.24-15.22-6.8-29.97-6.46-46.39,33.23,34.23,72.09,52.86,119.62,49.19,47.21-3.65,83.69-26.41,111.47-63.97-16.04,2.72-31.93,5.22-48.06,7.27.79-2.52,2.83-3.82,4.38-5.45,14.68-15.42,27.15-32.41,34.53-52.47,18.94-51.5,9.3-98.77-22.65-142.2-8.09-10.99-17.99-20.41-30.26-26.95Z"/>
      <path class="cls-2" d="M634.07,298.19c-.34.47-.56.7-.69.97-1.53,3.09-.91,7.98-3.68,9.32-3.12,1.51-7.48.46-11.3.56-13.45.35-26.98-1.14-40.31,1.84-6.76,1.51-12.99,4.03-17.83,9.25-.75.81-1.56,2.16-2.84,1.48-1.42-.76-.36-2.03-.07-3.07,2.54-9.07,8.31-15.72,15.91-20.98,1.58-1.09,3.23-2.06,4.67-3.39-9.96,1.55-17.87,6.64-24.08,14.34-1.65,2.05-3.14,3.09-5.79,2.73-2.3-.31-4.65-.18-6.98-.33-17.79-1.07-28.29-12.99-25.93-30.6,2.72-20.33,9.35-39.65,17.55-58.38,3.98-9.1,12.24-13.67,21.46-15.46,18.11-3.51,36.4-3.81,54.43.65,12.5,3.09,17.68,11.27,15.87,24.05-.88,6.22-2.23,12.39-3.57,18.53-2.58,11.83-6.26,23.35-10.48,34.7-.52,1.39-1.21,2.7-.98,4.61,6.85,0,13.65-.01,20.44.01,1.51,0,2.27-.37,2.63-2.12,3.54-17.22,9.72-33.7,14.49-50.57,2.7-9.56,5.85-19.01,8.45-28.6.93-3.42,2.56-4.34,5.91-4.21,6.65.25,13.33.29,19.98.02,4.02-.17,4.75.82,3.55,4.73-6.79,22.17-13.31,44.43-19.93,66.65-2.6,8.73-.61,12.01,8.45,13.93,12.06,2.56,21.74-3.18,25.27-14.99,6.64-22.22,13.34-44.41,19.83-66.67.86-2.97,2.12-3.85,5.11-3.77,8.15.2,16.32.15,24.48.02,2.57-.04,3.17.68,2.44,3.12-8.19,27.28-16.15,54.63-24.58,81.83-2.03,6.53-7.34,10.95-13.27,14.36-10.74,6.18-22.61,7.41-34.64,7.8-8.81.29-17.64.3-26.36-1.4-7.24-1.42-13.73-4.04-17.61-10.96ZM558.34,290.77c11.71.06,16.66-1.9,19.42-8.57,6.33-15.32,11.13-31.16,14.72-47.34,1.03-4.63-1.35-8.24-5.63-9-5.58-.99-11.26-1.12-16.88-.27-5.21.79-8.45,3.89-10.42,8.83-5.54,13.88-9.46,28.23-12.92,42.73-2.22,9.29-.34,11.94,9.19,13.37,1.15.17,2.31.23,2.52.25Z"/>
      <path class="cls-2" d="M1228.83,204.56c-9.83,33.52-19.39,65.69-28.59,97.96-1.4,4.92-3.11,7.03-8.61,6.66-8.62-.59-17.31-.43-25.95-.05-3.78.16-4.73-1.35-5.34-4.54-4-20.82-8.13-41.62-12.23-62.42-.29-1.45-.72-2.88-1.34-5.29-5.7,19.23-11.13,37.54-16.55,55.85-1.22,4.13-2.66,8.21-3.59,12.4-.65,2.94-1.83,4.07-5.01,3.96-7.48-.26-14.98-.17-22.47-.03-3.08.06-4.41-.06-3.23-3.97,9.78-32.5,19.32-65.07,28.8-97.66.74-2.55,1.76-3.36,4.38-3.31,9.32.18,18.64,0,27.97.14,8,.12,13.6,4.86,15.05,12.53,2.73,14.49,5.41,28.99,8.14,43.47.15.78.48,1.52,1.13,3.55,3.83-12.71,7.3-24.25,10.77-35.79,2-6.66,4.13-13.29,5.93-20,.75-2.82,1.86-3.92,5.01-3.91,38.45.14,76.9.15,115.34.05,3.52,0,4.34.75,3.17,4.15-1.99,5.78-3.78,11.65-5.31,17.57-.67,2.61-1.83,3.44-4.44,3.36-5.65-.18-11.33.15-16.97-.14-3.88-.2-5.7.83-6.86,4.92-6.75,23.72-13.98,47.3-20.83,70.99-.97,3.36-2.42,4.34-5.84,4.21-7.48-.29-14.98-.22-22.47-.03-3.39.09-4.27-.51-3.15-4.13,7.21-23.41,14.16-46.9,21.21-70.36,1.65-5.5,1.67-5.5-4.12-5.5-4.16,0-8.34-.24-12.48.08-3.35.25-4.52-1.14-5.31-4.17-1.71-6.51-3.85-12.91-6.18-20.55Z"/>
      <path class="cls-2" d="M780.29,184.09c4.75-16.54,9.45-32.91,14.16-49.28,7.28-25.3,14.63-50.58,21.78-75.91.85-3.02,1.88-4.29,5.26-4.27,22.48.18,44.96.04,67.44.16,8.11.04,15.85,1.83,22.58,6.63,11.84,8.44,13.3,20.29,10.64,33.33-3.92,19.17-8.93,38.05-15.8,56.4-3.84,10.24-10.39,18.5-18.72,25.35-5.76,4.73-12.43,7.75-20.08,7.77-28.31.07-56.61.07-84.92.08-.65,0-1.29-.14-2.33-.26ZM842.49,157.65v-.04c3.16,0,6.32.04,9.49,0,11.93-.18,15.18-2.48,19.67-13.77,4.84-12.17,8.84-24.62,12.37-37.21,1.47-5.23,3.43-10.42,3.43-15.98,0-7.47-4.51-12.21-11.89-12.3-7.99-.1-15.98-.02-23.96-.03-1.88,0-3.54.01-4.22,2.42-6.85,24.55-13.75,49.09-20.72,73.6-.82,2.87.28,3.43,2.86,3.35,4.32-.14,8.65-.04,12.98-.04Z"/>
      <path class="cls-2" d="M1058.37,184.51c-14.16,0-28.31-.09-42.47.07-3.06.03-3.54-.66-2.71-3.55,11.88-41.04,23.67-82.11,35.4-123.2.66-2.31,1.64-3.1,4.07-3.09,22.81.12,45.63.06,68.45.16,4.66.02,9.28.89,13.71,2.34,14.54,4.77,22.53,17.33,20.07,32.51-3.58,22.14-9.39,43.75-17.83,64.56-3.93,9.7-10.7,17.55-19.2,23.73-6.08,4.42-12.87,6.58-20.53,6.44-12.99-.23-25.98-.06-38.97-.06v.1ZM1074.61,157.99v-.13c3.16,0,6.33-.18,9.47.03,10.63.72,16.54-4.67,19.93-14.26,4.31-12.17,8.56-24.35,12.03-36.78,1.51-5.38,3.56-10.72,3.39-16.47-.21-7.25-4.68-11.78-11.79-11.83-7.98-.06-15.96.05-23.94-.06-2.28-.03-3.67.44-4.35,2.89-6.84,24.52-13.74,49.03-20.72,73.52-.75,2.65.08,3.2,2.51,3.13,4.49-.12,8.98-.03,13.47-.03Z"/>
      <path class="cls-2" d="M719.17,186.22c-11.77-.11-22.79.3-33.5-2.74-16.87-4.79-23.49-16.8-18.48-33.51,9.12-30.46,18.31-60.9,27.34-91.38.94-3.19,2.21-4.51,5.76-4.39,9.15.31,18.32.36,27.46.06,4.26-.14,4.1,1.29,3.11,4.56-8.59,28.53-17.04,57.1-25.51,85.67-2.22,7.48-.26,11.28,6.96,13.77,8.3,2.87,16.36,2.01,24.14-1.77,5.36-2.61,8.59-6.93,10.29-12.71,8.44-28.58,17.1-57.1,25.49-85.7.91-3.09,2.07-4.26,5.36-4.19,10.15.22,20.31.26,30.46.03,3.73-.09,4.44.69,3.33,4.33-8.98,29.63-18.82,59.05-26.31,89.06-5.83,23.34-21.44,32.9-42.84,36.98-7.87,1.5-15.89,1.51-23.06,1.93Z"/>
      <path class="cls-2" d="M1496.78,105.31c14.82,0,29.09.1,43.36-.07,3.82-.05,4.58.97,3.32,4.55-1.92,5.46-3.63,11.02-4.96,16.65-.83,3.49-2.56,4.25-5.9,4.2-13.15-.2-26.3.01-39.45-.17-3.28-.04-5.26.45-5.7,4.19-.34,2.93-1.54,5.75-2.19,8.65-1.56,6.97.92,10.21,8.16,11.12,17.3,2.17,34.54,1.8,51.71-1.13,2.98-.51,4.35-.93,3.09,3.05-2.71,8.52-5.02,17.16-7.24,25.82-.62,2.42-1.66,3.16-4.05,3.2-22.47.4-44.93,1.02-67.4,1.32-10.27.14-17.21-5.45-21.53-14.33-5.26-10.81-4.89-22.2-2.7-33.62,4.96-25.97,14.59-50.12,27.78-73.05,3.94-6.85,9.02-10.08,16.35-10.78,4.63-.44,9.28-.98,13.92-1,22.64-.1,45.28.05,67.93-.14,4.25-.04,4.99.9,3.6,4.9-2.54,7.35-4.79,14.82-6.66,22.37-.88,3.55-2.29,4.69-5.99,4.63-15.81-.22-31.64.14-47.44-.21-6.03-.14-9.89,2.14-12.35,7.27-1.92,4.01-3.64,8.11-5.63,12.57Z"/>
      <path class="cls-2" d="M1345.01,54.03c-2.9,9.87-5.76,19.21-8.35,28.61-.75,2.74-2.3,3.01-4.7,3-16.15-.09-32.3.21-48.44-.18-6.12-.15-9.81,2.41-12.3,7.39-1.91,3.83-3.49,7.83-5.51,12.44,13.89,0,27.25,0,40.6,0,7.33,0,7.34.03,5.24,7.05-1.47,4.91-3.2,9.76-4.42,14.74-.7,2.81-1.96,3.56-4.79,3.53-13.65-.17-27.3.01-40.95-.14-2.98-.03-4.49.7-4.97,3.8-.56,3.59-1.82,7.06-2.36,10.65-.84,5.59,1.38,8.62,6.93,9.34,16.25,2.12,32.52,2.13,48.76-.27,2.59-.38,5.17-.81,8.32-1.3-2.87,10.4-5.66,20.37-8.36,30.36-.55,2.04-1.83,2.28-3.68,2.32-22.63.41-45.27,1.05-67.9,1.31-9.82.11-16.5-5.29-20.91-13.72-4.93-9.41-5.37-19.6-3.75-29.65,4.69-29.14,15.41-56.11,30.86-81.25,2.06-3.35,4.63-5.5,8.52-6.08,4.27-.63,8.53-1.84,12.8-1.86,26.29-.17,52.59-.09,79.4-.09Z"/>
      <path class="cls-2" d="M530.95,184.31c4.81-8.19,9.14-15.57,13.48-22.95,16.39-27.87,32.78-55.73,49.18-83.59,3.74-6.35,8.36-11.97,14.16-16.57,4.78-3.79,10.01-6.49,16.34-6.47,10.98.04,21.97.1,32.94-.07,2.87-.04,3.58.83,3.57,3.61-.08,40.83-.08,81.67,0,122.5,0,2.83-.79,3.67-3.62,3.62-9.32-.16-18.64-.23-27.95.02-3.37.09-3.8-1.28-3.73-4.08.15-6.47-.1-12.95.11-19.42.1-2.96-.73-4.21-3.81-4.18-10.81.1-21.63.12-32.45,0-2.47-.03-3.5,1.26-4.51,3.11-3.99,7.26-8.14,14.44-12.03,21.75-1.09,2.04-2.3,2.78-4.61,2.76-11.97-.11-23.95-.05-37.09-.05ZM625.87,87.05c-.33-.07-.66-.14-.99-.21-8.38,15.29-16.76,30.57-25.49,46.5,8.4,0,15.98-.1,23.55.05,3.1.06,2.94-1.77,2.94-3.86-.03-9.94,0-19.89,0-29.83,0-4.22,0-8.44,0-12.66Z"/>
      <path class="cls-2" d="M517.57,54.3c14.05,0,25.2.07,36.35-.05,2.79-.03,3.8.35,2.95,3.54-2.08,7.84-3.82,15.78-5.53,23.72-.64,2.98-1.75,4.24-5.2,4.2-15.98-.23-31.96-.04-47.94-.07-4.57,0-8.93.89-13.08,2.67-4.83,2.07-7.62,6.96-6.6,11.6,1.14,5.21,5.37,6.49,9.85,6.65,9.97.36,19.99-.36,29.86,1.63,14.98,3.01,21.52,10.72,20.17,25.75-1.28,14.17-6.83,26.98-16.5,37.61-7.21,7.93-16.93,10.83-27.29,11.73-22.43,1.96-44.92.65-67.38,1.1-2.75.06-3.02-1.06-2.48-3.26,2.02-8.2,4.12-16.38,5.91-24.63.68-3.12,2.69-2.79,4.86-2.79,16.81-.03,33.63-.08,50.44-.12,4.2,0,8.3-.65,12.17-2.27,4.32-1.82,7.51-7.13,6.18-10.8-1.54-4.23-5.15-4.93-9.33-4.9-11.97.1-23.97.28-35.48-3.98-4.78-1.77-7.82-4.71-10-9.55-8.51-18.85-2.4-34.86,7.92-50.91,7.2-11.2,16.61-16.14,29.59-16.51,11.15-.32,22.3-.19,30.56-.36Z"/>
      <path class="cls-2" d="M1413.41,53.62c12.72,0,23.38.13,34.03-.07,3.38-.06,3.89.87,3.08,3.96-2.05,7.85-3.89,15.75-5.57,23.69-.61,2.88-1.93,3.57-4.75,3.55-15.81-.11-31.63,0-47.45.03-4.7,0-9.26.79-13.6,2.6-4.96,2.08-8.27,7.39-7.06,11.83,1.35,4.95,5.39,6.4,10.03,6.5,8.32.18,16.63.17,24.94.92,18.68,1.69,26.84,10.46,24.73,28.61-1.6,13.74-7.15,26.3-16.97,36.34-9.41,9.62-22.03,11.22-34.61,11.51-19.64.45-39.29.22-58.93.35-2.44.02-3.67-.18-2.85-3.25,2.1-7.84,3.92-15.75,5.68-23.67.62-2.79,1.97-3.56,4.81-3.57,17.64-.06,35.29.54,52.93-.34,4.18-.21,8.3-.81,11.87-3.22,3.54-2.39,5.17-6.06,4.07-9.94-1.07-3.75-4.55-4.46-8.44-4.51-12.27-.16-24.62.33-36.44-4.21-5.02-1.93-8.08-5.09-9.99-10.2-3.33-8.9-5.2-17.76-2.93-27.2.55-2.3,1.38-4.36,2.75-6.31,6.41-9.09,12.78-18.21,19.05-27.4,1.6-2.35,3.46-3.47,6.37-4.03,15.69-3.02,31.53-1.57,45.23-1.97Z"/>
      <path class="cls-2" d="M952.89,238.92c5.46-6.95,10.32-13.16,15.21-19.35,2.78-3.51,5.22-7.33,8.86-10.08,4.34-3.28,9.14-5.32,14.72-5.29,8.16.05,16.32.07,24.47-.05,2.79-.04,3.3.54,2.45,3.4-9.71,32.7-19.29,65.44-28.79,98.2-.72,2.48-1.69,3.39-4.36,3.32-7.82-.19-15.65-.22-23.47.01-3.56.11-4.13-.72-3.09-4.15,6.02-19.8,11.79-39.67,17.67-59.51.42-1.42,1.14-2.77.4-5.14-5.81,7.11-11.35,13.83-16.83,20.59-6.07,7.48-12.25,14.87-18.03,22.57-2.25,3-4.98,3.04-7.9,2.67-3.14-.41-2.02-3.51-2.38-5.28-2.67-13.14-5.02-26.35-7.48-39.53-.14-.75-.36-1.48-1.58-2.37-2.48,8.23-5.01,16.45-7.45,24.69-4.13,13.96-8.18,27.94-12.31,41.91-.54,1.83-.78,3.66-3.72,3.58-9.14-.24-18.28-.09-27.93-.09,4.44-15.15,8.74-29.89,13.08-44.61,5.58-18.9,11.29-37.76,16.72-56.7.81-2.82,1.94-3.65,4.76-3.59,9.15.18,18.31.02,27.47.14,8.03.11,13.41,4.48,15.13,12.4,1.53,7.04,2.78,14.14,4.36,22.27ZM977.85,240.06c.09-.1.26-.21.27-.32,0-.11-.16-.22-.25-.34-.11.15-.21.31-.32.46.09.06.19.12.31.19Z"/>
      <path class="cls-2" d="M1658.84,150.66c-2.91,10.47-5.65,20.3-8.39,30.14-.45,1.62-1.47,2.27-3.2,2.55-23.31,3.64-46.65,4.66-70.05.98-15.31-2.41-23.65-14.22-21.93-30.81,1-9.61,3.53-18.88,6.22-28.1,6.45-22.09,13.05-44.14,19.49-66.23.84-2.89,2-4.3,5.41-4.2,9.98.28,19.97.19,29.96.06,3.3-.04,3.9.81,2.92,4.06-6.44,21.23-12.67,42.52-18.95,63.8-1.92,6.51-3.64,13.1-4.45,19.83-.81,6.71,1.91,9.88,8.53,10.87,18.02,2.69,35.8.59,54.42-2.95Z"/>
      <path class="cls-2" d="M466.63,244.76c11.82,0,22.96.13,34.09-.07,3.57-.06,4.24.82,2.99,4.12-1.58,4.17-2.95,8.46-3.92,12.81-.66,2.93-2.06,3.55-4.82,3.51-10.48-.15-20.97.06-31.46-.14-2.88-.06-4.26.77-4.71,3.57-.37,2.29-1.03,4.52-1.54,6.79-1.22,5.43.71,8.05,6.36,8.74,13.63,1.69,27.21,1.59,40.75-.82,1.1-.2,2.26-.03,3.85-.03-2.26,8.08-4.48,15.85-6.56,23.66-.44,1.66-1.4,1.93-2.83,2.15-19.2,2.95-38.47,3.1-57.68.59-8.59-1.12-14.79-9.4-16.5-19.64-1.52-9.11.32-17.84,2.35-26.57,4.12-17.73,11.47-34.13,20.26-50.04,3.55-6.43,8.57-8.49,15.19-9.12,12.63-1.2,25.28-.47,37.92-.64,8.49-.12,16.98.03,25.47-.05,2.83-.03,4.41.11,3.11,3.79-2.14,6.08-3.78,12.34-5.44,18.58-.68,2.56-2.03,3.24-4.59,3.21-12.15-.13-24.32.33-36.44-.22-6.9-.31-10.56,2.67-12.86,8.5-.9,2.29-1.85,4.56-2.97,7.32Z"/>
      <path class="cls-2" d="M1052,244.95h38.08c-1.84,6.22-3.62,11.89-5.17,17.62-.63,2.31-2.02,2.53-4.04,2.52-10.48-.08-20.97.07-31.45-.1-3.2-.05-4.57.82-5.38,4.12-3.31,13.46-2.89,14.48,10.96,15.66,11.29.96,22.61.75,33.8-1.39,3.59-.68,5.34-.64,3.7,3.93-2.11,5.91-3.63,12.04-5.08,18.16-.61,2.55-1.75,3.36-4.29,3.73-18.55,2.74-37.15,2.85-55.71.6-8.71-1.06-13.54-7.13-16.19-15.06-2.54-7.62-2.22-15.35-.71-23.11,3.99-20.52,11.65-39.6,21.82-57.86,3.65-6.55,8.64-8.97,15.49-9.54,14.63-1.22,29.27-.39,43.91-.61,6.66-.1,13.32.13,19.97-.09,3.21-.1,3.55.79,2.61,3.65-2.03,6.13-3.83,12.33-5.45,18.58-.73,2.84-2.23,3.43-4.93,3.4-11.98-.14-23.98.36-35.94-.21-7.09-.33-10.88,2.7-13.17,8.77-.81,2.15-1.66,4.27-2.82,7.23Z"/>
      <path class="cls-2" d="M833.83,204.3c8.65,0,17.32-.31,25.96.07,17.14.75,26.58,11.05,25.55,28.05-.96,15.79-7.73,29-19.57,39.48-5.49,4.86-11.91,7.55-19.56,7.33-9.98-.29-19.97.08-29.95-.16-2.98-.07-4.01,1.06-4.74,3.6-2.23,7.79-4.77,15.49-6.89,23.3-.67,2.45-1.75,3.13-4.13,3.09-7.99-.12-15.98-.16-23.96.01-3.15.07-3.61-.93-2.77-3.74,9.75-32.66,19.45-65.33,29.05-98.03.76-2.59,2.02-3.21,4.55-3.17,8.82.15,17.64.06,26.46.06,0,.04,0,.07,0,.11ZM829.64,257.51c16.86.05,27.58-9.97,26.91-24.58-.27-5.89-3.92-9.6-9.69-9.69-4.82-.08-9.65.08-14.47-.06-2.39-.07-3.48.7-4.12,3.12-1.82,6.87-4.01,13.65-6.01,20.47-.97,3.31-3.95,7.46-2.32,9.74,1.92,2.7,6.79.49,9.71.99Z"/>
      <path class="cls-2" d="M907.02,184.31c3.51-11.72,6.88-22.94,10.25-34.17,9.07-30.3,18.21-60.59,27.14-90.93,1.02-3.46,2.49-4.6,6.12-4.49,9.48.28,18.98.25,28.47,0,3.75-.09,4.92.41,3.69,4.54-12.22,40.78-24.27,81.61-36.29,122.46-.49,1.67-.93,2.62-2.86,2.61-11.97-.05-23.93-.03-36.51-.03Z"/>
      <path class="cls-2" d="M1163.74,185.68c-4.82,0-9.67-.28-14.46.08-4.57.35-4.68-1.32-3.55-5.04,8.7-28.65,17.22-57.34,25.82-86.02,3.47-11.57,7.05-23.1,10.41-34.7.74-2.57,1.62-3.89,4.65-3.83,10.31.2,20.63.2,30.94.03,3.26-.06,3.47.89,2.63,3.71-12.13,40.74-24.17,81.5-36.18,122.28-.75,2.54-1.82,3.74-4.78,3.56-5.14-.32-10.31-.09-15.46-.09v.03Z"/>
      <path class="cls-2" d="M731.65,309.02c7.23-24.1,14.26-47.55,21.3-71,3-9.99,6.08-19.95,8.93-29.98.79-2.79,1.86-4.05,5.05-3.93,7.65.28,15.31.2,22.97.03,3.11-.07,4.1.46,3.08,3.85-9.75,32.51-19.36,65.06-28.99,97.6-.57,1.92-.89,3.57-3.75,3.5-9.31-.22-18.62-.08-28.58-.08Z"/>
      <path class="cls-3" d="M271.14,47.28c-.3-.71-.5-1.41.1-2.08.23.5.46.99.69,1.49-.24.22-.51.42-.79.59Z"/>
      <path class="cls-3" d="M977.85,240.06c-.12-.07-.21-.13-.31-.19.11-.15.21-.31.32-.46.09.11.25.23.25.34,0,.11-.17.21-.27.32Z"/>
      <path class="cls-1" d="M92.8,193.58c1.78-24.66,12.99-43.68,31.17-59.09,12.71-10.76,26.92-19.5,39.88-29.91,4.27-3.43,8.54-6.93,12.33-10.87,2.54-2.64,5.04-2.93,8.4-2.61,28.55,2.73,49.63,17.73,65.94,40.18,10.35,14.25,20.29,28.73,33.25,40.88,6.42,6.02,5.84,14.15,3.49,21.47-8.55,26.67-24,48.35-48.88,62.21-9.37,5.22-18.61,10.33-25.56,18.65-9.02,10.81-20.21,12.44-32.83,7.88-24.52-8.86-44.4-23.7-58.48-45.81-4.28-6.71-8.12-13.7-12.3-20.48-3.59-5.83-7.95-11.1-13.21-15.49-2.55-2.13-4.09-4.24-3.2-7.03Z"/>
    </g>
  </g>
</svg>