<?xml version="1.0" encoding="UTF-8"?>
<svg id="Layer_2" data-name="Layer 2" xmlns="http://www.w3.org/2000/svg" viewBox="0 0 51.59 58.69">
  <defs>
    <style>
      .cls-1 {
        fill: #bcbcbc;
      }

      .cls-1, .cls-2 {
        stroke-width: 0px;
      }

      .cls-2 {
        fill: #1d9146;
      }
    </style>
  </defs>
  <g id="Layer_1-2" data-name="Layer 1">
    <g>
      <polygon class="cls-1" points="29.34 1.21 16.33 7.42 0 7.42 0 1.21 29.34 1.21"/>
      <rect class="cls-1" y="14.14" width="11.83" height="6.22"/>
      <path class="cls-1" d="M32.23,33.14H0v-6.22h11.83v.52h13.4s4.19,2.14,7,5.7Z"/>
      <rect class="cls-1" y="39.7" width="11.83" height="6.21"/>
      <polygon class="cls-1" points="18.34 52.48 30.44 58.69 0 58.69 0 52.48 18.34 52.48"/>
      <path class="cls-2" d="M34.93,26.04v-10.41h-5.74v7.86c.47,1.38,1.02,2.51,1.59,3.43,1.32,2.11,2.78,3.13,3.77,3.61.7.34,1.15.42,1.15.42h15.89v17.68l-17.04,9.45-1.11.61h-3l-12.1-6.21-6.51-3.34v-15.82h17.36v10.4h5.55v-4.15c0-2.45-1.08-4.62-2.51-6.43-2.81-3.56-7-5.7-7-5.7h-13.4V9.57l4.5-2.15L29.34,1.21l2.53-1.21,2.58,1.21.1.05,17.04,7.99v16.79h-16.66Z"/>
    </g>
  </g>
</svg>