<svg width="1440" height="361" viewBox="0 0 1440 361" fill="none" xmlns="http://www.w3.org/2000/svg">
<g opacity="0.6" clip-path="url(#clip0_145_513)">
<rect x="544.914" y="12.1941" width="98" height="98" transform="rotate(137.093 544.914 12.1941)" stroke="url(#paint0_linear_145_513)" stroke-opacity="0.25" stroke-width="2"/>
<rect x="618.241" y="17.4398" width="198" height="198" transform="rotate(137.093 618.241 17.4398)" stroke="url(#paint1_linear_145_513)" stroke-opacity="0.25" stroke-width="2"/>
<rect x="546.914" y="142.194" width="98" height="98" transform="rotate(137.093 546.914 142.194)" stroke="url(#paint2_linear_145_513)" stroke-opacity="0.25" stroke-width="2"/>
<rect x="620.241" y="147.44" width="198" height="198" transform="rotate(137.093 620.241 147.44)" stroke="url(#paint3_linear_145_513)" stroke-opacity="0.25" stroke-width="2"/>
<rect x="643.914" y="386.194" width="98" height="98" transform="rotate(137.093 643.914 386.194)" stroke="url(#paint4_linear_145_513)" stroke-opacity="0.25" stroke-width="2"/>
<rect x="717.241" y="391.44" width="198" height="198" transform="rotate(137.093 717.241 391.44)" stroke="url(#paint5_linear_145_513)" stroke-opacity="0.25" stroke-width="2"/>
<rect x="827.914" y="89.1941" width="98" height="98" transform="rotate(137.093 827.914 89.1941)" stroke="url(#paint6_linear_145_513)" stroke-opacity="0.25" stroke-width="2"/>
<rect x="901.241" y="94.4398" width="198" height="198" transform="rotate(137.093 901.241 94.4398)" stroke="url(#paint7_linear_145_513)" stroke-opacity="0.25" stroke-width="2"/>
<rect x="829.914" y="219.194" width="98" height="98" transform="rotate(137.093 829.914 219.194)" stroke="url(#paint8_linear_145_513)" stroke-opacity="0.25" stroke-width="2"/>
<rect x="903.241" y="224.44" width="198" height="198" transform="rotate(137.093 903.241 224.44)" stroke="url(#paint9_linear_145_513)" stroke-opacity="0.25" stroke-width="2"/>
<rect x="1110.91" y="165.194" width="98" height="98" transform="rotate(137.093 1110.91 165.194)" stroke="url(#paint10_linear_145_513)" stroke-opacity="0.25" stroke-width="2"/>
<rect x="1184.24" y="170.44" width="198" height="198" transform="rotate(137.093 1184.24 170.44)" stroke="url(#paint11_linear_145_513)" stroke-opacity="0.25" stroke-width="2"/>
<rect x="1112.91" y="295.194" width="98" height="98" transform="rotate(137.093 1112.91 295.194)" stroke="url(#paint12_linear_145_513)" stroke-opacity="0.25" stroke-width="2"/>
<rect x="1186.24" y="300.44" width="198" height="198" transform="rotate(137.093 1186.24 300.44)" stroke="url(#paint13_linear_145_513)" stroke-opacity="0.25" stroke-width="2"/>
<rect x="1393.91" y="241.194" width="98" height="98" transform="rotate(137.093 1393.91 241.194)" stroke="url(#paint14_linear_145_513)" stroke-opacity="0.25" stroke-width="2"/>
<rect x="1467.24" y="246.44" width="198" height="198" transform="rotate(137.093 1467.24 246.44)" stroke="url(#paint15_linear_145_513)" stroke-opacity="0.25" stroke-width="2"/>
<rect x="1395.91" y="371.194" width="98" height="98" transform="rotate(137.093 1395.91 371.194)" stroke="url(#paint16_linear_145_513)" stroke-opacity="0.25" stroke-width="2"/>
<rect x="1469.24" y="376.44" width="198" height="198" transform="rotate(137.093 1469.24 376.44)" stroke="url(#paint17_linear_145_513)" stroke-opacity="0.25" stroke-width="2"/>
<rect x="1000.24" y="462.44" width="198" height="198" transform="rotate(137.093 1000.24 462.44)" stroke="url(#paint18_linear_145_513)" stroke-opacity="0.25" stroke-width="2"/>
<rect x="78.9138" y="241.194" width="98" height="98" transform="rotate(137.093 78.9138 241.194)" stroke="url(#paint19_linear_145_513)" stroke-opacity="0.25" stroke-width="2"/>
<rect x="152.241" y="246.44" width="198" height="198" transform="rotate(137.093 152.241 246.44)" stroke="url(#paint20_linear_145_513)" stroke-opacity="0.25" stroke-width="2"/>
<rect x="80.9138" y="371.194" width="98" height="98" transform="rotate(137.093 80.9138 371.194)" stroke="url(#paint21_linear_145_513)" stroke-opacity="0.25" stroke-width="2"/>
<rect x="154.241" y="376.44" width="198" height="198" transform="rotate(137.093 154.241 376.44)" stroke="url(#paint22_linear_145_513)" stroke-opacity="0.25" stroke-width="2"/>
<rect x="333.241" y="-59.5602" width="198" height="198" transform="rotate(137.093 333.241 -59.5602)" stroke="url(#paint23_linear_145_513)" stroke-opacity="0.25" stroke-width="2"/>
<rect x="261.914" y="65.1941" width="98" height="98" transform="rotate(137.093 261.914 65.1941)" stroke="url(#paint24_linear_145_513)" stroke-opacity="0.25" stroke-width="2"/>
<rect x="335.241" y="70.4398" width="198" height="198" transform="rotate(137.093 335.241 70.4398)" stroke="url(#paint25_linear_145_513)" stroke-opacity="0.25" stroke-width="2"/>
<rect x="363.914" y="309.194" width="98" height="98" transform="rotate(137.093 363.914 309.194)" stroke="url(#paint26_linear_145_513)" stroke-opacity="0.25" stroke-width="2"/>
<rect x="437.241" y="314.44" width="198" height="198" transform="rotate(137.093 437.241 314.44)" stroke="url(#paint27_linear_145_513)" stroke-opacity="0.25" stroke-width="2"/>
<rect x="439.241" y="444.44" width="198" height="198" transform="rotate(137.093 439.241 444.44)" stroke="url(#paint28_linear_145_513)" stroke-opacity="0.25" stroke-width="2"/>
<rect x="1297.91" y="-4.80592" width="98" height="98" transform="rotate(137.093 1297.91 -4.80592)" stroke="url(#paint29_linear_145_513)" stroke-opacity="0.25" stroke-width="2"/>
<rect x="1371.24" y="0.43981" width="198" height="198" transform="rotate(137.093 1371.24 0.43981)" stroke="url(#paint30_linear_145_513)" stroke-opacity="0.25" stroke-width="2"/>
<rect x="1088.24" y="-73.5602" width="198" height="198" transform="rotate(137.093 1088.24 -73.5602)" stroke="url(#paint31_linear_145_513)" stroke-opacity="0.25" stroke-width="2"/>
</g>
<defs>
<linearGradient id="paint0_linear_145_513" x1="596.327" y1="12.2457" x2="596.327" y2="112.246" gradientUnits="userSpaceOnUse">
<stop stop-color="#2F2B73"/>
<stop offset="1" stop-color="#D4D3F2"/>
</linearGradient>
<linearGradient id="paint1_linear_145_513" x1="719.654" y1="17.4915" x2="719.654" y2="217.491" gradientUnits="userSpaceOnUse">
<stop stop-color="#2F2B73"/>
<stop offset="1" stop-color="#D4D3F2"/>
</linearGradient>
<linearGradient id="paint2_linear_145_513" x1="598.327" y1="142.246" x2="598.327" y2="242.246" gradientUnits="userSpaceOnUse">
<stop stop-color="#2F2B73"/>
<stop offset="1" stop-color="#D4D3F2"/>
</linearGradient>
<linearGradient id="paint3_linear_145_513" x1="721.654" y1="147.491" x2="721.654" y2="347.491" gradientUnits="userSpaceOnUse">
<stop stop-color="#2F2B73"/>
<stop offset="1" stop-color="#D4D3F2"/>
</linearGradient>
<linearGradient id="paint4_linear_145_513" x1="695.327" y1="386.246" x2="695.327" y2="486.246" gradientUnits="userSpaceOnUse">
<stop stop-color="#2F2B73"/>
<stop offset="1" stop-color="#D4D3F2"/>
</linearGradient>
<linearGradient id="paint5_linear_145_513" x1="818.654" y1="391.491" x2="818.654" y2="591.491" gradientUnits="userSpaceOnUse">
<stop stop-color="#2F2B73"/>
<stop offset="1" stop-color="#D4D3F2"/>
</linearGradient>
<linearGradient id="paint6_linear_145_513" x1="879.327" y1="89.2457" x2="879.327" y2="189.246" gradientUnits="userSpaceOnUse">
<stop stop-color="#2F2B73"/>
<stop offset="1" stop-color="#D4D3F2"/>
</linearGradient>
<linearGradient id="paint7_linear_145_513" x1="1002.65" y1="94.4915" x2="1002.65" y2="294.491" gradientUnits="userSpaceOnUse">
<stop stop-color="#2F2B73"/>
<stop offset="1" stop-color="#D4D3F2"/>
</linearGradient>
<linearGradient id="paint8_linear_145_513" x1="881.327" y1="219.246" x2="881.327" y2="319.246" gradientUnits="userSpaceOnUse">
<stop stop-color="#2F2B73"/>
<stop offset="1" stop-color="#D4D3F2"/>
</linearGradient>
<linearGradient id="paint9_linear_145_513" x1="1004.65" y1="224.491" x2="1004.65" y2="424.491" gradientUnits="userSpaceOnUse">
<stop stop-color="#2F2B73"/>
<stop offset="1" stop-color="#D4D3F2"/>
</linearGradient>
<linearGradient id="paint10_linear_145_513" x1="1162.33" y1="165.246" x2="1162.33" y2="265.246" gradientUnits="userSpaceOnUse">
<stop stop-color="#2F2B73"/>
<stop offset="1" stop-color="#D4D3F2"/>
</linearGradient>
<linearGradient id="paint11_linear_145_513" x1="1285.65" y1="170.491" x2="1285.65" y2="370.491" gradientUnits="userSpaceOnUse">
<stop stop-color="#2F2B73"/>
<stop offset="1" stop-color="#D4D3F2"/>
</linearGradient>
<linearGradient id="paint12_linear_145_513" x1="1164.33" y1="295.246" x2="1164.33" y2="395.246" gradientUnits="userSpaceOnUse">
<stop stop-color="#2F2B73"/>
<stop offset="1" stop-color="#D4D3F2"/>
</linearGradient>
<linearGradient id="paint13_linear_145_513" x1="1287.65" y1="300.491" x2="1287.65" y2="500.491" gradientUnits="userSpaceOnUse">
<stop stop-color="#2F2B73"/>
<stop offset="1" stop-color="#D4D3F2"/>
</linearGradient>
<linearGradient id="paint14_linear_145_513" x1="1445.33" y1="241.246" x2="1445.33" y2="341.246" gradientUnits="userSpaceOnUse">
<stop stop-color="#2F2B73"/>
<stop offset="1" stop-color="#D4D3F2"/>
</linearGradient>
<linearGradient id="paint15_linear_145_513" x1="1568.65" y1="246.491" x2="1568.65" y2="446.491" gradientUnits="userSpaceOnUse">
<stop stop-color="#2F2B73"/>
<stop offset="1" stop-color="#D4D3F2"/>
</linearGradient>
<linearGradient id="paint16_linear_145_513" x1="1447.33" y1="371.246" x2="1447.33" y2="471.246" gradientUnits="userSpaceOnUse">
<stop stop-color="#2F2B73"/>
<stop offset="1" stop-color="#D4D3F2"/>
</linearGradient>
<linearGradient id="paint17_linear_145_513" x1="1570.65" y1="376.491" x2="1570.65" y2="576.491" gradientUnits="userSpaceOnUse">
<stop stop-color="#2F2B73"/>
<stop offset="1" stop-color="#D4D3F2"/>
</linearGradient>
<linearGradient id="paint18_linear_145_513" x1="1101.65" y1="462.491" x2="1101.65" y2="662.491" gradientUnits="userSpaceOnUse">
<stop stop-color="#2F2B73"/>
<stop offset="1" stop-color="#D4D3F2"/>
</linearGradient>
<linearGradient id="paint19_linear_145_513" x1="130.327" y1="241.246" x2="130.327" y2="341.246" gradientUnits="userSpaceOnUse">
<stop stop-color="#2F2B73"/>
<stop offset="1" stop-color="#D4D3F2"/>
</linearGradient>
<linearGradient id="paint20_linear_145_513" x1="253.654" y1="246.491" x2="253.654" y2="446.491" gradientUnits="userSpaceOnUse">
<stop stop-color="#2F2B73"/>
<stop offset="1" stop-color="#D4D3F2"/>
</linearGradient>
<linearGradient id="paint21_linear_145_513" x1="132.327" y1="371.246" x2="132.327" y2="471.246" gradientUnits="userSpaceOnUse">
<stop stop-color="#2F2B73"/>
<stop offset="1" stop-color="#D4D3F2"/>
</linearGradient>
<linearGradient id="paint22_linear_145_513" x1="255.654" y1="376.491" x2="255.654" y2="576.491" gradientUnits="userSpaceOnUse">
<stop stop-color="#2F2B73"/>
<stop offset="1" stop-color="#D4D3F2"/>
</linearGradient>
<linearGradient id="paint23_linear_145_513" x1="434.654" y1="-59.5085" x2="434.654" y2="140.491" gradientUnits="userSpaceOnUse">
<stop stop-color="#2F2B73"/>
<stop offset="1" stop-color="#D4D3F2"/>
</linearGradient>
<linearGradient id="paint24_linear_145_513" x1="313.327" y1="65.2457" x2="313.327" y2="165.246" gradientUnits="userSpaceOnUse">
<stop stop-color="#2F2B73"/>
<stop offset="1" stop-color="#D4D3F2"/>
</linearGradient>
<linearGradient id="paint25_linear_145_513" x1="436.654" y1="70.4915" x2="436.654" y2="270.491" gradientUnits="userSpaceOnUse">
<stop stop-color="#2F2B73"/>
<stop offset="1" stop-color="#D4D3F2"/>
</linearGradient>
<linearGradient id="paint26_linear_145_513" x1="415.327" y1="309.246" x2="415.327" y2="409.246" gradientUnits="userSpaceOnUse">
<stop stop-color="#2F2B73"/>
<stop offset="1" stop-color="#D4D3F2"/>
</linearGradient>
<linearGradient id="paint27_linear_145_513" x1="538.654" y1="314.491" x2="538.654" y2="514.491" gradientUnits="userSpaceOnUse">
<stop stop-color="#2F2B73"/>
<stop offset="1" stop-color="#D4D3F2"/>
</linearGradient>
<linearGradient id="paint28_linear_145_513" x1="540.654" y1="444.491" x2="540.654" y2="644.491" gradientUnits="userSpaceOnUse">
<stop stop-color="#2F2B73"/>
<stop offset="1" stop-color="#D4D3F2"/>
</linearGradient>
<linearGradient id="paint29_linear_145_513" x1="1349.33" y1="-4.75427" x2="1349.33" y2="95.2457" gradientUnits="userSpaceOnUse">
<stop stop-color="#2F2B73"/>
<stop offset="1" stop-color="#D4D3F2"/>
</linearGradient>
<linearGradient id="paint30_linear_145_513" x1="1472.65" y1="0.491455" x2="1472.65" y2="200.491" gradientUnits="userSpaceOnUse">
<stop stop-color="#2F2B73"/>
<stop offset="1" stop-color="#D4D3F2"/>
</linearGradient>
<linearGradient id="paint31_linear_145_513" x1="1189.65" y1="-73.5085" x2="1189.65" y2="126.491" gradientUnits="userSpaceOnUse">
<stop stop-color="#2F2B73"/>
<stop offset="1" stop-color="#D4D3F2"/>
</linearGradient>
<clipPath id="clip0_145_513">
<rect width="1440" height="361" fill="white"/>
</clipPath>
</defs>
</svg>
