<svg width="430" height="729" viewBox="0 0 430 729" fill="none" xmlns="http://www.w3.org/2000/svg">
<rect width="430" height="729" fill="#2F2B73"/>
<g opacity="0.45">
<path d="M201.116 235.746C198.56 236.973 196.259 237.995 194.009 239.12C182.914 244.693 177.086 254.152 175.501 266.781C174.018 278.848 174.018 291.476 173.967 304.054C173.916 328.852 174.018 353.649 174.12 378.498C174.12 380.237 173.507 380.748 171.666 380.697C160.827 380.594 150.038 380.646 139.199 380.646C139.046 380.39 138.841 380.134 138.841 379.981C139.148 346.952 138.381 313.564 139.506 280.791C139.813 271.383 140.835 262.333 145.232 254.919C152.237 243.108 164.15 236.922 179.949 235.132C186.544 234.416 193.447 234.57 201.116 235.746Z" fill="#D4D3F2" fill-opacity="0.1"/>
<path d="M244.014 235.746C241.713 236.768 239.77 237.637 237.878 238.558C225.352 244.438 219.267 255.072 217.989 269.184C216.404 286.721 216.762 304.923 216.711 323.023C216.711 341.481 216.813 359.938 216.966 378.447C216.966 380.083 216.506 380.748 214.563 380.748C204.184 380.645 193.856 380.645 183.579 380.697C182.045 380.697 181.636 380.492 181.636 378.958C181.892 346.287 181.483 313.36 182.199 280.841C182.403 271.485 183.63 262.537 187.925 255.175C194.93 243.108 206.945 236.768 223.153 235.183C229.595 234.519 236.395 234.723 244.014 235.746Z" fill="#D4D3F2" fill-opacity="0.1"/>
<path d="M266.153 380.697C266.153 367.148 266.153 354.008 266.102 340.816C265.999 321.847 266.408 302.981 265.693 283.807C265.488 277.57 264.619 271.23 261.807 264.481C258.483 256.556 252.706 249.909 244.73 244.643C242.071 242.904 242.787 242.495 244.014 241.626C253.575 234.877 275.56 237.331 290.746 259.01C297.239 268.264 299.438 277.365 300.205 286.262C301.329 299.453 300.614 312.031 300.665 324.915C300.767 342.913 300.614 360.808 300.563 378.754C300.563 379.674 300.92 380.748 299.335 380.748C288.394 380.646 277.452 380.697 266.153 380.697Z" fill="#D4D3F2" fill-opacity="0.1"/>
<path d="M224.431 380.696C224.38 371.646 224.278 362.954 224.329 354.262C224.38 329.209 223.613 303.849 224.482 279.103C224.84 268.826 226.476 259.162 231.896 251.493C233.327 249.397 235.117 247.607 236.906 245.818C237.673 245.051 238.389 245.102 239.719 246.125C251.223 254.561 257.051 264.48 257.921 275.217C258.943 287.999 258.483 300.321 258.585 312.848C258.687 334.833 258.636 356.768 258.687 378.702C258.687 380.236 258.176 380.747 256.489 380.747C245.905 380.645 235.373 380.696 224.431 380.696Z" fill="#D4D3F2" fill-opacity="0.1"/>
<path d="M22.2156 447.472C22.369 447.523 22.5223 447.676 22.6246 447.932L26.5615 454.988L30.4473 447.932C30.6007 447.676 30.7541 447.523 30.8564 447.472C30.9586 447.42 31.2143 447.369 31.4699 447.369H33.1572V460.254H30.703V452.431L27.6864 457.851C27.533 458.055 27.3796 458.26 27.1751 458.362C26.9706 458.464 26.7661 458.515 26.5104 458.515C26.3059 458.515 26.0502 458.464 25.8457 458.362C25.6412 458.26 25.4878 458.106 25.3344 457.851L22.2667 452.38V460.254H19.8125V447.369H21.4998C21.8577 447.42 22.0622 447.42 22.2156 447.472Z" fill="#D4D3F2" fill-opacity="0.1"/>
<path d="M42.156 447.42L47.2689 460.305H45.2749C44.7636 460.305 44.4057 460.049 44.2012 459.589L43.2297 457.084H38.6792L37.7078 459.538C37.6566 459.742 37.5033 459.896 37.3499 460.049C37.1454 460.203 36.9408 460.254 36.6852 460.254H34.6912L39.8552 447.369H42.156V447.42ZM42.3605 454.834L40.98 451.204L39.5996 454.834H42.3605Z" fill="#D4D3F2" fill-opacity="0.1"/>
<path d="M50.5922 447.523C50.7456 447.574 50.8479 447.727 51.0012 447.932L56.83 455.499C56.83 455.397 56.83 455.294 56.83 455.141V454.783V447.42H59.2842V460.254H57.9548C57.6992 460.254 57.5458 460.203 57.3924 460.152C57.239 460.1 57.0856 459.947 56.9834 459.743L51.1546 452.175V460.254H48.7004V447.369H50.0809C50.2854 447.42 50.49 447.42 50.5922 447.523Z" fill="#D4D3F2" fill-opacity="0.1"/>
<path d="M61.636 460.254V447.369H64.2947V460.254H61.636Z" fill="#D4D3F2" fill-opacity="0.1"/>
<path d="M75.2366 460.254V447.369H77.8953V457.8H83.0082V460.203H75.2366V460.254Z" fill="#D4D3F2" fill-opacity="0.1"/>
<path d="M91.189 447.42L96.3019 460.305H94.3078C93.7966 460.305 93.4386 460.049 93.2341 459.589L92.2627 457.084H87.7122L86.7407 459.538C86.6896 459.742 86.5362 459.896 86.3828 460.049C86.1783 460.203 85.9738 460.254 85.7182 460.254H83.7241L88.8882 447.369H91.189V447.42ZM91.4446 454.834L90.0641 451.204L88.6836 454.834H91.4446Z" fill="#D4D3F2" fill-opacity="0.1"/>
<path d="M97.4779 447.42C98.0403 447.42 98.3982 447.676 98.5516 448.187L100.699 455.448L103.153 448.136C103.204 447.932 103.358 447.778 103.511 447.625C103.716 447.471 103.92 447.42 104.176 447.42H104.636C105.198 447.42 105.505 447.676 105.71 448.187L108.164 455.499L110.311 448.187C110.362 447.983 110.516 447.829 110.669 447.676C110.874 447.523 111.078 447.471 111.385 447.471H113.328L109.34 460.356H107.141L104.38 452.022L101.619 460.356H99.3697L95.3816 447.471H97.4779V447.42Z" fill="#D4D3F2" fill-opacity="0.1"/>
<path d="M118.952 460.254V447.369H127.286V449.772H121.611V452.789H126.468V455.192H121.611V460.254H118.952Z" fill="#D4D3F2" fill-opacity="0.1"/>
<path d="M129.177 460.254V447.369H131.836V460.254H129.177Z" fill="#D4D3F2" fill-opacity="0.1"/>
<path d="M134.188 447.42H138.023C139.71 447.42 140.938 447.778 141.704 448.443C142.471 449.108 142.88 450.028 142.88 451.204C142.88 452.022 142.676 452.789 142.267 453.351C141.858 453.914 141.244 454.425 140.477 454.783C140.528 454.885 140.631 454.987 140.682 455.09C140.733 455.192 140.835 455.294 140.938 455.396L144.517 460.254H142.011C141.602 460.254 141.244 460.049 140.938 459.691L137.87 455.499C137.819 455.448 137.819 455.396 137.768 455.396C137.716 455.396 137.665 455.345 137.563 455.345H136.898V460.254H134.24V447.42H134.188ZM136.796 453.096H137.921C138.688 453.096 139.25 452.942 139.608 452.584C139.966 452.278 140.171 451.817 140.171 451.306C140.171 450.284 139.404 449.772 137.921 449.721H136.694V453.096H136.796Z" fill="#D4D3F2" fill-opacity="0.1"/>
<path d="M147.942 447.472C148.095 447.523 148.249 447.676 148.351 447.932L152.288 454.988L156.174 447.932C156.327 447.676 156.48 447.523 156.583 447.472C156.685 447.42 156.941 447.369 157.196 447.369H158.884V460.254H156.429V452.431L153.413 457.851C153.259 458.055 153.106 458.26 152.901 458.362C152.697 458.464 152.492 458.515 152.237 458.515C152.032 458.515 151.777 458.464 151.572 458.362C151.368 458.26 151.214 458.106 151.061 457.851L147.993 452.38V460.254H145.539V447.369H147.226C147.584 447.42 147.789 447.42 147.942 447.472Z" fill="#D4D3F2" fill-opacity="0.1"/>
<path d="M171.973 447.42L177.086 460.305H175.092C174.58 460.305 174.222 460.049 174.018 459.589L173.046 457.084H168.496L167.524 459.538C167.473 459.742 167.32 459.896 167.167 460.049C166.962 460.203 166.757 460.254 166.502 460.254H164.508L169.672 447.369H171.973V447.42ZM172.177 454.834L170.797 451.204L169.416 454.834H172.177Z" fill="#D4D3F2" fill-opacity="0.1"/>
<path d="M180.46 447.523C180.614 447.574 180.716 447.727 180.869 447.932L186.698 455.499C186.698 455.397 186.698 455.294 186.698 455.141V454.783V447.42H189.152V460.254H187.823C187.567 460.254 187.414 460.203 187.26 460.152C187.107 460.1 186.954 459.947 186.851 459.743L181.023 452.175V460.254H178.568V447.369H179.949C180.153 447.42 180.307 447.42 180.46 447.523Z" fill="#D4D3F2" fill-opacity="0.1"/>
<path d="M191.453 447.42H196.412C197.384 447.42 198.253 447.574 199.02 447.88C199.787 448.187 200.451 448.647 201.014 449.21C201.576 449.772 201.985 450.437 202.292 451.255C202.599 452.073 202.752 452.942 202.752 453.863C202.752 454.783 202.599 455.652 202.292 456.47C201.985 457.237 201.576 457.953 201.014 458.515C200.451 459.078 199.787 459.538 199.02 459.845C198.253 460.151 197.384 460.305 196.412 460.305H191.453V447.42ZM199.071 456.828C199.736 456.112 200.042 455.141 200.042 453.863C200.042 452.584 199.736 451.562 199.071 450.897C198.406 450.181 197.537 449.823 196.412 449.823H194.162V457.902H196.412C197.537 457.902 198.406 457.544 199.071 456.828Z" fill="#D4D3F2" fill-opacity="0.1"/>
<path d="M209.042 460.254V447.369H211.7V457.8H216.813V460.203H209.042V460.254Z" fill="#D4D3F2" fill-opacity="0.1"/>
<path d="M218.756 460.254V447.369H227.09V449.772H221.415V452.584H226.016V454.936H221.415V457.902H227.09V460.305H218.756V460.254Z" fill="#D4D3F2" fill-opacity="0.1"/>
<path d="M232.765 459.947C231.947 459.64 231.231 459.18 230.617 458.617C230.004 458.055 229.544 457.339 229.237 456.572C228.879 455.754 228.726 454.834 228.726 453.862C228.726 452.891 228.879 451.971 229.186 451.153C229.493 450.334 229.953 449.67 230.515 449.056C231.078 448.443 231.793 448.034 232.611 447.727C233.429 447.42 234.299 447.267 235.27 447.267C237.111 447.267 238.747 447.931 240.127 449.21C240.025 449.414 239.872 449.568 239.769 449.772C239.667 449.977 239.565 450.13 239.412 450.334C239.258 450.539 239.156 450.641 239.054 450.692C238.951 450.744 238.798 450.795 238.696 450.795C238.593 450.795 238.491 450.795 238.389 450.744C238.184 450.641 237.98 450.539 237.775 450.437C237.622 450.334 237.418 450.232 237.213 450.13C237.008 450.028 236.753 449.925 236.446 449.874C236.139 449.772 235.73 449.772 235.27 449.772C234.708 449.772 234.145 449.874 233.685 450.079C233.225 450.283 232.816 450.539 232.458 450.897C232.151 451.255 231.896 451.664 231.691 452.175C231.487 452.686 231.435 453.249 231.435 453.862C231.435 455.192 231.793 456.214 232.509 456.93C233.225 457.646 234.196 458.055 235.423 458.055C235.833 458.055 236.242 458.004 236.599 457.953C236.957 457.85 237.264 457.748 237.571 457.595V455.856H236.293C236.037 455.856 235.781 455.805 235.628 455.652C235.475 455.499 235.372 455.294 235.372 455.038V453.556H240.076V458.873C239.36 459.384 238.645 459.793 237.878 460.049C237.111 460.305 236.293 460.458 235.423 460.458C234.503 460.407 233.583 460.254 232.765 459.947Z" fill="#D4D3F2" fill-opacity="0.1"/>
<path d="M248.308 447.42L253.421 460.305H251.427C250.916 460.305 250.558 460.049 250.353 459.589L249.382 457.084H244.831L243.86 459.538C243.809 459.742 243.655 459.896 243.502 460.049C243.297 460.203 243.093 460.254 242.837 460.254H240.843L246.007 447.369H248.308V447.42ZM248.513 454.834L247.132 451.204L245.752 454.834H248.513Z" fill="#D4D3F2" fill-opacity="0.1"/>
<path d="M254.853 460.254V447.369H257.512V457.8H262.625V460.203H254.853V460.254Z" fill="#D4D3F2" fill-opacity="0.1"/>
<path d="M274.231 460.305C273.26 460.305 272.39 460.151 271.623 459.794C270.857 459.436 270.243 458.975 269.681 458.362C269.169 457.748 268.76 457.084 268.453 456.266C268.198 455.448 268.044 454.63 268.044 453.709C268.044 452.789 268.198 451.92 268.505 451.102C268.811 450.284 269.22 449.619 269.783 449.005C270.345 448.392 271.01 447.983 271.777 447.625C272.544 447.267 273.413 447.114 274.384 447.114C275.305 447.114 276.123 447.267 276.89 447.625C277.657 447.983 278.372 448.443 278.986 449.056L278.372 449.977C278.117 450.335 277.81 450.539 277.452 450.539C277.145 450.539 276.89 450.437 276.583 450.232C276.276 450.028 275.969 449.875 275.612 449.772C275.254 449.67 274.845 449.619 274.333 449.619C273.771 449.619 273.311 449.721 272.851 449.875C272.39 450.079 272.032 450.335 271.726 450.693C271.419 451.05 271.163 451.459 271.01 451.971C270.857 452.482 270.754 453.045 270.754 453.709C270.754 454.374 270.857 454.936 271.01 455.448C271.214 455.959 271.419 456.368 271.777 456.726C272.084 457.084 272.493 457.339 272.902 457.544C273.311 457.748 273.822 457.8 274.282 457.8C274.742 457.8 275.151 457.697 275.612 457.544C276.072 457.39 276.43 457.186 276.736 456.981C277.043 456.828 277.35 456.726 277.657 456.726C278.066 456.726 278.372 456.879 278.628 457.237L279.139 457.902C277.861 459.487 276.225 460.305 274.231 460.305Z" fill="#D4D3F2" fill-opacity="0.1"/>
<path d="M284.354 459.896C283.588 459.589 282.923 459.129 282.36 458.516C281.798 457.902 281.389 457.237 281.082 456.419C280.775 455.601 280.622 454.732 280.622 453.812C280.622 452.891 280.775 451.971 281.082 451.204C281.389 450.437 281.798 449.721 282.36 449.108C282.923 448.545 283.588 448.085 284.354 447.727C285.121 447.421 285.991 447.216 286.962 447.216C287.934 447.216 288.803 447.369 289.57 447.727C290.337 448.034 291.001 448.494 291.564 449.108C292.126 449.67 292.535 450.386 292.842 451.204C293.149 452.022 293.302 452.891 293.302 453.812C293.302 454.732 293.149 455.652 292.842 456.419C292.535 457.237 292.126 457.902 291.564 458.516C291.001 459.078 290.337 459.538 289.57 459.896C288.803 460.203 287.934 460.407 286.962 460.407C285.991 460.407 285.121 460.254 284.354 459.896ZM289.621 456.828C290.285 456.113 290.592 455.09 290.592 453.812C290.592 452.533 290.285 451.511 289.621 450.795C288.956 450.079 288.087 449.721 286.962 449.721C285.837 449.721 284.968 450.079 284.303 450.795C283.639 451.511 283.332 452.533 283.332 453.812C283.332 455.09 283.639 456.113 284.303 456.828C284.968 457.544 285.837 457.902 286.962 457.902C288.087 457.902 288.956 457.544 289.621 456.828Z" fill="#D4D3F2" fill-opacity="0.1"/>
<path d="M297.392 447.523C297.546 447.574 297.648 447.727 297.801 447.932L303.63 455.499C303.63 455.397 303.63 455.294 303.63 455.141V454.783V447.42H306.084V460.254H304.755C304.499 460.254 304.346 460.203 304.192 460.152C304.039 460.1 303.886 459.947 303.783 459.743L297.955 452.175V460.254H295.5V447.369H296.881C297.085 447.42 297.29 447.42 297.392 447.523Z" fill="#D4D3F2" fill-opacity="0.1"/>
<path d="M309.816 459.845C309.1 459.487 308.436 458.976 307.822 458.362L308.487 457.237C308.589 457.084 308.691 456.931 308.845 456.879C308.947 456.828 309.1 456.777 309.203 456.777C309.356 456.777 309.51 456.828 309.714 456.879C309.867 456.982 310.021 457.084 310.225 457.186C310.583 457.442 310.89 457.595 311.197 457.749C311.504 457.902 311.861 457.953 312.27 457.953C312.833 457.953 313.293 457.8 313.651 457.493C314.009 457.186 314.162 456.828 314.162 456.317C314.162 456.113 314.111 455.908 314.009 455.755C313.907 455.601 313.753 455.448 313.549 455.346C313.344 455.243 313.14 455.141 312.884 455.039C312.628 454.937 312.373 454.885 312.117 454.783C311.708 454.681 311.248 454.528 310.839 454.374C310.43 454.221 310.021 453.965 309.663 453.709C309.305 453.454 309.049 453.045 308.845 452.636C308.64 452.176 308.538 451.664 308.538 451C308.538 450.437 308.64 449.875 308.896 449.415C309.1 448.954 309.407 448.545 309.816 448.239C310.174 447.932 310.634 447.676 311.146 447.472C311.657 447.318 312.168 447.216 312.731 447.216C314.213 447.216 315.492 447.778 316.616 448.852L316.054 449.926C315.85 450.284 315.594 450.488 315.287 450.488C315.134 450.488 314.98 450.437 314.776 450.335C314.571 450.233 314.418 450.13 314.316 450.079C314.162 449.977 314.06 449.926 313.907 449.824C313.753 449.773 313.6 449.67 313.446 449.67C313.293 449.619 313.037 449.619 312.833 449.619C312.27 449.619 311.861 449.721 311.606 449.977C311.35 450.233 311.197 450.539 311.197 450.897C311.197 451.102 311.248 451.255 311.35 451.409C311.452 451.562 311.606 451.664 311.81 451.818C312.015 451.92 312.219 452.022 312.475 452.124C312.731 452.227 312.986 452.278 313.242 452.38C313.651 452.533 314.111 452.687 314.52 452.84C314.98 452.994 315.338 453.249 315.696 453.505C316.054 453.761 316.31 454.118 316.514 454.528C316.719 454.937 316.821 455.448 316.821 456.113C316.821 456.777 316.719 457.34 316.463 457.902C316.259 458.413 315.901 458.873 315.492 459.231C315.083 459.589 314.622 459.896 314.06 460.101C313.498 460.305 312.935 460.407 312.27 460.407C311.299 460.407 310.532 460.254 309.816 459.845Z" fill="#D4D3F2" fill-opacity="0.1"/>
<path d="M321.423 459.998C320.759 459.743 320.247 459.333 319.787 458.873C319.327 458.413 318.969 457.851 318.765 457.186C318.509 456.521 318.407 455.857 318.407 455.09V447.369H321.065V455.09C321.065 455.499 321.117 455.857 321.27 456.215C321.372 456.572 321.577 456.879 321.781 457.135C321.986 457.391 322.293 457.595 322.599 457.697C322.906 457.851 323.264 457.902 323.673 457.902C324.491 457.902 325.105 457.646 325.565 457.135C326.025 456.624 326.229 455.959 326.229 455.141V447.42H328.888V455.141C328.888 455.908 328.786 456.572 328.53 457.237C328.275 457.902 327.968 458.413 327.508 458.924C327.048 459.385 326.485 459.794 325.872 460.049C325.207 460.305 324.491 460.458 323.673 460.458C322.804 460.407 322.088 460.254 321.423 459.998Z" fill="#D4D3F2" fill-opacity="0.1"/>
<path d="M331.188 460.254V447.369H333.847V457.8H338.96V460.203H331.188V460.254Z" fill="#D4D3F2" fill-opacity="0.1"/>
<path d="M342.437 460.254V449.823H338.602V447.42H348.879V449.823H345.044V460.254H342.437Z" fill="#D4D3F2" fill-opacity="0.1"/>
<path d="M355.679 447.42L360.792 460.305H358.798C358.287 460.305 357.929 460.049 357.724 459.589L356.753 457.084H352.202L351.231 459.538C351.18 459.742 351.026 459.896 350.873 460.049C350.669 460.203 350.464 460.254 350.208 460.254H348.214L353.378 447.369H355.679V447.42ZM355.884 454.834L354.503 451.204L353.123 454.834H355.884Z" fill="#D4D3F2" fill-opacity="0.1"/>
<path d="M363.86 460.254V449.823H360.025V447.42H370.353V449.823H366.519V460.254H363.86Z" fill="#D4D3F2" fill-opacity="0.1"/>
<path d="M372.348 460.254V447.369H375.006V460.254H372.348Z" fill="#D4D3F2" fill-opacity="0.1"/>
<path d="M380.58 459.896C379.813 459.589 379.148 459.129 378.586 458.516C378.023 457.902 377.614 457.237 377.307 456.419C377.001 455.601 376.847 454.732 376.847 453.812C376.847 452.891 377.001 451.971 377.307 451.204C377.614 450.437 378.023 449.721 378.586 449.108C379.148 448.545 379.813 448.085 380.58 447.727C381.347 447.421 382.216 447.216 383.187 447.216C384.159 447.216 385.028 447.369 385.795 447.727C386.562 448.034 387.226 448.494 387.789 449.108C388.351 449.67 388.76 450.386 389.067 451.204C389.374 452.022 389.527 452.891 389.527 453.812C389.527 454.732 389.374 455.652 389.067 456.419C388.76 457.237 388.351 457.902 387.789 458.516C387.226 459.078 386.562 459.538 385.795 459.896C385.028 460.203 384.159 460.407 383.187 460.407C382.216 460.407 381.347 460.254 380.58 459.896ZM385.846 456.828C386.511 456.113 386.817 455.09 386.817 453.812C386.817 452.533 386.511 451.511 385.846 450.795C385.181 450.079 384.312 449.721 383.187 449.721C382.062 449.721 381.193 450.079 380.528 450.795C379.864 451.511 379.557 452.533 379.557 453.812C379.557 455.09 379.864 456.113 380.528 456.828C381.193 457.544 382.062 457.902 383.187 457.902C384.312 457.902 385.181 457.544 385.846 456.828Z" fill="#D4D3F2" fill-opacity="0.1"/>
<path d="M393.617 447.523C393.771 447.574 393.873 447.727 394.026 447.932L399.855 455.499C399.855 455.397 399.855 455.294 399.855 455.141V454.783V447.42H402.309V460.254H400.98C400.724 460.254 400.571 460.203 400.418 460.152C400.264 460.1 400.111 459.947 400.008 459.743L394.18 452.175V460.254H391.726V447.369H393.106C393.311 447.42 393.515 447.42 393.617 447.523Z" fill="#D4D3F2" fill-opacity="0.1"/>
<path d="M405.991 459.845C405.275 459.487 404.61 458.976 403.997 458.362L404.661 457.237C404.764 457.084 404.866 456.931 405.019 456.879C405.121 456.828 405.275 456.777 405.377 456.777C405.53 456.777 405.684 456.828 405.888 456.879C406.042 456.982 406.195 457.084 406.4 457.186C406.758 457.442 407.064 457.595 407.371 457.749C407.678 457.902 408.036 457.953 408.445 457.953C409.007 457.953 409.467 457.8 409.825 457.493C410.183 457.186 410.337 456.828 410.337 456.317C410.337 456.113 410.285 455.908 410.183 455.755C410.081 455.601 409.928 455.448 409.723 455.346C409.519 455.243 409.314 455.141 409.058 455.039C408.803 454.937 408.547 454.885 408.291 454.783C407.882 454.681 407.422 454.528 407.013 454.374C406.604 454.221 406.195 453.965 405.837 453.709C405.479 453.454 405.224 453.045 405.019 452.636C404.815 452.176 404.712 451.664 404.712 451C404.712 450.437 404.815 449.875 405.07 449.415C405.275 448.954 405.582 448.545 405.991 448.239C406.349 447.932 406.809 447.676 407.32 447.472C407.831 447.318 408.343 447.216 408.905 447.216C410.388 447.216 411.666 447.778 412.791 448.852L412.228 449.926C412.024 450.284 411.768 450.488 411.461 450.488C411.308 450.488 411.155 450.437 410.95 450.335C410.746 450.233 410.592 450.13 410.49 450.079C410.337 449.977 410.234 449.926 410.081 449.824C409.928 449.773 409.774 449.67 409.621 449.67C409.467 449.619 409.212 449.619 409.007 449.619C408.445 449.619 408.036 449.721 407.78 449.977C407.524 450.233 407.371 450.539 407.371 450.897C407.371 451.102 407.422 451.255 407.524 451.409C407.627 451.562 407.78 451.664 407.985 451.818C408.189 451.92 408.394 452.022 408.649 452.124C408.905 452.227 409.161 452.278 409.416 452.38C409.825 452.533 410.285 452.687 410.695 452.84C411.155 452.994 411.513 453.249 411.87 453.505C412.228 453.761 412.484 454.118 412.689 454.528C412.893 454.937 412.995 455.448 412.995 456.113C412.995 456.777 412.893 457.34 412.637 457.902C412.433 458.413 412.075 458.873 411.666 459.231C411.257 459.589 410.797 459.896 410.234 460.101C409.672 460.305 409.109 460.407 408.445 460.407C407.524 460.407 406.758 460.254 405.991 459.845Z" fill="#D4D3F2" fill-opacity="0.1"/>
<path d="M26.5104 432.542H23.0337C22.0622 432.542 21.2441 432.337 20.5795 431.928C19.9148 431.519 19.4035 431.008 18.9945 430.394C18.5854 429.781 18.3298 429.065 18.1253 428.298C17.9719 427.531 17.8696 426.764 17.8696 425.997C17.8696 425.077 17.9719 424.259 18.2275 423.441C18.4832 422.623 18.79 421.907 19.3012 421.293C19.7614 420.68 20.375 420.169 21.0908 419.811C21.8066 419.453 22.6758 419.248 23.6472 419.248C24.0562 419.248 24.4653 419.299 24.8232 419.402C25.1811 419.504 25.539 419.606 25.7946 419.76C26.1525 419.913 26.4593 420.066 26.715 420.271C26.8683 419.964 27.0217 419.76 27.2262 419.657C27.4308 419.555 27.6353 419.453 27.7887 419.453H29.6293V429.372C29.6293 429.423 29.6804 429.474 29.7316 429.474H31.6745V432.593H30.2429C29.5271 432.593 28.8624 432.388 28.3511 431.979C27.8398 432.286 27.2262 432.542 26.5104 432.542ZM20.7329 417.305C20.375 416.947 20.1704 416.487 20.1704 415.976C20.1704 415.465 20.375 415.005 20.7329 414.647C21.0908 414.289 21.5509 414.084 22.0622 414.084C22.5735 414.084 23.0337 414.289 23.3916 414.647C23.7495 415.005 23.954 415.465 23.954 415.976C23.954 416.487 23.7495 416.947 23.3916 417.305C23.0337 417.663 22.5735 417.868 22.0622 417.868C21.5509 417.817 21.0908 417.663 20.7329 417.305ZM22.8803 422.572C22.5735 422.776 22.3179 423.032 22.1133 423.339C21.9088 423.696 21.7554 424.054 21.7043 424.515C21.6532 424.975 21.6021 425.384 21.6021 425.895C21.6021 426.253 21.6532 426.662 21.7043 427.071C21.7554 427.48 21.8577 427.889 22.0111 428.247C22.1645 428.605 22.369 428.861 22.6758 429.116C22.9825 429.321 23.3404 429.474 23.8006 429.474H26.1525C26.2037 429.474 26.2037 429.474 26.2037 429.474V423.236C25.6924 422.674 25.0277 422.367 24.2096 422.367C23.5961 422.265 23.1871 422.367 22.8803 422.572ZM25.2833 417.305C24.9254 416.947 24.7209 416.487 24.7209 415.976C24.7209 415.465 24.9254 415.005 25.2833 414.647C25.6412 414.289 26.1014 414.084 26.6127 414.084C27.124 414.084 27.5841 414.289 27.9421 414.647C28.3 415.005 28.5045 415.465 28.5045 415.976C28.5045 416.487 28.3 416.947 27.9421 417.305C27.5841 417.663 27.124 417.868 26.6127 417.868C26.0503 417.817 25.6412 417.663 25.2833 417.305Z" fill="#D4D3F2" fill-opacity="0.1"/>
<path d="M31.1123 432.491C30.9589 432.491 30.8566 432.491 30.7032 432.439C30.601 432.439 30.4987 432.388 30.3965 432.286C30.2942 432.235 30.2942 432.133 30.2942 431.979V429.883C30.2942 429.781 30.3453 429.678 30.4476 429.627C30.5498 429.576 30.6521 429.525 30.7544 429.474C30.8566 429.423 31.01 429.423 31.1634 429.423C31.3168 429.423 31.419 429.423 31.5213 429.423H35.5605V419.401H39.1395V429.321C39.1395 429.372 39.1906 429.423 39.2418 429.423H41.1847V432.542H39.7531C39.0373 432.542 38.3726 432.337 37.8613 431.928C37.35 432.337 36.7365 432.542 35.9695 432.542H31.4702C31.3679 432.542 31.2656 432.491 31.1123 432.491ZM32.7995 436.888C32.4416 436.53 32.2371 436.07 32.2371 435.558C32.2371 435.047 32.4416 434.587 32.7995 434.229C33.1574 433.871 33.6176 433.667 34.1289 433.667C34.6402 433.667 35.1003 433.871 35.4582 434.229C35.8161 434.587 36.0206 435.047 36.0206 435.558C36.0206 436.07 35.8161 436.53 35.4582 436.888C35.1003 437.246 34.6402 437.45 34.1289 437.45C33.6176 437.399 33.1574 437.246 32.7995 436.888ZM37.2989 436.888C36.941 436.53 36.7365 436.07 36.7365 435.558C36.7365 435.047 36.941 434.587 37.2989 434.229C37.6568 433.871 38.1169 433.667 38.6282 433.667C39.1395 433.667 39.5997 433.871 39.9576 434.229C40.3155 434.587 40.52 435.047 40.52 435.558C40.52 436.07 40.3155 436.53 39.9576 436.888C39.5997 437.246 39.1395 437.45 38.6282 437.45C38.1169 437.399 37.7079 437.246 37.2989 436.888Z" fill="#D4D3F2" fill-opacity="0.1"/>
<path d="M40.4687 432.491C40.3153 432.491 40.2131 432.491 40.0597 432.44C39.9574 432.44 39.8551 432.388 39.7529 432.286C39.6506 432.235 39.6506 432.133 39.6506 431.979V429.883C39.6506 429.781 39.7018 429.679 39.804 429.628C39.9063 429.576 40.0085 429.525 40.1108 429.474C40.2131 429.423 40.3664 429.423 40.5198 429.423C40.6732 429.423 40.7755 429.423 40.8777 429.423H44.9169C44.9681 429.423 44.9681 429.423 44.9681 429.423V419.402H48.496V429.423C48.496 429.832 48.3937 430.241 48.2403 430.599C48.0869 431.008 47.8824 431.315 47.5756 431.622C47.2689 431.928 46.9621 432.133 46.5531 432.286C46.144 432.44 45.7861 432.542 45.326 432.542H40.8266C40.7755 432.542 40.6221 432.491 40.4687 432.491ZM45.3771 417.101C45.0192 416.743 44.8147 416.283 44.8147 415.772C44.8147 415.26 45.0192 414.8 45.3771 414.442C45.735 414.084 46.1952 413.88 46.7064 413.88C47.2177 413.88 47.6779 414.084 48.0358 414.442C48.3937 414.8 48.5982 415.26 48.5982 415.772C48.5982 416.283 48.3937 416.743 48.0358 417.101C47.6779 417.459 47.2177 417.663 46.7064 417.663C46.1952 417.612 45.735 417.459 45.3771 417.101Z" fill="#D4D3F2" fill-opacity="0.1"/>
<path d="M57.6993 432.542C56.6767 432.542 55.8075 432.389 55.0406 432.082C54.2736 431.775 53.6089 431.315 53.0465 430.753C52.4841 430.19 52.0751 429.474 51.8194 428.656C51.5127 427.838 51.4104 426.918 51.4104 425.946C51.4104 424.975 51.5638 424.106 51.8194 423.288C52.0751 422.47 52.4841 421.754 52.9954 421.191C53.5067 420.578 54.1714 420.118 54.9894 419.811C55.7564 419.453 56.6767 419.3 57.6993 419.3C58.7219 419.3 59.5911 419.453 60.358 419.76C61.1249 420.067 61.7896 420.527 62.352 421.14C62.8633 421.754 63.2723 422.419 63.5791 423.237C63.8859 424.055 63.9882 424.975 63.9882 425.946V429.474H65.7777V432.593H63.9882C63.9882 433.258 63.8348 433.871 63.5791 434.434C63.3235 434.996 62.9144 435.508 62.4031 435.917C61.8919 436.326 61.2783 436.632 60.5114 436.888C59.7444 437.144 58.8752 437.246 57.9038 437.246C57.1369 437.246 56.5744 437.195 56.1143 437.093C55.6541 436.99 55.2451 436.888 54.9383 436.735L55.0917 435.099C55.1428 434.792 55.2451 434.587 55.3985 434.434C55.603 434.28 55.8075 434.178 56.0631 434.178C57.597 434.178 58.7219 434.076 59.3865 433.82C60.0512 433.616 60.4091 433.207 60.4091 432.593H57.6993V432.542ZM60.4091 429.423V425.895C60.4091 425.435 60.358 424.975 60.2557 424.515C60.1535 424.106 60.0001 423.697 59.7956 423.39C59.5911 423.083 59.2843 422.828 58.9264 422.623C58.5685 422.419 58.1594 422.316 57.6481 422.316C57.1369 422.316 56.6767 422.419 56.3699 422.623C56.0631 422.828 55.7564 423.083 55.5519 423.39C55.3473 423.697 55.1939 424.106 55.0917 424.566C54.9894 425.026 54.9894 425.486 54.9894 425.946C54.9894 426.407 55.0406 426.816 55.1428 427.225C55.2451 427.634 55.3985 427.992 55.603 428.35C55.8075 428.707 56.1143 428.912 56.4211 429.116C56.779 429.321 57.188 429.423 57.6993 429.423H60.4091Z" fill="#D4D3F2" fill-opacity="0.1"/>
<path d="M65.1643 432.491C65.0109 432.491 64.9086 432.491 64.7552 432.44C64.653 432.44 64.5507 432.388 64.4484 432.286C64.3462 432.235 64.3462 432.133 64.3462 431.979V429.883C64.3462 429.781 64.3973 429.679 64.4996 429.628C64.6018 429.576 64.7041 429.525 64.8063 429.474C64.9086 429.423 65.062 429.423 65.2154 429.423C65.3688 429.423 65.471 429.423 65.5733 429.423H69.6125C69.6636 429.423 69.6636 429.423 69.6636 429.423V419.402H73.1915V429.423C73.1915 429.832 73.0893 430.241 72.9359 430.599C72.7825 431.008 72.578 431.315 72.2712 431.622C71.9644 431.928 71.6576 432.133 71.2486 432.286C70.8396 432.44 70.4817 432.542 70.0215 432.542H65.5222C65.4199 432.542 65.2665 432.491 65.1643 432.491ZM70.0215 417.101C69.6636 416.743 69.4591 416.283 69.4591 415.772C69.4591 415.26 69.6636 414.8 70.0215 414.442C70.3794 414.084 70.8396 413.88 71.3509 413.88C71.8622 413.88 72.3223 414.084 72.6802 414.442C73.0381 414.8 73.2426 415.26 73.2426 415.772C73.2426 416.283 73.0381 416.743 72.6802 417.101C72.3223 417.459 71.8622 417.663 71.3509 417.663C70.8396 417.612 70.3794 417.459 70.0215 417.101Z" fill="#D4D3F2" fill-opacity="0.1"/>
<path d="M79.7872 432.542C79.3782 432.542 78.9691 432.439 78.5601 432.286C78.1511 432.133 77.8443 431.877 77.5375 431.621C77.2307 431.315 77.0262 431.008 76.8728 430.599C76.7194 430.19 76.6172 429.832 76.6172 429.423V414.135H80.1451V429.423C80.1451 429.423 80.1451 429.423 80.1962 429.423H82.1903V432.542H79.7872Z" fill="#D4D3F2" fill-opacity="0.1"/>
<path d="M81.5767 432.542C81.4744 432.542 81.3211 432.542 81.1677 432.542C81.0143 432.542 80.912 432.542 80.7586 432.491C80.6564 432.491 80.5541 432.44 80.4519 432.337C80.3496 432.286 80.3496 432.184 80.3496 432.031V429.934C80.3496 429.832 80.4007 429.73 80.503 429.679C80.6053 429.628 80.7075 429.576 80.8098 429.525C80.912 429.474 81.0654 429.474 81.2188 429.474C81.3722 429.474 81.4744 429.474 81.5767 429.474H85.0535C84.5422 428.452 84.2354 427.276 84.2354 425.946C84.2354 424.975 84.3888 424.106 84.6444 423.288C84.9001 422.469 85.3091 421.754 85.8204 421.191C86.3317 420.578 86.9964 420.118 87.7633 419.811C88.5303 419.504 89.4506 419.299 90.4732 419.299C91.4957 419.299 92.3649 419.453 93.183 419.811C93.9499 420.118 94.6146 420.578 95.177 421.191C95.6883 421.754 96.0974 422.469 96.4041 423.288C96.7109 424.106 96.8132 425.026 96.8132 425.997V429.525H98.6027V432.644H81.5767V432.542ZM86.9964 417.101C86.6385 416.743 86.434 416.283 86.434 415.772C86.434 415.26 86.6385 414.8 86.9964 414.442C87.3543 414.084 87.8144 413.88 88.3257 413.88C88.837 413.88 89.2972 414.084 89.6551 414.442C90.013 414.8 90.2175 415.26 90.2175 415.772C90.2175 416.283 90.013 416.743 89.6551 417.101C89.2972 417.459 88.837 417.663 88.3257 417.663C87.8144 417.612 87.3543 417.459 86.9964 417.101ZM93.2341 425.895C93.2341 425.435 93.183 424.975 93.1319 424.515C93.0296 424.106 92.9274 423.697 92.6717 423.39C92.4672 423.083 92.2115 422.827 91.8536 422.623C91.4957 422.418 91.0867 422.316 90.5754 422.316C90.0641 422.316 89.6551 422.418 89.2972 422.572C88.9393 422.776 88.6836 422.981 88.4791 423.339C88.2746 423.645 88.1212 424.003 88.019 424.463C87.9167 424.873 87.8656 425.333 87.8656 425.844C87.8656 426.304 87.9167 426.764 88.019 427.224C88.1212 427.633 88.2746 428.043 88.4791 428.349C88.6836 428.656 88.9904 428.912 89.2972 429.116C89.6551 429.321 90.0641 429.372 90.5754 429.372H93.2341V425.895ZM91.4957 417.101C91.1378 416.743 90.9333 416.283 90.9333 415.772C90.9333 415.26 91.1378 414.8 91.4957 414.442C91.8536 414.084 92.3138 413.88 92.8251 413.88C93.3364 413.88 93.7965 414.084 94.1544 414.442C94.5124 414.8 94.7169 415.26 94.7169 415.772C94.7169 416.283 94.5124 416.743 94.1544 417.101C93.7965 417.459 93.3364 417.663 92.8251 417.663C92.3138 417.612 91.8536 417.459 91.4957 417.101Z" fill="#D4D3F2" fill-opacity="0.1"/>
<path d="M101.824 429.372V414.084H105.352V429.372C105.352 429.781 105.249 430.19 105.096 430.548C104.943 430.957 104.687 431.264 104.431 431.57C104.124 431.877 103.818 432.082 103.409 432.235C103 432.388 102.642 432.491 102.182 432.491H98.398C98.2957 432.491 98.1423 432.491 97.989 432.491C97.8356 432.491 97.7333 432.491 97.5799 432.44C97.4777 432.44 97.3754 432.388 97.2731 432.286C97.1709 432.235 97.1709 432.133 97.1709 431.979V429.883C97.1709 429.781 97.222 429.679 97.3243 429.627C97.4265 429.576 97.5288 429.525 97.6311 429.474C97.7333 429.423 97.8867 429.423 98.0401 429.423C98.1935 429.423 98.2957 429.423 98.398 429.423L101.824 429.372C101.824 429.423 101.773 429.423 101.824 429.372Z" fill="#D4D3F2" fill-opacity="0.1"/>
<path d="M108.368 432.542V414.135H111.896V432.542H108.368Z" fill="#D4D3F2" fill-opacity="0.1"/>
<path d="M123.349 431.979C122.633 431.621 122.02 431.11 121.508 430.497C120.997 429.883 120.639 429.167 120.384 428.349C120.128 427.531 120.026 426.662 120.026 425.793C120.026 424.872 120.179 424.003 120.486 423.032C120.793 422.06 121.304 421.242 122.071 420.475H122.787L123.86 421.549C124.116 421.856 124.218 422.111 124.269 422.418C124.32 422.725 124.269 423.032 124.116 423.39C123.911 423.748 123.809 424.157 123.707 424.514C123.656 424.923 123.605 425.332 123.605 425.742C123.605 426.202 123.656 426.611 123.758 427.071C123.86 427.48 124.014 427.889 124.218 428.247C124.423 428.605 124.678 428.86 125.036 429.065C125.394 429.269 125.803 429.372 126.263 429.372H135.006V419.35H138.534V429.372C138.534 429.781 138.432 430.19 138.279 430.548C138.125 430.957 137.921 431.263 137.614 431.57C137.307 431.877 137 432.082 136.591 432.235C136.182 432.388 135.825 432.491 135.364 432.491H125.803C124.934 432.542 124.116 432.337 123.349 431.979ZM125.854 420.731C125.496 420.373 125.292 419.913 125.292 419.402C125.292 418.89 125.496 418.43 125.854 418.072C126.212 417.714 126.672 417.51 127.184 417.51C127.695 417.51 128.155 417.714 128.513 418.072C128.871 418.43 129.075 418.89 129.075 419.402C129.075 419.913 128.871 420.373 128.513 420.731C128.155 421.089 127.695 421.293 127.184 421.293C126.672 421.242 126.212 421.089 125.854 420.731ZM130.405 420.731C130.047 420.373 129.842 419.913 129.842 419.402C129.842 418.89 130.047 418.43 130.405 418.072C130.763 417.714 131.223 417.51 131.734 417.51C132.245 417.51 132.706 417.714 133.064 418.072C133.421 418.43 133.626 418.89 133.626 419.402C133.626 419.913 133.421 420.373 133.064 420.731C132.706 421.089 132.245 421.293 131.734 421.293C131.223 421.242 130.763 421.089 130.405 420.731Z" fill="#D4D3F2" fill-opacity="0.1"/>
<path d="M141.602 432.542V414.135H145.13V432.542H141.602Z" fill="#D4D3F2" fill-opacity="0.1"/>
<path d="M147.022 436.632L147.226 434.945C147.278 434.689 147.329 434.536 147.38 434.433C147.431 434.331 147.533 434.229 147.687 434.178C147.789 434.127 147.942 434.127 148.096 434.127H148.658C149.323 434.127 149.63 433.769 149.63 433.104V419.401H153.157V433.104C153.157 434.331 152.8 435.354 152.135 436.07C151.47 436.785 150.448 437.194 149.118 437.194C148.505 437.143 147.84 436.99 147.022 436.632Z" fill="#D4D3F2" fill-opacity="0.1"/>
<path d="M159.344 432.542C158.935 432.542 158.526 432.439 158.117 432.286C157.708 432.133 157.401 431.877 157.094 431.621C156.787 431.315 156.583 431.008 156.429 430.599C156.276 430.19 156.174 429.832 156.174 429.423V414.135H159.702V429.423C159.702 429.423 159.702 429.423 159.753 429.423H161.747V432.542H159.344Z" fill="#D4D3F2" fill-opacity="0.1"/>
<path d="M177.546 422.265C177.392 421.907 177.341 421.549 177.29 421.191C177.29 420.833 177.444 420.526 177.75 420.219L179.131 418.89C180.716 420.526 181.483 422.367 181.483 424.412V429.32C181.483 429.372 181.534 429.371 181.585 429.371H183.528V432.49H182.096C181.381 432.49 180.767 432.286 180.256 431.877C179.744 432.286 179.08 432.49 178.364 432.49H176.012C175.194 432.49 174.478 432.286 173.865 431.877C173.353 432.286 172.74 432.49 171.973 432.49H169.621C168.803 432.49 168.087 432.286 167.473 431.877C166.962 432.286 166.349 432.49 165.582 432.49H161.082C160.98 432.49 160.827 432.49 160.673 432.49C160.52 432.49 160.418 432.49 160.264 432.439C160.162 432.439 160.06 432.388 159.957 432.286C159.855 432.235 159.855 432.132 159.855 431.979V429.883C159.855 429.781 159.906 429.678 160.009 429.627C160.111 429.576 160.213 429.525 160.315 429.474C160.418 429.423 160.571 429.423 160.724 429.423C160.878 429.423 160.98 429.423 161.082 429.423H165.122C165.173 429.423 165.173 429.423 165.173 429.423V421.037H168.701V429.371C168.701 429.423 168.752 429.423 168.803 429.423H171.462C171.513 429.423 171.513 429.423 171.513 429.423V421.037H175.041V429.371C175.041 429.423 175.092 429.423 175.143 429.423H177.802C177.853 429.423 177.853 429.423 177.853 429.423V424.463C177.955 423.645 177.802 422.929 177.546 422.265ZM169.467 418.481C169.11 418.123 168.905 417.663 168.905 417.152C168.905 416.64 169.11 416.18 169.467 415.822C169.825 415.464 170.286 415.26 170.797 415.26C171.308 415.26 171.768 415.464 172.126 415.822C172.484 416.18 172.689 416.64 172.689 417.152C172.689 417.663 172.484 418.123 172.126 418.481C171.768 418.839 171.308 419.043 170.797 419.043C170.286 419.043 169.825 418.839 169.467 418.481ZM171.768 414.697C171.41 414.34 171.206 413.879 171.206 413.368C171.206 412.857 171.41 412.397 171.768 412.039C172.126 411.681 172.586 411.476 173.098 411.476C173.609 411.476 174.069 411.681 174.427 412.039C174.785 412.397 174.989 412.857 174.989 413.368C174.989 413.879 174.785 414.34 174.427 414.697C174.069 415.055 173.609 415.26 173.098 415.26C172.586 415.26 172.126 415.055 171.768 414.697ZM174.018 418.481C173.66 418.123 173.456 417.663 173.456 417.152C173.456 416.64 173.66 416.18 174.018 415.822C174.376 415.464 174.836 415.26 175.347 415.26C175.859 415.26 176.319 415.464 176.677 415.822C177.035 416.18 177.239 416.64 177.239 417.152C177.239 417.663 177.035 418.123 176.677 418.481C176.319 418.839 175.859 419.043 175.347 419.043C174.836 419.043 174.376 418.839 174.018 418.481Z" fill="#D4D3F2" fill-opacity="0.1"/>
<path d="M182.966 432.491C182.812 432.491 182.71 432.491 182.557 432.44C182.454 432.44 182.352 432.388 182.25 432.286C182.147 432.235 182.147 432.133 182.147 431.979V429.883C182.147 429.781 182.199 429.679 182.301 429.628C182.403 429.576 182.505 429.525 182.608 429.474C182.71 429.423 182.863 429.423 183.017 429.423C183.17 429.423 183.272 429.423 183.375 429.423H187.414V419.402H190.993V429.321C190.993 429.372 191.044 429.423 191.095 429.423H193.038V432.542H191.606C190.891 432.542 190.226 432.337 189.715 431.928C189.203 432.337 188.59 432.542 187.823 432.542H183.323C183.221 432.542 183.068 432.491 182.966 432.491ZM185.317 417.101C184.96 416.743 184.755 416.283 184.755 415.772C184.755 415.26 184.96 414.8 185.317 414.442C185.675 414.084 186.136 413.88 186.647 413.88C187.158 413.88 187.618 414.084 187.976 414.442C188.334 414.8 188.539 415.26 188.539 415.772C188.539 416.283 188.334 416.743 187.976 417.101C187.618 417.459 187.158 417.663 186.647 417.663C186.136 417.612 185.727 417.459 185.317 417.101ZM189.868 417.101C189.51 416.743 189.306 416.283 189.306 415.772C189.306 415.26 189.51 414.8 189.868 414.442C190.226 414.084 190.686 413.88 191.197 413.88C191.709 413.88 192.169 414.084 192.527 414.442C192.885 414.8 193.089 415.26 193.089 415.772C193.089 416.283 192.885 416.743 192.527 417.101C192.169 417.459 191.709 417.663 191.197 417.663C190.686 417.612 190.226 417.459 189.868 417.101Z" fill="#D4D3F2" fill-opacity="0.1"/>
<path d="M209.246 422.265C209.092 421.907 209.041 421.549 208.99 421.191C208.99 420.833 209.143 420.526 209.45 420.219L210.831 418.89C212.416 420.526 213.183 422.367 213.183 424.412V429.371C213.183 429.781 213.08 430.19 212.927 430.547C212.774 430.956 212.518 431.263 212.262 431.57C211.956 431.877 211.649 432.081 211.24 432.235C210.831 432.388 210.473 432.49 210.013 432.49H207.661C206.843 432.49 206.127 432.286 205.513 431.877C205.002 432.286 204.388 432.49 203.621 432.49H201.27C200.451 432.49 199.736 432.286 199.122 431.877C198.611 432.286 197.997 432.49 197.23 432.49H192.731C192.629 432.49 192.475 432.49 192.322 432.49C192.169 432.49 192.066 432.49 191.913 432.439C191.811 432.439 191.708 432.388 191.606 432.286C191.504 432.235 191.504 432.132 191.504 431.979V429.883C191.504 429.781 191.555 429.678 191.657 429.627C191.76 429.576 191.862 429.525 191.964 429.474C192.066 429.423 192.22 429.423 192.373 429.423C192.526 429.423 192.629 429.423 192.731 429.423H196.77C196.821 429.423 196.821 429.423 196.821 429.423V421.037H200.349V429.371C200.349 429.423 200.4 429.423 200.451 429.423H203.11C203.161 429.423 203.161 429.423 203.161 429.423V421.037H206.689V429.371C206.689 429.423 206.74 429.423 206.791 429.423H209.45C209.501 429.423 209.501 429.423 209.501 429.423V424.463C209.604 423.645 209.501 422.929 209.246 422.265Z" fill="#D4D3F2" fill-opacity="0.1"/>
<path d="M215.228 432.03C215.228 431.877 215.279 431.775 215.279 431.672C215.279 431.57 215.279 431.468 215.279 431.366C215.279 431.263 215.279 431.11 215.33 430.957C215.33 430.803 215.381 430.599 215.381 430.394C215.433 430.087 215.535 429.883 215.739 429.678C215.944 429.474 216.199 429.423 216.455 429.423H223.92C223.971 429.423 223.971 429.423 223.971 429.372V414.135H227.55V429.423C227.55 429.832 227.448 430.241 227.294 430.65C227.141 431.059 226.885 431.366 226.63 431.672C226.323 431.979 226.016 432.184 225.607 432.337C225.198 432.49 224.789 432.593 224.38 432.593H217.324C216.762 432.542 216.046 432.337 215.228 432.03ZM217.58 427.326V417.816H221.108V427.326H217.58Z" fill="#D4D3F2" fill-opacity="0.1"/>
<path d="M230.566 432.542V414.135H234.094V432.542H230.566Z" fill="#D4D3F2" fill-opacity="0.1"/>
<path d="M236.906 423.287C237.162 422.469 237.571 421.753 238.082 421.14C238.594 420.526 239.258 420.066 240.025 419.708C240.792 419.35 241.713 419.197 242.786 419.197C243.809 419.197 244.678 419.35 245.445 419.708C246.212 420.015 246.877 420.475 247.439 421.089C248.001 421.702 248.411 422.367 248.666 423.236C248.922 424.105 249.075 424.974 249.075 425.997V431.724C249.075 433.615 248.564 434.996 247.49 435.865C246.468 436.734 244.934 437.194 242.991 437.194C242.224 437.194 241.661 437.143 241.201 437.041C240.741 436.939 240.332 436.836 240.025 436.683L240.179 434.996C240.23 434.689 240.332 434.484 240.485 434.331C240.69 434.178 240.895 434.075 241.15 434.075C242.684 434.075 243.809 433.973 244.474 433.718C245.138 433.462 245.496 433.002 245.496 432.286V432.235C245.138 432.388 244.78 432.49 244.32 432.593C243.86 432.695 243.349 432.746 242.786 432.746C241.764 432.746 240.895 432.593 240.076 432.235C239.31 431.928 238.645 431.468 238.082 430.854C237.571 430.241 237.162 429.525 236.855 428.707C236.549 427.889 236.446 426.969 236.446 425.946C236.497 424.974 236.651 424.105 236.906 423.287ZM241.559 422.623C241.201 422.827 240.946 423.083 240.741 423.389C240.537 423.696 240.383 424.105 240.281 424.514C240.179 424.974 240.128 425.435 240.128 425.895C240.128 426.355 240.179 426.815 240.281 427.275C240.383 427.684 240.537 428.093 240.741 428.451C240.946 428.809 241.252 429.065 241.559 429.269C241.917 429.474 242.326 429.576 242.837 429.576C243.451 429.576 243.962 429.525 244.32 429.372C244.678 429.269 244.934 429.065 245.087 428.86C245.24 428.656 245.394 428.349 245.394 428.042C245.394 427.735 245.445 427.326 245.445 426.917V425.946C245.445 425.486 245.394 425.026 245.343 424.565C245.24 424.156 245.138 423.747 244.934 423.441C244.729 423.083 244.474 422.827 244.116 422.674C243.758 422.469 243.349 422.367 242.837 422.367C242.326 422.316 241.917 422.418 241.559 422.623Z" fill="#D4D3F2" fill-opacity="0.1"/>
<path d="M257.102 423.39C257.358 422.572 257.665 421.856 258.176 421.242C258.636 420.629 259.25 420.118 259.966 419.76C260.681 419.402 261.551 419.197 262.522 419.197C262.931 419.197 263.34 419.248 263.698 419.351C264.056 419.453 264.414 419.555 264.669 419.708C265.027 419.862 265.334 420.015 265.59 420.22C265.743 419.913 265.897 419.708 266.101 419.606C266.306 419.504 266.51 419.402 266.664 419.402H268.504V429.423C268.504 429.832 268.402 430.241 268.249 430.599C268.095 431.008 267.839 431.315 267.584 431.622C267.277 431.928 266.97 432.133 266.561 432.286C266.152 432.44 265.794 432.542 265.334 432.542H261.857C260.886 432.542 260.068 432.337 259.403 431.928C258.739 431.519 258.227 431.008 257.818 430.394C257.409 429.781 257.154 429.065 256.949 428.298C256.796 427.531 256.693 426.764 256.693 425.997C256.744 425.077 256.898 424.208 257.102 423.39ZM259.557 417.101C259.199 416.743 258.994 416.283 258.994 415.772C258.994 415.26 259.199 414.8 259.557 414.442C259.914 414.084 260.375 413.88 260.886 413.88C261.397 413.88 261.857 414.084 262.215 414.442C262.573 414.8 262.778 415.26 262.778 415.772C262.778 416.283 262.573 416.743 262.215 417.101C261.857 417.459 261.397 417.663 260.886 417.663C260.375 417.612 259.914 417.459 259.557 417.101ZM261.755 422.572C261.448 422.776 261.193 423.032 260.988 423.339C260.784 423.697 260.63 424.054 260.579 424.515C260.528 424.975 260.477 425.384 260.477 425.895C260.477 426.253 260.528 426.662 260.579 427.071C260.63 427.48 260.733 427.889 260.886 428.247C261.039 428.605 261.244 428.861 261.551 429.116C261.857 429.321 262.215 429.474 262.675 429.474H265.027C265.079 429.474 265.079 429.474 265.079 429.474V423.236C264.567 422.674 263.903 422.367 263.084 422.367C262.471 422.265 262.062 422.367 261.755 422.572ZM264.107 417.101C263.749 416.743 263.545 416.283 263.545 415.772C263.545 415.26 263.749 414.8 264.107 414.442C264.465 414.084 264.925 413.88 265.436 413.88C265.948 413.88 266.408 414.084 266.766 414.442C267.124 414.8 267.328 415.26 267.328 415.772C267.328 416.283 267.124 416.743 266.766 417.101C266.408 417.459 265.948 417.663 265.436 417.663C264.925 417.612 264.465 417.459 264.107 417.101Z" fill="#D4D3F2" fill-opacity="0.1"/>
<path d="M274.691 432.542C274.282 432.542 273.873 432.439 273.464 432.286C273.055 432.133 272.748 431.877 272.441 431.621C272.135 431.315 271.93 431.008 271.777 430.599C271.623 430.19 271.521 429.832 271.521 429.423V414.135H275.049V429.423C275.049 429.423 275.049 429.423 275.1 429.423H277.094V432.542H274.691Z" fill="#D4D3F2" fill-opacity="0.1"/>
<path d="M282.565 431.519C281.951 432.184 281.184 432.49 280.264 432.49H276.481C276.378 432.49 276.225 432.49 276.071 432.49C275.918 432.49 275.816 432.49 275.662 432.439C275.56 432.439 275.458 432.388 275.356 432.286C275.253 432.235 275.253 432.133 275.253 431.979V429.883C275.253 429.781 275.305 429.678 275.407 429.627C275.509 429.576 275.611 429.525 275.714 429.474C275.816 429.423 275.969 429.423 276.123 429.423C276.276 429.423 276.378 429.423 276.481 429.423H279.804V425.895C279.804 424.923 279.957 424.054 280.213 423.236C280.469 422.418 280.878 421.702 281.44 421.14C281.951 420.526 282.616 420.066 283.434 419.759C284.201 419.401 285.121 419.248 286.144 419.248C287.166 419.248 288.036 419.401 288.803 419.759C289.57 420.066 290.234 420.526 290.746 421.14C291.257 421.702 291.666 422.418 291.973 423.236C292.279 424.054 292.382 424.975 292.382 425.946V429.423C292.382 430.394 292.075 431.161 291.512 431.724C290.95 432.286 290.183 432.593 289.212 432.593H286.042C284.763 432.542 283.587 432.184 282.565 431.519ZM288.803 429.32V425.844C288.803 425.384 288.751 424.923 288.7 424.463C288.649 424.003 288.496 423.645 288.291 423.338C288.087 423.032 287.831 422.776 287.473 422.571C287.115 422.367 286.706 422.316 286.195 422.316C285.684 422.316 285.275 422.418 284.917 422.571C284.559 422.725 284.303 422.98 284.099 423.287C283.894 423.594 283.741 424.003 283.639 424.412C283.536 424.821 283.485 425.332 283.485 425.793V426.253C283.485 427.173 283.69 427.889 284.099 428.502C284.508 429.116 285.224 429.372 286.144 429.372H288.752C288.752 429.423 288.803 429.372 288.803 429.32Z" fill="#D4D3F2" fill-opacity="0.1"/>
<path d="M298.568 432.542C298.159 432.542 297.75 432.439 297.341 432.286C296.932 432.133 296.626 431.877 296.319 431.621C296.012 431.315 295.807 431.008 295.654 430.599C295.501 430.19 295.398 429.832 295.398 429.423V414.135H298.926V429.423C298.926 429.423 298.926 429.423 298.977 429.423H300.971V432.542H298.568Z" fill="#D4D3F2" fill-opacity="0.1"/>
<path d="M300.409 432.542C300.306 432.542 300.153 432.542 300 432.542C299.846 432.542 299.744 432.542 299.591 432.491C299.488 432.491 299.386 432.439 299.284 432.337C299.182 432.286 299.182 432.184 299.182 432.03V429.934C299.182 429.832 299.233 429.73 299.335 429.678C299.437 429.627 299.54 429.576 299.642 429.525C299.744 429.474 299.897 429.474 300.051 429.474C300.204 429.474 300.306 429.474 300.409 429.474H311.555C311.146 427.991 310.788 426.815 310.481 425.895C310.226 424.975 310.021 424.361 309.919 424.003C309.765 423.543 309.51 423.185 309.101 422.827C308.692 422.52 308.129 422.367 307.413 422.367C307.004 422.367 306.698 422.418 306.493 422.469C306.237 422.572 305.982 422.674 305.675 422.878C305.368 423.134 305.061 423.236 304.704 423.236C304.295 423.236 303.988 423.032 303.681 422.623C303.681 422.572 303.63 422.52 303.528 422.367C303.425 422.214 303.323 422.111 303.221 421.958C303.119 421.805 303.016 421.702 302.914 421.549C302.812 421.447 302.761 421.344 302.761 421.344C304.295 419.862 305.88 419.146 307.567 419.146C308.947 419.146 310.123 419.504 311.146 420.22C312.168 420.935 312.935 421.958 313.396 423.39C313.447 423.543 313.498 423.696 313.549 423.901C313.6 424.105 313.702 424.361 313.753 424.617L314.827 428.093C314.929 428.349 314.981 428.605 315.032 428.809C315.083 429.014 315.134 429.218 315.185 429.321H315.696V432.439H300.409V432.542Z" fill="#D4D3F2" fill-opacity="0.1"/>
<path d="M321.372 431.519C320.758 432.184 319.991 432.49 319.071 432.49H315.543C315.441 432.49 315.287 432.49 315.134 432.49C314.981 432.49 314.878 432.49 314.725 432.439C314.623 432.439 314.52 432.388 314.418 432.286C314.316 432.235 314.316 432.133 314.316 431.979V429.883C314.316 429.781 314.367 429.678 314.469 429.627C314.572 429.576 314.674 429.525 314.776 429.474C314.878 429.423 315.032 429.423 315.185 429.423C315.338 429.423 315.441 429.423 315.543 429.423H318.611V425.895C318.611 424.923 318.764 424.054 319.02 423.236C319.275 422.418 319.684 421.702 320.247 421.14C320.758 420.526 321.423 420.066 322.241 419.759C323.008 419.401 323.928 419.248 324.951 419.248C325.973 419.248 326.843 419.401 327.609 419.759C328.376 420.066 329.041 420.526 329.552 421.14C330.064 421.702 330.473 422.418 330.779 423.236C331.086 424.054 331.189 424.975 331.189 425.946V429.423C331.189 429.474 331.24 429.474 331.291 429.474H332.978V432.593H331.802C331.086 432.593 330.524 432.388 330.013 431.979C329.757 432.184 329.45 432.286 329.143 432.439C328.837 432.542 328.479 432.593 328.07 432.593H324.9C323.519 432.542 322.343 432.184 321.372 431.519ZM323.673 422.623C323.315 422.776 323.059 423.032 322.854 423.338C322.65 423.645 322.497 424.054 322.394 424.463C322.292 424.872 322.241 425.384 322.241 425.844V426.304C322.241 427.224 322.445 427.94 322.854 428.554C323.263 429.167 323.979 429.423 324.9 429.423H327.507C327.558 429.423 327.558 429.423 327.558 429.372V425.895C327.558 425.435 327.507 424.974 327.456 424.514C327.405 424.054 327.252 423.696 327.047 423.39C326.843 423.083 326.587 422.827 326.229 422.623C325.871 422.418 325.462 422.367 324.951 422.367C324.439 422.316 323.979 422.418 323.673 422.623Z" fill="#D4D3F2" fill-opacity="0.1"/>
<path d="M332.416 432.49C332.262 432.49 332.16 432.49 332.007 432.439C331.904 432.439 331.802 432.388 331.7 432.286C331.598 432.235 331.598 432.133 331.598 431.979V429.883C331.598 429.781 331.649 429.678 331.751 429.627C331.853 429.576 331.956 429.525 332.058 429.474C332.16 429.423 332.313 429.423 332.467 429.423C332.62 429.423 332.722 429.423 332.825 429.423H336.864V414.135H340.443V429.32C340.443 429.372 340.494 429.423 340.545 429.423H342.488V432.542H341.057C340.341 432.542 339.676 432.337 339.165 431.928C338.653 432.337 338.04 432.542 337.273 432.542H332.774C332.671 432.542 332.518 432.49 332.416 432.49Z" fill="#D4D3F2" fill-opacity="0.1"/>
<path d="M345.658 429.372V414.084H349.186V429.372C349.186 429.781 349.084 430.19 348.93 430.548C348.777 430.957 348.521 431.264 348.266 431.57C347.959 431.877 347.652 432.082 347.243 432.235C346.834 432.388 346.476 432.491 346.016 432.491H342.232C342.13 432.491 341.977 432.491 341.823 432.491C341.67 432.491 341.568 432.491 341.414 432.44C341.312 432.44 341.21 432.388 341.108 432.286C341.005 432.235 341.005 432.133 341.005 431.979V429.883C341.005 429.781 341.057 429.679 341.159 429.627C341.261 429.576 341.363 429.525 341.466 429.474C341.568 429.423 341.721 429.423 341.875 429.423C342.028 429.423 342.13 429.423 342.232 429.423L345.658 429.372C345.658 429.423 345.658 429.423 345.658 429.372Z" fill="#D4D3F2" fill-opacity="0.1"/>
<path d="M379.148 432.542C378.739 432.542 378.33 432.439 377.921 432.286C377.512 432.132 377.205 431.877 376.949 431.621C376.642 431.314 376.438 431.008 376.284 430.599C376.131 430.19 376.029 429.832 376.029 429.423V422.52H374.035V429.372C374.035 429.781 373.933 430.19 373.779 430.599C373.626 431.008 373.37 431.314 373.114 431.621C372.808 431.928 372.501 432.132 372.092 432.286C371.683 432.439 371.274 432.542 370.865 432.542H363.042C362.122 432.542 361.304 432.337 360.588 431.979C359.872 431.621 359.258 431.11 358.798 430.496C358.338 429.883 357.929 429.167 357.725 428.349C357.469 427.531 357.367 426.662 357.367 425.792C357.367 424.872 357.52 424.003 357.827 423.032C358.134 422.06 358.645 421.242 359.412 420.475H360.128L361.201 421.549C361.457 421.804 361.559 422.111 361.61 422.418C361.662 422.725 361.61 423.083 361.457 423.389C361.15 424.003 360.997 424.77 360.997 425.741C360.997 426.202 361.048 426.611 361.099 427.071C361.201 427.48 361.304 427.889 361.508 428.247C361.713 428.605 361.968 428.86 362.275 429.065C362.582 429.269 362.991 429.372 363.451 429.372H370.405V422.52C370.405 422.06 370.507 421.651 370.66 421.293C370.814 420.884 371.069 420.577 371.325 420.271C371.632 419.964 371.939 419.759 372.348 419.606C372.757 419.452 373.114 419.35 373.575 419.35H379.557V429.372H381.551V432.49H379.148V432.542ZM363.247 436.887C362.889 436.53 362.684 436.069 362.684 435.558C362.684 435.047 362.889 434.587 363.247 434.229C363.604 433.871 364.065 433.666 364.576 433.666C365.087 433.666 365.547 433.871 365.905 434.229C366.263 434.587 366.468 435.047 366.468 435.558C366.468 436.069 366.263 436.53 365.905 436.887C365.547 437.245 365.087 437.45 364.576 437.45C364.065 437.399 363.604 437.245 363.247 436.887ZM367.797 436.887C367.439 436.53 367.235 436.069 367.235 435.558C367.235 435.047 367.439 434.587 367.797 434.229C368.155 433.871 368.615 433.666 369.126 433.666C369.638 433.666 370.098 433.871 370.456 434.229C370.814 434.587 371.018 435.047 371.018 435.558C371.018 436.069 370.814 436.53 370.456 436.887C370.098 437.245 369.638 437.45 369.126 437.45C368.615 437.399 368.155 437.245 367.797 436.887Z" fill="#D4D3F2" fill-opacity="0.1"/>
<path d="M380.988 432.491C380.835 432.491 380.733 432.491 380.579 432.44C380.477 432.44 380.375 432.388 380.273 432.286C380.17 432.235 380.17 432.133 380.17 431.979V429.883C380.17 429.781 380.222 429.679 380.324 429.628C380.426 429.576 380.528 429.525 380.631 429.474C380.733 429.423 380.886 429.423 381.04 429.423C381.193 429.423 381.295 429.423 381.397 429.423H385.437C385.488 429.423 385.488 429.423 385.488 429.423V419.402H389.016V429.423C389.016 429.832 388.913 430.241 388.76 430.599C388.607 431.008 388.402 431.315 388.095 431.622C387.789 431.928 387.482 432.133 387.073 432.286C386.664 432.44 386.306 432.542 385.846 432.542H381.346C381.295 432.542 381.142 432.491 380.988 432.491ZM385.897 417.101C385.539 416.743 385.334 416.283 385.334 415.772C385.334 415.26 385.539 414.8 385.897 414.442C386.255 414.084 386.715 413.88 387.226 413.88C387.738 413.88 388.198 414.084 388.556 414.442C388.913 414.8 389.118 415.26 389.118 415.772C389.118 416.283 388.913 416.743 388.556 417.101C388.198 417.459 387.738 417.663 387.226 417.663C386.715 417.612 386.255 417.459 385.897 417.101Z" fill="#D4D3F2" fill-opacity="0.1"/>
<path d="M395.662 432.542C395.253 432.542 394.844 432.439 394.435 432.286C394.026 432.133 393.719 431.877 393.413 431.621C393.106 431.315 392.901 431.008 392.748 430.599C392.594 430.19 392.492 429.832 392.492 429.423V414.135H396.02V429.423C396.02 429.423 396.02 429.423 396.071 429.423H398.065V432.542H395.662Z" fill="#D4D3F2" fill-opacity="0.1"/>
<path d="M403.537 431.519C402.923 432.184 402.156 432.49 401.236 432.49H397.452C397.35 432.49 397.197 432.49 397.043 432.49C396.89 432.49 396.788 432.49 396.634 432.439C396.532 432.439 396.43 432.388 396.327 432.286C396.225 432.235 396.225 432.133 396.225 431.979V429.883C396.225 429.781 396.276 429.678 396.379 429.627C396.481 429.576 396.583 429.525 396.685 429.474C396.788 429.423 396.941 429.423 397.094 429.423C397.248 429.423 397.35 429.423 397.452 429.423H400.776V425.895C400.776 424.923 400.929 424.054 401.185 423.236C401.44 422.418 401.849 421.702 402.412 421.14C402.923 420.526 403.588 420.066 404.406 419.759C405.173 419.401 406.093 419.248 407.116 419.248C408.138 419.248 409.007 419.401 409.774 419.759C410.541 420.066 411.206 420.526 411.717 421.14C412.229 421.702 412.638 422.418 412.944 423.236C413.251 424.054 413.353 424.975 413.353 425.946V429.423C413.353 430.394 413.047 431.161 412.484 431.724C411.922 432.286 411.155 432.593 410.183 432.593H407.013C405.735 432.542 404.508 432.184 403.537 431.519ZM409.774 429.32V425.844C409.774 425.384 409.723 424.923 409.672 424.463C409.621 424.003 409.468 423.645 409.263 423.338C409.058 423.032 408.803 422.776 408.445 422.571C408.087 422.367 407.678 422.316 407.167 422.316C406.655 422.316 406.246 422.418 405.889 422.571C405.531 422.725 405.275 422.98 405.07 423.287C404.866 423.594 404.713 424.003 404.61 424.412C404.508 424.821 404.457 425.332 404.457 425.793V426.253C404.457 427.173 404.661 427.889 405.07 428.502C405.479 429.116 406.195 429.372 407.116 429.372H409.723C409.723 429.423 409.774 429.372 409.774 429.32Z" fill="#D4D3F2" fill-opacity="0.1"/>
<path d="M264.67 485.306C264.312 485.306 263.954 485.204 263.647 484.949C263.34 485.204 263.034 485.306 262.625 485.306H256.54C255.978 485.306 255.518 485.204 255.109 485C254.7 484.795 254.342 484.54 254.086 484.182C253.83 483.824 253.626 483.466 253.473 483.006C253.319 482.546 253.268 482.085 253.268 481.574C253.268 481.063 253.37 480.552 253.524 480.04C253.677 479.529 253.984 479.069 254.393 478.609H254.802L255.364 479.222C255.518 479.376 255.62 479.529 255.62 479.733C255.62 479.938 255.569 480.142 255.467 480.347C255.313 480.705 255.262 481.114 255.262 481.574C255.262 481.83 255.262 482.034 255.313 482.29C255.364 482.546 255.415 482.75 255.569 482.955C255.671 483.159 255.825 483.312 256.029 483.415C256.234 483.517 256.438 483.619 256.745 483.619H262.369V475.081H264.363V483.568C264.363 483.619 264.363 483.619 264.414 483.619H265.488V485.358H264.67V485.306ZM257.461 480.142C257.461 479.989 257.461 479.887 257.461 479.836C257.461 479.682 257.512 479.58 257.563 479.529C257.614 479.478 257.665 479.427 257.716 479.427H257.767C257.716 479.324 257.665 479.273 257.665 479.12C257.614 479.018 257.614 478.864 257.614 478.66C257.614 478.455 257.665 478.302 257.716 478.097C257.767 477.944 257.87 477.739 258.023 477.586C258.176 477.433 258.33 477.33 258.534 477.228C258.739 477.126 258.943 477.075 259.199 477.075C259.455 477.075 259.659 477.126 259.915 477.279C260.17 477.381 260.324 477.535 260.528 477.739C260.528 477.739 260.477 477.791 260.477 477.842C260.426 477.893 260.375 477.944 260.375 478.046C260.324 478.097 260.273 478.2 260.273 478.251C260.222 478.302 260.222 478.353 260.222 478.353C260.17 478.455 260.119 478.455 260.017 478.455C259.966 478.455 259.864 478.455 259.813 478.404C259.761 478.353 259.659 478.302 259.608 478.251C259.557 478.2 259.455 478.2 259.301 478.2C259.148 478.2 259.046 478.251 258.943 478.353C258.841 478.455 258.79 478.609 258.79 478.762C258.79 478.967 258.841 479.069 258.943 479.171C259.046 479.273 259.199 479.324 259.455 479.324H260.631V480.5H258.176C258.074 480.5 257.972 480.5 257.87 480.449C257.767 480.398 257.665 480.398 257.563 480.347C257.461 480.347 257.461 480.245 257.461 480.142Z" fill="#D4D3F2" fill-opacity="0.1"/>
<path d="M265.13 485.307C265.027 485.307 264.976 485.307 264.925 485.255C264.874 485.255 264.823 485.204 264.772 485.153C264.721 485.102 264.721 485.051 264.721 485V483.824C264.721 483.773 264.721 483.722 264.772 483.67C264.823 483.619 264.874 483.619 264.976 483.568C265.027 483.568 265.13 483.517 265.181 483.517C265.283 483.517 265.334 483.517 265.385 483.517H268.606V485.255H265.385C265.283 485.307 265.232 485.307 265.13 485.307Z" fill="#D4D3F2" fill-opacity="0.1"/>
<path d="M268.198 485.307C268.095 485.307 268.044 485.307 267.993 485.255C267.942 485.255 267.891 485.204 267.84 485.153C267.789 485.102 267.789 485.051 267.789 485V483.824C267.789 483.773 267.789 483.722 267.84 483.67C267.891 483.619 267.942 483.619 268.044 483.568C268.095 483.568 268.198 483.517 268.249 483.517C268.351 483.517 268.402 483.517 268.453 483.517H271.674V485.255H268.453C268.351 485.307 268.3 485.307 268.198 485.307Z" fill="#D4D3F2" fill-opacity="0.1"/>
<path d="M271.265 485.307C271.163 485.307 271.112 485.307 271.06 485.255C271.009 485.255 270.958 485.204 270.907 485.153C270.856 485.102 270.856 485.051 270.856 485V483.824C270.856 483.773 270.856 483.722 270.907 483.67C270.958 483.619 271.009 483.619 271.112 483.568C271.163 483.568 271.265 483.517 271.316 483.517C271.418 483.517 271.469 483.517 271.521 483.517H274.742V485.255H271.521C271.418 485.307 271.367 485.307 271.265 485.307Z" fill="#D4D3F2" fill-opacity="0.1"/>
<path d="M274.384 485.307C274.282 485.307 274.231 485.307 274.18 485.255C274.128 485.255 274.077 485.204 274.026 485.153C273.975 485.102 273.975 485.051 273.975 485V483.824C273.975 483.773 273.975 483.722 274.026 483.67C274.077 483.619 274.128 483.619 274.231 483.568C274.282 483.568 274.384 483.517 274.435 483.517C274.538 483.517 274.589 483.517 274.64 483.517H277.861V485.255H274.64C274.486 485.307 274.435 485.307 274.384 485.307Z" fill="#D4D3F2" fill-opacity="0.1"/>
<path d="M277.452 485.307C277.35 485.307 277.299 485.307 277.247 485.256C277.196 485.256 277.145 485.205 277.094 485.153C277.043 485.102 277.043 485.051 277.043 485V483.824C277.043 483.773 277.043 483.722 277.094 483.671C277.145 483.62 277.196 483.62 277.299 483.568C277.35 483.568 277.452 483.517 277.503 483.517C277.605 483.517 277.657 483.517 277.708 483.517H279.957V477.944H281.951V483.466C281.951 483.517 281.951 483.517 282.002 483.517H283.076V485.256H282.258C281.849 485.256 281.491 485.153 281.236 484.898C280.929 485.153 280.622 485.256 280.213 485.256H277.708C277.605 485.307 277.503 485.307 277.452 485.307ZM280.162 487.761C279.957 487.556 279.855 487.301 279.855 487.045C279.855 486.738 279.957 486.483 280.162 486.278C280.366 486.074 280.622 485.971 280.929 485.971C281.236 485.971 281.44 486.074 281.645 486.278C281.849 486.483 281.951 486.738 281.951 487.045C281.951 487.352 281.849 487.556 281.645 487.761C281.44 487.966 281.184 488.068 280.929 488.068C280.622 488.068 280.366 487.966 280.162 487.761Z" fill="#D4D3F2" fill-opacity="0.1"/>
<path d="M282.719 485.306C282.616 485.306 282.565 485.306 282.514 485.255C282.463 485.255 282.412 485.204 282.361 485.153C282.31 485.102 282.31 485.051 282.31 485V483.824C282.31 483.773 282.31 483.721 282.361 483.67C282.412 483.619 282.463 483.619 282.565 483.568C282.616 483.568 282.719 483.517 282.77 483.517C282.872 483.517 282.923 483.517 282.974 483.517H285.224H285.275V477.944H287.269V483.517C287.269 483.773 287.218 483.977 287.116 484.182C287.013 484.386 286.911 484.591 286.758 484.744C286.604 484.897 286.4 485.051 286.195 485.102C285.991 485.153 285.735 485.255 285.531 485.255H282.923C282.872 485.306 282.77 485.306 282.719 485.306ZM285.428 476.768C285.224 476.563 285.122 476.308 285.122 476.052C285.122 475.745 285.224 475.49 285.428 475.285C285.633 475.081 285.889 474.978 286.195 474.978C286.502 474.978 286.707 475.081 286.911 475.285C287.116 475.49 287.218 475.745 287.218 476.052C287.218 476.359 287.116 476.563 286.911 476.768C286.707 476.972 286.451 477.075 286.195 477.075C285.889 477.075 285.633 476.972 285.428 476.768Z" fill="#D4D3F2" fill-opacity="0.1"/>
<path d="M290.848 485.307C290.592 485.307 290.388 485.256 290.183 485.153C289.979 485.051 289.774 484.949 289.621 484.796C289.467 484.642 289.314 484.438 289.263 484.233C289.212 484.029 289.109 483.773 289.109 483.568V475.081H291.103V483.568C291.103 483.568 291.103 483.568 291.155 483.568H292.279V485.307H290.848Z" fill="#D4D3F2" fill-opacity="0.1"/>
<path d="M291.819 485.307C291.768 485.307 291.666 485.307 291.615 485.307C291.512 485.307 291.461 485.307 291.41 485.256C291.359 485.256 291.308 485.204 291.257 485.153C291.206 485.102 291.206 485.051 291.206 485V483.824C291.206 483.773 291.206 483.722 291.257 483.671C291.308 483.619 291.359 483.619 291.461 483.568C291.512 483.568 291.615 483.517 291.666 483.517C291.768 483.517 291.819 483.517 291.87 483.517H298.108C297.852 482.699 297.648 482.034 297.546 481.523C297.392 481.012 297.29 480.654 297.239 480.501C297.137 480.245 296.983 480.04 296.779 479.836C296.574 479.683 296.267 479.58 295.858 479.58C295.654 479.58 295.449 479.58 295.347 479.631C295.194 479.683 295.04 479.734 294.887 479.887C294.733 480.04 294.529 480.092 294.376 480.092C294.171 480.092 293.967 479.989 293.813 479.734C293.813 479.734 293.762 479.683 293.711 479.58C293.66 479.529 293.609 479.427 293.557 479.376C293.506 479.274 293.455 479.222 293.404 479.171C293.353 479.12 293.302 479.069 293.302 479.069C294.12 478.251 295.04 477.842 295.961 477.842C296.727 477.842 297.392 478.046 297.955 478.455C298.517 478.864 298.926 479.427 299.182 480.194C299.182 480.245 299.233 480.347 299.284 480.501C299.335 480.603 299.386 480.756 299.386 480.91L300 482.853C300.051 483.006 300.102 483.159 300.102 483.262C300.153 483.364 300.153 483.466 300.204 483.568H300.46V485.307H291.819ZM295.194 487.761C294.989 487.556 294.887 487.301 294.887 487.045C294.887 486.738 294.989 486.483 295.194 486.278C295.398 486.074 295.654 485.971 295.961 485.971C296.267 485.971 296.472 486.074 296.676 486.278C296.881 486.483 296.983 486.738 296.983 487.045C296.983 487.352 296.881 487.556 296.676 487.761C296.472 487.965 296.216 488.068 295.961 488.068C295.654 488.068 295.398 487.965 295.194 487.761Z" fill="#D4D3F2" fill-opacity="0.1"/>
<path d="M300.051 485.307C299.949 485.307 299.898 485.307 299.847 485.256C299.795 485.256 299.744 485.205 299.693 485.153C299.642 485.102 299.642 485.051 299.642 485V483.824C299.642 483.773 299.642 483.722 299.693 483.671C299.744 483.62 299.795 483.62 299.898 483.568C299.949 483.568 300.051 483.517 300.102 483.517C300.204 483.517 300.256 483.517 300.307 483.517H302.556H302.608V477.944H304.602V483.517C304.602 483.773 304.55 483.977 304.448 484.182C304.346 484.386 304.244 484.591 304.09 484.744C303.937 484.898 303.732 485.051 303.528 485.102C303.323 485.153 303.068 485.256 302.863 485.256H300.358C300.204 485.307 300.102 485.307 300.051 485.307ZM302.659 487.761C302.454 487.556 302.352 487.301 302.352 487.045C302.352 486.738 302.454 486.483 302.659 486.278C302.863 486.074 303.119 485.971 303.426 485.971C303.732 485.971 303.937 486.074 304.141 486.278C304.346 486.483 304.448 486.738 304.448 487.045C304.448 487.352 304.346 487.556 304.141 487.761C303.937 487.966 303.681 488.068 303.426 488.068C303.119 488.068 302.863 487.966 302.659 487.761Z" fill="#D4D3F2" fill-opacity="0.1"/>
<path d="M312.271 485.306C311.76 485.306 311.3 485.204 310.89 485C310.481 484.795 310.124 484.54 309.868 484.182C309.612 483.824 309.357 483.466 309.254 483.006C309.101 482.545 309.05 482.085 309.05 481.574C309.05 481.063 309.152 480.551 309.305 480.04C309.459 479.529 309.766 479.069 310.175 478.609H310.584L311.146 479.222C311.3 479.375 311.402 479.58 311.402 479.785C311.402 479.989 311.351 480.194 311.248 480.398C311.095 480.756 311.044 481.114 311.044 481.574C311.044 481.83 311.044 482.085 311.095 482.341C311.146 482.597 311.197 482.801 311.351 483.006C311.453 483.21 311.606 483.364 311.811 483.466C312.015 483.568 312.22 483.619 312.527 483.619H315.236C314.93 483.057 314.776 482.392 314.776 481.676C314.776 481.165 314.827 480.654 314.981 480.194C315.134 479.733 315.339 479.324 315.645 479.018C315.952 478.711 316.31 478.404 316.77 478.251C317.23 478.046 317.691 477.944 318.304 477.944C318.867 477.944 319.378 478.046 319.787 478.2C320.196 478.353 320.605 478.609 320.861 478.966C321.167 479.273 321.372 479.682 321.525 480.142C321.679 480.603 321.73 481.114 321.73 481.676V483.619H322.752V485.358H312.271V485.306ZM319.736 481.625C319.736 481.37 319.736 481.114 319.685 480.858C319.634 480.603 319.582 480.398 319.429 480.245C319.276 480.091 319.173 479.938 318.969 479.836C318.764 479.733 318.56 479.682 318.253 479.682C317.997 479.682 317.742 479.733 317.537 479.836C317.333 479.938 317.179 480.091 317.077 480.245C316.975 480.449 316.873 480.654 316.821 480.858C316.77 481.063 316.77 481.37 316.77 481.625C316.77 481.881 316.77 482.136 316.821 482.392C316.873 482.648 316.975 482.852 317.077 483.006C317.179 483.159 317.333 483.312 317.537 483.415C317.742 483.517 317.946 483.568 318.253 483.568H319.736V481.625ZM317.537 476.768C317.333 476.563 317.23 476.308 317.23 476.052C317.23 475.745 317.333 475.49 317.537 475.285C317.742 475.081 317.997 474.978 318.304 474.978C318.611 474.978 318.815 475.081 319.02 475.285C319.224 475.49 319.327 475.745 319.327 476.052C319.327 476.359 319.224 476.563 319.02 476.768C318.815 476.972 318.56 477.075 318.304 477.075C317.997 477.075 317.742 476.972 317.537 476.768Z" fill="#D4D3F2" fill-opacity="0.1"/>
<path d="M322.394 485.307C322.292 485.307 322.241 485.307 322.19 485.255C322.139 485.255 322.088 485.204 322.036 485.153C321.985 485.102 321.985 485.051 321.985 485V483.824C321.985 483.773 321.985 483.722 322.036 483.67C322.088 483.619 322.139 483.619 322.241 483.568C322.292 483.568 322.394 483.517 322.445 483.517C322.548 483.517 322.599 483.517 322.65 483.517H325.871V485.255H322.65C322.548 485.307 322.497 485.307 322.394 485.307Z" fill="#D4D3F2" fill-opacity="0.1"/>
<path d="M325.462 485.307C325.36 485.307 325.309 485.307 325.258 485.255C325.207 485.255 325.155 485.204 325.104 485.153C325.053 485.102 325.053 485.051 325.053 485V483.824C325.053 483.773 325.053 483.722 325.104 483.67C325.155 483.619 325.207 483.619 325.309 483.568C325.36 483.568 325.462 483.517 325.513 483.517C325.616 483.517 325.667 483.517 325.718 483.517H328.939V485.255H325.718C325.616 485.307 325.565 485.307 325.462 485.307Z" fill="#D4D3F2" fill-opacity="0.1"/>
<path d="M328.785 485.306C328.734 485.306 328.632 485.306 328.581 485.306C328.479 485.306 328.428 485.306 328.376 485.255C328.325 485.255 328.274 485.204 328.223 485.153C328.172 485.102 328.172 485.051 328.172 485V483.824C328.172 483.773 328.172 483.721 328.223 483.67C328.274 483.619 328.325 483.619 328.428 483.568C328.479 483.568 328.581 483.517 328.632 483.517C328.734 483.517 328.785 483.517 328.837 483.517H330.779C330.473 482.955 330.319 482.29 330.319 481.523C330.319 481.012 330.37 480.5 330.524 480.04C330.677 479.58 330.882 479.222 331.189 478.864C331.495 478.506 331.853 478.251 332.262 478.097C332.722 477.893 333.183 477.842 333.745 477.842C334.307 477.842 334.819 477.944 335.228 478.097C335.688 478.302 336.046 478.506 336.353 478.864C336.659 479.222 336.864 479.58 337.017 480.04C337.171 480.5 337.273 481.012 337.273 481.574V483.517H338.244V485.255H328.785V485.306ZM331.751 476.768C331.546 476.563 331.444 476.308 331.444 476.052C331.444 475.745 331.546 475.49 331.751 475.285C331.955 475.081 332.211 474.978 332.518 474.978C332.825 474.978 333.029 475.081 333.234 475.285C333.438 475.49 333.54 475.745 333.54 476.052C333.54 476.359 333.438 476.563 333.234 476.768C333.029 476.972 332.773 477.075 332.518 477.075C332.211 477.075 331.955 476.972 331.751 476.768ZM335.228 481.625C335.228 481.37 335.228 481.114 335.177 480.858C335.125 480.603 335.074 480.398 334.921 480.245C334.768 480.091 334.665 479.938 334.461 479.836C334.256 479.733 334.052 479.682 333.745 479.682C333.489 479.682 333.234 479.733 333.029 479.836C332.825 479.938 332.671 480.091 332.569 480.245C332.467 480.398 332.364 480.603 332.313 480.858C332.262 481.114 332.262 481.37 332.262 481.625C332.262 481.881 332.262 482.136 332.313 482.392C332.364 482.648 332.467 482.852 332.569 483.006C332.671 483.21 332.825 483.312 333.029 483.415C333.234 483.517 333.438 483.568 333.745 483.568H335.228V481.625ZM334.256 476.768C334.052 476.563 333.949 476.308 333.949 476.052C333.949 475.745 334.052 475.49 334.256 475.285C334.461 475.081 334.716 474.978 335.023 474.978C335.33 474.978 335.534 475.081 335.739 475.285C335.943 475.49 336.046 475.745 336.046 476.052C336.046 476.359 335.943 476.563 335.739 476.768C335.534 476.972 335.279 477.075 335.023 477.075C334.716 477.075 334.461 476.972 334.256 476.768Z" fill="#D4D3F2" fill-opacity="0.1"/>
<path d="M337.887 485.306C337.785 485.306 337.734 485.306 337.683 485.255C337.631 485.255 337.58 485.204 337.529 485.153C337.478 485.102 337.478 485.051 337.478 485V483.824C337.478 483.773 337.478 483.721 337.529 483.67C337.58 483.619 337.631 483.619 337.734 483.568C337.785 483.568 337.887 483.517 337.938 483.517C338.04 483.517 338.092 483.517 338.143 483.517H340.392H340.444V477.944H342.438V483.517C342.438 483.773 342.386 483.977 342.284 484.182C342.182 484.386 342.08 484.591 341.926 484.744C341.773 484.897 341.568 485.051 341.364 485.102C341.159 485.153 340.904 485.255 340.699 485.255H338.194C338.04 485.306 337.989 485.306 337.887 485.306ZM340.597 476.768C340.392 476.563 340.29 476.308 340.29 476.052C340.29 475.745 340.392 475.49 340.597 475.285C340.801 475.081 341.057 474.978 341.364 474.978C341.671 474.978 341.875 475.081 342.08 475.285C342.284 475.49 342.386 475.745 342.386 476.052C342.386 476.359 342.284 476.563 342.08 476.768C341.875 476.972 341.619 477.075 341.364 477.075C341.057 477.075 340.801 476.972 340.597 476.768Z" fill="#D4D3F2" fill-opacity="0.1"/>
<path d="M93.4384 484.898C92.876 484.591 92.3647 484.233 91.9045 483.773L92.4158 482.904C92.5181 482.751 92.5692 482.7 92.6715 482.648C92.7737 482.597 92.876 482.546 92.9783 482.546C93.1316 482.546 93.2339 482.597 93.3362 482.648C93.4384 482.7 93.5918 482.802 93.6941 482.904C93.9497 483.109 94.2053 483.211 94.461 483.313C94.6655 483.415 94.9723 483.467 95.2791 483.467C95.7392 483.467 96.0971 483.364 96.3528 483.109C96.6084 482.904 96.7618 482.597 96.7618 482.188C96.7618 482.035 96.7107 481.881 96.6084 481.728C96.5062 481.626 96.4039 481.472 96.2505 481.421C96.0971 481.319 95.9437 481.268 95.7392 481.217C95.5347 481.166 95.3302 481.115 95.1257 481.012C94.7678 480.91 94.461 480.808 94.1031 480.654C93.7452 480.501 93.4895 480.348 93.1828 480.143C92.9271 479.939 92.6715 479.632 92.5181 479.325C92.3647 479.018 92.2625 478.558 92.2625 478.047C92.2625 477.587 92.3647 477.178 92.5181 476.82C92.6715 476.462 92.9271 476.155 93.2339 475.899C93.5407 475.644 93.8986 475.439 94.2565 475.337C94.6655 475.184 95.0745 475.132 95.4836 475.132C96.6084 475.132 97.631 475.541 98.5002 476.411L98.04 477.28C97.8866 477.587 97.6821 477.689 97.4776 477.689C97.3753 477.689 97.222 477.638 97.0686 477.587C96.9152 477.536 96.8129 477.433 96.7107 477.382C96.6084 477.331 96.5062 477.229 96.4039 477.178C96.3016 477.126 96.1483 477.075 96.046 477.024C95.8926 476.973 95.7392 476.973 95.5347 476.973C95.1257 476.973 94.8189 477.075 94.5633 477.28C94.3587 477.484 94.2565 477.689 94.2565 477.996C94.2565 478.149 94.3076 478.251 94.4099 478.405C94.5121 478.558 94.6144 478.609 94.7678 478.711C94.9212 478.814 95.0745 478.865 95.2791 478.967C95.4836 479.018 95.6881 479.121 95.8926 479.172C96.2505 479.274 96.5573 479.376 96.9152 479.53C97.2731 479.683 97.5799 479.836 97.8355 480.041C98.0912 480.245 98.2957 480.501 98.5002 480.808C98.7047 481.115 98.7558 481.524 98.7558 482.035C98.7558 482.546 98.6536 483.006 98.5002 483.415C98.3468 483.824 98.0912 484.182 97.7844 484.438C97.4776 484.745 97.1197 484.949 96.6596 485.103C96.2505 485.256 95.7904 485.307 95.2791 485.307C94.6144 485.307 94.0008 485.205 93.4384 484.898Z" fill="#D4D3F2" fill-opacity="0.1"/>
<path d="M102.59 485.204V477.125H99.625V475.234H107.601V477.125H104.636V485.204H102.59Z" fill="#D4D3F2" fill-opacity="0.1"/>
<path d="M112.816 475.234L116.753 485.204H115.219C114.81 485.204 114.555 484.999 114.401 484.641L113.685 482.75H110.158L109.442 484.693C109.391 484.846 109.288 484.999 109.135 485.102C108.982 485.204 108.828 485.255 108.624 485.255H107.09L111.078 475.285H112.816V475.234ZM113.021 481.011L111.947 478.199L110.873 481.011H113.021Z" fill="#D4D3F2" fill-opacity="0.1"/>
<path d="M119.412 475.336C119.514 475.387 119.617 475.489 119.719 475.643L124.218 481.523C124.218 481.42 124.218 481.369 124.218 481.267V480.96V475.285H126.161V485.255H125.138C124.934 485.255 124.781 485.204 124.678 485.153C124.576 485.102 124.474 484.999 124.32 484.846L119.821 478.966V485.255H117.878V475.285H118.952C119.156 475.234 119.31 475.285 119.412 475.336Z" fill="#D4D3F2" fill-opacity="0.1"/>
<path d="M127.951 475.234H131.785C132.552 475.234 133.217 475.336 133.779 475.592C134.342 475.847 134.904 476.154 135.313 476.614C135.722 477.074 136.08 477.586 136.336 478.199C136.591 478.813 136.694 479.477 136.694 480.244C136.694 480.96 136.591 481.625 136.336 482.238C136.08 482.852 135.773 483.363 135.313 483.823C134.904 484.283 134.342 484.59 133.779 484.846C133.217 485.102 132.501 485.204 131.785 485.204H127.951V475.234ZM133.831 482.545C134.342 481.983 134.597 481.216 134.597 480.244C134.597 479.273 134.342 478.506 133.831 477.943C133.319 477.381 132.655 477.125 131.785 477.125H130.047V483.414H131.785C132.655 483.363 133.319 483.108 133.831 482.545Z" fill="#D4D3F2" fill-opacity="0.1"/>
<path d="M138.33 485.204V475.234H140.426V485.204H138.33Z" fill="#D4D3F2" fill-opacity="0.1"/>
<path d="M143.698 475.336C143.8 475.387 143.903 475.489 144.005 475.643L148.504 481.523C148.504 481.42 148.504 481.369 148.504 481.267V480.96V475.285H150.447V485.255H149.425C149.22 485.255 149.067 485.204 148.964 485.153C148.862 485.102 148.76 484.999 148.607 484.846L144.107 478.966V485.255H142.164V475.285H143.238C143.443 475.234 143.596 475.285 143.698 475.336Z" fill="#D4D3F2" fill-opacity="0.1"/>
<path d="M155.151 484.949C154.486 484.693 153.975 484.387 153.515 483.926C153.055 483.466 152.697 482.955 152.441 482.341C152.186 481.728 152.032 481.012 152.032 480.245C152.032 479.478 152.134 478.762 152.39 478.149C152.646 477.535 153.004 476.973 153.413 476.564C153.822 476.155 154.384 475.797 154.998 475.541C155.611 475.286 156.327 475.183 157.094 475.183C158.526 475.183 159.804 475.695 160.878 476.666C160.775 476.819 160.673 476.973 160.622 477.126C160.52 477.28 160.469 477.433 160.366 477.535C160.264 477.689 160.162 477.791 160.059 477.842C159.957 477.893 159.855 477.944 159.753 477.944C159.702 477.944 159.599 477.944 159.548 477.893C159.395 477.842 159.241 477.74 159.088 477.689C158.935 477.586 158.781 477.535 158.628 477.433C158.474 477.331 158.27 477.28 158.014 477.229C157.759 477.177 157.452 477.126 157.094 477.126C156.634 477.126 156.225 477.177 155.867 477.331C155.509 477.484 155.202 477.689 154.947 477.995C154.691 478.302 154.486 478.609 154.333 479.018C154.18 479.427 154.129 479.836 154.129 480.347C154.129 481.37 154.384 482.137 154.947 482.75C155.509 483.313 156.276 483.62 157.196 483.62C157.503 483.62 157.81 483.569 158.117 483.517C158.423 483.466 158.628 483.364 158.884 483.262V481.932H157.861C157.656 481.932 157.503 481.881 157.35 481.779C157.247 481.677 157.145 481.523 157.145 481.319V480.194H160.775V484.335C160.213 484.744 159.65 485.051 159.088 485.256C158.474 485.46 157.861 485.563 157.196 485.563C156.532 485.307 155.816 485.205 155.151 484.949Z" fill="#D4D3F2" fill-opacity="0.1"/>
<path d="M166.758 475.234C167.218 475.234 167.473 475.438 167.576 475.847L169.263 481.471L171.206 475.796C171.257 475.643 171.359 475.489 171.513 475.387C171.666 475.285 171.819 475.234 172.024 475.234H172.382C172.791 475.234 173.098 475.438 173.2 475.796L175.143 481.471L176.83 475.796C176.881 475.643 176.983 475.489 177.137 475.387C177.29 475.285 177.443 475.234 177.648 475.234H179.182L176.063 485.204H174.376L172.228 478.762L170.081 485.204H168.343L165.224 475.234H166.758Z" fill="#D4D3F2" fill-opacity="0.1"/>
<path d="M180.205 485.204V475.234H182.301V485.204H180.205Z" fill="#D4D3F2" fill-opacity="0.1"/>
<path d="M186.749 485.204V477.125H183.783V475.234H191.76V477.125H188.794V485.204H186.749Z" fill="#D4D3F2" fill-opacity="0.1"/>
<path d="M199.429 485.204V481.062H195.339V485.204H193.243V475.234H195.339V479.324H199.429V475.234H201.526V485.204H199.429Z" fill="#D4D3F2" fill-opacity="0.1"/>
<path d="M207.66 475.234C208.018 475.234 208.274 475.387 208.427 475.745L210.524 479.273L212.62 475.745C212.722 475.592 212.824 475.438 212.927 475.387C213.029 475.285 213.182 475.234 213.387 475.234H215.227L211.546 481.267V485.204H209.45V481.267L205.769 475.234H207.66Z" fill="#D4D3F2" fill-opacity="0.1"/>
<path d="M218.193 484.948C217.58 484.693 217.068 484.335 216.659 483.875C216.25 483.415 215.893 482.903 215.688 482.239C215.432 481.625 215.33 480.96 215.33 480.193C215.33 479.427 215.432 478.762 215.688 478.148C215.944 477.535 216.25 476.972 216.659 476.512C217.068 476.052 217.58 475.694 218.193 475.438C218.807 475.183 219.472 475.081 220.238 475.081C221.005 475.081 221.67 475.183 222.284 475.438C222.897 475.694 223.408 476.052 223.818 476.512C224.227 476.972 224.584 477.484 224.789 478.148C225.045 478.762 225.147 479.427 225.147 480.193C225.147 480.96 225.045 481.625 224.789 482.239C224.533 482.852 224.227 483.415 223.818 483.875C223.408 484.335 222.846 484.693 222.284 484.948C221.721 485.204 221.005 485.306 220.238 485.306C219.472 485.306 218.807 485.204 218.193 484.948ZM222.284 482.545C222.795 481.983 223.051 481.216 223.051 480.245C223.051 479.222 222.795 478.455 222.284 477.893C221.772 477.33 221.108 477.075 220.238 477.075C219.369 477.075 218.705 477.33 218.193 477.893C217.682 478.455 217.426 479.222 217.426 480.245C217.426 481.216 217.682 482.034 218.193 482.545C218.705 483.108 219.369 483.363 220.238 483.363C221.108 483.415 221.772 483.108 222.284 482.545Z" fill="#D4D3F2" fill-opacity="0.1"/>
<path d="M229.135 484.999C228.624 484.795 228.215 484.488 227.857 484.13C227.499 483.772 227.243 483.312 227.039 482.852C226.834 482.392 226.732 481.829 226.732 481.216V475.234H228.777V481.216C228.777 481.523 228.828 481.829 228.931 482.085C229.033 482.341 229.135 482.596 229.34 482.801C229.493 483.005 229.697 483.159 229.953 483.261C230.209 483.363 230.464 483.414 230.771 483.414C231.385 483.414 231.896 483.21 232.254 482.801C232.612 482.392 232.765 481.88 232.765 481.216V475.234H234.861V481.216C234.861 481.778 234.759 482.341 234.606 482.852C234.401 483.363 234.146 483.772 233.788 484.13C233.43 484.488 233.021 484.795 232.51 484.999C231.998 485.204 231.436 485.306 230.822 485.306C230.158 485.306 229.646 485.204 229.135 484.999Z" fill="#D4D3F2" fill-opacity="0.1"/>
<path d="M243.247 486.278V473.496H244.934V486.278H243.247Z" fill="#D4D3F2" fill-opacity="0.1"/>
</g>
</svg>
