<svg width="1449" height="473" viewBox="0 0 1449 473" fill="none" xmlns="http://www.w3.org/2000/svg">
<rect width="1449" height="473" fill="#2F2B73"/>
<g opacity="0.45">
<path d="M701.177 30.667C697.1 32.6235 693.432 34.254 689.845 36.0475C672.155 44.9334 662.861 60.0151 660.334 80.1511C657.97 99.3905 657.97 119.527 657.888 139.581C657.807 179.119 657.97 218.658 658.133 258.278C658.133 261.05 657.154 261.865 654.22 261.783C636.937 261.62 619.736 261.702 602.453 261.702C602.208 261.294 601.882 260.886 601.882 260.642C602.371 207.978 601.148 154.744 602.942 102.488C603.431 87.4882 605.062 73.0587 612.073 61.2379C623.241 42.4062 642.236 32.542 667.426 29.6887C677.943 28.5474 688.948 28.792 701.177 30.667Z" fill="#D4D3F2" fill-opacity="0.1"/>
<path d="M769.574 30.6667C765.905 32.2971 762.808 33.683 759.791 35.1504C739.818 44.5255 730.117 61.4822 728.079 83.9824C725.552 111.945 726.122 140.967 726.041 169.826C726.041 199.255 726.204 228.685 726.448 258.196C726.448 260.805 725.715 261.864 722.617 261.864C706.068 261.701 689.6 261.701 673.214 261.783C670.769 261.783 670.116 261.457 670.116 259.011C670.524 206.918 669.872 154.418 671.013 102.57C671.339 87.6509 673.296 73.3844 680.144 61.6452C691.312 42.4059 710.47 32.2971 736.313 29.7699C746.585 28.7101 757.427 29.0362 769.574 30.6667Z" fill="#D4D3F2" fill-opacity="0.1"/>
<path d="M804.873 261.784C804.873 240.18 804.873 219.229 804.792 198.196C804.629 167.951 805.281 137.869 804.139 107.299C803.813 97.3528 802.427 87.244 797.944 76.4831C792.645 63.8471 783.433 53.2492 770.715 44.8523C766.476 42.0806 767.617 41.4284 769.574 40.0425C784.819 29.2815 819.873 33.1946 844.085 67.7601C854.439 82.5157 857.944 97.0267 859.167 111.212C860.961 132.244 859.819 152.299 859.901 172.843C860.064 201.539 859.819 230.071 859.738 258.686C859.738 260.153 860.308 261.865 857.781 261.865C840.335 261.702 822.89 261.784 804.873 261.784Z" fill="#D4D3F2" fill-opacity="0.1"/>
<path d="M738.351 261.783C738.269 247.353 738.106 233.494 738.188 219.635C738.269 179.689 737.046 139.254 738.432 99.7974C739.003 83.4114 741.612 68.0037 750.253 55.7753C752.536 52.4329 755.389 49.5796 758.242 46.7263C759.465 45.5034 760.606 45.585 762.726 47.2154C781.069 60.6666 790.362 76.482 791.748 93.6017C793.378 113.982 792.645 133.629 792.808 153.602C792.971 188.657 792.889 223.63 792.971 258.603C792.971 261.049 792.156 261.864 789.465 261.864C772.59 261.701 755.797 261.783 738.351 261.783Z" fill="#D4D3F2" fill-opacity="0.1"/>
<path d="M415.929 368.252C416.174 368.334 416.419 368.578 416.582 368.986L422.859 380.236L429.055 368.986C429.299 368.578 429.544 368.334 429.707 368.252C429.87 368.171 430.277 368.089 430.685 368.089H433.375V388.633H429.462V376.16L424.652 384.801C424.408 385.127 424.163 385.453 423.837 385.616C423.511 385.779 423.185 385.861 422.777 385.861C422.451 385.861 422.044 385.779 421.717 385.616C421.391 385.453 421.147 385.209 420.902 384.801L416.011 376.078V388.633H412.098V368.089H414.788C415.359 368.171 415.685 368.171 415.929 368.252Z" fill="#D4D3F2" fill-opacity="0.1"/>
<path d="M447.723 368.171L455.875 388.714H452.696C451.881 388.714 451.31 388.307 450.984 387.573L449.435 383.578H442.18L440.631 387.491C440.549 387.818 440.305 388.062 440.06 388.307C439.734 388.551 439.408 388.633 439 388.633H435.821L444.055 368.089H447.723V368.171ZM448.049 379.991L445.848 374.203L443.647 379.991H448.049Z" fill="#D4D3F2" fill-opacity="0.1"/>
<path d="M461.174 368.334C461.419 368.415 461.582 368.66 461.826 368.986L471.12 381.051C471.12 380.888 471.12 380.725 471.12 380.481V379.91V368.171H475.033V388.633H472.914C472.506 388.633 472.261 388.551 472.017 388.47C471.772 388.388 471.528 388.144 471.365 387.818L462.071 375.752V388.633H458.158V368.089H460.359C460.685 368.171 461.011 368.171 461.174 368.334Z" fill="#D4D3F2" fill-opacity="0.1"/>
<path d="M478.783 388.633V368.089H483.022V388.633H478.783Z" fill="#D4D3F2" fill-opacity="0.1"/>
<path d="M500.468 388.633V368.089H504.707V384.72H512.86V388.551H500.468V388.633Z" fill="#D4D3F2" fill-opacity="0.1"/>
<path d="M525.903 368.171L534.056 388.714H530.876C530.061 388.714 529.49 388.307 529.164 387.573L527.615 383.578H520.36L518.811 387.491C518.729 387.818 518.485 388.062 518.24 388.307C517.914 388.551 517.588 388.633 517.18 388.633H514.001L522.235 368.089H525.903V368.171ZM526.311 379.991L524.11 374.203L521.909 379.991H526.311Z" fill="#D4D3F2" fill-opacity="0.1"/>
<path d="M535.931 368.17C536.827 368.17 537.398 368.578 537.643 369.393L541.066 380.969L544.98 369.312C545.061 368.986 545.306 368.741 545.55 368.496C545.876 368.252 546.202 368.17 546.61 368.17H547.344C548.24 368.17 548.73 368.578 549.056 369.393L552.969 381.051L556.393 369.393C556.474 369.067 556.719 368.823 556.963 368.578C557.289 368.333 557.616 368.252 558.105 368.252H561.203L554.844 388.796H551.338L546.936 375.507L542.534 388.796H538.947L532.588 368.252H535.931V368.17Z" fill="#D4D3F2" fill-opacity="0.1"/>
<path d="M570.17 388.633V368.089H583.458V371.921H574.409V376.731H582.154V380.562H574.409V388.633H570.17Z" fill="#D4D3F2" fill-opacity="0.1"/>
<path d="M586.474 388.633V368.089H590.714V388.633H586.474Z" fill="#D4D3F2" fill-opacity="0.1"/>
<path d="M594.464 368.17H600.578C603.268 368.17 605.225 368.741 606.447 369.801C607.67 370.861 608.322 372.328 608.322 374.203C608.322 375.507 607.996 376.73 607.344 377.627C606.692 378.524 605.714 379.339 604.491 379.91C604.572 380.073 604.735 380.236 604.817 380.399C604.898 380.562 605.062 380.725 605.225 380.888L610.931 388.633H606.937C606.284 388.633 605.714 388.306 605.225 387.736L600.333 381.051C600.252 380.969 600.252 380.888 600.17 380.888C600.089 380.888 600.007 380.806 599.844 380.806H598.784V388.633H594.545V368.17H594.464ZM598.621 377.219H600.415C601.638 377.219 602.534 376.975 603.105 376.404C603.676 375.915 604.002 375.181 604.002 374.366C604.002 372.736 602.779 371.92 600.415 371.839H598.458V377.219H598.621Z" fill="#D4D3F2" fill-opacity="0.1"/>
<path d="M616.393 368.252C616.638 368.334 616.882 368.578 617.045 368.986L623.323 380.236L629.518 368.986C629.763 368.578 630.007 368.334 630.17 368.252C630.333 368.171 630.741 368.089 631.149 368.089H633.839V388.633H629.926V376.16L625.116 384.801C624.871 385.127 624.627 385.453 624.301 385.616C623.975 385.779 623.649 385.861 623.241 385.861C622.915 385.861 622.507 385.779 622.181 385.616C621.855 385.453 621.611 385.209 621.366 384.801L616.475 376.078V388.633H612.562V368.089H615.252C615.822 368.171 616.149 368.171 616.393 368.252Z" fill="#D4D3F2" fill-opacity="0.1"/>
<path d="M654.709 368.171L662.861 388.714H659.682C658.866 388.714 658.296 388.307 657.97 387.573L656.421 383.578H649.165L647.616 387.491C647.535 387.818 647.29 388.062 647.046 388.307C646.719 388.551 646.393 388.633 645.986 388.633H642.806L651.04 368.089H654.709V368.171ZM655.035 379.991L652.834 374.203L650.633 379.991H655.035Z" fill="#D4D3F2" fill-opacity="0.1"/>
<path d="M668.241 368.334C668.486 368.415 668.649 368.66 668.894 368.986L678.187 381.051C678.187 380.888 678.187 380.725 678.187 380.481V379.91V368.171H682.1V388.633H679.981C679.573 388.633 679.328 388.551 679.084 388.47C678.839 388.388 678.595 388.144 678.432 387.818L669.138 375.752V388.633H665.225V368.089H667.426C667.752 368.171 667.997 368.171 668.241 368.334Z" fill="#D4D3F2" fill-opacity="0.1"/>
<path d="M685.769 368.17H693.676C695.225 368.17 696.611 368.415 697.834 368.904C699.057 369.393 700.117 370.127 701.013 371.024C701.91 371.92 702.562 372.98 703.052 374.285C703.541 375.589 703.785 376.975 703.785 378.442C703.785 379.91 703.541 381.295 703.052 382.6C702.562 383.823 701.91 384.964 701.013 385.861C700.117 386.757 699.057 387.491 697.834 387.98C696.611 388.469 695.225 388.714 693.676 388.714H685.769V368.17ZM697.916 383.171C698.975 382.029 699.465 380.48 699.465 378.442C699.465 376.404 698.975 374.774 697.916 373.714C696.856 372.573 695.47 372.002 693.676 372.002H690.089V384.883H693.676C695.47 384.883 696.856 384.312 697.916 383.171Z" fill="#D4D3F2" fill-opacity="0.1"/>
<path d="M713.812 388.633V368.089H718.052V384.72H726.204V388.551H713.812V388.633Z" fill="#D4D3F2" fill-opacity="0.1"/>
<path d="M729.302 388.633V368.089H742.59V371.921H733.541V376.404H740.878V380.154H733.541V384.883H742.59V388.714H729.302V388.633Z" fill="#D4D3F2" fill-opacity="0.1"/>
<path d="M751.639 388.143C750.335 387.654 749.193 386.92 748.215 386.024C747.237 385.127 746.503 383.985 746.014 382.763C745.443 381.458 745.199 379.991 745.199 378.442C745.199 376.893 745.443 375.426 745.932 374.121C746.421 372.817 747.155 371.757 748.052 370.779C748.949 369.801 750.09 369.148 751.394 368.659C752.699 368.17 754.085 367.926 755.633 367.926C758.568 367.926 761.177 368.985 763.378 371.023C763.215 371.35 762.97 371.594 762.807 371.92C762.644 372.246 762.481 372.491 762.237 372.817C761.992 373.143 761.829 373.306 761.666 373.388C761.503 373.469 761.259 373.551 761.095 373.551C760.932 373.551 760.769 373.551 760.606 373.469C760.28 373.306 759.954 373.143 759.628 372.98C759.384 372.817 759.057 372.654 758.731 372.491C758.405 372.328 757.998 372.165 757.508 372.083C757.019 371.92 756.367 371.92 755.633 371.92C754.737 371.92 753.84 372.083 753.106 372.409C752.373 372.735 751.72 373.143 751.15 373.714C750.661 374.284 750.253 374.937 749.927 375.752C749.601 376.567 749.519 377.464 749.519 378.442C749.519 380.562 750.09 382.192 751.231 383.333C752.373 384.475 753.921 385.127 755.878 385.127C756.53 385.127 757.182 385.045 757.753 384.964C758.324 384.801 758.813 384.638 759.302 384.393V381.621H757.264C756.856 381.621 756.449 381.54 756.204 381.295C755.96 381.051 755.797 380.725 755.797 380.317V377.953H763.297V386.431C762.155 387.246 761.014 387.899 759.791 388.306C758.568 388.714 757.264 388.958 755.878 388.958C754.411 388.877 752.943 388.632 751.639 388.143Z" fill="#D4D3F2" fill-opacity="0.1"/>
<path d="M776.422 368.171L784.574 388.714H781.395C780.579 388.714 780.009 388.307 779.683 387.573L778.134 383.578H770.878L769.329 387.491C769.248 387.818 769.003 388.062 768.759 388.307C768.433 388.551 768.106 388.633 767.699 388.633H764.52L772.753 368.089H776.422V368.171ZM776.748 379.991L774.547 374.203L772.346 379.991H776.748Z" fill="#D4D3F2" fill-opacity="0.1"/>
<path d="M786.857 388.633V368.089H791.096V384.72H799.248V388.551H786.857V388.633Z" fill="#D4D3F2" fill-opacity="0.1"/>
<path d="M817.754 388.714C816.205 388.714 814.819 388.47 813.596 387.899C812.373 387.328 811.395 386.595 810.498 385.616C809.683 384.638 809.031 383.578 808.542 382.274C808.134 380.97 807.889 379.665 807.889 378.198C807.889 376.73 808.134 375.344 808.623 374.04C809.112 372.736 809.764 371.676 810.661 370.698C811.558 369.719 812.618 369.067 813.841 368.497C815.063 367.926 816.449 367.681 817.998 367.681C819.466 367.681 820.77 367.926 821.993 368.497C823.216 369.067 824.357 369.801 825.335 370.779L824.357 372.247C823.949 372.817 823.46 373.143 822.89 373.143C822.4 373.143 821.993 372.98 821.504 372.654C821.014 372.328 820.525 372.084 819.955 371.921C819.384 371.758 818.732 371.676 817.917 371.676C817.02 371.676 816.286 371.839 815.552 372.084C814.819 372.41 814.248 372.817 813.759 373.388C813.27 373.959 812.862 374.611 812.618 375.426C812.373 376.241 812.21 377.138 812.21 378.198C812.21 379.258 812.373 380.154 812.618 380.97C812.944 381.785 813.27 382.437 813.841 383.008C814.33 383.578 814.982 383.986 815.634 384.312C816.286 384.638 817.101 384.72 817.835 384.72C818.569 384.72 819.221 384.557 819.955 384.312C820.688 384.067 821.259 383.741 821.748 383.415C822.237 383.171 822.726 383.008 823.216 383.008C823.868 383.008 824.357 383.252 824.765 383.823L825.58 384.883C823.542 387.41 820.933 388.714 817.754 388.714Z" fill="#D4D3F2" fill-opacity="0.1"/>
<path d="M833.895 388.062C832.672 387.573 831.613 386.839 830.716 385.861C829.819 384.883 829.167 383.823 828.678 382.519C828.189 381.214 827.944 379.829 827.944 378.361C827.944 376.894 828.189 375.426 828.678 374.203C829.167 372.981 829.819 371.839 830.716 370.861C831.613 369.964 832.672 369.231 833.895 368.66C835.118 368.171 836.504 367.845 838.053 367.845C839.602 367.845 840.988 368.089 842.21 368.66C843.433 369.149 844.493 369.883 845.39 370.861C846.287 371.758 846.939 372.899 847.428 374.203C847.917 375.508 848.162 376.894 848.162 378.361C848.162 379.829 847.917 381.296 847.428 382.519C846.939 383.823 846.287 384.883 845.39 385.861C844.493 386.758 843.433 387.492 842.21 388.062C840.988 388.551 839.602 388.878 838.053 388.878C836.504 388.878 835.118 388.633 833.895 388.062ZM842.292 383.171C843.352 382.03 843.841 380.399 843.841 378.361C843.841 376.323 843.352 374.693 842.292 373.551C841.232 372.41 839.846 371.839 838.053 371.839C836.259 371.839 834.873 372.41 833.814 373.551C832.754 374.693 832.265 376.323 832.265 378.361C832.265 380.399 832.754 382.03 833.814 383.171C834.873 384.312 836.259 384.883 838.053 384.883C839.846 384.883 841.232 384.312 842.292 383.171Z" fill="#D4D3F2" fill-opacity="0.1"/>
<path d="M854.683 368.334C854.928 368.415 855.091 368.66 855.336 368.986L864.629 381.051C864.629 380.888 864.629 380.725 864.629 380.481V379.91V368.171H868.542V388.633H866.423C866.015 388.633 865.77 388.551 865.526 388.47C865.281 388.388 865.037 388.144 864.874 387.818L855.58 375.752V388.633H851.667V368.089H853.868C854.194 368.171 854.52 368.171 854.683 368.334Z" fill="#D4D3F2" fill-opacity="0.1"/>
<path d="M874.493 387.981C873.352 387.41 872.292 386.595 871.314 385.617L872.374 383.823C872.537 383.579 872.7 383.334 872.944 383.252C873.107 383.171 873.352 383.089 873.515 383.089C873.76 383.089 874.004 383.171 874.33 383.252C874.575 383.416 874.819 383.579 875.146 383.742C875.716 384.149 876.205 384.394 876.694 384.638C877.184 384.883 877.754 384.964 878.406 384.964C879.303 384.964 880.037 384.72 880.607 384.231C881.178 383.742 881.423 383.171 881.423 382.356C881.423 382.03 881.341 381.704 881.178 381.459C881.015 381.214 880.771 380.97 880.444 380.807C880.118 380.644 879.792 380.481 879.385 380.318C878.977 380.155 878.569 380.073 878.162 379.91C877.51 379.747 876.776 379.502 876.124 379.258C875.472 379.013 874.819 378.606 874.249 378.198C873.678 377.79 873.271 377.138 872.944 376.486C872.618 375.752 872.455 374.937 872.455 373.877C872.455 372.981 872.618 372.084 873.026 371.35C873.352 370.616 873.841 369.964 874.493 369.475C875.064 368.986 875.798 368.578 876.613 368.252C877.428 368.008 878.243 367.845 879.14 367.845C881.504 367.845 883.542 368.741 885.336 370.453L884.439 372.165C884.113 372.736 883.705 373.062 883.216 373.062C882.972 373.062 882.727 372.981 882.401 372.818C882.075 372.655 881.83 372.491 881.667 372.41C881.423 372.247 881.26 372.165 881.015 372.002C880.771 371.921 880.526 371.758 880.281 371.758C880.037 371.676 879.629 371.676 879.303 371.676C878.406 371.676 877.754 371.839 877.347 372.247C876.939 372.655 876.694 373.144 876.694 373.714C876.694 374.04 876.776 374.285 876.939 374.53C877.102 374.774 877.347 374.937 877.673 375.182C877.999 375.345 878.325 375.508 878.732 375.671C879.14 375.834 879.548 375.915 879.955 376.078C880.608 376.323 881.341 376.568 881.993 376.812C882.727 377.057 883.298 377.464 883.868 377.872C884.439 378.28 884.847 378.85 885.173 379.502C885.499 380.155 885.662 380.97 885.662 382.03C885.662 383.089 885.499 383.986 885.091 384.883C884.765 385.698 884.195 386.432 883.542 387.003C882.89 387.573 882.156 388.062 881.26 388.388C880.363 388.714 879.466 388.878 878.406 388.878C876.858 388.878 875.635 388.633 874.493 387.981Z" fill="#D4D3F2" fill-opacity="0.1"/>
<path d="M892.999 388.225C891.939 387.818 891.124 387.165 890.39 386.432C889.656 385.698 889.086 384.801 888.76 383.741C888.352 382.682 888.189 381.622 888.189 380.399V368.089H892.428V380.399C892.428 381.051 892.51 381.622 892.754 382.192C892.917 382.763 893.243 383.252 893.57 383.66C893.896 384.068 894.385 384.394 894.874 384.557C895.363 384.801 895.934 384.883 896.586 384.883C897.89 384.883 898.869 384.475 899.602 383.66C900.336 382.845 900.662 381.785 900.662 380.481V368.171H904.901V380.481C904.901 381.703 904.738 382.763 904.331 383.823C903.923 384.883 903.434 385.698 902.7 386.513C901.966 387.247 901.07 387.899 900.091 388.307C899.032 388.714 897.89 388.959 896.586 388.959C895.2 388.877 894.059 388.633 892.999 388.225Z" fill="#D4D3F2" fill-opacity="0.1"/>
<path d="M908.57 388.633V368.089H912.809V384.72H920.961V388.551H908.57V388.633Z" fill="#D4D3F2" fill-opacity="0.1"/>
<path d="M926.505 388.633V372.002H920.39V368.17H936.776V372.002H930.662V388.633H926.505Z" fill="#D4D3F2" fill-opacity="0.1"/>
<path d="M947.619 368.171L955.771 388.714H952.592C951.776 388.714 951.206 388.307 950.88 387.573L949.331 383.578H942.075L940.526 387.491C940.445 387.818 940.2 388.062 939.956 388.307C939.63 388.551 939.304 388.633 938.896 388.633H935.717L943.95 368.089H947.619V368.171ZM947.945 379.991L945.744 374.203L943.543 379.991H947.945Z" fill="#D4D3F2" fill-opacity="0.1"/>
<path d="M960.663 388.633V372.002H954.548V368.17H971.016V372.002H964.902V388.633H960.663Z" fill="#D4D3F2" fill-opacity="0.1"/>
<path d="M974.195 388.633V368.089H978.434V388.633H974.195Z" fill="#D4D3F2" fill-opacity="0.1"/>
<path d="M987.321 388.062C986.098 387.573 985.038 386.839 984.141 385.861C983.244 384.883 982.592 383.823 982.103 382.519C981.614 381.214 981.369 379.829 981.369 378.361C981.369 376.894 981.614 375.426 982.103 374.203C982.592 372.981 983.244 371.839 984.141 370.861C985.038 369.964 986.098 369.231 987.321 368.66C988.543 368.171 989.929 367.845 991.478 367.845C993.027 367.845 994.413 368.089 995.636 368.66C996.859 369.149 997.918 369.883 998.815 370.861C999.712 371.758 1000.36 372.899 1000.85 374.203C1001.34 375.508 1001.59 376.894 1001.59 378.361C1001.59 379.829 1001.34 381.296 1000.85 382.519C1000.36 383.823 999.712 384.883 998.815 385.861C997.918 386.758 996.859 387.492 995.636 388.062C994.413 388.551 993.027 388.878 991.478 388.878C989.929 388.878 988.543 388.633 987.321 388.062ZM995.717 383.171C996.777 382.03 997.266 380.399 997.266 378.361C997.266 376.323 996.777 374.693 995.717 373.551C994.658 372.41 993.272 371.839 991.478 371.839C989.685 371.839 988.299 372.41 987.239 373.551C986.179 374.693 985.69 376.323 985.69 378.361C985.69 380.399 986.179 382.03 987.239 383.171C988.299 384.312 989.685 384.883 991.478 384.883C993.272 384.883 994.658 384.312 995.717 383.171Z" fill="#D4D3F2" fill-opacity="0.1"/>
<path d="M1008.11 368.334C1008.35 368.415 1008.52 368.66 1008.76 368.986L1018.05 381.051C1018.05 380.888 1018.05 380.725 1018.05 380.481V379.91V368.171H1021.97V388.633H1019.85C1019.44 388.633 1019.2 388.551 1018.95 388.47C1018.71 388.388 1018.46 388.144 1018.3 387.818L1009.01 375.752V388.633H1005.09V368.089H1007.29C1007.62 368.171 1007.95 368.171 1008.11 368.334Z" fill="#D4D3F2" fill-opacity="0.1"/>
<path d="M1027.84 387.981C1026.7 387.41 1025.64 386.595 1024.66 385.617L1025.72 383.823C1025.88 383.579 1026.04 383.334 1026.29 383.252C1026.45 383.171 1026.7 383.089 1026.86 383.089C1027.1 383.089 1027.35 383.171 1027.67 383.252C1027.92 383.416 1028.16 383.579 1028.49 383.742C1029.06 384.149 1029.55 384.394 1030.04 384.638C1030.53 384.883 1031.1 384.964 1031.75 384.964C1032.65 384.964 1033.38 384.72 1033.95 384.231C1034.52 383.742 1034.77 383.171 1034.77 382.356C1034.77 382.03 1034.69 381.704 1034.52 381.459C1034.36 381.214 1034.11 380.97 1033.79 380.807C1033.46 380.644 1033.14 380.481 1032.73 380.318C1032.32 380.155 1031.91 380.073 1031.51 379.91C1030.85 379.747 1030.12 379.502 1029.47 379.258C1028.82 379.013 1028.16 378.606 1027.59 378.198C1027.02 377.79 1026.61 377.138 1026.29 376.486C1025.96 375.752 1025.8 374.937 1025.8 373.877C1025.8 372.981 1025.96 372.084 1026.37 371.35C1026.7 370.616 1027.18 369.964 1027.84 369.475C1028.41 368.986 1029.14 368.578 1029.96 368.252C1030.77 368.008 1031.59 367.845 1032.48 367.845C1034.85 367.845 1036.89 368.741 1038.68 370.453L1037.78 372.165C1037.46 372.736 1037.05 373.062 1036.56 373.062C1036.32 373.062 1036.07 372.981 1035.74 372.818C1035.42 372.655 1035.17 372.491 1035.01 372.41C1034.77 372.247 1034.6 372.165 1034.36 372.002C1034.11 371.921 1033.87 371.758 1033.63 371.758C1033.38 371.676 1032.97 371.676 1032.65 371.676C1031.75 371.676 1031.1 371.839 1030.69 372.247C1030.28 372.655 1030.04 373.144 1030.04 373.714C1030.04 374.04 1030.12 374.285 1030.28 374.53C1030.45 374.774 1030.69 374.937 1031.02 375.182C1031.34 375.345 1031.67 375.508 1032.08 375.671C1032.48 375.834 1032.89 375.915 1033.3 376.078C1033.95 376.323 1034.69 376.568 1035.34 376.812C1036.07 377.057 1036.64 377.464 1037.21 377.872C1037.78 378.28 1038.19 378.85 1038.52 379.502C1038.84 380.155 1039.01 380.97 1039.01 382.03C1039.01 383.089 1038.84 383.986 1038.44 384.883C1038.11 385.698 1037.54 386.432 1036.89 387.003C1036.23 387.573 1035.5 388.062 1034.6 388.388C1033.71 388.714 1032.81 388.878 1031.75 388.878C1030.28 388.878 1029.06 388.633 1027.84 387.981Z" fill="#D4D3F2" fill-opacity="0.1"/>
<path d="M422.777 344.447H417.234C415.685 344.447 414.38 344.121 413.321 343.469C412.261 342.817 411.446 342.002 410.793 341.023C410.141 340.045 409.734 338.904 409.408 337.681C409.163 336.458 409 335.235 409 334.013C409 332.545 409.163 331.241 409.571 329.936C409.978 328.632 410.467 327.491 411.283 326.512C412.016 325.534 412.995 324.719 414.136 324.148C415.277 323.578 416.663 323.252 418.212 323.252C418.864 323.252 419.516 323.333 420.087 323.496C420.658 323.659 421.228 323.822 421.636 324.067C422.207 324.311 422.696 324.556 423.103 324.882C423.348 324.393 423.593 324.067 423.919 323.904C424.245 323.741 424.571 323.578 424.815 323.578H427.75V339.393C427.75 339.475 427.832 339.556 427.913 339.556H431.011V344.529H428.728C427.587 344.529 426.527 344.203 425.712 343.551C424.897 344.04 423.919 344.447 422.777 344.447ZM413.565 320.154C412.995 319.583 412.669 318.849 412.669 318.034C412.669 317.219 412.995 316.485 413.565 315.915C414.136 315.344 414.87 315.018 415.685 315.018C416.5 315.018 417.234 315.344 417.804 315.915C418.375 316.485 418.701 317.219 418.701 318.034C418.701 318.849 418.375 319.583 417.804 320.154C417.234 320.724 416.5 321.05 415.685 321.05C414.87 320.969 414.136 320.724 413.565 320.154ZM416.989 328.551C416.5 328.877 416.092 329.284 415.766 329.773C415.44 330.344 415.196 330.915 415.114 331.648C415.033 332.382 414.951 333.034 414.951 333.849C414.951 334.42 415.033 335.072 415.114 335.725C415.196 336.377 415.359 337.029 415.603 337.6C415.848 338.17 416.174 338.578 416.663 338.985C417.152 339.311 417.723 339.556 418.457 339.556H422.207C422.288 339.556 422.288 339.556 422.288 339.556V329.61C421.473 328.714 420.413 328.224 419.109 328.224C418.131 328.061 417.478 328.224 416.989 328.551ZM420.821 320.154C420.25 319.583 419.924 318.849 419.924 318.034C419.924 317.219 420.25 316.485 420.821 315.915C421.391 315.344 422.125 315.018 422.94 315.018C423.756 315.018 424.489 315.344 425.06 315.915C425.631 316.485 425.957 317.219 425.957 318.034C425.957 318.849 425.631 319.583 425.06 320.154C424.489 320.724 423.756 321.05 422.94 321.05C422.044 320.969 421.391 320.724 420.821 320.154Z" fill="#D4D3F2" fill-opacity="0.1"/>
<path d="M430.114 344.366C429.87 344.366 429.707 344.366 429.462 344.284C429.299 344.284 429.136 344.203 428.973 344.04C428.81 343.958 428.81 343.795 428.81 343.55V340.208C428.81 340.045 428.892 339.882 429.055 339.8C429.218 339.719 429.381 339.637 429.544 339.556C429.707 339.474 429.951 339.474 430.196 339.474C430.44 339.474 430.603 339.474 430.767 339.474H437.207V323.496H442.913V339.311C442.913 339.393 442.995 339.474 443.076 339.474H446.174V344.447H443.892C442.75 344.447 441.691 344.121 440.875 343.469C440.06 344.121 439.082 344.447 437.859 344.447H430.685C430.522 344.447 430.359 344.366 430.114 344.366ZM432.805 351.377C432.234 350.806 431.908 350.072 431.908 349.257C431.908 348.442 432.234 347.708 432.805 347.137C433.375 346.567 434.109 346.241 434.924 346.241C435.739 346.241 436.473 346.567 437.044 347.137C437.614 347.708 437.941 348.442 437.941 349.257C437.941 350.072 437.614 350.806 437.044 351.377C436.473 351.947 435.739 352.273 434.924 352.273C434.109 352.192 433.375 351.947 432.805 351.377ZM439.979 351.377C439.408 350.806 439.082 350.072 439.082 349.257C439.082 348.442 439.408 347.708 439.979 347.137C440.549 346.567 441.283 346.241 442.098 346.241C442.913 346.241 443.647 346.567 444.218 347.137C444.788 347.708 445.114 348.442 445.114 349.257C445.114 350.072 444.788 350.806 444.218 351.377C443.647 351.947 442.913 352.273 442.098 352.273C441.283 352.192 440.631 351.947 439.979 351.377Z" fill="#D4D3F2" fill-opacity="0.1"/>
<path d="M445.033 344.366C444.788 344.366 444.625 344.366 444.381 344.284C444.218 344.284 444.055 344.203 443.892 344.04C443.729 343.958 443.729 343.795 443.729 343.551V340.208C443.729 340.045 443.81 339.882 443.973 339.801C444.136 339.719 444.299 339.638 444.462 339.556C444.625 339.474 444.87 339.475 445.114 339.475C445.359 339.475 445.522 339.475 445.685 339.475H452.125C452.207 339.475 452.207 339.475 452.207 339.475V323.496H457.832V339.475C457.832 340.127 457.669 340.779 457.424 341.35C457.18 342.002 456.854 342.491 456.364 342.98C455.875 343.469 455.386 343.795 454.734 344.04C454.082 344.284 453.511 344.447 452.778 344.447H445.604C445.522 344.447 445.277 344.366 445.033 344.366ZM452.859 319.828C452.288 319.257 451.962 318.523 451.962 317.708C451.962 316.893 452.288 316.159 452.859 315.588C453.43 315.018 454.163 314.692 454.979 314.692C455.794 314.692 456.528 315.018 457.098 315.588C457.669 316.159 457.995 316.893 457.995 317.708C457.995 318.523 457.669 319.257 457.098 319.828C456.528 320.398 455.794 320.724 454.979 320.724C454.163 320.643 453.43 320.398 452.859 319.828Z" fill="#D4D3F2" fill-opacity="0.1"/>
<path d="M472.506 344.448C470.876 344.448 469.49 344.203 468.267 343.714C467.044 343.225 465.984 342.491 465.087 341.595C464.191 340.698 463.539 339.556 463.131 338.252C462.642 336.948 462.479 335.48 462.479 333.931C462.479 332.382 462.723 330.997 463.131 329.692C463.539 328.388 464.191 327.247 465.006 326.35C465.821 325.372 466.881 324.638 468.185 324.149C469.408 323.578 470.876 323.333 472.506 323.333C474.136 323.333 475.522 323.578 476.745 324.067C477.968 324.556 479.028 325.29 479.925 326.268C480.74 327.247 481.392 328.306 481.881 329.611C482.37 330.915 482.533 332.382 482.533 333.931V339.556H485.387V344.529H482.533C482.533 345.589 482.289 346.567 481.881 347.464C481.473 348.361 480.821 349.176 480.006 349.828C479.191 350.48 478.213 350.97 476.99 351.377C475.767 351.785 474.381 351.948 472.832 351.948C471.609 351.948 470.713 351.866 469.979 351.703C469.245 351.54 468.593 351.377 468.104 351.133L468.348 348.524C468.43 348.035 468.593 347.709 468.838 347.464C469.164 347.22 469.49 347.057 469.897 347.057C472.343 347.057 474.136 346.893 475.196 346.486C476.256 346.16 476.827 345.508 476.827 344.529H472.506V344.448ZM476.827 339.475V333.85C476.827 333.116 476.745 332.382 476.582 331.649C476.419 330.997 476.175 330.344 475.848 329.855C475.522 329.366 475.033 328.959 474.463 328.632C473.892 328.306 473.24 328.143 472.424 328.143C471.609 328.143 470.876 328.306 470.386 328.632C469.897 328.959 469.408 329.366 469.082 329.855C468.756 330.344 468.511 330.997 468.348 331.73C468.185 332.464 468.185 333.198 468.185 333.931C468.185 334.665 468.267 335.317 468.43 335.969C468.593 336.622 468.838 337.192 469.164 337.763C469.49 338.334 469.979 338.66 470.468 338.986C471.039 339.312 471.691 339.475 472.506 339.475H476.827Z" fill="#D4D3F2" fill-opacity="0.1"/>
<path d="M484.408 344.366C484.164 344.366 484.001 344.366 483.756 344.284C483.593 344.284 483.43 344.203 483.267 344.04C483.104 343.958 483.104 343.795 483.104 343.551V340.208C483.104 340.045 483.185 339.882 483.348 339.801C483.511 339.719 483.675 339.638 483.838 339.556C484.001 339.474 484.245 339.475 484.49 339.475C484.734 339.475 484.897 339.475 485.06 339.475H491.501C491.582 339.475 491.582 339.475 491.582 339.475V323.496H497.207V339.475C497.207 340.127 497.044 340.779 496.8 341.35C496.555 342.002 496.229 342.491 495.74 342.98C495.251 343.469 494.762 343.795 494.109 344.04C493.457 344.284 492.887 344.447 492.153 344.447H484.979C484.816 344.447 484.571 344.366 484.408 344.366ZM492.153 319.828C491.582 319.257 491.256 318.523 491.256 317.708C491.256 316.893 491.582 316.159 492.153 315.588C492.724 315.018 493.457 314.692 494.272 314.692C495.088 314.692 495.821 315.018 496.392 315.588C496.963 316.159 497.289 316.893 497.289 317.708C497.289 318.523 496.963 319.257 496.392 319.828C495.821 320.398 495.088 320.724 494.272 320.724C493.457 320.643 492.724 320.398 492.153 319.828Z" fill="#D4D3F2" fill-opacity="0.1"/>
<path d="M507.724 344.447C507.072 344.447 506.419 344.284 505.767 344.04C505.115 343.795 504.626 343.387 504.137 342.98C503.648 342.491 503.321 342.002 503.077 341.349C502.832 340.697 502.669 340.127 502.669 339.474V315.099H508.294V339.474C508.294 339.474 508.294 339.474 508.376 339.474H511.555V344.447H507.724Z" fill="#D4D3F2" fill-opacity="0.1"/>
<path d="M510.577 344.447C510.414 344.447 510.169 344.447 509.925 344.447C509.68 344.447 509.517 344.447 509.273 344.366C509.11 344.366 508.947 344.284 508.784 344.121C508.62 344.04 508.62 343.877 508.62 343.632V340.29C508.62 340.127 508.702 339.964 508.865 339.882C509.028 339.801 509.191 339.719 509.354 339.638C509.517 339.556 509.762 339.556 510.006 339.556C510.251 339.556 510.414 339.556 510.577 339.556H516.121C515.305 337.926 514.816 336.051 514.816 333.931C514.816 332.382 515.061 330.996 515.468 329.692C515.876 328.387 516.528 327.246 517.343 326.349C518.159 325.371 519.218 324.637 520.441 324.148C521.664 323.659 523.131 323.333 524.762 323.333C526.392 323.333 527.778 323.578 529.083 324.148C530.305 324.637 531.365 325.371 532.262 326.349C533.077 327.246 533.729 328.387 534.219 329.692C534.708 330.996 534.871 332.464 534.871 334.012V339.638H537.724V344.61H510.577V344.447ZM519.218 319.828C518.648 319.257 518.322 318.523 518.322 317.708C518.322 316.893 518.648 316.159 519.218 315.588C519.789 315.018 520.523 314.692 521.338 314.692C522.153 314.692 522.887 315.018 523.458 315.588C524.028 316.159 524.354 316.893 524.354 317.708C524.354 318.523 524.028 319.257 523.458 319.828C522.887 320.398 522.153 320.724 521.338 320.724C520.523 320.643 519.789 320.398 519.218 319.828ZM529.164 333.849C529.164 333.116 529.083 332.382 529.001 331.648C528.838 330.996 528.675 330.344 528.267 329.855C527.941 329.366 527.534 328.958 526.963 328.632C526.392 328.306 525.74 328.143 524.925 328.143C524.11 328.143 523.458 328.306 522.887 328.55C522.316 328.877 521.909 329.203 521.583 329.773C521.256 330.262 521.012 330.833 520.849 331.567C520.686 332.219 520.604 332.953 520.604 333.768C520.604 334.502 520.686 335.235 520.849 335.969C521.012 336.621 521.256 337.273 521.583 337.763C521.909 338.252 522.398 338.659 522.887 338.985C523.458 339.311 524.11 339.393 524.925 339.393H529.164V333.849ZM526.392 319.828C525.822 319.257 525.496 318.523 525.496 317.708C525.496 316.893 525.822 316.159 526.392 315.588C526.963 315.018 527.697 314.692 528.512 314.692C529.327 314.692 530.061 315.018 530.632 315.588C531.202 316.159 531.528 316.893 531.528 317.708C531.528 318.523 531.202 319.257 530.632 319.828C530.061 320.398 529.327 320.724 528.512 320.724C527.697 320.643 526.963 320.398 526.392 319.828Z" fill="#D4D3F2" fill-opacity="0.1"/>
<path d="M542.86 339.393V315.018H548.485V339.393C548.485 340.045 548.322 340.697 548.077 341.268C547.833 341.92 547.425 342.409 547.018 342.899C546.528 343.388 546.039 343.714 545.387 343.958C544.735 344.203 544.164 344.366 543.431 344.366H537.398C537.235 344.366 536.99 344.366 536.746 344.366C536.501 344.366 536.338 344.366 536.094 344.284C535.931 344.284 535.767 344.203 535.604 344.04C535.441 343.958 535.441 343.795 535.441 343.551V340.208C535.441 340.045 535.523 339.882 535.686 339.801C535.849 339.719 536.012 339.638 536.175 339.556C536.338 339.475 536.583 339.475 536.827 339.475C537.072 339.475 537.235 339.475 537.398 339.475L542.86 339.393C542.86 339.475 542.778 339.475 542.86 339.393Z" fill="#D4D3F2" fill-opacity="0.1"/>
<path d="M553.295 344.447V315.099H558.92V344.447H553.295Z" fill="#D4D3F2" fill-opacity="0.1"/>
<path d="M577.181 343.551C576.04 342.98 575.061 342.165 574.246 341.186C573.431 340.208 572.86 339.067 572.453 337.762C572.045 336.458 571.882 335.072 571.882 333.686C571.882 332.219 572.127 330.833 572.616 329.284C573.105 327.735 573.92 326.431 575.143 325.208H576.284L577.996 326.92C578.404 327.409 578.567 327.817 578.648 328.306C578.73 328.795 578.648 329.284 578.404 329.855C578.078 330.425 577.915 331.078 577.752 331.648C577.67 332.3 577.589 332.953 577.589 333.605C577.589 334.339 577.67 334.991 577.833 335.724C577.996 336.377 578.241 337.029 578.567 337.599C578.893 338.17 579.301 338.578 579.871 338.904C580.442 339.23 581.094 339.393 581.828 339.393H595.768V323.415H601.393V339.393C601.393 340.045 601.23 340.697 600.985 341.268C600.741 341.92 600.415 342.409 599.926 342.898C599.437 343.388 598.947 343.714 598.295 343.958C597.643 344.203 597.072 344.366 596.339 344.366H581.094C579.708 344.447 578.404 344.121 577.181 343.551ZM581.176 325.616C580.605 325.045 580.279 324.311 580.279 323.496C580.279 322.681 580.605 321.947 581.176 321.376C581.746 320.806 582.48 320.48 583.295 320.48C584.11 320.48 584.844 320.806 585.415 321.376C585.985 321.947 586.311 322.681 586.311 323.496C586.311 324.311 585.985 325.045 585.415 325.616C584.844 326.186 584.11 326.512 583.295 326.512C582.48 326.431 581.746 326.186 581.176 325.616ZM588.431 325.616C587.86 325.045 587.534 324.311 587.534 323.496C587.534 322.681 587.86 321.947 588.431 321.376C589.002 320.806 589.735 320.48 590.551 320.48C591.366 320.48 592.1 320.806 592.67 321.376C593.241 321.947 593.567 322.681 593.567 323.496C593.567 324.311 593.241 325.045 592.67 325.616C592.1 326.186 591.366 326.512 590.551 326.512C589.735 326.431 589.002 326.186 588.431 325.616Z" fill="#D4D3F2" fill-opacity="0.1"/>
<path d="M606.284 344.447V315.099H611.909V344.447H606.284Z" fill="#D4D3F2" fill-opacity="0.1"/>
<path d="M614.926 350.969L615.252 348.279C615.333 347.871 615.415 347.627 615.496 347.463C615.578 347.3 615.741 347.137 615.986 347.056C616.149 346.974 616.393 346.974 616.638 346.974H617.534C618.594 346.974 619.083 346.404 619.083 345.344V323.496H624.708V345.344C624.708 347.3 624.138 348.931 623.078 350.072C622.018 351.214 620.388 351.866 618.268 351.866C617.29 351.784 616.23 351.54 614.926 350.969Z" fill="#D4D3F2" fill-opacity="0.1"/>
<path d="M634.573 344.447C633.921 344.447 633.268 344.284 632.616 344.04C631.964 343.795 631.475 343.387 630.986 342.98C630.497 342.491 630.17 342.002 629.926 341.349C629.681 340.697 629.518 340.127 629.518 339.474V315.099H635.143V339.474C635.143 339.474 635.143 339.474 635.225 339.474H638.404V344.447H634.573Z" fill="#D4D3F2" fill-opacity="0.1"/>
<path d="M663.595 328.061C663.35 327.49 663.269 326.92 663.187 326.349C663.187 325.778 663.432 325.289 663.921 324.8L666.122 322.68C668.649 325.289 669.872 328.224 669.872 331.485V339.311C669.872 339.393 669.953 339.392 670.035 339.392H673.133V344.365H670.85C669.709 344.365 668.731 344.039 667.915 343.387C667.1 344.039 666.04 344.365 664.899 344.365H661.149C659.845 344.365 658.703 344.039 657.725 343.387C656.91 344.039 655.932 344.365 654.709 344.365H650.959C649.654 344.365 648.513 344.039 647.535 343.387C646.72 344.039 645.741 344.365 644.518 344.365H637.344C637.181 344.365 636.937 344.365 636.692 344.365C636.448 344.365 636.285 344.365 636.04 344.284C635.877 344.284 635.714 344.202 635.551 344.039C635.388 343.958 635.388 343.795 635.388 343.55V340.208C635.388 340.045 635.469 339.882 635.633 339.8C635.796 339.719 635.959 339.637 636.122 339.556C636.285 339.474 636.529 339.474 636.774 339.474C637.018 339.474 637.181 339.474 637.344 339.474H643.785C643.866 339.474 643.866 339.474 643.866 339.474V326.104H649.491V339.392C649.491 339.474 649.573 339.474 649.654 339.474H653.894C653.975 339.474 653.975 339.474 653.975 339.474V326.104H659.6V339.392C659.6 339.474 659.682 339.474 659.763 339.474H664.002C664.084 339.474 664.084 339.474 664.084 339.474V331.566C664.247 330.262 664.002 329.121 663.595 328.061ZM650.714 322.028C650.144 321.458 649.817 320.724 649.817 319.909C649.817 319.093 650.144 318.36 650.714 317.789C651.285 317.218 652.019 316.892 652.834 316.892C653.649 316.892 654.383 317.218 654.953 317.789C655.524 318.36 655.85 319.093 655.85 319.909C655.85 320.724 655.524 321.458 654.953 322.028C654.383 322.599 653.649 322.925 652.834 322.925C652.019 322.925 651.285 322.599 650.714 322.028ZM654.383 315.996C653.812 315.425 653.486 314.691 653.486 313.876C653.486 313.061 653.812 312.327 654.383 311.756C654.953 311.186 655.687 310.86 656.502 310.86C657.318 310.86 658.051 311.186 658.622 311.756C659.193 312.327 659.519 313.061 659.519 313.876C659.519 314.691 659.193 315.425 658.622 315.996C658.051 316.566 657.318 316.892 656.502 316.892C655.687 316.892 654.953 316.566 654.383 315.996ZM657.97 322.028C657.399 321.458 657.073 320.724 657.073 319.909C657.073 319.093 657.399 318.36 657.97 317.789C658.54 317.218 659.274 316.892 660.089 316.892C660.904 316.892 661.638 317.218 662.209 317.789C662.78 318.36 663.106 319.093 663.106 319.909C663.106 320.724 662.78 321.458 662.209 322.028C661.638 322.599 660.904 322.925 660.089 322.925C659.274 322.925 658.54 322.599 657.97 322.028Z" fill="#D4D3F2" fill-opacity="0.1"/>
<path d="M672.236 344.366C671.992 344.366 671.829 344.366 671.584 344.284C671.421 344.284 671.258 344.203 671.095 344.04C670.932 343.958 670.932 343.795 670.932 343.551V340.208C670.932 340.045 671.013 339.882 671.176 339.801C671.339 339.719 671.502 339.638 671.665 339.556C671.829 339.474 672.073 339.475 672.318 339.475C672.562 339.475 672.725 339.475 672.888 339.475H679.329V323.496H685.035V339.311C685.035 339.393 685.117 339.475 685.198 339.475H688.296V344.447H686.013C684.872 344.447 683.812 344.121 682.997 343.469C682.182 344.121 681.204 344.447 679.981 344.447H672.807C672.644 344.447 672.399 344.366 672.236 344.366ZM675.986 319.828C675.416 319.257 675.089 318.523 675.089 317.708C675.089 316.893 675.416 316.159 675.986 315.588C676.557 315.018 677.291 314.692 678.106 314.692C678.921 314.692 679.655 315.018 680.225 315.588C680.796 316.159 681.122 316.893 681.122 317.708C681.122 318.523 680.796 319.257 680.225 319.828C679.655 320.398 678.921 320.724 678.106 320.724C677.291 320.643 676.638 320.398 675.986 319.828ZM683.242 319.828C682.671 319.257 682.345 318.523 682.345 317.708C682.345 316.893 682.671 316.159 683.242 315.588C683.812 315.018 684.546 314.692 685.361 314.692C686.176 314.692 686.91 315.018 687.481 315.588C688.051 316.159 688.378 316.893 688.378 317.708C688.378 318.523 688.051 319.257 687.481 319.828C686.91 320.398 686.176 320.724 685.361 320.724C684.546 320.643 683.812 320.398 683.242 319.828Z" fill="#D4D3F2" fill-opacity="0.1"/>
<path d="M714.139 328.061C713.894 327.49 713.813 326.92 713.731 326.349C713.731 325.778 713.976 325.289 714.465 324.8L716.666 322.68C719.193 325.289 720.416 328.224 720.416 331.485V339.393C720.416 340.045 720.253 340.697 720.008 341.268C719.764 341.92 719.356 342.409 718.948 342.898C718.459 343.387 717.97 343.713 717.318 343.958C716.666 344.202 716.095 344.365 715.361 344.365H711.611C710.307 344.365 709.166 344.039 708.187 343.387C707.372 344.039 706.394 344.365 705.171 344.365H701.421C700.117 344.365 698.975 344.039 697.997 343.387C697.182 344.039 696.204 344.365 694.981 344.365H687.807C687.644 344.365 687.399 344.365 687.155 344.365C686.91 344.365 686.747 344.365 686.503 344.284C686.339 344.284 686.176 344.202 686.013 344.039C685.85 343.958 685.85 343.795 685.85 343.55V340.208C685.85 340.045 685.932 339.882 686.095 339.8C686.258 339.719 686.421 339.637 686.584 339.556C686.747 339.474 686.992 339.474 687.236 339.474C687.481 339.474 687.644 339.474 687.807 339.474H694.247C694.329 339.474 694.329 339.474 694.329 339.474V326.104H699.954V339.393C699.954 339.474 700.035 339.474 700.117 339.474H704.356C704.437 339.474 704.437 339.474 704.437 339.474V326.104H710.063V339.393C710.063 339.474 710.144 339.474 710.226 339.474H714.465C714.546 339.474 714.546 339.474 714.546 339.474V331.566C714.709 330.262 714.546 329.121 714.139 328.061Z" fill="#D4D3F2" fill-opacity="0.1"/>
<path d="M723.677 343.632C723.677 343.387 723.758 343.224 723.758 343.061C723.758 342.898 723.758 342.735 723.758 342.572C723.758 342.409 723.758 342.165 723.84 341.92C723.84 341.675 723.921 341.349 723.921 341.023C724.003 340.534 724.166 340.208 724.492 339.882C724.818 339.556 725.226 339.474 725.633 339.474H737.536C737.617 339.474 737.617 339.474 737.617 339.393V315.099H743.324V339.474C743.324 340.127 743.161 340.779 742.916 341.431C742.671 342.083 742.264 342.572 741.856 343.061C741.367 343.55 740.878 343.877 740.226 344.121C739.574 344.366 738.921 344.529 738.269 344.529H727.019C726.122 344.447 724.981 344.121 723.677 343.632ZM727.427 336.132V320.969H733.052V336.132H727.427Z" fill="#D4D3F2" fill-opacity="0.1"/>
<path d="M748.134 344.447V315.099H753.759V344.447H748.134Z" fill="#D4D3F2" fill-opacity="0.1"/>
<path d="M758.242 329.691C758.65 328.387 759.302 327.246 760.117 326.268C760.932 325.289 761.992 324.556 763.215 323.985C764.438 323.414 765.905 323.17 767.617 323.17C769.248 323.17 770.634 323.414 771.857 323.985C773.079 324.474 774.139 325.208 775.036 326.186C775.933 327.164 776.585 328.224 776.992 329.61C777.4 330.996 777.645 332.382 777.645 334.012V343.143C777.645 346.159 776.829 348.36 775.117 349.746C773.487 351.132 771.041 351.866 767.943 351.866C766.721 351.866 765.824 351.784 765.09 351.621C764.356 351.458 763.704 351.295 763.215 351.05L763.46 348.36C763.541 347.871 763.704 347.545 763.949 347.3C764.275 347.056 764.601 346.893 765.009 346.893C767.454 346.893 769.248 346.73 770.308 346.322C771.367 345.914 771.938 345.181 771.938 344.039V343.958C771.367 344.202 770.797 344.366 770.063 344.529C769.329 344.692 768.514 344.773 767.617 344.773C765.987 344.773 764.601 344.529 763.297 343.958C762.074 343.469 761.014 342.735 760.117 341.757C759.302 340.779 758.65 339.637 758.161 338.333C757.672 337.028 757.509 335.561 757.509 333.931C757.59 332.382 757.835 330.996 758.242 329.691ZM765.661 328.632C765.09 328.958 764.683 329.365 764.356 329.855C764.03 330.344 763.786 330.996 763.623 331.648C763.46 332.382 763.378 333.115 763.378 333.849C763.378 334.583 763.46 335.317 763.623 336.05C763.786 336.702 764.03 337.355 764.356 337.925C764.683 338.496 765.172 338.904 765.661 339.23C766.231 339.556 766.884 339.719 767.699 339.719C768.677 339.719 769.492 339.637 770.063 339.393C770.634 339.23 771.041 338.903 771.286 338.577C771.53 338.251 771.775 337.762 771.775 337.273C771.775 336.784 771.857 336.132 771.857 335.48V333.931C771.857 333.197 771.775 332.463 771.693 331.73C771.53 331.077 771.367 330.425 771.041 329.936C770.715 329.365 770.308 328.958 769.737 328.713C769.166 328.387 768.514 328.224 767.699 328.224C766.884 328.143 766.231 328.306 765.661 328.632Z" fill="#D4D3F2" fill-opacity="0.1"/>
<path d="M790.444 329.855C790.851 328.551 791.34 327.409 792.156 326.431C792.889 325.453 793.868 324.637 795.009 324.067C796.15 323.496 797.536 323.17 799.085 323.17C799.737 323.17 800.389 323.252 800.96 323.415C801.531 323.578 802.101 323.741 802.509 323.985C803.08 324.23 803.569 324.474 803.976 324.8C804.221 324.311 804.466 323.985 804.792 323.822C805.118 323.659 805.444 323.496 805.688 323.496H808.623V339.475C808.623 340.127 808.46 340.779 808.216 341.35C807.971 342.002 807.563 342.491 807.156 342.98C806.667 343.469 806.178 343.795 805.525 344.04C804.873 344.284 804.302 344.447 803.569 344.447H798.025C796.476 344.447 795.172 344.121 794.112 343.469C793.052 342.817 792.237 342.002 791.585 341.023C790.933 340.045 790.525 338.904 790.199 337.681C789.955 336.458 789.792 335.235 789.792 334.012C789.873 332.545 790.118 331.159 790.444 329.855ZM794.357 319.828C793.786 319.257 793.46 318.523 793.46 317.708C793.46 316.893 793.786 316.159 794.357 315.588C794.927 315.018 795.661 314.692 796.476 314.692C797.292 314.692 798.025 315.018 798.596 315.588C799.167 316.159 799.493 316.893 799.493 317.708C799.493 318.523 799.167 319.257 798.596 319.828C798.025 320.398 797.292 320.724 796.476 320.724C795.661 320.643 794.927 320.398 794.357 319.828ZM797.862 328.55C797.373 328.877 796.965 329.284 796.639 329.773C796.313 330.344 796.069 330.915 795.987 331.648C795.906 332.382 795.824 333.034 795.824 333.849C795.824 334.42 795.906 335.072 795.987 335.724C796.069 336.377 796.232 337.029 796.476 337.599C796.721 338.17 797.047 338.578 797.536 338.985C798.025 339.311 798.596 339.556 799.33 339.556H803.08C803.161 339.556 803.161 339.556 803.161 339.556V329.61C802.346 328.714 801.286 328.224 799.982 328.224C799.004 328.061 798.351 328.224 797.862 328.55ZM801.612 319.828C801.042 319.257 800.715 318.523 800.715 317.708C800.715 316.893 801.042 316.159 801.612 315.588C802.183 315.018 802.917 314.692 803.732 314.692C804.547 314.692 805.281 315.018 805.851 315.588C806.422 316.159 806.748 316.893 806.748 317.708C806.748 318.523 806.422 319.257 805.851 319.828C805.281 320.398 804.547 320.724 803.732 320.724C802.917 320.643 802.183 320.398 801.612 319.828Z" fill="#D4D3F2" fill-opacity="0.1"/>
<path d="M818.488 344.447C817.835 344.447 817.183 344.284 816.531 344.04C815.879 343.795 815.39 343.387 814.9 342.98C814.411 342.491 814.085 342.002 813.841 341.349C813.596 340.697 813.433 340.127 813.433 339.474V315.099H819.058V339.474C819.058 339.474 819.058 339.474 819.14 339.474H822.319V344.447H818.488Z" fill="#D4D3F2" fill-opacity="0.1"/>
<path d="M831.042 342.817C830.064 343.876 828.841 344.366 827.373 344.366H821.341C821.178 344.366 820.933 344.366 820.688 344.366C820.444 344.366 820.281 344.366 820.036 344.284C819.873 344.284 819.71 344.202 819.547 344.039C819.384 343.958 819.384 343.795 819.384 343.55V340.208C819.384 340.045 819.466 339.882 819.629 339.8C819.792 339.719 819.955 339.637 820.118 339.556C820.281 339.474 820.525 339.474 820.77 339.474C821.015 339.474 821.178 339.474 821.341 339.474H826.64V333.849C826.64 332.3 826.884 330.914 827.292 329.61C827.699 328.306 828.352 327.164 829.248 326.268C830.064 325.289 831.123 324.556 832.428 324.066C833.651 323.496 835.118 323.251 836.748 323.251C838.379 323.251 839.765 323.496 840.988 324.066C842.21 324.556 843.27 325.289 844.085 326.268C844.901 327.164 845.553 328.306 846.042 329.61C846.531 330.914 846.694 332.382 846.694 333.931V339.474C846.694 341.023 846.205 342.246 845.308 343.143C844.412 344.039 843.189 344.529 841.64 344.529H836.585C834.547 344.447 832.672 343.876 831.042 342.817ZM840.988 339.311V333.768C840.988 333.034 840.906 332.3 840.825 331.567C840.743 330.833 840.498 330.262 840.172 329.773C839.846 329.284 839.439 328.876 838.868 328.55C838.297 328.224 837.645 328.143 836.83 328.143C836.015 328.143 835.363 328.306 834.792 328.55C834.221 328.795 833.814 329.202 833.488 329.692C833.161 330.181 832.917 330.833 832.754 331.485C832.591 332.137 832.509 332.952 832.509 333.686V334.42C832.509 335.887 832.835 337.029 833.488 338.007C834.14 338.985 835.281 339.393 836.748 339.393H840.906C840.906 339.474 840.988 339.393 840.988 339.311Z" fill="#D4D3F2" fill-opacity="0.1"/>
<path d="M856.559 344.447C855.906 344.447 855.254 344.284 854.602 344.04C853.95 343.795 853.461 343.387 852.972 342.98C852.482 342.491 852.156 342.002 851.912 341.349C851.667 340.697 851.504 340.127 851.504 339.474V315.099H857.129V339.474C857.129 339.474 857.129 339.474 857.211 339.474H860.39V344.447H856.559Z" fill="#D4D3F2" fill-opacity="0.1"/>
<path d="M859.493 344.447C859.33 344.447 859.086 344.447 858.841 344.447C858.597 344.447 858.433 344.447 858.189 344.366C858.026 344.366 857.863 344.284 857.7 344.121C857.537 344.04 857.537 343.877 857.537 343.632V340.29C857.537 340.127 857.618 339.964 857.781 339.882C857.944 339.801 858.107 339.719 858.27 339.637C858.434 339.556 858.678 339.556 858.923 339.556C859.167 339.556 859.33 339.556 859.493 339.556H877.265C876.613 337.192 876.042 335.317 875.553 333.849C875.146 332.382 874.82 331.404 874.656 330.833C874.412 330.099 874.004 329.529 873.352 328.958C872.7 328.469 871.803 328.224 870.662 328.224C870.01 328.224 869.521 328.306 869.194 328.387C868.787 328.55 868.379 328.713 867.89 329.04C867.401 329.447 866.912 329.61 866.341 329.61C865.689 329.61 865.2 329.284 864.711 328.632C864.711 328.55 864.629 328.469 864.466 328.224C864.303 327.98 864.14 327.817 863.977 327.572C863.814 327.328 863.651 327.165 863.488 326.92C863.325 326.757 863.243 326.594 863.243 326.594C865.689 324.23 868.216 323.088 870.906 323.088C873.108 323.088 874.983 323.659 876.613 324.8C878.243 325.942 879.466 327.572 880.2 329.855C880.282 330.099 880.363 330.344 880.445 330.67C880.526 330.996 880.689 331.404 880.771 331.811L882.483 337.355C882.646 337.762 882.727 338.17 882.809 338.496C882.89 338.822 882.972 339.148 883.053 339.311H883.868V344.284H859.493V344.447Z" fill="#D4D3F2" fill-opacity="0.1"/>
<path d="M892.917 342.817C891.939 343.876 890.716 344.366 889.249 344.366H883.624C883.461 344.366 883.216 344.366 882.972 344.366C882.727 344.366 882.564 344.366 882.32 344.284C882.156 344.284 881.993 344.202 881.83 344.039C881.667 343.958 881.667 343.795 881.667 343.55V340.208C881.667 340.045 881.749 339.882 881.912 339.8C882.075 339.719 882.238 339.637 882.401 339.556C882.564 339.474 882.809 339.474 883.053 339.474C883.298 339.474 883.461 339.474 883.624 339.474H888.515V333.849C888.515 332.3 888.76 330.914 889.167 329.61C889.575 328.306 890.227 327.164 891.124 326.268C891.939 325.289 892.999 324.556 894.303 324.066C895.526 323.496 896.994 323.251 898.624 323.251C900.254 323.251 901.64 323.496 902.863 324.066C904.086 324.556 905.146 325.289 905.961 326.268C906.776 327.164 907.428 328.306 907.918 329.61C908.407 330.914 908.57 332.382 908.57 333.931V339.474C908.57 339.556 908.651 339.556 908.733 339.556H911.423V344.529H909.548C908.407 344.529 907.51 344.203 906.695 343.55C906.287 343.876 905.798 344.039 905.309 344.284C904.82 344.447 904.249 344.529 903.597 344.529H898.542C896.341 344.447 894.466 343.876 892.917 342.817ZM896.586 328.632C896.015 328.876 895.608 329.284 895.282 329.773C894.955 330.262 894.711 330.914 894.548 331.567C894.385 332.219 894.303 333.034 894.303 333.768V334.501C894.303 335.969 894.629 337.11 895.282 338.088C895.934 339.067 897.075 339.474 898.542 339.474H902.7C902.782 339.474 902.782 339.474 902.782 339.393V333.849C902.782 333.115 902.7 332.382 902.619 331.648C902.537 330.914 902.293 330.344 901.966 329.855C901.64 329.365 901.233 328.958 900.662 328.632C900.091 328.306 899.439 328.224 898.624 328.224C897.809 328.143 897.075 328.306 896.586 328.632Z" fill="#D4D3F2" fill-opacity="0.1"/>
<path d="M910.526 344.366C910.282 344.366 910.119 344.366 909.874 344.284C909.711 344.284 909.548 344.203 909.385 344.04C909.222 343.958 909.222 343.795 909.222 343.55V340.208C909.222 340.045 909.303 339.882 909.466 339.8C909.63 339.719 909.793 339.637 909.956 339.556C910.119 339.474 910.363 339.474 910.608 339.474C910.852 339.474 911.015 339.474 911.178 339.474H917.619V315.099H923.325V339.311C923.325 339.393 923.407 339.474 923.488 339.474H926.586V344.447H924.304C923.162 344.447 922.102 344.121 921.287 343.469C920.472 344.121 919.494 344.447 918.271 344.447H911.097C910.934 344.447 910.689 344.366 910.526 344.366Z" fill="#D4D3F2" fill-opacity="0.1"/>
<path d="M931.641 339.393V315.018H937.266V339.393C937.266 340.045 937.103 340.697 936.858 341.268C936.614 341.92 936.206 342.409 935.798 342.899C935.309 343.388 934.82 343.714 934.168 343.958C933.516 344.203 932.945 344.366 932.211 344.366H926.179C926.016 344.366 925.771 344.366 925.527 344.366C925.282 344.366 925.119 344.366 924.874 344.284C924.711 344.284 924.548 344.203 924.385 344.04C924.222 343.958 924.222 343.795 924.222 343.551V340.208C924.222 340.045 924.304 339.882 924.467 339.801C924.63 339.719 924.793 339.638 924.956 339.556C925.119 339.475 925.363 339.475 925.608 339.475C925.853 339.475 926.016 339.475 926.179 339.475L931.641 339.393C931.641 339.475 931.641 339.475 931.641 339.393Z" fill="#D4D3F2" fill-opacity="0.1"/>
<path d="M985.038 344.447C984.386 344.447 983.733 344.284 983.081 344.039C982.429 343.795 981.94 343.387 981.532 342.98C981.043 342.491 980.717 342.001 980.473 341.349C980.228 340.697 980.065 340.126 980.065 339.474V328.469H976.886V339.393C976.886 340.045 976.723 340.697 976.478 341.349C976.233 342.001 975.826 342.491 975.418 342.98C974.929 343.469 974.44 343.795 973.788 344.039C973.136 344.284 972.483 344.447 971.831 344.447H959.358C957.891 344.447 956.586 344.121 955.445 343.55C954.304 342.98 953.326 342.164 952.592 341.186C951.858 340.208 951.206 339.067 950.88 337.762C950.472 336.458 950.309 335.072 950.309 333.686C950.309 332.219 950.554 330.833 951.043 329.284C951.532 327.735 952.347 326.431 953.57 325.208H954.711L956.423 326.92C956.831 327.327 956.994 327.817 957.076 328.306C957.157 328.795 957.076 329.365 956.831 329.855C956.342 330.833 956.097 332.056 956.097 333.605C956.097 334.338 956.179 334.99 956.26 335.724C956.423 336.376 956.586 337.029 956.913 337.599C957.239 338.17 957.646 338.577 958.135 338.904C958.625 339.23 959.277 339.393 960.01 339.393H971.097V328.469C971.097 327.735 971.26 327.083 971.505 326.512C971.75 325.86 972.157 325.371 972.565 324.882C973.054 324.393 973.543 324.066 974.195 323.822C974.848 323.577 975.418 323.414 976.152 323.414H985.69V339.393H988.869V344.366H985.038V344.447ZM959.684 351.377C959.114 350.806 958.788 350.072 958.788 349.257C958.788 348.442 959.114 347.708 959.684 347.137C960.255 346.567 960.989 346.241 961.804 346.241C962.619 346.241 963.353 346.567 963.923 347.137C964.494 347.708 964.82 348.442 964.82 349.257C964.82 350.072 964.494 350.806 963.923 351.377C963.353 351.947 962.619 352.273 961.804 352.273C960.989 352.192 960.255 351.947 959.684 351.377ZM966.94 351.377C966.369 350.806 966.043 350.072 966.043 349.257C966.043 348.442 966.369 347.708 966.94 347.137C967.51 346.567 968.244 346.241 969.059 346.241C969.875 346.241 970.608 346.567 971.179 347.137C971.75 347.708 972.076 348.442 972.076 349.257C972.076 350.072 971.75 350.806 971.179 351.377C970.608 351.947 969.875 352.273 969.059 352.273C968.244 352.192 967.51 351.947 966.94 351.377Z" fill="#D4D3F2" fill-opacity="0.1"/>
<path d="M987.973 344.366C987.728 344.366 987.565 344.366 987.321 344.284C987.157 344.284 986.994 344.203 986.831 344.04C986.668 343.958 986.668 343.795 986.668 343.551V340.208C986.668 340.045 986.75 339.882 986.913 339.801C987.076 339.719 987.239 339.638 987.402 339.556C987.565 339.474 987.81 339.475 988.054 339.475C988.299 339.475 988.462 339.475 988.625 339.475H995.065C995.147 339.475 995.147 339.475 995.147 339.475V323.496H1000.77V339.475C1000.77 340.127 1000.61 340.779 1000.36 341.35C1000.12 342.002 999.793 342.491 999.304 342.98C998.815 343.469 998.326 343.795 997.674 344.04C997.022 344.284 996.451 344.447 995.717 344.447H988.543C988.462 344.447 988.217 344.366 987.973 344.366ZM995.799 319.828C995.228 319.257 994.902 318.523 994.902 317.708C994.902 316.893 995.228 316.159 995.799 315.588C996.37 315.018 997.103 314.692 997.918 314.692C998.734 314.692 999.467 315.018 1000.04 315.588C1000.61 316.159 1000.93 316.893 1000.93 317.708C1000.93 318.523 1000.61 319.257 1000.04 319.828C999.467 320.398 998.734 320.724 997.918 320.724C997.103 320.643 996.37 320.398 995.799 319.828Z" fill="#D4D3F2" fill-opacity="0.1"/>
<path d="M1011.37 344.447C1010.72 344.447 1010.07 344.284 1009.41 344.04C1008.76 343.795 1008.27 343.387 1007.78 342.98C1007.29 342.491 1006.97 342.002 1006.72 341.349C1006.48 340.697 1006.32 340.127 1006.32 339.474V315.099H1011.94V339.474C1011.94 339.474 1011.94 339.474 1012.02 339.474H1015.2V344.447H1011.37Z" fill="#D4D3F2" fill-opacity="0.1"/>
<path d="M1023.92 342.817C1022.95 343.876 1021.72 344.366 1020.26 344.366H1014.22C1014.06 344.366 1013.82 344.366 1013.57 344.366C1013.33 344.366 1013.16 344.366 1012.92 344.284C1012.76 344.284 1012.59 344.202 1012.43 344.039C1012.27 343.958 1012.27 343.795 1012.27 343.55V340.208C1012.27 340.045 1012.35 339.882 1012.51 339.8C1012.67 339.719 1012.84 339.637 1013 339.556C1013.16 339.474 1013.41 339.474 1013.65 339.474C1013.9 339.474 1014.06 339.474 1014.22 339.474H1019.52V333.849C1019.52 332.3 1019.77 330.914 1020.17 329.61C1020.58 328.306 1021.23 327.164 1022.13 326.268C1022.95 325.289 1024.01 324.556 1025.31 324.066C1026.53 323.496 1028 323.251 1029.63 323.251C1031.26 323.251 1032.65 323.496 1033.87 324.066C1035.09 324.556 1036.15 325.289 1036.97 326.268C1037.78 327.164 1038.44 328.306 1038.92 329.61C1039.41 330.914 1039.58 332.382 1039.58 333.931V339.474C1039.58 341.023 1039.09 342.246 1038.19 343.143C1037.29 344.039 1036.07 344.529 1034.52 344.529H1029.47C1027.43 344.447 1025.47 343.876 1023.92 342.817ZM1033.87 339.311V333.768C1033.87 333.034 1033.79 332.3 1033.71 331.567C1033.63 330.833 1033.38 330.262 1033.05 329.773C1032.73 329.284 1032.32 328.876 1031.75 328.55C1031.18 328.224 1030.53 328.143 1029.71 328.143C1028.9 328.143 1028.24 328.306 1027.67 328.55C1027.1 328.795 1026.7 329.202 1026.37 329.692C1026.04 330.181 1025.8 330.833 1025.64 331.485C1025.47 332.137 1025.39 332.952 1025.39 333.686V334.42C1025.39 335.887 1025.72 337.029 1026.37 338.007C1027.02 338.985 1028.16 339.393 1029.63 339.393H1033.79C1033.79 339.474 1033.87 339.393 1033.87 339.311Z" fill="#D4D3F2" fill-opacity="0.1"/>
<path d="M802.509 428.578C801.938 428.578 801.368 428.415 800.879 428.008C800.39 428.415 799.9 428.578 799.248 428.578H789.547C788.65 428.578 787.917 428.415 787.264 428.089C786.612 427.763 786.042 427.355 785.634 426.785C785.226 426.214 784.9 425.643 784.656 424.91C784.411 424.176 784.33 423.442 784.33 422.627C784.33 421.812 784.493 420.997 784.737 420.181C784.982 419.366 785.471 418.632 786.123 417.899H786.775L787.672 418.877C787.917 419.122 788.08 419.366 788.08 419.692C788.08 420.018 787.998 420.344 787.835 420.67C787.59 421.241 787.509 421.893 787.509 422.627C787.509 423.035 787.509 423.361 787.59 423.768C787.672 424.176 787.754 424.502 787.998 424.828C788.161 425.154 788.406 425.399 788.732 425.562C789.058 425.725 789.384 425.888 789.873 425.888H798.841V412.274H802.02V425.806C802.02 425.888 802.02 425.888 802.101 425.888H803.813V428.66H802.509V428.578ZM791.014 420.344C791.014 420.1 791.014 419.937 791.014 419.855C791.014 419.611 791.096 419.448 791.177 419.366C791.259 419.285 791.341 419.203 791.422 419.203H791.504C791.422 419.04 791.341 418.959 791.341 418.714C791.259 418.551 791.259 418.306 791.259 417.98C791.259 417.654 791.341 417.41 791.422 417.084C791.504 416.839 791.667 416.513 791.911 416.268C792.156 416.024 792.4 415.861 792.726 415.698C793.052 415.535 793.379 415.453 793.786 415.453C794.194 415.453 794.52 415.535 794.928 415.779C795.335 415.942 795.58 416.187 795.906 416.513C795.906 416.513 795.824 416.594 795.824 416.676C795.743 416.757 795.661 416.839 795.661 417.002C795.58 417.083 795.498 417.247 795.498 417.328C795.417 417.41 795.417 417.491 795.417 417.491C795.335 417.654 795.254 417.654 795.091 417.654C795.009 417.654 794.846 417.654 794.764 417.573C794.683 417.491 794.52 417.41 794.438 417.328C794.357 417.247 794.194 417.247 793.949 417.247C793.705 417.247 793.542 417.328 793.379 417.491C793.216 417.654 793.134 417.899 793.134 418.143C793.134 418.469 793.216 418.632 793.379 418.795C793.542 418.959 793.786 419.04 794.194 419.04H796.069V420.915H792.156C791.993 420.915 791.83 420.915 791.667 420.834C791.504 420.752 791.341 420.752 791.177 420.67C791.014 420.67 791.014 420.507 791.014 420.344Z" fill="#D4D3F2" fill-opacity="0.1"/>
<path d="M803.243 428.578C803.08 428.578 802.998 428.578 802.917 428.497C802.835 428.497 802.754 428.415 802.672 428.334C802.591 428.252 802.591 428.171 802.591 428.089V426.214C802.591 426.132 802.591 426.051 802.672 425.969C802.754 425.888 802.835 425.888 802.998 425.806C803.08 425.806 803.243 425.725 803.324 425.725C803.487 425.725 803.569 425.725 803.65 425.725H808.786V428.497H803.65C803.487 428.578 803.406 428.578 803.243 428.578Z" fill="#D4D3F2" fill-opacity="0.1"/>
<path d="M808.134 428.578C807.971 428.578 807.89 428.578 807.808 428.497C807.726 428.497 807.645 428.415 807.563 428.334C807.482 428.252 807.482 428.171 807.482 428.089V426.214C807.482 426.132 807.482 426.051 807.563 425.969C807.645 425.888 807.727 425.888 807.89 425.806C807.971 425.806 808.134 425.725 808.216 425.725C808.379 425.725 808.46 425.725 808.542 425.725H813.678V428.497H808.542C808.379 428.578 808.297 428.578 808.134 428.578Z" fill="#D4D3F2" fill-opacity="0.1"/>
<path d="M813.025 428.578C812.862 428.578 812.781 428.578 812.699 428.497C812.618 428.497 812.536 428.415 812.455 428.334C812.373 428.252 812.373 428.171 812.373 428.089V426.214C812.373 426.132 812.373 426.051 812.455 425.969C812.536 425.888 812.618 425.888 812.781 425.806C812.862 425.806 813.025 425.725 813.107 425.725C813.27 425.725 813.352 425.725 813.433 425.725H818.569V428.497H813.433C813.27 428.578 813.189 428.578 813.025 428.578Z" fill="#D4D3F2" fill-opacity="0.1"/>
<path d="M817.998 428.578C817.835 428.578 817.754 428.578 817.672 428.497C817.591 428.497 817.509 428.415 817.428 428.334C817.346 428.252 817.346 428.171 817.346 428.089V426.214C817.346 426.132 817.346 426.051 817.428 425.969C817.509 425.888 817.591 425.888 817.754 425.806C817.835 425.806 817.998 425.725 818.08 425.725C818.243 425.725 818.324 425.725 818.406 425.725H823.542V428.497H818.406C818.161 428.578 818.08 428.578 817.998 428.578Z" fill="#D4D3F2" fill-opacity="0.1"/>
<path d="M822.89 428.579C822.727 428.579 822.645 428.579 822.564 428.497C822.482 428.497 822.401 428.416 822.319 428.334C822.238 428.253 822.238 428.171 822.238 428.089V426.214C822.238 426.133 822.238 426.051 822.319 425.97C822.401 425.888 822.482 425.888 822.645 425.807C822.727 425.807 822.89 425.725 822.971 425.725C823.134 425.725 823.216 425.725 823.297 425.725H826.884V416.839H830.064V425.644C830.064 425.725 830.064 425.725 830.145 425.725H831.857V428.497H830.553C829.901 428.497 829.33 428.334 828.922 427.926C828.433 428.334 827.944 428.497 827.292 428.497H823.297C823.134 428.579 822.971 428.579 822.89 428.579ZM827.21 432.492C826.884 432.166 826.721 431.758 826.721 431.35C826.721 430.861 826.884 430.454 827.21 430.128C827.536 429.801 827.944 429.638 828.433 429.638C828.922 429.638 829.248 429.801 829.575 430.128C829.901 430.454 830.064 430.861 830.064 431.35C830.064 431.84 829.901 432.166 829.575 432.492C829.248 432.818 828.841 432.981 828.433 432.981C827.944 432.981 827.536 432.818 827.21 432.492Z" fill="#D4D3F2" fill-opacity="0.1"/>
<path d="M831.286 428.578C831.123 428.578 831.042 428.578 830.96 428.496C830.879 428.496 830.797 428.415 830.716 428.333C830.634 428.252 830.634 428.17 830.634 428.089V426.214C830.634 426.132 830.634 426.051 830.716 425.969C830.797 425.888 830.879 425.888 831.042 425.806C831.123 425.806 831.286 425.725 831.368 425.725C831.531 425.725 831.613 425.725 831.694 425.725H835.281H835.363V416.839H838.542V425.725C838.542 426.132 838.46 426.458 838.297 426.784C838.134 427.11 837.971 427.437 837.727 427.681C837.482 427.926 837.156 428.17 836.83 428.252C836.504 428.333 836.096 428.496 835.77 428.496H831.613C831.531 428.578 831.368 428.578 831.286 428.578ZM835.607 414.964C835.281 414.638 835.118 414.23 835.118 413.822C835.118 413.333 835.281 412.926 835.607 412.6C835.933 412.273 836.341 412.11 836.83 412.11C837.319 412.11 837.645 412.273 837.971 412.6C838.297 412.926 838.46 413.333 838.46 413.822C838.46 414.311 838.297 414.638 837.971 414.964C837.645 415.29 837.238 415.453 836.83 415.453C836.341 415.453 835.933 415.29 835.607 414.964Z" fill="#D4D3F2" fill-opacity="0.1"/>
<path d="M844.249 428.579C843.841 428.579 843.515 428.497 843.189 428.334C842.863 428.171 842.537 428.008 842.292 427.763C842.047 427.519 841.803 427.193 841.721 426.867C841.64 426.541 841.477 426.133 841.477 425.807V412.274H844.656V425.807C844.656 425.807 844.656 425.807 844.738 425.807H846.531V428.579H844.249Z" fill="#D4D3F2" fill-opacity="0.1"/>
<path d="M845.797 428.578C845.716 428.578 845.553 428.578 845.471 428.578C845.308 428.578 845.227 428.578 845.145 428.497C845.064 428.497 844.982 428.415 844.901 428.333C844.819 428.252 844.819 428.17 844.819 428.089V426.214C844.819 426.132 844.819 426.051 844.901 425.969C844.982 425.888 845.064 425.888 845.227 425.806C845.308 425.806 845.471 425.725 845.553 425.725C845.716 425.725 845.797 425.725 845.879 425.725H855.825C855.417 424.42 855.091 423.361 854.928 422.545C854.683 421.73 854.52 421.159 854.439 420.915C854.276 420.507 854.031 420.181 853.705 419.855C853.379 419.611 852.89 419.448 852.238 419.448C851.912 419.448 851.586 419.448 851.423 419.529C851.178 419.611 850.933 419.692 850.689 419.937C850.444 420.181 850.118 420.263 849.874 420.263C849.548 420.263 849.221 420.1 848.977 419.692C848.977 419.692 848.895 419.611 848.814 419.448C848.732 419.366 848.651 419.203 848.569 419.121C848.488 418.958 848.406 418.877 848.325 418.795C848.243 418.714 848.162 418.632 848.162 418.632C849.466 417.328 850.933 416.676 852.401 416.676C853.624 416.676 854.683 417.002 855.58 417.654C856.477 418.306 857.129 419.203 857.537 420.426C857.537 420.507 857.618 420.67 857.7 420.915C857.781 421.078 857.863 421.323 857.863 421.567L858.841 424.665C858.923 424.91 859.004 425.154 859.004 425.317C859.086 425.48 859.086 425.643 859.167 425.806H859.575V428.578H845.797ZM851.178 432.491C850.852 432.165 850.689 431.757 850.689 431.35C850.689 430.861 850.852 430.453 851.178 430.127C851.504 429.801 851.912 429.638 852.401 429.638C852.89 429.638 853.216 429.801 853.542 430.127C853.868 430.453 854.031 430.861 854.031 431.35C854.031 431.839 853.868 432.165 853.542 432.491C853.216 432.817 852.808 432.98 852.401 432.98C851.912 432.98 851.504 432.817 851.178 432.491Z" fill="#D4D3F2" fill-opacity="0.1"/>
<path d="M858.923 428.579C858.76 428.579 858.678 428.579 858.597 428.497C858.515 428.497 858.434 428.416 858.352 428.334C858.27 428.253 858.271 428.171 858.271 428.089V426.214C858.271 426.133 858.27 426.051 858.352 425.97C858.434 425.888 858.515 425.888 858.678 425.807C858.76 425.807 858.923 425.725 859.004 425.725C859.167 425.725 859.249 425.725 859.33 425.725H862.917H862.999V416.839H866.178V425.725C866.178 426.133 866.097 426.459 865.934 426.785C865.771 427.111 865.608 427.437 865.363 427.682C865.118 427.926 864.792 428.171 864.466 428.253C864.14 428.334 863.733 428.497 863.406 428.497H859.412C859.167 428.579 859.004 428.579 858.923 428.579ZM863.08 432.492C862.754 432.166 862.591 431.758 862.591 431.35C862.591 430.861 862.754 430.454 863.08 430.128C863.406 429.801 863.814 429.638 864.303 429.638C864.792 429.638 865.118 429.801 865.444 430.128C865.771 430.454 865.934 430.861 865.934 431.35C865.934 431.84 865.771 432.166 865.444 432.492C865.118 432.818 864.711 432.981 864.303 432.981C863.814 432.981 863.406 432.818 863.08 432.492Z" fill="#D4D3F2" fill-opacity="0.1"/>
<path d="M878.406 428.578C877.591 428.578 876.858 428.415 876.205 428.089C875.553 427.763 874.983 427.355 874.575 426.784C874.167 426.214 873.76 425.643 873.597 424.909C873.352 424.176 873.271 423.442 873.271 422.627C873.271 421.812 873.434 420.996 873.678 420.181C873.923 419.366 874.412 418.632 875.064 417.898H875.716L876.613 418.877C876.858 419.121 877.021 419.447 877.021 419.773C877.021 420.1 876.939 420.426 876.776 420.752C876.531 421.322 876.45 421.893 876.45 422.627C876.45 423.034 876.45 423.442 876.531 423.85C876.613 424.257 876.694 424.583 876.939 424.909C877.102 425.235 877.347 425.48 877.673 425.643C877.999 425.806 878.325 425.888 878.814 425.888H883.135C882.646 424.991 882.401 423.931 882.401 422.79C882.401 421.975 882.483 421.159 882.727 420.426C882.972 419.692 883.298 419.04 883.787 418.551C884.276 418.062 884.847 417.572 885.58 417.328C886.314 417.002 887.048 416.839 888.026 416.839C888.923 416.839 889.738 417.002 890.39 417.246C891.042 417.491 891.695 417.898 892.102 418.469C892.591 418.958 892.917 419.61 893.162 420.344C893.407 421.078 893.488 421.893 893.488 422.79V425.888H895.119V428.659H878.406V428.578ZM890.309 422.708C890.309 422.301 890.309 421.893 890.227 421.485C890.146 421.078 890.064 420.752 889.82 420.507C889.575 420.263 889.412 420.018 889.086 419.855C888.76 419.692 888.434 419.61 887.945 419.61C887.537 419.61 887.129 419.692 886.803 419.855C886.477 420.018 886.233 420.263 886.07 420.507C885.907 420.833 885.743 421.159 885.662 421.485C885.58 421.812 885.58 422.301 885.58 422.708C885.58 423.116 885.58 423.523 885.662 423.931C885.743 424.339 885.907 424.665 886.07 424.909C886.233 425.154 886.477 425.399 886.803 425.562C887.129 425.725 887.455 425.806 887.945 425.806H890.309V422.708ZM886.803 414.964C886.477 414.638 886.314 414.23 886.314 413.822C886.314 413.333 886.477 412.926 886.803 412.6C887.129 412.273 887.537 412.11 888.026 412.11C888.515 412.11 888.841 412.273 889.167 412.6C889.493 412.926 889.657 413.333 889.657 413.822C889.657 414.311 889.493 414.638 889.167 414.964C888.841 415.29 888.434 415.453 888.026 415.453C887.537 415.453 887.129 415.29 886.803 414.964Z" fill="#D4D3F2" fill-opacity="0.1"/>
<path d="M894.548 428.578C894.385 428.578 894.303 428.578 894.222 428.497C894.14 428.497 894.059 428.415 893.977 428.334C893.896 428.252 893.896 428.171 893.896 428.089V426.214C893.896 426.132 893.896 426.051 893.977 425.969C894.059 425.888 894.14 425.888 894.303 425.806C894.385 425.806 894.548 425.725 894.629 425.725C894.792 425.725 894.874 425.725 894.956 425.725H900.091V428.497H894.956C894.792 428.578 894.711 428.578 894.548 428.578Z" fill="#D4D3F2" fill-opacity="0.1"/>
<path d="M899.439 428.578C899.276 428.578 899.195 428.578 899.113 428.497C899.032 428.497 898.95 428.415 898.869 428.334C898.787 428.252 898.787 428.171 898.787 428.089V426.214C898.787 426.132 898.787 426.051 898.869 425.969C898.95 425.888 899.032 425.888 899.195 425.806C899.276 425.806 899.439 425.725 899.521 425.725C899.684 425.725 899.765 425.725 899.847 425.725H904.983V428.497H899.847C899.684 428.578 899.602 428.578 899.439 428.578Z" fill="#D4D3F2" fill-opacity="0.1"/>
<path d="M904.738 428.578C904.657 428.578 904.494 428.578 904.412 428.578C904.249 428.578 904.168 428.578 904.086 428.496C904.005 428.496 903.923 428.415 903.842 428.333C903.76 428.252 903.76 428.17 903.76 428.089V426.214C903.76 426.132 903.76 426.051 903.842 425.969C903.923 425.888 904.005 425.888 904.168 425.806C904.249 425.806 904.412 425.725 904.494 425.725C904.657 425.725 904.738 425.725 904.82 425.725H907.918C907.429 424.828 907.184 423.768 907.184 422.545C907.184 421.73 907.265 420.915 907.51 420.181C907.755 419.447 908.081 418.877 908.57 418.306C909.059 417.735 909.63 417.328 910.282 417.083C911.016 416.757 911.749 416.676 912.646 416.676C913.543 416.676 914.358 416.839 915.01 417.083C915.744 417.409 916.314 417.735 916.804 418.306C917.293 418.877 917.619 419.447 917.863 420.181C918.108 420.915 918.271 421.73 918.271 422.627V425.725H919.82V428.496H904.738V428.578ZM909.467 414.964C909.14 414.638 908.977 414.23 908.977 413.822C908.977 413.333 909.14 412.926 909.467 412.6C909.793 412.273 910.2 412.11 910.689 412.11C911.179 412.11 911.505 412.273 911.831 412.6C912.157 412.926 912.32 413.333 912.32 413.822C912.32 414.311 912.157 414.638 911.831 414.964C911.505 415.29 911.097 415.453 910.689 415.453C910.2 415.453 909.793 415.29 909.467 414.964ZM915.01 422.708C915.01 422.301 915.01 421.893 914.929 421.485C914.847 421.078 914.766 420.752 914.521 420.507C914.276 420.263 914.113 420.018 913.787 419.855C913.461 419.692 913.135 419.61 912.646 419.61C912.238 419.61 911.831 419.692 911.505 419.855C911.179 420.018 910.934 420.263 910.771 420.507C910.608 420.752 910.445 421.078 910.363 421.485C910.282 421.893 910.282 422.301 910.282 422.708C910.282 423.116 910.282 423.523 910.363 423.931C910.445 424.339 910.608 424.665 910.771 424.909C910.934 425.235 911.179 425.399 911.505 425.562C911.831 425.725 912.157 425.806 912.646 425.806H915.01V422.708ZM913.461 414.964C913.135 414.638 912.972 414.23 912.972 413.822C912.972 413.333 913.135 412.926 913.461 412.6C913.787 412.273 914.195 412.11 914.684 412.11C915.173 412.11 915.499 412.273 915.825 412.6C916.151 412.926 916.314 413.333 916.314 413.822C916.314 414.311 916.151 414.638 915.825 414.964C915.499 415.29 915.092 415.453 914.684 415.453C914.195 415.453 913.787 415.29 913.461 414.964Z" fill="#D4D3F2" fill-opacity="0.1"/>
<path d="M919.249 428.578C919.086 428.578 919.005 428.578 918.923 428.496C918.842 428.496 918.76 428.415 918.679 428.333C918.597 428.252 918.597 428.17 918.597 428.089V426.214C918.597 426.132 918.597 426.051 918.679 425.969C918.76 425.888 918.842 425.888 919.005 425.806C919.086 425.806 919.249 425.725 919.331 425.725C919.494 425.725 919.575 425.725 919.657 425.725H923.244H923.325V416.839H926.505V425.725C926.505 426.132 926.423 426.458 926.26 426.784C926.097 427.11 925.934 427.437 925.69 427.681C925.445 427.926 925.119 428.17 924.793 428.252C924.467 428.333 924.059 428.496 923.733 428.496H919.738C919.494 428.578 919.412 428.578 919.249 428.578ZM923.57 414.964C923.244 414.638 923.081 414.23 923.081 413.822C923.081 413.333 923.244 412.926 923.57 412.6C923.896 412.273 924.304 412.11 924.793 412.11C925.282 412.11 925.608 412.273 925.934 412.6C926.26 412.926 926.423 413.333 926.423 413.822C926.423 414.311 926.26 414.638 925.934 414.964C925.608 415.29 925.2 415.453 924.793 415.453C924.304 415.453 923.896 415.29 923.57 414.964Z" fill="#D4D3F2" fill-opacity="0.1"/>
<path d="M529.49 427.927C528.593 427.437 527.778 426.867 527.045 426.133L527.86 424.747C528.023 424.503 528.104 424.421 528.267 424.34C528.43 424.258 528.593 424.176 528.757 424.176C529.001 424.176 529.164 424.258 529.327 424.34C529.49 424.421 529.735 424.584 529.898 424.747C530.305 425.073 530.713 425.236 531.121 425.399C531.447 425.562 531.936 425.644 532.425 425.644C533.159 425.644 533.729 425.481 534.137 425.073C534.545 424.747 534.789 424.258 534.789 423.606C534.789 423.361 534.708 423.117 534.545 422.872C534.382 422.709 534.219 422.465 533.974 422.383C533.729 422.22 533.485 422.138 533.159 422.057C532.833 421.975 532.507 421.894 532.18 421.731C531.61 421.568 531.121 421.405 530.55 421.16C529.979 420.916 529.572 420.671 529.083 420.345C528.675 420.019 528.267 419.53 528.023 419.041C527.778 418.551 527.615 417.818 527.615 417.003C527.615 416.269 527.778 415.617 528.023 415.046C528.267 414.475 528.675 413.986 529.164 413.579C529.653 413.171 530.224 412.845 530.795 412.682C531.447 412.437 532.099 412.356 532.751 412.356C534.545 412.356 536.175 413.008 537.561 414.394L536.827 415.78C536.583 416.269 536.257 416.432 535.931 416.432C535.767 416.432 535.523 416.35 535.278 416.269C535.034 416.187 534.871 416.024 534.708 415.943C534.545 415.861 534.382 415.698 534.219 415.617C534.056 415.535 533.811 415.454 533.648 415.372C533.403 415.291 533.159 415.291 532.833 415.291C532.18 415.291 531.691 415.454 531.284 415.78C530.958 416.106 530.795 416.432 530.795 416.921C530.795 417.166 530.876 417.329 531.039 417.573C531.202 417.818 531.365 417.899 531.61 418.062C531.854 418.225 532.099 418.307 532.425 418.47C532.751 418.551 533.077 418.714 533.403 418.796C533.974 418.959 534.463 419.122 535.034 419.367C535.604 419.611 536.094 419.856 536.501 420.182C536.909 420.508 537.235 420.916 537.561 421.405C537.887 421.894 537.969 422.546 537.969 423.361C537.969 424.176 537.806 424.91 537.561 425.562C537.316 426.215 536.909 426.785 536.42 427.193C535.931 427.682 535.36 428.008 534.626 428.253C533.974 428.497 533.24 428.579 532.425 428.579C531.365 428.579 530.387 428.416 529.49 427.927Z" fill="#D4D3F2" fill-opacity="0.1"/>
<path d="M544.083 428.414V415.534H539.354V412.517H552.072V415.534H547.344V428.414H544.083Z" fill="#D4D3F2" fill-opacity="0.1"/>
<path d="M560.387 412.517L566.664 428.414H564.219C563.567 428.414 563.159 428.088 562.914 427.517L561.773 424.501H556.148L555.007 427.599C554.925 427.844 554.762 428.088 554.518 428.251C554.273 428.414 554.028 428.496 553.702 428.496H551.257L557.615 412.599H560.387V412.517ZM560.713 421.729L559.001 417.246L557.289 421.729H560.713Z" fill="#D4D3F2" fill-opacity="0.1"/>
<path d="M570.904 412.681C571.067 412.762 571.23 412.925 571.393 413.17L578.567 422.545C578.567 422.382 578.567 422.3 578.567 422.137V421.648V412.599H581.665V428.496H580.034C579.708 428.496 579.464 428.415 579.3 428.333C579.137 428.252 578.974 428.088 578.73 427.844L571.556 418.469V428.496H568.458V412.599H570.17C570.496 412.518 570.741 412.599 570.904 412.681Z" fill="#D4D3F2" fill-opacity="0.1"/>
<path d="M584.518 412.517H590.632C591.855 412.517 592.915 412.68 593.812 413.088C594.708 413.496 595.605 413.985 596.257 414.718C596.909 415.452 597.48 416.267 597.888 417.246C598.295 418.224 598.458 419.284 598.458 420.507C598.458 421.648 598.295 422.708 597.888 423.686C597.48 424.664 596.991 425.479 596.257 426.213C595.605 426.947 594.708 427.436 593.812 427.844C592.915 428.251 591.773 428.414 590.632 428.414H584.518V412.517ZM593.893 424.175C594.708 423.278 595.116 422.055 595.116 420.507C595.116 418.958 594.708 417.735 593.893 416.838C593.078 415.941 592.018 415.534 590.632 415.534H587.86V425.561H590.632C592.018 425.479 593.078 425.072 593.893 424.175Z" fill="#D4D3F2" fill-opacity="0.1"/>
<path d="M601.067 428.414V412.517H604.409V428.414H601.067Z" fill="#D4D3F2" fill-opacity="0.1"/>
<path d="M609.627 412.681C609.79 412.762 609.953 412.925 610.116 413.17L617.29 422.545C617.29 422.382 617.29 422.3 617.29 422.137V421.648V412.599H620.388V428.496H618.757C618.431 428.496 618.187 428.415 618.024 428.333C617.861 428.252 617.698 428.088 617.453 427.844L610.279 418.469V428.496H607.181V412.599H608.893C609.219 412.518 609.464 412.599 609.627 412.681Z" fill="#D4D3F2" fill-opacity="0.1"/>
<path d="M627.888 428.008C626.828 427.6 626.013 427.111 625.279 426.377C624.545 425.644 623.975 424.828 623.567 423.85C623.16 422.872 622.915 421.731 622.915 420.508C622.915 419.285 623.078 418.144 623.486 417.165C623.893 416.187 624.464 415.29 625.116 414.638C625.768 413.986 626.665 413.415 627.643 413.008C628.622 412.6 629.763 412.437 630.986 412.437C633.268 412.437 635.306 413.252 637.018 414.801C636.855 415.046 636.692 415.29 636.611 415.535C636.448 415.779 636.366 416.024 636.203 416.187C636.04 416.432 635.877 416.595 635.714 416.676C635.551 416.758 635.388 416.839 635.225 416.839C635.143 416.839 634.98 416.839 634.899 416.758C634.654 416.676 634.41 416.513 634.165 416.432C633.921 416.269 633.676 416.187 633.431 416.024C633.187 415.861 632.861 415.779 632.453 415.698C632.046 415.616 631.556 415.535 630.986 415.535C630.252 415.535 629.6 415.616 629.029 415.861C628.459 416.106 627.969 416.432 627.562 416.921C627.154 417.41 626.828 417.899 626.584 418.551C626.339 419.203 626.257 419.856 626.257 420.671C626.257 422.301 626.665 423.524 627.562 424.502C628.459 425.399 629.681 425.888 631.149 425.888C631.638 425.888 632.127 425.807 632.616 425.725C633.105 425.644 633.431 425.481 633.839 425.318V423.198H632.209C631.883 423.198 631.638 423.116 631.393 422.953C631.23 422.79 631.067 422.546 631.067 422.22V420.426H636.855V427.03C635.959 427.682 635.062 428.171 634.165 428.497C633.187 428.823 632.209 428.986 631.149 428.986C630.089 428.578 628.948 428.415 627.888 428.008Z" fill="#D4D3F2" fill-opacity="0.1"/>
<path d="M646.393 412.517C647.127 412.517 647.535 412.843 647.698 413.496L650.388 422.463L653.486 413.414C653.567 413.17 653.73 412.925 653.975 412.762C654.22 412.599 654.464 412.517 654.79 412.517H655.361C656.013 412.517 656.502 412.843 656.665 413.414L659.763 422.463L662.453 413.414C662.535 413.17 662.698 412.925 662.943 412.762C663.187 412.599 663.432 412.517 663.758 412.517H666.203L661.231 428.414H658.54L655.116 418.142L651.692 428.414H648.921L643.948 412.517H646.393Z" fill="#D4D3F2" fill-opacity="0.1"/>
<path d="M667.834 428.414V412.517H671.176V428.414H667.834Z" fill="#D4D3F2" fill-opacity="0.1"/>
<path d="M678.269 428.414V415.534H673.541V412.517H686.258V415.534H681.53V428.414H678.269Z" fill="#D4D3F2" fill-opacity="0.1"/>
<path d="M698.486 428.414V421.811H691.965V428.414H688.622V412.517H691.965V419.039H698.486V412.517H701.829V428.414H698.486Z" fill="#D4D3F2" fill-opacity="0.1"/>
<path d="M711.611 412.517C712.182 412.517 712.59 412.762 712.834 413.333L716.177 418.958L719.519 413.333C719.682 413.088 719.845 412.843 720.008 412.762C720.171 412.599 720.416 412.517 720.742 412.517H723.677L717.807 422.137V428.414H714.465V422.137L708.595 412.517H711.611Z" fill="#D4D3F2" fill-opacity="0.1"/>
<path d="M728.405 428.007C727.427 427.599 726.612 427.029 725.959 426.295C725.307 425.561 724.737 424.746 724.411 423.686C724.003 422.708 723.84 421.648 723.84 420.425C723.84 419.203 724.003 418.143 724.411 417.165C724.818 416.186 725.307 415.29 725.959 414.556C726.612 413.822 727.427 413.251 728.405 412.844C729.383 412.436 730.443 412.273 731.666 412.273C732.889 412.273 733.949 412.436 734.927 412.844C735.905 413.251 736.72 413.822 737.373 414.556C738.025 415.29 738.595 416.105 738.922 417.165C739.329 418.143 739.492 419.203 739.492 420.425C739.492 421.648 739.329 422.708 738.922 423.686C738.514 424.665 738.025 425.561 737.373 426.295C736.72 427.029 735.824 427.599 734.927 428.007C734.03 428.415 732.889 428.578 731.666 428.578C730.443 428.578 729.383 428.415 728.405 428.007ZM734.927 424.175C735.742 423.279 736.15 422.056 736.15 420.507C736.15 418.876 735.742 417.654 734.927 416.757C734.112 415.86 733.052 415.453 731.666 415.453C730.28 415.453 729.22 415.86 728.405 416.757C727.59 417.654 727.182 418.876 727.182 420.507C727.182 422.056 727.59 423.36 728.405 424.175C729.22 425.072 730.28 425.48 731.666 425.48C733.052 425.561 734.112 425.072 734.927 424.175Z" fill="#D4D3F2" fill-opacity="0.1"/>
<path d="M745.851 428.088C745.036 427.762 744.383 427.273 743.813 426.702C743.242 426.132 742.835 425.398 742.508 424.664C742.182 423.931 742.019 423.034 742.019 422.055V412.517H745.28V422.055C745.28 422.545 745.362 423.034 745.525 423.441C745.688 423.849 745.851 424.257 746.177 424.583C746.422 424.909 746.748 425.153 747.155 425.316C747.563 425.479 747.97 425.561 748.46 425.561C749.438 425.561 750.253 425.235 750.824 424.583C751.394 423.93 751.639 423.115 751.639 422.055V412.517H754.981V422.055C754.981 422.952 754.818 423.849 754.574 424.664C754.248 425.479 753.84 426.132 753.269 426.702C752.699 427.273 752.047 427.762 751.231 428.088C750.416 428.414 749.519 428.577 748.541 428.577C747.481 428.577 746.666 428.414 745.851 428.088Z" fill="#D4D3F2" fill-opacity="0.1"/>
<path d="M768.351 430.127V409.746H771.041V430.127H768.351Z" fill="#D4D3F2" fill-opacity="0.1"/>
</g>
</svg>
