<svg width="24" height="24" viewBox="0 0 24 24" fill="none" xmlns="http://www.w3.org/2000/svg">
<g clip-path="url(#clip0_190_396)">
<path d="M12 23C5.92977 23 1 18.0702 1 12C1 5.92977 5.92977 1 12 1C18.0702 1 23 5.92977 23 12C23 18.0702 18.0702 23 12 23ZM12 3.20736C7.14381 3.20736 3.20736 7.14381 3.20736 12C3.20736 16.8562 7.14381 20.7926 12 20.7926C16.8562 20.7926 20.7926 16.8562 20.7926 12C20.7926 7.14381 16.8562 3.20736 12 3.20736Z" fill="#FDFDFF"/>
<path d="M12.3679 21.8595C12.184 21.8595 12.0368 21.8228 11.8529 21.7492C8.21075 19.8361 5.92981 16.1204 5.92981 12C5.92981 7.87961 8.21075 4.16389 11.8529 2.25085C12.4047 1.95653 13.0669 2.17727 13.3245 2.72911C13.6188 3.28095 13.398 3.94316 12.8462 4.20068C9.97663 5.74583 8.17396 8.72576 8.17396 12C8.17396 15.2743 9.97663 18.2542 12.883 19.7993C13.4348 20.0937 13.6188 20.7559 13.3612 21.2709C13.1405 21.6756 12.7726 21.8595 12.3679 21.8595Z" fill="#FDFDFF"/>
<path d="M11.6321 21.8596C11.2274 21.8596 10.8595 21.6388 10.6388 21.2709C10.3445 20.7191 10.5652 20.0569 11.117 19.7994C14.0234 18.291 15.8261 15.2743 15.8261 12C15.8261 8.72577 14.0234 5.74584 11.117 4.20069C10.5652 3.90637 10.3813 3.24417 10.6388 2.72912C10.9331 2.17728 11.5953 1.99333 12.1104 2.25085C15.7525 4.1639 18.0334 7.87962 18.0334 12C18.0334 16.1204 15.7525 19.8361 12.1104 21.7492C12 21.8228 11.816 21.8596 11.6321 21.8596Z" fill="#FDFDFF"/>
<path d="M21.8963 13.1036H2.10368C1.47826 13.1036 1 12.6254 1 11.9999C1 11.3745 1.47826 10.8963 2.10368 10.8963H21.8963C22.5217 10.8963 23 11.3745 23 11.9999C23 12.6254 22.5217 13.1036 21.8963 13.1036Z" fill="#FDFDFF"/>
</g>
<defs>
<clipPath id="clip0_190_396">
<rect width="22" height="22" fill="white" transform="translate(1 1)"/>
</clipPath>
</defs>
</svg>
