<svg width="397" height="262" viewBox="0 0 397 262" fill="none" xmlns="http://www.w3.org/2000/svg">
<g opacity="0.45">
<path d="M184.116 1.74582C181.56 2.97291 179.259 3.9955 177.009 5.12034C165.914 10.6934 160.086 20.1523 158.501 32.7812C157.018 44.8476 157.018 57.4765 156.967 70.0542C156.916 94.8518 157.018 119.649 157.12 144.498C157.12 146.237 156.507 146.748 154.666 146.697C143.827 146.594 133.038 146.646 122.199 146.646C122.046 146.39 121.841 146.134 121.841 145.981C122.148 112.952 121.381 79.5642 122.506 46.7905C122.813 37.3828 123.835 28.3329 128.232 20.9192C135.237 9.1084 147.15 2.92179 162.949 1.13227C169.544 0.416463 176.447 0.569848 184.116 1.74582Z" fill="#D4D3F2" fill-opacity="0.1"/>
<path d="M227.014 1.74561C224.713 2.76819 222.77 3.63738 220.878 4.55771C208.352 10.4375 202.267 21.0724 200.989 35.184C199.404 52.7213 199.762 70.9232 199.711 89.0229C199.711 107.481 199.813 125.938 199.966 144.447C199.966 146.083 199.506 146.748 197.563 146.748C187.184 146.645 176.856 146.645 166.579 146.697C165.045 146.697 164.636 146.492 164.636 144.958C164.892 112.287 164.483 79.3595 165.199 46.8414C165.403 37.4848 166.63 28.5372 170.925 21.1747C177.93 9.10819 189.945 2.76819 206.153 1.18319C212.595 0.518516 219.395 0.723027 227.014 1.74561Z" fill="#D4D3F2" fill-opacity="0.1"/>
<path d="M249.153 146.697C249.153 133.148 249.153 120.008 249.102 106.816C248.999 87.8474 249.408 68.9808 248.693 49.8074C248.488 43.5697 247.619 37.2297 244.807 30.4806C241.483 22.5556 235.706 15.9089 227.73 10.6426C225.071 8.90417 225.787 8.49513 227.014 7.62594C236.575 0.876903 258.56 3.3311 273.746 25.0098C280.239 34.2642 282.438 43.3652 283.205 52.2616C284.329 65.4529 283.614 78.0307 283.665 90.9152C283.767 108.913 283.614 126.808 283.563 144.754C283.563 145.674 283.92 146.748 282.335 146.748C271.394 146.646 260.452 146.697 249.153 146.697Z" fill="#D4D3F2" fill-opacity="0.1"/>
<path d="M207.431 146.696C207.38 137.646 207.278 128.954 207.329 120.262C207.38 95.2092 206.613 69.8492 207.482 45.1028C207.84 34.8258 209.476 25.1624 214.896 17.4931C216.327 15.3968 218.117 13.6073 219.906 11.8177C220.673 11.0508 221.389 11.1019 222.719 12.1245C234.223 20.5608 240.051 30.4799 240.921 41.217C241.943 53.9992 241.483 66.3213 241.585 78.8479C241.687 100.833 241.636 122.768 241.687 144.702C241.687 146.236 241.176 146.747 239.489 146.747C228.905 146.645 218.373 146.696 207.431 146.696Z" fill="#D4D3F2" fill-opacity="0.1"/>
<path d="M5.21556 213.472C5.36895 213.523 5.52234 213.676 5.6246 213.932L9.56154 220.988L13.4473 213.932C13.6007 213.676 13.7541 213.523 13.8564 213.472C13.9586 213.42 14.2143 213.369 14.4699 213.369H16.1572V226.254H13.703V218.431L10.6864 223.851C10.533 224.055 10.3796 224.26 10.1751 224.362C9.97057 224.464 9.76605 224.515 9.51041 224.515C9.30589 224.515 9.05024 224.464 8.84573 224.362C8.64121 224.26 8.48782 224.106 8.33444 223.851L5.26669 218.38V226.254H2.8125V213.369H4.49976C4.85766 213.42 5.06218 213.42 5.21556 213.472Z" fill="#D4D3F2" fill-opacity="0.1"/>
<path d="M25.156 213.42L30.2689 226.305H28.2749C27.7636 226.305 27.4057 226.049 27.2012 225.589L26.2297 223.084H21.6792L20.7078 225.538C20.6566 225.742 20.5033 225.896 20.3499 226.049C20.1454 226.203 19.9408 226.254 19.6852 226.254H17.6912L22.8552 213.369H25.156V213.42ZM25.3605 220.834L23.98 217.204L22.5996 220.834H25.3605Z" fill="#D4D3F2" fill-opacity="0.1"/>
<path d="M33.5922 213.523C33.7456 213.574 33.8479 213.727 34.0012 213.932L39.83 221.499C39.83 221.397 39.83 221.294 39.83 221.141V220.783V213.42H42.2842V226.254H40.9548C40.6992 226.254 40.5458 226.203 40.3924 226.152C40.239 226.1 40.0856 225.947 39.9834 225.743L34.1546 218.175V226.254H31.7004V213.369H33.0809C33.2854 213.42 33.49 213.42 33.5922 213.523Z" fill="#D4D3F2" fill-opacity="0.1"/>
<path d="M44.636 226.254V213.369H47.2947V226.254H44.636Z" fill="#D4D3F2" fill-opacity="0.1"/>
<path d="M58.2366 226.254V213.369H60.8953V223.8H66.0082V226.203H58.2366V226.254Z" fill="#D4D3F2" fill-opacity="0.1"/>
<path d="M74.189 213.42L79.3019 226.305H77.3078C76.7966 226.305 76.4386 226.049 76.2341 225.589L75.2627 223.084H70.7122L69.7407 225.538C69.6896 225.742 69.5362 225.896 69.3828 226.049C69.1783 226.203 68.9738 226.254 68.7182 226.254H66.7241L71.8882 213.369H74.189V213.42ZM74.4446 220.834L73.0641 217.204L71.6836 220.834H74.4446Z" fill="#D4D3F2" fill-opacity="0.1"/>
<path d="M80.4779 213.42C81.0403 213.42 81.3982 213.676 81.5516 214.187L83.699 221.448L86.1532 214.136C86.2043 213.932 86.3577 213.778 86.5111 213.625C86.7156 213.471 86.9201 213.42 87.1758 213.42H87.6359C88.1984 213.42 88.5051 213.676 88.7097 214.187L91.1639 221.499L93.3113 214.187C93.3624 213.983 93.5158 213.829 93.6692 213.676C93.8737 213.523 94.0782 213.471 94.385 213.471H96.3279L92.3398 226.356H90.1413L87.3803 218.022L84.6193 226.356H82.3697L78.3816 213.471H80.4779V213.42Z" fill="#D4D3F2" fill-opacity="0.1"/>
<path d="M101.952 226.254V213.369H110.286V215.772H104.611V218.789H109.468V221.192H104.611V226.254H101.952Z" fill="#D4D3F2" fill-opacity="0.1"/>
<path d="M112.177 226.254V213.369H114.836V226.254H112.177Z" fill="#D4D3F2" fill-opacity="0.1"/>
<path d="M117.188 213.42H121.023C122.71 213.42 123.938 213.778 124.704 214.443C125.471 215.108 125.88 216.028 125.88 217.204C125.88 218.022 125.676 218.789 125.267 219.351C124.858 219.914 124.244 220.425 123.477 220.783C123.528 220.885 123.631 220.987 123.682 221.09C123.733 221.192 123.835 221.294 123.938 221.396L127.517 226.254H125.011C124.602 226.254 124.244 226.049 123.938 225.691L120.87 221.499C120.819 221.448 120.819 221.396 120.768 221.396C120.716 221.396 120.665 221.345 120.563 221.345H119.898V226.254H117.24V213.42H117.188ZM119.796 219.096H120.921C121.688 219.096 122.25 218.942 122.608 218.584C122.966 218.278 123.171 217.817 123.171 217.306C123.171 216.284 122.404 215.772 120.921 215.721H119.694V219.096H119.796Z" fill="#D4D3F2" fill-opacity="0.1"/>
<path d="M130.942 213.472C131.095 213.523 131.249 213.676 131.351 213.932L135.288 220.988L139.174 213.932C139.327 213.676 139.48 213.523 139.583 213.472C139.685 213.42 139.941 213.369 140.196 213.369H141.884V226.254H139.429V218.431L136.413 223.851C136.259 224.055 136.106 224.26 135.901 224.362C135.697 224.464 135.492 224.515 135.237 224.515C135.032 224.515 134.777 224.464 134.572 224.362C134.368 224.26 134.214 224.106 134.061 223.851L130.993 218.38V226.254H128.539V213.369H130.226C130.584 213.42 130.789 213.42 130.942 213.472Z" fill="#D4D3F2" fill-opacity="0.1"/>
<path d="M154.973 213.42L160.086 226.305H158.092C157.58 226.305 157.222 226.049 157.018 225.589L156.046 223.084H151.496L150.524 225.538C150.473 225.742 150.32 225.896 150.167 226.049C149.962 226.203 149.757 226.254 149.502 226.254H147.508L152.672 213.369H154.973V213.42ZM155.177 220.834L153.797 217.204L152.416 220.834H155.177Z" fill="#D4D3F2" fill-opacity="0.1"/>
<path d="M163.46 213.523C163.614 213.574 163.716 213.727 163.869 213.932L169.698 221.499C169.698 221.397 169.698 221.294 169.698 221.141V220.783V213.42H172.152V226.254H170.823C170.567 226.254 170.414 226.203 170.26 226.152C170.107 226.1 169.954 225.947 169.851 225.743L164.023 218.175V226.254H161.568V213.369H162.949C163.153 213.42 163.307 213.42 163.46 213.523Z" fill="#D4D3F2" fill-opacity="0.1"/>
<path d="M174.453 213.42H179.412C180.384 213.42 181.253 213.574 182.02 213.88C182.787 214.187 183.451 214.647 184.014 215.21C184.576 215.772 184.985 216.437 185.292 217.255C185.599 218.073 185.752 218.942 185.752 219.863C185.752 220.783 185.599 221.652 185.292 222.47C184.985 223.237 184.576 223.953 184.014 224.515C183.451 225.078 182.787 225.538 182.02 225.845C181.253 226.151 180.384 226.305 179.412 226.305H174.453V213.42ZM182.071 222.828C182.736 222.112 183.042 221.141 183.042 219.863C183.042 218.584 182.736 217.562 182.071 216.897C181.406 216.181 180.537 215.823 179.412 215.823H177.162V223.902H179.412C180.537 223.902 181.406 223.544 182.071 222.828Z" fill="#D4D3F2" fill-opacity="0.1"/>
<path d="M192.042 226.254V213.369H194.7V223.8H199.813V226.203H192.042V226.254Z" fill="#D4D3F2" fill-opacity="0.1"/>
<path d="M201.756 226.254V213.369H210.09V215.772H204.415V218.584H209.016V220.936H204.415V223.902H210.09V226.305H201.756V226.254Z" fill="#D4D3F2" fill-opacity="0.1"/>
<path d="M215.765 225.947C214.947 225.64 214.231 225.18 213.617 224.617C213.004 224.055 212.544 223.339 212.237 222.572C211.879 221.754 211.726 220.834 211.726 219.862C211.726 218.891 211.879 217.971 212.186 217.153C212.493 216.334 212.953 215.67 213.515 215.056C214.078 214.443 214.793 214.034 215.611 213.727C216.429 213.42 217.299 213.267 218.27 213.267C220.111 213.267 221.747 213.931 223.127 215.21C223.025 215.414 222.872 215.568 222.769 215.772C222.667 215.977 222.565 216.13 222.412 216.334C222.258 216.539 222.156 216.641 222.054 216.692C221.951 216.744 221.798 216.795 221.696 216.795C221.593 216.795 221.491 216.795 221.389 216.744C221.184 216.641 220.98 216.539 220.775 216.437C220.622 216.334 220.418 216.232 220.213 216.13C220.008 216.028 219.753 215.925 219.446 215.874C219.139 215.772 218.73 215.772 218.27 215.772C217.708 215.772 217.145 215.874 216.685 216.079C216.225 216.283 215.816 216.539 215.458 216.897C215.151 217.255 214.896 217.664 214.691 218.175C214.487 218.686 214.435 219.249 214.435 219.862C214.435 221.192 214.793 222.214 215.509 222.93C216.225 223.646 217.196 224.055 218.423 224.055C218.833 224.055 219.242 224.004 219.599 223.953C219.957 223.85 220.264 223.748 220.571 223.595V221.856H219.293C219.037 221.856 218.781 221.805 218.628 221.652C218.475 221.499 218.372 221.294 218.372 221.038V219.556H223.076V224.873C222.36 225.384 221.645 225.793 220.878 226.049C220.111 226.305 219.293 226.458 218.423 226.458C217.503 226.407 216.583 226.254 215.765 225.947Z" fill="#D4D3F2" fill-opacity="0.1"/>
<path d="M231.308 213.42L236.421 226.305H234.427C233.916 226.305 233.558 226.049 233.353 225.589L232.382 223.084H227.831L226.86 225.538C226.809 225.742 226.655 225.896 226.502 226.049C226.297 226.203 226.093 226.254 225.837 226.254H223.843L229.007 213.369H231.308V213.42ZM231.513 220.834L230.132 217.204L228.752 220.834H231.513Z" fill="#D4D3F2" fill-opacity="0.1"/>
<path d="M237.853 226.254V213.369H240.512V223.8H245.625V226.203H237.853V226.254Z" fill="#D4D3F2" fill-opacity="0.1"/>
<path d="M257.231 226.305C256.26 226.305 255.39 226.151 254.623 225.794C253.857 225.436 253.243 224.975 252.681 224.362C252.169 223.748 251.76 223.084 251.453 222.266C251.198 221.448 251.044 220.63 251.044 219.709C251.044 218.789 251.198 217.92 251.505 217.102C251.811 216.284 252.22 215.619 252.783 215.005C253.345 214.392 254.01 213.983 254.777 213.625C255.544 213.267 256.413 213.114 257.384 213.114C258.305 213.114 259.123 213.267 259.89 213.625C260.657 213.983 261.372 214.443 261.986 215.056L261.372 215.977C261.117 216.335 260.81 216.539 260.452 216.539C260.145 216.539 259.89 216.437 259.583 216.232C259.276 216.028 258.969 215.875 258.612 215.772C258.254 215.67 257.845 215.619 257.333 215.619C256.771 215.619 256.311 215.721 255.851 215.875C255.39 216.079 255.032 216.335 254.726 216.693C254.419 217.05 254.163 217.459 254.01 217.971C253.857 218.482 253.754 219.045 253.754 219.709C253.754 220.374 253.857 220.936 254.01 221.448C254.214 221.959 254.419 222.368 254.777 222.726C255.084 223.084 255.493 223.339 255.902 223.544C256.311 223.748 256.822 223.8 257.282 223.8C257.742 223.8 258.151 223.697 258.612 223.544C259.072 223.39 259.43 223.186 259.736 222.981C260.043 222.828 260.35 222.726 260.657 222.726C261.066 222.726 261.372 222.879 261.628 223.237L262.139 223.902C260.861 225.487 259.225 226.305 257.231 226.305Z" fill="#D4D3F2" fill-opacity="0.1"/>
<path d="M267.354 225.896C266.588 225.589 265.923 225.129 265.36 224.516C264.798 223.902 264.389 223.237 264.082 222.419C263.775 221.601 263.622 220.732 263.622 219.812C263.622 218.891 263.775 217.971 264.082 217.204C264.389 216.437 264.798 215.721 265.36 215.108C265.923 214.545 266.588 214.085 267.354 213.727C268.121 213.421 268.991 213.216 269.962 213.216C270.934 213.216 271.803 213.369 272.57 213.727C273.337 214.034 274.001 214.494 274.564 215.108C275.126 215.67 275.535 216.386 275.842 217.204C276.149 218.022 276.302 218.891 276.302 219.812C276.302 220.732 276.149 221.652 275.842 222.419C275.535 223.237 275.126 223.902 274.564 224.516C274.001 225.078 273.337 225.538 272.57 225.896C271.803 226.203 270.934 226.407 269.962 226.407C268.991 226.407 268.121 226.254 267.354 225.896ZM272.621 222.828C273.285 222.113 273.592 221.09 273.592 219.812C273.592 218.533 273.285 217.511 272.621 216.795C271.956 216.079 271.087 215.721 269.962 215.721C268.837 215.721 267.968 216.079 267.303 216.795C266.639 217.511 266.332 218.533 266.332 219.812C266.332 221.09 266.639 222.113 267.303 222.828C267.968 223.544 268.837 223.902 269.962 223.902C271.087 223.902 271.956 223.544 272.621 222.828Z" fill="#D4D3F2" fill-opacity="0.1"/>
<path d="M280.392 213.523C280.546 213.574 280.648 213.727 280.801 213.932L286.63 221.499C286.63 221.397 286.63 221.294 286.63 221.141V220.783V213.42H289.084V226.254H287.755C287.499 226.254 287.346 226.203 287.192 226.152C287.039 226.1 286.886 225.947 286.783 225.743L280.955 218.175V226.254H278.5V213.369H279.881C280.085 213.42 280.29 213.42 280.392 213.523Z" fill="#D4D3F2" fill-opacity="0.1"/>
<path d="M292.816 225.845C292.1 225.487 291.436 224.976 290.822 224.362L291.487 223.237C291.589 223.084 291.691 222.931 291.845 222.879C291.947 222.828 292.1 222.777 292.203 222.777C292.356 222.777 292.51 222.828 292.714 222.879C292.867 222.982 293.021 223.084 293.225 223.186C293.583 223.442 293.89 223.595 294.197 223.749C294.504 223.902 294.861 223.953 295.27 223.953C295.833 223.953 296.293 223.8 296.651 223.493C297.009 223.186 297.162 222.828 297.162 222.317C297.162 222.113 297.111 221.908 297.009 221.755C296.907 221.601 296.753 221.448 296.549 221.346C296.344 221.243 296.14 221.141 295.884 221.039C295.628 220.937 295.373 220.885 295.117 220.783C294.708 220.681 294.248 220.528 293.839 220.374C293.43 220.221 293.021 219.965 292.663 219.709C292.305 219.454 292.049 219.045 291.845 218.636C291.64 218.176 291.538 217.664 291.538 217C291.538 216.437 291.64 215.875 291.896 215.415C292.1 214.954 292.407 214.545 292.816 214.239C293.174 213.932 293.634 213.676 294.146 213.472C294.657 213.318 295.168 213.216 295.731 213.216C297.213 213.216 298.492 213.778 299.616 214.852L299.054 215.926C298.85 216.284 298.594 216.488 298.287 216.488C298.134 216.488 297.98 216.437 297.776 216.335C297.571 216.233 297.418 216.13 297.316 216.079C297.162 215.977 297.06 215.926 296.907 215.824C296.753 215.773 296.6 215.67 296.446 215.67C296.293 215.619 296.037 215.619 295.833 215.619C295.27 215.619 294.861 215.721 294.606 215.977C294.35 216.233 294.197 216.539 294.197 216.897C294.197 217.102 294.248 217.255 294.35 217.409C294.452 217.562 294.606 217.664 294.81 217.818C295.015 217.92 295.219 218.022 295.475 218.124C295.731 218.227 295.986 218.278 296.242 218.38C296.651 218.533 297.111 218.687 297.52 218.84C297.98 218.994 298.338 219.249 298.696 219.505C299.054 219.761 299.31 220.118 299.514 220.528C299.719 220.937 299.821 221.448 299.821 222.113C299.821 222.777 299.719 223.34 299.463 223.902C299.259 224.413 298.901 224.873 298.492 225.231C298.083 225.589 297.622 225.896 297.06 226.101C296.498 226.305 295.935 226.407 295.27 226.407C294.299 226.407 293.532 226.254 292.816 225.845Z" fill="#D4D3F2" fill-opacity="0.1"/>
<path d="M304.423 225.998C303.759 225.743 303.247 225.333 302.787 224.873C302.327 224.413 301.969 223.851 301.765 223.186C301.509 222.521 301.407 221.857 301.407 221.09V213.369H304.065V221.09C304.065 221.499 304.117 221.857 304.27 222.215C304.372 222.572 304.577 222.879 304.781 223.135C304.986 223.391 305.293 223.595 305.599 223.697C305.906 223.851 306.264 223.902 306.673 223.902C307.491 223.902 308.105 223.646 308.565 223.135C309.025 222.624 309.229 221.959 309.229 221.141V213.42H311.888V221.141C311.888 221.908 311.786 222.572 311.53 223.237C311.275 223.902 310.968 224.413 310.508 224.924C310.048 225.385 309.485 225.794 308.872 226.049C308.207 226.305 307.491 226.458 306.673 226.458C305.804 226.407 305.088 226.254 304.423 225.998Z" fill="#D4D3F2" fill-opacity="0.1"/>
<path d="M314.188 226.254V213.369H316.847V223.8H321.96V226.203H314.188V226.254Z" fill="#D4D3F2" fill-opacity="0.1"/>
<path d="M325.437 226.254V215.823H321.602V213.42H331.879V215.823H328.044V226.254H325.437Z" fill="#D4D3F2" fill-opacity="0.1"/>
<path d="M338.679 213.42L343.792 226.305H341.798C341.287 226.305 340.929 226.049 340.724 225.589L339.753 223.084H335.202L334.231 225.538C334.18 225.742 334.026 225.896 333.873 226.049C333.669 226.203 333.464 226.254 333.208 226.254H331.214L336.378 213.369H338.679V213.42ZM338.884 220.834L337.503 217.204L336.123 220.834H338.884Z" fill="#D4D3F2" fill-opacity="0.1"/>
<path d="M346.86 226.254V215.823H343.025V213.42H353.353V215.823H349.519V226.254H346.86Z" fill="#D4D3F2" fill-opacity="0.1"/>
<path d="M355.348 226.254V213.369H358.006V226.254H355.348Z" fill="#D4D3F2" fill-opacity="0.1"/>
<path d="M363.58 225.896C362.813 225.589 362.148 225.129 361.586 224.516C361.023 223.902 360.614 223.237 360.307 222.419C360.001 221.601 359.847 220.732 359.847 219.812C359.847 218.891 360.001 217.971 360.307 217.204C360.614 216.437 361.023 215.721 361.586 215.108C362.148 214.545 362.813 214.085 363.58 213.727C364.347 213.421 365.216 213.216 366.187 213.216C367.159 213.216 368.028 213.369 368.795 213.727C369.562 214.034 370.226 214.494 370.789 215.108C371.351 215.67 371.76 216.386 372.067 217.204C372.374 218.022 372.527 218.891 372.527 219.812C372.527 220.732 372.374 221.652 372.067 222.419C371.76 223.237 371.351 223.902 370.789 224.516C370.226 225.078 369.562 225.538 368.795 225.896C368.028 226.203 367.159 226.407 366.187 226.407C365.216 226.407 364.347 226.254 363.58 225.896ZM368.846 222.828C369.511 222.113 369.817 221.09 369.817 219.812C369.817 218.533 369.511 217.511 368.846 216.795C368.181 216.079 367.312 215.721 366.187 215.721C365.062 215.721 364.193 216.079 363.528 216.795C362.864 217.511 362.557 218.533 362.557 219.812C362.557 221.09 362.864 222.113 363.528 222.828C364.193 223.544 365.062 223.902 366.187 223.902C367.312 223.902 368.181 223.544 368.846 222.828Z" fill="#D4D3F2" fill-opacity="0.1"/>
<path d="M376.617 213.523C376.771 213.574 376.873 213.727 377.026 213.932L382.855 221.499C382.855 221.397 382.855 221.294 382.855 221.141V220.783V213.42H385.309V226.254H383.98C383.724 226.254 383.571 226.203 383.418 226.152C383.264 226.1 383.111 225.947 383.008 225.743L377.18 218.175V226.254H374.726V213.369H376.106C376.311 213.42 376.515 213.42 376.617 213.523Z" fill="#D4D3F2" fill-opacity="0.1"/>
<path d="M388.991 225.845C388.275 225.487 387.61 224.976 386.997 224.362L387.661 223.237C387.764 223.084 387.866 222.931 388.019 222.879C388.121 222.828 388.275 222.777 388.377 222.777C388.53 222.777 388.684 222.828 388.888 222.879C389.042 222.982 389.195 223.084 389.4 223.186C389.758 223.442 390.064 223.595 390.371 223.749C390.678 223.902 391.036 223.953 391.445 223.953C392.007 223.953 392.467 223.8 392.825 223.493C393.183 223.186 393.337 222.828 393.337 222.317C393.337 222.113 393.285 221.908 393.183 221.755C393.081 221.601 392.928 221.448 392.723 221.346C392.519 221.243 392.314 221.141 392.058 221.039C391.803 220.937 391.547 220.885 391.291 220.783C390.882 220.681 390.422 220.528 390.013 220.374C389.604 220.221 389.195 219.965 388.837 219.709C388.479 219.454 388.224 219.045 388.019 218.636C387.815 218.176 387.712 217.664 387.712 217C387.712 216.437 387.815 215.875 388.07 215.415C388.275 214.954 388.582 214.545 388.991 214.239C389.349 213.932 389.809 213.676 390.32 213.472C390.831 213.318 391.343 213.216 391.905 213.216C393.388 213.216 394.666 213.778 395.791 214.852L395.228 215.926C395.024 216.284 394.768 216.488 394.461 216.488C394.308 216.488 394.155 216.437 393.95 216.335C393.746 216.233 393.592 216.13 393.49 216.079C393.337 215.977 393.234 215.926 393.081 215.824C392.928 215.773 392.774 215.67 392.621 215.67C392.467 215.619 392.212 215.619 392.007 215.619C391.445 215.619 391.036 215.721 390.78 215.977C390.524 216.233 390.371 216.539 390.371 216.897C390.371 217.102 390.422 217.255 390.524 217.409C390.627 217.562 390.78 217.664 390.985 217.818C391.189 217.92 391.394 218.022 391.649 218.124C391.905 218.227 392.161 218.278 392.416 218.38C392.825 218.533 393.285 218.687 393.695 218.84C394.155 218.994 394.513 219.249 394.87 219.505C395.228 219.761 395.484 220.118 395.689 220.528C395.893 220.937 395.995 221.448 395.995 222.113C395.995 222.777 395.893 223.34 395.637 223.902C395.433 224.413 395.075 224.873 394.666 225.231C394.257 225.589 393.797 225.896 393.234 226.101C392.672 226.305 392.109 226.407 391.445 226.407C390.524 226.407 389.758 226.254 388.991 225.845Z" fill="#D4D3F2" fill-opacity="0.1"/>
<path d="M9.51044 198.542H6.03366C5.06221 198.542 4.24415 198.337 3.57947 197.928C2.91479 197.519 2.4035 197.008 1.99447 196.394C1.58544 195.781 1.32979 195.065 1.12527 194.298C0.971887 193.531 0.869629 192.764 0.869629 191.997C0.869629 191.077 0.971889 190.259 1.22753 189.441C1.48318 188.623 1.78995 187.907 2.30124 187.293C2.7614 186.68 3.37495 186.169 4.09076 185.811C4.80657 185.453 5.67576 185.248 6.64721 185.248C7.05624 185.248 7.46527 185.299 7.82318 185.402C8.18108 185.504 8.53899 185.606 8.79463 185.76C9.15254 185.913 9.45931 186.066 9.71495 186.271C9.86834 185.964 10.0217 185.76 10.2262 185.657C10.4308 185.555 10.6353 185.453 10.7887 185.453H12.6293V195.372C12.6293 195.423 12.6804 195.474 12.7316 195.474H14.6745V198.593H13.2429C12.5271 198.593 11.8624 198.388 11.3511 197.979C10.8398 198.286 10.2262 198.542 9.51044 198.542ZM3.73285 183.305C3.37495 182.947 3.17044 182.487 3.17044 181.976C3.17044 181.465 3.37495 181.005 3.73285 180.647C4.09076 180.289 4.55092 180.084 5.06221 180.084C5.5735 180.084 6.03366 180.289 6.39157 180.647C6.74947 181.005 6.95399 181.465 6.95399 181.976C6.95399 182.487 6.74947 182.947 6.39157 183.305C6.03366 183.663 5.5735 183.868 5.06221 183.868C4.55092 183.817 4.09076 183.663 3.73285 183.305ZM5.88028 188.572C5.5735 188.776 5.31786 189.032 5.11334 189.339C4.90882 189.696 4.75544 190.054 4.70431 190.515C4.65318 190.975 4.60205 191.384 4.60205 191.895C4.60205 192.253 4.65318 192.662 4.70431 193.071C4.75544 193.48 4.85769 193.889 5.01108 194.247C5.16447 194.605 5.36899 194.861 5.67576 195.116C5.98253 195.321 6.34044 195.474 6.8006 195.474H9.15254C9.20367 195.474 9.20366 195.474 9.20366 195.474V189.236C8.69237 188.674 8.0277 188.367 7.20963 188.367C6.59608 188.265 6.18705 188.367 5.88028 188.572ZM8.28334 183.305C7.92544 182.947 7.72092 182.487 7.72092 181.976C7.72092 181.465 7.92544 181.005 8.28334 180.647C8.64124 180.289 9.1014 180.084 9.61269 180.084C10.124 180.084 10.5841 180.289 10.9421 180.647C11.3 181.005 11.5045 181.465 11.5045 181.976C11.5045 182.487 11.3 182.947 10.9421 183.305C10.5841 183.663 10.124 183.868 9.61269 183.868C9.05027 183.817 8.64124 183.663 8.28334 183.305Z" fill="#D4D3F2" fill-opacity="0.1"/>
<path d="M14.1123 198.491C13.9589 198.491 13.8566 198.491 13.7032 198.439C13.601 198.439 13.4987 198.388 13.3965 198.286C13.2942 198.235 13.2942 198.133 13.2942 197.979V195.883C13.2942 195.781 13.3453 195.678 13.4476 195.627C13.5498 195.576 13.6521 195.525 13.7544 195.474C13.8566 195.423 14.01 195.423 14.1634 195.423C14.3168 195.423 14.419 195.423 14.5213 195.423H18.5605V185.401H22.1395V195.321C22.1395 195.372 22.1906 195.423 22.2418 195.423H24.1847V198.542H22.7531C22.0373 198.542 21.3726 198.337 20.8613 197.928C20.35 198.337 19.7365 198.542 18.9695 198.542H14.4702C14.3679 198.542 14.2656 198.491 14.1123 198.491ZM15.7995 202.888C15.4416 202.53 15.2371 202.07 15.2371 201.558C15.2371 201.047 15.4416 200.587 15.7995 200.229C16.1574 199.871 16.6176 199.667 17.1289 199.667C17.6402 199.667 18.1003 199.871 18.4582 200.229C18.8161 200.587 19.0206 201.047 19.0206 201.558C19.0206 202.07 18.8161 202.53 18.4582 202.888C18.1003 203.246 17.6402 203.45 17.1289 203.45C16.6176 203.399 16.1574 203.246 15.7995 202.888ZM20.2989 202.888C19.941 202.53 19.7365 202.07 19.7365 201.558C19.7365 201.047 19.941 200.587 20.2989 200.229C20.6568 199.871 21.1169 199.667 21.6282 199.667C22.1395 199.667 22.5997 199.871 22.9576 200.229C23.3155 200.587 23.52 201.047 23.52 201.558C23.52 202.07 23.3155 202.53 22.9576 202.888C22.5997 203.246 22.1395 203.45 21.6282 203.45C21.1169 203.399 20.7079 203.246 20.2989 202.888Z" fill="#D4D3F2" fill-opacity="0.1"/>
<path d="M23.4687 198.491C23.3153 198.491 23.2131 198.491 23.0597 198.44C22.9574 198.44 22.8551 198.388 22.7529 198.286C22.6506 198.235 22.6506 198.133 22.6506 197.979V195.883C22.6506 195.781 22.7018 195.679 22.804 195.628C22.9063 195.576 23.0085 195.525 23.1108 195.474C23.2131 195.423 23.3664 195.423 23.5198 195.423C23.6732 195.423 23.7755 195.423 23.8777 195.423H27.9169C27.9681 195.423 27.9681 195.423 27.9681 195.423V185.402H31.496V195.423C31.496 195.832 31.3937 196.241 31.2403 196.599C31.0869 197.008 30.8824 197.315 30.5756 197.622C30.2689 197.928 29.9621 198.133 29.5531 198.286C29.144 198.44 28.7861 198.542 28.326 198.542H23.8266C23.7755 198.542 23.6221 198.491 23.4687 198.491ZM28.3771 183.101C28.0192 182.743 27.8147 182.283 27.8147 181.772C27.8147 181.26 28.0192 180.8 28.3771 180.442C28.735 180.084 29.1952 179.88 29.7064 179.88C30.2177 179.88 30.6779 180.084 31.0358 180.442C31.3937 180.8 31.5982 181.26 31.5982 181.772C31.5982 182.283 31.3937 182.743 31.0358 183.101C30.6779 183.459 30.2177 183.663 29.7064 183.663C29.1952 183.612 28.735 183.459 28.3771 183.101Z" fill="#D4D3F2" fill-opacity="0.1"/>
<path d="M40.6993 198.542C39.6767 198.542 38.8075 198.389 38.0406 198.082C37.2736 197.775 36.6089 197.315 36.0465 196.753C35.4841 196.19 35.0751 195.474 34.8194 194.656C34.5127 193.838 34.4104 192.918 34.4104 191.946C34.4104 190.975 34.5638 190.106 34.8194 189.288C35.0751 188.47 35.4841 187.754 35.9954 187.191C36.5067 186.578 37.1714 186.118 37.9894 185.811C38.7564 185.453 39.6767 185.3 40.6993 185.3C41.7219 185.3 42.5911 185.453 43.358 185.76C44.1249 186.067 44.7896 186.527 45.352 187.14C45.8633 187.754 46.2723 188.419 46.5791 189.237C46.8859 190.055 46.9882 190.975 46.9882 191.946V195.474H48.7777V198.593H46.9882C46.9882 199.258 46.8348 199.871 46.5791 200.434C46.3235 200.996 45.9144 201.508 45.4031 201.917C44.8919 202.326 44.2783 202.632 43.5114 202.888C42.7444 203.144 41.8752 203.246 40.9038 203.246C40.1369 203.246 39.5744 203.195 39.1143 203.093C38.6541 202.99 38.2451 202.888 37.9383 202.735L38.0917 201.099C38.1428 200.792 38.2451 200.587 38.3985 200.434C38.603 200.28 38.8075 200.178 39.0631 200.178C40.597 200.178 41.7219 200.076 42.3865 199.82C43.0512 199.616 43.4091 199.207 43.4091 198.593H40.6993V198.542ZM43.4091 195.423V191.895C43.4091 191.435 43.358 190.975 43.2557 190.515C43.1535 190.106 43.0001 189.697 42.7956 189.39C42.5911 189.083 42.2843 188.828 41.9264 188.623C41.5685 188.419 41.1594 188.316 40.6481 188.316C40.1369 188.316 39.6767 188.419 39.3699 188.623C39.0631 188.828 38.7564 189.083 38.5519 189.39C38.3473 189.697 38.1939 190.106 38.0917 190.566C37.9894 191.026 37.9894 191.486 37.9894 191.946C37.9894 192.407 38.0406 192.816 38.1428 193.225C38.2451 193.634 38.3985 193.992 38.603 194.35C38.8075 194.707 39.1143 194.912 39.4211 195.116C39.779 195.321 40.188 195.423 40.6993 195.423H43.4091Z" fill="#D4D3F2" fill-opacity="0.1"/>
<path d="M48.1643 198.491C48.0109 198.491 47.9086 198.491 47.7552 198.44C47.653 198.44 47.5507 198.388 47.4484 198.286C47.3462 198.235 47.3462 198.133 47.3462 197.979V195.883C47.3462 195.781 47.3973 195.679 47.4996 195.628C47.6018 195.576 47.7041 195.525 47.8063 195.474C47.9086 195.423 48.062 195.423 48.2154 195.423C48.3688 195.423 48.471 195.423 48.5733 195.423H52.6125C52.6636 195.423 52.6636 195.423 52.6636 195.423V185.402H56.1915V195.423C56.1915 195.832 56.0893 196.241 55.9359 196.599C55.7825 197.008 55.578 197.315 55.2712 197.622C54.9644 197.928 54.6576 198.133 54.2486 198.286C53.8396 198.44 53.4817 198.542 53.0215 198.542H48.5222C48.4199 198.542 48.2665 198.491 48.1643 198.491ZM53.0215 183.101C52.6636 182.743 52.4591 182.283 52.4591 181.772C52.4591 181.26 52.6636 180.8 53.0215 180.442C53.3794 180.084 53.8396 179.88 54.3509 179.88C54.8622 179.88 55.3223 180.084 55.6802 180.442C56.0381 180.8 56.2426 181.26 56.2426 181.772C56.2426 182.283 56.0381 182.743 55.6802 183.101C55.3223 183.459 54.8622 183.663 54.3509 183.663C53.8396 183.612 53.3794 183.459 53.0215 183.101Z" fill="#D4D3F2" fill-opacity="0.1"/>
<path d="M62.7872 198.542C62.3782 198.542 61.9691 198.439 61.5601 198.286C61.1511 198.133 60.8443 197.877 60.5375 197.621C60.2307 197.315 60.0262 197.008 59.8728 196.599C59.7194 196.19 59.6172 195.832 59.6172 195.423V180.135H63.1451V195.423C63.1451 195.423 63.1451 195.423 63.1962 195.423H65.1903V198.542H62.7872Z" fill="#D4D3F2" fill-opacity="0.1"/>
<path d="M64.5767 198.542C64.4744 198.542 64.3211 198.542 64.1677 198.542C64.0143 198.542 63.912 198.542 63.7586 198.491C63.6564 198.491 63.5541 198.44 63.4519 198.337C63.3496 198.286 63.3496 198.184 63.3496 198.031V195.934C63.3496 195.832 63.4007 195.73 63.503 195.679C63.6053 195.628 63.7075 195.576 63.8098 195.525C63.912 195.474 64.0654 195.474 64.2188 195.474C64.3722 195.474 64.4744 195.474 64.5767 195.474H68.0535C67.5422 194.452 67.2354 193.276 67.2354 191.946C67.2354 190.975 67.3888 190.106 67.6444 189.288C67.9001 188.469 68.3091 187.754 68.8204 187.191C69.3317 186.578 69.9964 186.118 70.7633 185.811C71.5303 185.504 72.4506 185.299 73.4732 185.299C74.4957 185.299 75.3649 185.453 76.183 185.811C76.9499 186.118 77.6146 186.578 78.177 187.191C78.6883 187.754 79.0974 188.469 79.4041 189.288C79.7109 190.106 79.8132 191.026 79.8132 191.997V195.525H81.6027V198.644H64.5767V198.542ZM69.9964 183.101C69.6385 182.743 69.434 182.283 69.434 181.772C69.434 181.26 69.6385 180.8 69.9964 180.442C70.3543 180.084 70.8144 179.88 71.3257 179.88C71.837 179.88 72.2972 180.084 72.6551 180.442C73.013 180.8 73.2175 181.26 73.2175 181.772C73.2175 182.283 73.013 182.743 72.6551 183.101C72.2972 183.459 71.837 183.663 71.3257 183.663C70.8144 183.612 70.3543 183.459 69.9964 183.101ZM76.2341 191.895C76.2341 191.435 76.183 190.975 76.1319 190.515C76.0296 190.106 75.9274 189.697 75.6717 189.39C75.4672 189.083 75.2115 188.827 74.8536 188.623C74.4957 188.418 74.0867 188.316 73.5754 188.316C73.0641 188.316 72.6551 188.418 72.2972 188.572C71.9393 188.776 71.6836 188.981 71.4791 189.339C71.2746 189.645 71.1212 190.003 71.019 190.463C70.9167 190.873 70.8656 191.333 70.8656 191.844C70.8656 192.304 70.9167 192.764 71.019 193.224C71.1212 193.633 71.2746 194.043 71.4791 194.349C71.6836 194.656 71.9904 194.912 72.2972 195.116C72.6551 195.321 73.0641 195.372 73.5754 195.372H76.2341V191.895ZM74.4957 183.101C74.1378 182.743 73.9333 182.283 73.9333 181.772C73.9333 181.26 74.1378 180.8 74.4957 180.442C74.8536 180.084 75.3138 179.88 75.8251 179.88C76.3364 179.88 76.7965 180.084 77.1544 180.442C77.5124 180.8 77.7169 181.26 77.7169 181.772C77.7169 182.283 77.5124 182.743 77.1544 183.101C76.7965 183.459 76.3364 183.663 75.8251 183.663C75.3138 183.612 74.8536 183.459 74.4957 183.101Z" fill="#D4D3F2" fill-opacity="0.1"/>
<path d="M84.8236 195.372V180.084H88.3515V195.372C88.3515 195.781 88.2493 196.19 88.0959 196.548C87.9425 196.957 87.6869 197.264 87.4312 197.57C87.1244 197.877 86.8177 198.082 86.4086 198.235C85.9996 198.388 85.6417 198.491 85.1815 198.491H81.398C81.2957 198.491 81.1423 198.491 80.989 198.491C80.8356 198.491 80.7333 198.491 80.5799 198.44C80.4777 198.44 80.3754 198.388 80.2731 198.286C80.1709 198.235 80.1709 198.133 80.1709 197.979V195.883C80.1709 195.781 80.222 195.679 80.3243 195.627C80.4265 195.576 80.5288 195.525 80.6311 195.474C80.7333 195.423 80.8867 195.423 81.0401 195.423C81.1935 195.423 81.2957 195.423 81.398 195.423L84.8236 195.372C84.8236 195.423 84.7725 195.423 84.8236 195.372Z" fill="#D4D3F2" fill-opacity="0.1"/>
<path d="M91.3679 198.542V180.135H94.8958V198.542H91.3679Z" fill="#D4D3F2" fill-opacity="0.1"/>
<path d="M106.349 197.979C105.633 197.621 105.02 197.11 104.508 196.497C103.997 195.883 103.639 195.167 103.384 194.349C103.128 193.531 103.026 192.662 103.026 191.793C103.026 190.872 103.179 190.003 103.486 189.032C103.793 188.06 104.304 187.242 105.071 186.475H105.787L106.86 187.549C107.116 187.856 107.218 188.111 107.269 188.418C107.32 188.725 107.269 189.032 107.116 189.39C106.911 189.748 106.809 190.157 106.707 190.514C106.656 190.923 106.605 191.332 106.605 191.742C106.605 192.202 106.656 192.611 106.758 193.071C106.86 193.48 107.014 193.889 107.218 194.247C107.423 194.605 107.678 194.86 108.036 195.065C108.394 195.269 108.803 195.372 109.263 195.372H118.006V185.35H121.534V195.372C121.534 195.781 121.432 196.19 121.279 196.548C121.125 196.957 120.921 197.263 120.614 197.57C120.307 197.877 120 198.082 119.591 198.235C119.182 198.388 118.825 198.491 118.364 198.491H108.803C107.934 198.542 107.116 198.337 106.349 197.979ZM108.854 186.731C108.496 186.373 108.292 185.913 108.292 185.402C108.292 184.89 108.496 184.43 108.854 184.072C109.212 183.714 109.672 183.51 110.184 183.51C110.695 183.51 111.155 183.714 111.513 184.072C111.871 184.43 112.075 184.89 112.075 185.402C112.075 185.913 111.871 186.373 111.513 186.731C111.155 187.089 110.695 187.293 110.184 187.293C109.672 187.242 109.212 187.089 108.854 186.731ZM113.405 186.731C113.047 186.373 112.842 185.913 112.842 185.402C112.842 184.89 113.047 184.43 113.405 184.072C113.763 183.714 114.223 183.51 114.734 183.51C115.245 183.51 115.706 183.714 116.064 184.072C116.421 184.43 116.626 184.89 116.626 185.402C116.626 185.913 116.421 186.373 116.064 186.731C115.706 187.089 115.245 187.293 114.734 187.293C114.223 187.242 113.763 187.089 113.405 186.731Z" fill="#D4D3F2" fill-opacity="0.1"/>
<path d="M124.602 198.542V180.135H128.13V198.542H124.602Z" fill="#D4D3F2" fill-opacity="0.1"/>
<path d="M130.022 202.632L130.226 200.945C130.278 200.689 130.329 200.536 130.38 200.433C130.431 200.331 130.533 200.229 130.687 200.178C130.789 200.127 130.942 200.127 131.096 200.127H131.658C132.323 200.127 132.63 199.769 132.63 199.104V185.401H136.157V199.104C136.157 200.331 135.8 201.354 135.135 202.07C134.47 202.785 133.448 203.194 132.118 203.194C131.505 203.143 130.84 202.99 130.022 202.632Z" fill="#D4D3F2" fill-opacity="0.1"/>
<path d="M142.344 198.542C141.935 198.542 141.526 198.439 141.117 198.286C140.708 198.133 140.401 197.877 140.094 197.621C139.787 197.315 139.583 197.008 139.429 196.599C139.276 196.19 139.174 195.832 139.174 195.423V180.135H142.702V195.423C142.702 195.423 142.702 195.423 142.753 195.423H144.747V198.542H142.344Z" fill="#D4D3F2" fill-opacity="0.1"/>
<path d="M160.546 188.265C160.392 187.907 160.341 187.549 160.29 187.191C160.29 186.833 160.444 186.526 160.75 186.219L162.131 184.89C163.716 186.526 164.483 188.367 164.483 190.412V195.32C164.483 195.372 164.534 195.371 164.585 195.371H166.528V198.49H165.096C164.381 198.49 163.767 198.286 163.256 197.877C162.744 198.286 162.08 198.49 161.364 198.49H159.012C158.194 198.49 157.478 198.286 156.865 197.877C156.353 198.286 155.74 198.49 154.973 198.49H152.621C151.803 198.49 151.087 198.286 150.473 197.877C149.962 198.286 149.349 198.49 148.582 198.49H144.082C143.98 198.49 143.827 198.49 143.673 198.49C143.52 198.49 143.418 198.49 143.264 198.439C143.162 198.439 143.06 198.388 142.957 198.286C142.855 198.235 142.855 198.132 142.855 197.979V195.883C142.855 195.781 142.906 195.678 143.009 195.627C143.111 195.576 143.213 195.525 143.315 195.474C143.418 195.423 143.571 195.423 143.724 195.423C143.878 195.423 143.98 195.423 144.082 195.423H148.122C148.173 195.423 148.173 195.423 148.173 195.423V187.037H151.701V195.371C151.701 195.423 151.752 195.423 151.803 195.423H154.462C154.513 195.423 154.513 195.423 154.513 195.423V187.037H158.041V195.371C158.041 195.423 158.092 195.423 158.143 195.423H160.802C160.853 195.423 160.853 195.423 160.853 195.423V190.463C160.955 189.645 160.802 188.929 160.546 188.265ZM152.467 184.481C152.11 184.123 151.905 183.663 151.905 183.152C151.905 182.64 152.11 182.18 152.467 181.822C152.825 181.464 153.286 181.26 153.797 181.26C154.308 181.26 154.768 181.464 155.126 181.822C155.484 182.18 155.689 182.64 155.689 183.152C155.689 183.663 155.484 184.123 155.126 184.481C154.768 184.839 154.308 185.043 153.797 185.043C153.286 185.043 152.825 184.839 152.467 184.481ZM154.768 180.697C154.41 180.34 154.206 179.879 154.206 179.368C154.206 178.857 154.41 178.397 154.768 178.039C155.126 177.681 155.586 177.476 156.098 177.476C156.609 177.476 157.069 177.681 157.427 178.039C157.785 178.397 157.989 178.857 157.989 179.368C157.989 179.879 157.785 180.34 157.427 180.697C157.069 181.055 156.609 181.26 156.098 181.26C155.586 181.26 155.126 181.055 154.768 180.697ZM157.018 184.481C156.66 184.123 156.456 183.663 156.456 183.152C156.456 182.64 156.66 182.18 157.018 181.822C157.376 181.464 157.836 181.26 158.347 181.26C158.859 181.26 159.319 181.464 159.677 181.822C160.035 182.18 160.239 182.64 160.239 183.152C160.239 183.663 160.035 184.123 159.677 184.481C159.319 184.839 158.859 185.043 158.347 185.043C157.836 185.043 157.376 184.839 157.018 184.481Z" fill="#D4D3F2" fill-opacity="0.1"/>
<path d="M165.966 198.491C165.812 198.491 165.71 198.491 165.557 198.44C165.454 198.44 165.352 198.388 165.25 198.286C165.147 198.235 165.147 198.133 165.147 197.979V195.883C165.147 195.781 165.199 195.679 165.301 195.628C165.403 195.576 165.505 195.525 165.608 195.474C165.71 195.423 165.863 195.423 166.017 195.423C166.17 195.423 166.272 195.423 166.375 195.423H170.414V185.402H173.993V195.321C173.993 195.372 174.044 195.423 174.095 195.423H176.038V198.542H174.606C173.891 198.542 173.226 198.337 172.715 197.928C172.203 198.337 171.59 198.542 170.823 198.542H166.323C166.221 198.542 166.068 198.491 165.966 198.491ZM168.317 183.101C167.96 182.743 167.755 182.283 167.755 181.772C167.755 181.26 167.96 180.8 168.317 180.442C168.675 180.084 169.136 179.88 169.647 179.88C170.158 179.88 170.618 180.084 170.976 180.442C171.334 180.8 171.539 181.26 171.539 181.772C171.539 182.283 171.334 182.743 170.976 183.101C170.618 183.459 170.158 183.663 169.647 183.663C169.136 183.612 168.727 183.459 168.317 183.101ZM172.868 183.101C172.51 182.743 172.306 182.283 172.306 181.772C172.306 181.26 172.51 180.8 172.868 180.442C173.226 180.084 173.686 179.88 174.197 179.88C174.709 179.88 175.169 180.084 175.527 180.442C175.885 180.8 176.089 181.26 176.089 181.772C176.089 182.283 175.885 182.743 175.527 183.101C175.169 183.459 174.709 183.663 174.197 183.663C173.686 183.612 173.226 183.459 172.868 183.101Z" fill="#D4D3F2" fill-opacity="0.1"/>
<path d="M192.246 188.265C192.092 187.907 192.041 187.549 191.99 187.191C191.99 186.833 192.143 186.526 192.45 186.219L193.831 184.89C195.416 186.526 196.183 188.367 196.183 190.412V195.371C196.183 195.781 196.08 196.19 195.927 196.547C195.774 196.956 195.518 197.263 195.262 197.57C194.956 197.877 194.649 198.081 194.24 198.235C193.831 198.388 193.473 198.49 193.013 198.49H190.661C189.843 198.49 189.127 198.286 188.513 197.877C188.002 198.286 187.388 198.49 186.621 198.49H184.27C183.451 198.49 182.736 198.286 182.122 197.877C181.611 198.286 180.997 198.49 180.23 198.49H175.731C175.629 198.49 175.475 198.49 175.322 198.49C175.169 198.49 175.066 198.49 174.913 198.439C174.811 198.439 174.708 198.388 174.606 198.286C174.504 198.235 174.504 198.132 174.504 197.979V195.883C174.504 195.781 174.555 195.678 174.657 195.627C174.76 195.576 174.862 195.525 174.964 195.474C175.066 195.423 175.22 195.423 175.373 195.423C175.526 195.423 175.629 195.423 175.731 195.423H179.77C179.821 195.423 179.821 195.423 179.821 195.423V187.037H183.349V195.371C183.349 195.423 183.4 195.423 183.451 195.423H186.11C186.161 195.423 186.161 195.423 186.161 195.423V187.037H189.689V195.371C189.689 195.423 189.74 195.423 189.791 195.423H192.45C192.501 195.423 192.501 195.423 192.501 195.423V190.463C192.604 189.645 192.501 188.929 192.246 188.265Z" fill="#D4D3F2" fill-opacity="0.1"/>
<path d="M198.228 198.03C198.228 197.877 198.279 197.775 198.279 197.672C198.279 197.57 198.279 197.468 198.279 197.366C198.279 197.263 198.279 197.11 198.33 196.957C198.33 196.803 198.381 196.599 198.381 196.394C198.433 196.087 198.535 195.883 198.739 195.678C198.944 195.474 199.199 195.423 199.455 195.423H206.92C206.971 195.423 206.971 195.423 206.971 195.372V180.135H210.55V195.423C210.55 195.832 210.448 196.241 210.294 196.65C210.141 197.059 209.885 197.366 209.63 197.672C209.323 197.979 209.016 198.184 208.607 198.337C208.198 198.49 207.789 198.593 207.38 198.593H200.324C199.762 198.542 199.046 198.337 198.228 198.03ZM200.58 193.326V183.816H204.108V193.326H200.58Z" fill="#D4D3F2" fill-opacity="0.1"/>
<path d="M213.566 198.542V180.135H217.094V198.542H213.566Z" fill="#D4D3F2" fill-opacity="0.1"/>
<path d="M219.906 189.287C220.162 188.469 220.571 187.753 221.082 187.14C221.594 186.526 222.258 186.066 223.025 185.708C223.792 185.35 224.713 185.197 225.786 185.197C226.809 185.197 227.678 185.35 228.445 185.708C229.212 186.015 229.877 186.475 230.439 187.089C231.001 187.702 231.411 188.367 231.666 189.236C231.922 190.105 232.075 190.974 232.075 191.997V197.724C232.075 199.615 231.564 200.996 230.49 201.865C229.468 202.734 227.934 203.194 225.991 203.194C225.224 203.194 224.661 203.143 224.201 203.041C223.741 202.939 223.332 202.836 223.025 202.683L223.179 200.996C223.23 200.689 223.332 200.484 223.485 200.331C223.69 200.178 223.895 200.075 224.15 200.075C225.684 200.075 226.809 199.973 227.474 199.718C228.138 199.462 228.496 199.002 228.496 198.286V198.235C228.138 198.388 227.78 198.49 227.32 198.593C226.86 198.695 226.349 198.746 225.786 198.746C224.764 198.746 223.895 198.593 223.076 198.235C222.31 197.928 221.645 197.468 221.082 196.854C220.571 196.241 220.162 195.525 219.855 194.707C219.549 193.889 219.446 192.969 219.446 191.946C219.497 190.974 219.651 190.105 219.906 189.287ZM224.559 188.623C224.201 188.827 223.946 189.083 223.741 189.389C223.537 189.696 223.383 190.105 223.281 190.514C223.179 190.974 223.128 191.435 223.128 191.895C223.128 192.355 223.179 192.815 223.281 193.275C223.383 193.684 223.537 194.093 223.741 194.451C223.946 194.809 224.252 195.065 224.559 195.269C224.917 195.474 225.326 195.576 225.837 195.576C226.451 195.576 226.962 195.525 227.32 195.372C227.678 195.269 227.934 195.065 228.087 194.86C228.24 194.656 228.394 194.349 228.394 194.042C228.394 193.735 228.445 193.326 228.445 192.917V191.946C228.445 191.486 228.394 191.026 228.343 190.565C228.24 190.156 228.138 189.747 227.934 189.441C227.729 189.083 227.474 188.827 227.116 188.674C226.758 188.469 226.349 188.367 225.837 188.367C225.326 188.316 224.917 188.418 224.559 188.623Z" fill="#D4D3F2" fill-opacity="0.1"/>
<path d="M240.102 189.39C240.358 188.572 240.665 187.856 241.176 187.242C241.636 186.629 242.25 186.118 242.966 185.76C243.681 185.402 244.551 185.197 245.522 185.197C245.931 185.197 246.34 185.248 246.698 185.351C247.056 185.453 247.414 185.555 247.669 185.708C248.027 185.862 248.334 186.015 248.59 186.22C248.743 185.913 248.897 185.708 249.101 185.606C249.306 185.504 249.51 185.402 249.664 185.402H251.504V195.423C251.504 195.832 251.402 196.241 251.249 196.599C251.095 197.008 250.839 197.315 250.584 197.622C250.277 197.928 249.97 198.133 249.561 198.286C249.152 198.44 248.794 198.542 248.334 198.542H244.857C243.886 198.542 243.068 198.337 242.403 197.928C241.739 197.519 241.227 197.008 240.818 196.394C240.409 195.781 240.154 195.065 239.949 194.298C239.796 193.531 239.693 192.764 239.693 191.997C239.744 191.077 239.898 190.208 240.102 189.39ZM242.557 183.101C242.199 182.743 241.994 182.283 241.994 181.772C241.994 181.26 242.199 180.8 242.557 180.442C242.914 180.084 243.375 179.88 243.886 179.88C244.397 179.88 244.857 180.084 245.215 180.442C245.573 180.8 245.778 181.26 245.778 181.772C245.778 182.283 245.573 182.743 245.215 183.101C244.857 183.459 244.397 183.663 243.886 183.663C243.375 183.612 242.914 183.459 242.557 183.101ZM244.755 188.572C244.448 188.776 244.193 189.032 243.988 189.339C243.784 189.697 243.63 190.054 243.579 190.515C243.528 190.975 243.477 191.384 243.477 191.895C243.477 192.253 243.528 192.662 243.579 193.071C243.63 193.48 243.733 193.889 243.886 194.247C244.039 194.605 244.244 194.861 244.551 195.116C244.857 195.321 245.215 195.474 245.675 195.474H248.027C248.079 195.474 248.079 195.474 248.079 195.474V189.236C247.567 188.674 246.903 188.367 246.084 188.367C245.471 188.265 245.062 188.367 244.755 188.572ZM247.107 183.101C246.749 182.743 246.545 182.283 246.545 181.772C246.545 181.26 246.749 180.8 247.107 180.442C247.465 180.084 247.925 179.88 248.436 179.88C248.948 179.88 249.408 180.084 249.766 180.442C250.124 180.8 250.328 181.26 250.328 181.772C250.328 182.283 250.124 182.743 249.766 183.101C249.408 183.459 248.948 183.663 248.436 183.663C247.925 183.612 247.465 183.459 247.107 183.101Z" fill="#D4D3F2" fill-opacity="0.1"/>
<path d="M257.691 198.542C257.282 198.542 256.873 198.439 256.464 198.286C256.055 198.133 255.748 197.877 255.441 197.621C255.135 197.315 254.93 197.008 254.777 196.599C254.623 196.19 254.521 195.832 254.521 195.423V180.135H258.049V195.423C258.049 195.423 258.049 195.423 258.1 195.423H260.094V198.542H257.691Z" fill="#D4D3F2" fill-opacity="0.1"/>
<path d="M265.565 197.519C264.951 198.184 264.184 198.49 263.264 198.49H259.481C259.378 198.49 259.225 198.49 259.071 198.49C258.918 198.49 258.816 198.49 258.662 198.439C258.56 198.439 258.458 198.388 258.356 198.286C258.253 198.235 258.253 198.133 258.253 197.979V195.883C258.253 195.781 258.305 195.678 258.407 195.627C258.509 195.576 258.611 195.525 258.714 195.474C258.816 195.423 258.969 195.423 259.123 195.423C259.276 195.423 259.378 195.423 259.481 195.423H262.804V191.895C262.804 190.923 262.957 190.054 263.213 189.236C263.469 188.418 263.878 187.702 264.44 187.14C264.951 186.526 265.616 186.066 266.434 185.759C267.201 185.401 268.121 185.248 269.144 185.248C270.166 185.248 271.036 185.401 271.803 185.759C272.57 186.066 273.234 186.526 273.746 187.14C274.257 187.702 274.666 188.418 274.973 189.236C275.279 190.054 275.382 190.975 275.382 191.946V195.423C275.382 196.394 275.075 197.161 274.512 197.724C273.95 198.286 273.183 198.593 272.212 198.593H269.042C267.763 198.542 266.587 198.184 265.565 197.519ZM271.803 195.32V191.844C271.803 191.384 271.751 190.923 271.7 190.463C271.649 190.003 271.496 189.645 271.291 189.338C271.087 189.032 270.831 188.776 270.473 188.571C270.115 188.367 269.706 188.316 269.195 188.316C268.684 188.316 268.275 188.418 267.917 188.571C267.559 188.725 267.303 188.98 267.099 189.287C266.894 189.594 266.741 190.003 266.639 190.412C266.536 190.821 266.485 191.332 266.485 191.793V192.253C266.485 193.173 266.69 193.889 267.099 194.502C267.508 195.116 268.224 195.372 269.144 195.372H271.752C271.752 195.423 271.803 195.372 271.803 195.32Z" fill="#D4D3F2" fill-opacity="0.1"/>
<path d="M281.568 198.542C281.159 198.542 280.75 198.439 280.341 198.286C279.932 198.133 279.626 197.877 279.319 197.621C279.012 197.315 278.807 197.008 278.654 196.599C278.501 196.19 278.398 195.832 278.398 195.423V180.135H281.926V195.423C281.926 195.423 281.926 195.423 281.977 195.423H283.971V198.542H281.568Z" fill="#D4D3F2" fill-opacity="0.1"/>
<path d="M283.409 198.542C283.306 198.542 283.153 198.542 283 198.542C282.846 198.542 282.744 198.542 282.591 198.491C282.488 198.491 282.386 198.439 282.284 198.337C282.182 198.286 282.182 198.184 282.182 198.03V195.934C282.182 195.832 282.233 195.73 282.335 195.678C282.437 195.627 282.54 195.576 282.642 195.525C282.744 195.474 282.897 195.474 283.051 195.474C283.204 195.474 283.306 195.474 283.409 195.474H294.555C294.146 193.991 293.788 192.815 293.481 191.895C293.226 190.975 293.021 190.361 292.919 190.003C292.765 189.543 292.51 189.185 292.101 188.827C291.692 188.52 291.129 188.367 290.413 188.367C290.004 188.367 289.698 188.418 289.493 188.469C289.237 188.572 288.982 188.674 288.675 188.878C288.368 189.134 288.061 189.236 287.704 189.236C287.295 189.236 286.988 189.032 286.681 188.623C286.681 188.572 286.63 188.52 286.528 188.367C286.425 188.214 286.323 188.111 286.221 187.958C286.119 187.805 286.016 187.702 285.914 187.549C285.812 187.447 285.761 187.344 285.761 187.344C287.295 185.862 288.88 185.146 290.567 185.146C291.947 185.146 293.123 185.504 294.146 186.22C295.168 186.935 295.935 187.958 296.396 189.39C296.447 189.543 296.498 189.696 296.549 189.901C296.6 190.105 296.702 190.361 296.753 190.617L297.827 194.093C297.929 194.349 297.981 194.605 298.032 194.809C298.083 195.014 298.134 195.218 298.185 195.321H298.696V198.439H283.409V198.542Z" fill="#D4D3F2" fill-opacity="0.1"/>
<path d="M304.372 197.519C303.758 198.184 302.991 198.49 302.071 198.49H298.543C298.441 198.49 298.287 198.49 298.134 198.49C297.981 198.49 297.878 198.49 297.725 198.439C297.623 198.439 297.52 198.388 297.418 198.286C297.316 198.235 297.316 198.133 297.316 197.979V195.883C297.316 195.781 297.367 195.678 297.469 195.627C297.572 195.576 297.674 195.525 297.776 195.474C297.878 195.423 298.032 195.423 298.185 195.423C298.338 195.423 298.441 195.423 298.543 195.423H301.611V191.895C301.611 190.923 301.764 190.054 302.02 189.236C302.275 188.418 302.684 187.702 303.247 187.14C303.758 186.526 304.423 186.066 305.241 185.759C306.008 185.401 306.928 185.248 307.951 185.248C308.973 185.248 309.843 185.401 310.609 185.759C311.376 186.066 312.041 186.526 312.552 187.14C313.064 187.702 313.473 188.418 313.779 189.236C314.086 190.054 314.189 190.975 314.189 191.946V195.423C314.189 195.474 314.24 195.474 314.291 195.474H315.978V198.593H314.802C314.086 198.593 313.524 198.388 313.013 197.979C312.757 198.184 312.45 198.286 312.143 198.439C311.837 198.542 311.479 198.593 311.07 198.593H307.9C306.519 198.542 305.343 198.184 304.372 197.519ZM306.673 188.623C306.315 188.776 306.059 189.032 305.854 189.338C305.65 189.645 305.497 190.054 305.394 190.463C305.292 190.872 305.241 191.384 305.241 191.844V192.304C305.241 193.224 305.445 193.94 305.854 194.554C306.263 195.167 306.979 195.423 307.9 195.423H310.507C310.558 195.423 310.558 195.423 310.558 195.372V191.895C310.558 191.435 310.507 190.974 310.456 190.514C310.405 190.054 310.252 189.696 310.047 189.39C309.843 189.083 309.587 188.827 309.229 188.623C308.871 188.418 308.462 188.367 307.951 188.367C307.439 188.316 306.979 188.418 306.673 188.623Z" fill="#D4D3F2" fill-opacity="0.1"/>
<path d="M315.416 198.49C315.262 198.49 315.16 198.49 315.007 198.439C314.904 198.439 314.802 198.388 314.7 198.286C314.598 198.235 314.598 198.133 314.598 197.979V195.883C314.598 195.781 314.649 195.678 314.751 195.627C314.853 195.576 314.956 195.525 315.058 195.474C315.16 195.423 315.313 195.423 315.467 195.423C315.62 195.423 315.722 195.423 315.825 195.423H319.864V180.135H323.443V195.32C323.443 195.372 323.494 195.423 323.545 195.423H325.488V198.542H324.057C323.341 198.542 322.676 198.337 322.165 197.928C321.653 198.337 321.04 198.542 320.273 198.542H315.774C315.671 198.542 315.518 198.49 315.416 198.49Z" fill="#D4D3F2" fill-opacity="0.1"/>
<path d="M328.658 195.372V180.084H332.186V195.372C332.186 195.781 332.084 196.19 331.93 196.548C331.777 196.957 331.521 197.264 331.266 197.57C330.959 197.877 330.652 198.082 330.243 198.235C329.834 198.388 329.476 198.491 329.016 198.491H325.232C325.13 198.491 324.977 198.491 324.823 198.491C324.67 198.491 324.568 198.491 324.414 198.44C324.312 198.44 324.21 198.388 324.108 198.286C324.005 198.235 324.005 198.133 324.005 197.979V195.883C324.005 195.781 324.057 195.679 324.159 195.627C324.261 195.576 324.363 195.525 324.466 195.474C324.568 195.423 324.721 195.423 324.875 195.423C325.028 195.423 325.13 195.423 325.232 195.423L328.658 195.372C328.658 195.423 328.658 195.423 328.658 195.372Z" fill="#D4D3F2" fill-opacity="0.1"/>
<path d="M362.148 198.542C361.739 198.542 361.33 198.439 360.921 198.286C360.512 198.132 360.205 197.877 359.949 197.621C359.642 197.314 359.438 197.008 359.284 196.599C359.131 196.19 359.029 195.832 359.029 195.423V188.52H357.035V195.372C357.035 195.781 356.933 196.19 356.779 196.599C356.626 197.008 356.37 197.314 356.114 197.621C355.808 197.928 355.501 198.132 355.092 198.286C354.683 198.439 354.274 198.542 353.865 198.542H346.042C345.122 198.542 344.304 198.337 343.588 197.979C342.872 197.621 342.258 197.11 341.798 196.496C341.338 195.883 340.929 195.167 340.725 194.349C340.469 193.531 340.367 192.662 340.367 191.792C340.367 190.872 340.52 190.003 340.827 189.032C341.134 188.06 341.645 187.242 342.412 186.475H343.128L344.201 187.549C344.457 187.804 344.559 188.111 344.61 188.418C344.662 188.725 344.61 189.083 344.457 189.389C344.15 190.003 343.997 190.77 343.997 191.741C343.997 192.202 344.048 192.611 344.099 193.071C344.201 193.48 344.304 193.889 344.508 194.247C344.713 194.605 344.968 194.86 345.275 195.065C345.582 195.269 345.991 195.372 346.451 195.372H353.405V188.52C353.405 188.06 353.507 187.651 353.66 187.293C353.814 186.884 354.069 186.577 354.325 186.271C354.632 185.964 354.939 185.759 355.348 185.606C355.757 185.452 356.114 185.35 356.575 185.35H362.557V195.372H364.551V198.49H362.148V198.542ZM346.247 202.887C345.889 202.53 345.684 202.069 345.684 201.558C345.684 201.047 345.889 200.587 346.247 200.229C346.604 199.871 347.065 199.666 347.576 199.666C348.087 199.666 348.547 199.871 348.905 200.229C349.263 200.587 349.468 201.047 349.468 201.558C349.468 202.069 349.263 202.53 348.905 202.887C348.547 203.245 348.087 203.45 347.576 203.45C347.065 203.399 346.604 203.245 346.247 202.887ZM350.797 202.887C350.439 202.53 350.235 202.069 350.235 201.558C350.235 201.047 350.439 200.587 350.797 200.229C351.155 199.871 351.615 199.666 352.126 199.666C352.638 199.666 353.098 199.871 353.456 200.229C353.814 200.587 354.018 201.047 354.018 201.558C354.018 202.069 353.814 202.53 353.456 202.887C353.098 203.245 352.638 203.45 352.126 203.45C351.615 203.399 351.155 203.245 350.797 202.887Z" fill="#D4D3F2" fill-opacity="0.1"/>
<path d="M363.988 198.491C363.835 198.491 363.733 198.491 363.579 198.44C363.477 198.44 363.375 198.388 363.273 198.286C363.17 198.235 363.17 198.133 363.17 197.979V195.883C363.17 195.781 363.222 195.679 363.324 195.628C363.426 195.576 363.528 195.525 363.631 195.474C363.733 195.423 363.886 195.423 364.04 195.423C364.193 195.423 364.295 195.423 364.397 195.423H368.437C368.488 195.423 368.488 195.423 368.488 195.423V185.402H372.016V195.423C372.016 195.832 371.913 196.241 371.76 196.599C371.607 197.008 371.402 197.315 371.095 197.622C370.789 197.928 370.482 198.133 370.073 198.286C369.664 198.44 369.306 198.542 368.846 198.542H364.346C364.295 198.542 364.142 198.491 363.988 198.491ZM368.897 183.101C368.539 182.743 368.334 182.283 368.334 181.772C368.334 181.26 368.539 180.8 368.897 180.442C369.255 180.084 369.715 179.88 370.226 179.88C370.738 179.88 371.198 180.084 371.556 180.442C371.913 180.8 372.118 181.26 372.118 181.772C372.118 182.283 371.913 182.743 371.556 183.101C371.198 183.459 370.738 183.663 370.226 183.663C369.715 183.612 369.255 183.459 368.897 183.101Z" fill="#D4D3F2" fill-opacity="0.1"/>
<path d="M378.662 198.542C378.253 198.542 377.844 198.439 377.435 198.286C377.026 198.133 376.719 197.877 376.413 197.621C376.106 197.315 375.901 197.008 375.748 196.599C375.594 196.19 375.492 195.832 375.492 195.423V180.135H379.02V195.423C379.02 195.423 379.02 195.423 379.071 195.423H381.065V198.542H378.662Z" fill="#D4D3F2" fill-opacity="0.1"/>
<path d="M386.537 197.519C385.923 198.184 385.156 198.49 384.236 198.49H380.452C380.35 198.49 380.197 198.49 380.043 198.49C379.89 198.49 379.788 198.49 379.634 198.439C379.532 198.439 379.43 198.388 379.327 198.286C379.225 198.235 379.225 198.133 379.225 197.979V195.883C379.225 195.781 379.276 195.678 379.379 195.627C379.481 195.576 379.583 195.525 379.685 195.474C379.788 195.423 379.941 195.423 380.094 195.423C380.248 195.423 380.35 195.423 380.452 195.423H383.776V191.895C383.776 190.923 383.929 190.054 384.185 189.236C384.44 188.418 384.849 187.702 385.412 187.14C385.923 186.526 386.588 186.066 387.406 185.759C388.173 185.401 389.093 185.248 390.116 185.248C391.138 185.248 392.007 185.401 392.774 185.759C393.541 186.066 394.206 186.526 394.717 187.14C395.229 187.702 395.638 188.418 395.944 189.236C396.251 190.054 396.353 190.975 396.353 191.946V195.423C396.353 196.394 396.047 197.161 395.484 197.724C394.922 198.286 394.155 198.593 393.183 198.593H390.013C388.735 198.542 387.508 198.184 386.537 197.519ZM392.774 195.32V191.844C392.774 191.384 392.723 190.923 392.672 190.463C392.621 190.003 392.468 189.645 392.263 189.338C392.058 189.032 391.803 188.776 391.445 188.571C391.087 188.367 390.678 188.316 390.167 188.316C389.655 188.316 389.246 188.418 388.889 188.571C388.531 188.725 388.275 188.98 388.07 189.287C387.866 189.594 387.713 190.003 387.61 190.412C387.508 190.821 387.457 191.332 387.457 191.793V192.253C387.457 193.173 387.661 193.889 388.07 194.502C388.479 195.116 389.195 195.372 390.116 195.372H392.723C392.723 195.423 392.774 195.372 392.774 195.32Z" fill="#D4D3F2" fill-opacity="0.1"/>
<path d="M247.67 251.306C247.312 251.306 246.954 251.204 246.647 250.949C246.34 251.204 246.034 251.306 245.625 251.306H239.54C238.978 251.306 238.518 251.204 238.109 251C237.7 250.795 237.342 250.54 237.086 250.182C236.83 249.824 236.626 249.466 236.473 249.006C236.319 248.546 236.268 248.085 236.268 247.574C236.268 247.063 236.37 246.552 236.524 246.04C236.677 245.529 236.984 245.069 237.393 244.609H237.802L238.364 245.222C238.518 245.376 238.62 245.529 238.62 245.733C238.62 245.938 238.569 246.142 238.467 246.347C238.313 246.705 238.262 247.114 238.262 247.574C238.262 247.83 238.262 248.034 238.313 248.29C238.364 248.546 238.415 248.75 238.569 248.955C238.671 249.159 238.825 249.312 239.029 249.415C239.234 249.517 239.438 249.619 239.745 249.619H245.369V241.081H247.363V249.568C247.363 249.619 247.363 249.619 247.414 249.619H248.488V251.358H247.67V251.306ZM240.461 246.142C240.461 245.989 240.461 245.887 240.461 245.836C240.461 245.682 240.512 245.58 240.563 245.529C240.614 245.478 240.665 245.427 240.716 245.427H240.767C240.716 245.324 240.665 245.273 240.665 245.12C240.614 245.018 240.614 244.864 240.614 244.66C240.614 244.455 240.665 244.302 240.716 244.097C240.767 243.944 240.87 243.739 241.023 243.586C241.176 243.433 241.33 243.33 241.534 243.228C241.739 243.126 241.943 243.075 242.199 243.075C242.455 243.075 242.659 243.126 242.915 243.279C243.17 243.381 243.324 243.535 243.528 243.739C243.528 243.739 243.477 243.791 243.477 243.842C243.426 243.893 243.375 243.944 243.375 244.046C243.324 244.097 243.273 244.2 243.273 244.251C243.222 244.302 243.222 244.353 243.222 244.353C243.17 244.455 243.119 244.455 243.017 244.455C242.966 244.455 242.864 244.455 242.813 244.404C242.761 244.353 242.659 244.302 242.608 244.251C242.557 244.2 242.455 244.2 242.301 244.2C242.148 244.2 242.046 244.251 241.943 244.353C241.841 244.455 241.79 244.609 241.79 244.762C241.79 244.967 241.841 245.069 241.943 245.171C242.046 245.273 242.199 245.324 242.455 245.324H243.631V246.5H241.176C241.074 246.5 240.972 246.5 240.87 246.449C240.767 246.398 240.665 246.398 240.563 246.347C240.461 246.347 240.461 246.245 240.461 246.142Z" fill="#D4D3F2" fill-opacity="0.1"/>
<path d="M248.13 251.307C248.027 251.307 247.976 251.307 247.925 251.255C247.874 251.255 247.823 251.204 247.772 251.153C247.721 251.102 247.721 251.051 247.721 251V249.824C247.721 249.773 247.721 249.722 247.772 249.67C247.823 249.619 247.874 249.619 247.976 249.568C248.027 249.568 248.13 249.517 248.181 249.517C248.283 249.517 248.334 249.517 248.385 249.517H251.606V251.255H248.385C248.283 251.307 248.232 251.307 248.13 251.307Z" fill="#D4D3F2" fill-opacity="0.1"/>
<path d="M251.198 251.307C251.095 251.307 251.044 251.307 250.993 251.255C250.942 251.255 250.891 251.204 250.84 251.153C250.789 251.102 250.789 251.051 250.789 251V249.824C250.789 249.773 250.789 249.722 250.84 249.67C250.891 249.619 250.942 249.619 251.044 249.568C251.095 249.568 251.198 249.517 251.249 249.517C251.351 249.517 251.402 249.517 251.453 249.517H254.674V251.255H251.453C251.351 251.307 251.3 251.307 251.198 251.307Z" fill="#D4D3F2" fill-opacity="0.1"/>
<path d="M254.265 251.307C254.163 251.307 254.112 251.307 254.06 251.255C254.009 251.255 253.958 251.204 253.907 251.153C253.856 251.102 253.856 251.051 253.856 251V249.824C253.856 249.773 253.856 249.722 253.907 249.67C253.958 249.619 254.009 249.619 254.112 249.568C254.163 249.568 254.265 249.517 254.316 249.517C254.418 249.517 254.469 249.517 254.521 249.517H257.742V251.255H254.521C254.418 251.307 254.367 251.307 254.265 251.307Z" fill="#D4D3F2" fill-opacity="0.1"/>
<path d="M257.384 251.307C257.282 251.307 257.231 251.307 257.18 251.255C257.128 251.255 257.077 251.204 257.026 251.153C256.975 251.102 256.975 251.051 256.975 251V249.824C256.975 249.773 256.975 249.722 257.026 249.67C257.077 249.619 257.128 249.619 257.231 249.568C257.282 249.568 257.384 249.517 257.435 249.517C257.538 249.517 257.589 249.517 257.64 249.517H260.861V251.255H257.64C257.486 251.307 257.435 251.307 257.384 251.307Z" fill="#D4D3F2" fill-opacity="0.1"/>
<path d="M260.452 251.307C260.35 251.307 260.299 251.307 260.247 251.256C260.196 251.256 260.145 251.205 260.094 251.153C260.043 251.102 260.043 251.051 260.043 251V249.824C260.043 249.773 260.043 249.722 260.094 249.671C260.145 249.62 260.196 249.62 260.299 249.568C260.35 249.568 260.452 249.517 260.503 249.517C260.605 249.517 260.657 249.517 260.708 249.517H262.957V243.944H264.951V249.466C264.951 249.517 264.951 249.517 265.002 249.517H266.076V251.256H265.258C264.849 251.256 264.491 251.153 264.236 250.898C263.929 251.153 263.622 251.256 263.213 251.256H260.708C260.605 251.307 260.503 251.307 260.452 251.307ZM263.162 253.761C262.957 253.556 262.855 253.301 262.855 253.045C262.855 252.738 262.957 252.483 263.162 252.278C263.366 252.074 263.622 251.971 263.929 251.971C264.236 251.971 264.44 252.074 264.645 252.278C264.849 252.483 264.951 252.738 264.951 253.045C264.951 253.352 264.849 253.556 264.645 253.761C264.44 253.966 264.184 254.068 263.929 254.068C263.622 254.068 263.366 253.966 263.162 253.761Z" fill="#D4D3F2" fill-opacity="0.1"/>
<path d="M265.719 251.306C265.616 251.306 265.565 251.306 265.514 251.255C265.463 251.255 265.412 251.204 265.361 251.153C265.31 251.102 265.31 251.051 265.31 251V249.824C265.31 249.773 265.31 249.721 265.361 249.67C265.412 249.619 265.463 249.619 265.565 249.568C265.616 249.568 265.719 249.517 265.77 249.517C265.872 249.517 265.923 249.517 265.974 249.517H268.224H268.275V243.944H270.269V249.517C270.269 249.773 270.218 249.977 270.116 250.182C270.013 250.386 269.911 250.591 269.758 250.744C269.604 250.897 269.4 251.051 269.195 251.102C268.991 251.153 268.735 251.255 268.531 251.255H265.923C265.872 251.306 265.77 251.306 265.719 251.306ZM268.428 242.768C268.224 242.563 268.122 242.308 268.122 242.052C268.122 241.745 268.224 241.49 268.428 241.285C268.633 241.081 268.889 240.978 269.195 240.978C269.502 240.978 269.707 241.081 269.911 241.285C270.116 241.49 270.218 241.745 270.218 242.052C270.218 242.359 270.116 242.563 269.911 242.768C269.707 242.972 269.451 243.075 269.195 243.075C268.889 243.075 268.633 242.972 268.428 242.768Z" fill="#D4D3F2" fill-opacity="0.1"/>
<path d="M273.848 251.307C273.592 251.307 273.388 251.256 273.183 251.153C272.979 251.051 272.774 250.949 272.621 250.796C272.467 250.642 272.314 250.438 272.263 250.233C272.212 250.029 272.109 249.773 272.109 249.568V241.081H274.103V249.568C274.103 249.568 274.103 249.568 274.155 249.568H275.279V251.307H273.848Z" fill="#D4D3F2" fill-opacity="0.1"/>
<path d="M274.819 251.307C274.768 251.307 274.666 251.307 274.615 251.307C274.512 251.307 274.461 251.307 274.41 251.256C274.359 251.256 274.308 251.204 274.257 251.153C274.206 251.102 274.206 251.051 274.206 251V249.824C274.206 249.773 274.206 249.722 274.257 249.671C274.308 249.619 274.359 249.619 274.461 249.568C274.512 249.568 274.615 249.517 274.666 249.517C274.768 249.517 274.819 249.517 274.87 249.517H281.108C280.852 248.699 280.648 248.034 280.546 247.523C280.392 247.012 280.29 246.654 280.239 246.501C280.137 246.245 279.983 246.04 279.779 245.836C279.574 245.683 279.267 245.58 278.858 245.58C278.654 245.58 278.449 245.58 278.347 245.631C278.194 245.683 278.04 245.734 277.887 245.887C277.733 246.04 277.529 246.092 277.376 246.092C277.171 246.092 276.967 245.989 276.813 245.734C276.813 245.734 276.762 245.683 276.711 245.58C276.66 245.529 276.609 245.427 276.557 245.376C276.506 245.274 276.455 245.222 276.404 245.171C276.353 245.12 276.302 245.069 276.302 245.069C277.12 244.251 278.04 243.842 278.961 243.842C279.727 243.842 280.392 244.046 280.955 244.455C281.517 244.864 281.926 245.427 282.182 246.194C282.182 246.245 282.233 246.347 282.284 246.501C282.335 246.603 282.386 246.756 282.386 246.91L283 248.853C283.051 249.006 283.102 249.159 283.102 249.262C283.153 249.364 283.153 249.466 283.204 249.568H283.46V251.307H274.819ZM278.194 253.761C277.989 253.556 277.887 253.301 277.887 253.045C277.887 252.738 277.989 252.483 278.194 252.278C278.398 252.074 278.654 251.971 278.961 251.971C279.267 251.971 279.472 252.074 279.676 252.278C279.881 252.483 279.983 252.738 279.983 253.045C279.983 253.352 279.881 253.556 279.676 253.761C279.472 253.965 279.216 254.068 278.961 254.068C278.654 254.068 278.398 253.965 278.194 253.761Z" fill="#D4D3F2" fill-opacity="0.1"/>
<path d="M283.051 251.307C282.949 251.307 282.898 251.307 282.847 251.256C282.795 251.256 282.744 251.205 282.693 251.153C282.642 251.102 282.642 251.051 282.642 251V249.824C282.642 249.773 282.642 249.722 282.693 249.671C282.744 249.62 282.795 249.62 282.898 249.568C282.949 249.568 283.051 249.517 283.102 249.517C283.204 249.517 283.256 249.517 283.307 249.517H285.556H285.608V243.944H287.602V249.517C287.602 249.773 287.55 249.977 287.448 250.182C287.346 250.386 287.244 250.591 287.09 250.744C286.937 250.898 286.732 251.051 286.528 251.102C286.323 251.153 286.068 251.256 285.863 251.256H283.358C283.204 251.307 283.102 251.307 283.051 251.307ZM285.659 253.761C285.454 253.556 285.352 253.301 285.352 253.045C285.352 252.738 285.454 252.483 285.659 252.278C285.863 252.074 286.119 251.971 286.426 251.971C286.732 251.971 286.937 252.074 287.141 252.278C287.346 252.483 287.448 252.738 287.448 253.045C287.448 253.352 287.346 253.556 287.141 253.761C286.937 253.966 286.681 254.068 286.426 254.068C286.119 254.068 285.863 253.966 285.659 253.761Z" fill="#D4D3F2" fill-opacity="0.1"/>
<path d="M295.271 251.306C294.76 251.306 294.3 251.204 293.89 251C293.481 250.795 293.124 250.54 292.868 250.182C292.612 249.824 292.357 249.466 292.254 249.006C292.101 248.545 292.05 248.085 292.05 247.574C292.05 247.063 292.152 246.551 292.305 246.04C292.459 245.529 292.766 245.069 293.175 244.609H293.584L294.146 245.222C294.3 245.375 294.402 245.58 294.402 245.785C294.402 245.989 294.351 246.194 294.248 246.398C294.095 246.756 294.044 247.114 294.044 247.574C294.044 247.83 294.044 248.085 294.095 248.341C294.146 248.597 294.197 248.801 294.351 249.006C294.453 249.21 294.606 249.364 294.811 249.466C295.015 249.568 295.22 249.619 295.527 249.619H298.236C297.93 249.057 297.776 248.392 297.776 247.676C297.776 247.165 297.827 246.654 297.981 246.194C298.134 245.733 298.339 245.324 298.645 245.018C298.952 244.711 299.31 244.404 299.77 244.251C300.23 244.046 300.691 243.944 301.304 243.944C301.867 243.944 302.378 244.046 302.787 244.2C303.196 244.353 303.605 244.609 303.861 244.966C304.167 245.273 304.372 245.682 304.525 246.142C304.679 246.603 304.73 247.114 304.73 247.676V249.619H305.752V251.358H295.271V251.306ZM302.736 247.625C302.736 247.37 302.736 247.114 302.685 246.858C302.634 246.603 302.582 246.398 302.429 246.245C302.276 246.091 302.173 245.938 301.969 245.836C301.764 245.733 301.56 245.682 301.253 245.682C300.997 245.682 300.742 245.733 300.537 245.836C300.333 245.938 300.179 246.091 300.077 246.245C299.975 246.449 299.873 246.654 299.821 246.858C299.77 247.063 299.77 247.37 299.77 247.625C299.77 247.881 299.77 248.136 299.821 248.392C299.873 248.648 299.975 248.852 300.077 249.006C300.179 249.159 300.333 249.312 300.537 249.415C300.742 249.517 300.946 249.568 301.253 249.568H302.736V247.625ZM300.537 242.768C300.333 242.563 300.23 242.308 300.23 242.052C300.23 241.745 300.333 241.49 300.537 241.285C300.742 241.081 300.997 240.978 301.304 240.978C301.611 240.978 301.815 241.081 302.02 241.285C302.224 241.49 302.327 241.745 302.327 242.052C302.327 242.359 302.224 242.563 302.02 242.768C301.815 242.972 301.56 243.075 301.304 243.075C300.997 243.075 300.742 242.972 300.537 242.768Z" fill="#D4D3F2" fill-opacity="0.1"/>
<path d="M305.394 251.307C305.292 251.307 305.241 251.307 305.19 251.255C305.139 251.255 305.088 251.204 305.036 251.153C304.985 251.102 304.985 251.051 304.985 251V249.824C304.985 249.773 304.985 249.722 305.036 249.67C305.088 249.619 305.139 249.619 305.241 249.568C305.292 249.568 305.394 249.517 305.445 249.517C305.548 249.517 305.599 249.517 305.65 249.517H308.871V251.255H305.65C305.548 251.307 305.497 251.307 305.394 251.307Z" fill="#D4D3F2" fill-opacity="0.1"/>
<path d="M308.462 251.307C308.36 251.307 308.309 251.307 308.258 251.255C308.207 251.255 308.155 251.204 308.104 251.153C308.053 251.102 308.053 251.051 308.053 251V249.824C308.053 249.773 308.053 249.722 308.104 249.67C308.155 249.619 308.207 249.619 308.309 249.568C308.36 249.568 308.462 249.517 308.513 249.517C308.616 249.517 308.667 249.517 308.718 249.517H311.939V251.255H308.718C308.616 251.307 308.565 251.307 308.462 251.307Z" fill="#D4D3F2" fill-opacity="0.1"/>
<path d="M311.785 251.306C311.734 251.306 311.632 251.306 311.581 251.306C311.479 251.306 311.428 251.306 311.376 251.255C311.325 251.255 311.274 251.204 311.223 251.153C311.172 251.102 311.172 251.051 311.172 251V249.824C311.172 249.773 311.172 249.721 311.223 249.67C311.274 249.619 311.325 249.619 311.428 249.568C311.479 249.568 311.581 249.517 311.632 249.517C311.734 249.517 311.785 249.517 311.837 249.517H313.779C313.473 248.955 313.319 248.29 313.319 247.523C313.319 247.012 313.37 246.5 313.524 246.04C313.677 245.58 313.882 245.222 314.189 244.864C314.495 244.506 314.853 244.251 315.262 244.097C315.722 243.893 316.183 243.842 316.745 243.842C317.307 243.842 317.819 243.944 318.228 244.097C318.688 244.302 319.046 244.506 319.353 244.864C319.659 245.222 319.864 245.58 320.017 246.04C320.171 246.5 320.273 247.012 320.273 247.574V249.517H321.244V251.255H311.785V251.306ZM314.751 242.768C314.546 242.563 314.444 242.308 314.444 242.052C314.444 241.745 314.546 241.49 314.751 241.285C314.955 241.081 315.211 240.978 315.518 240.978C315.825 240.978 316.029 241.081 316.234 241.285C316.438 241.49 316.54 241.745 316.54 242.052C316.54 242.359 316.438 242.563 316.234 242.768C316.029 242.972 315.773 243.075 315.518 243.075C315.211 243.075 314.955 242.972 314.751 242.768ZM318.228 247.625C318.228 247.37 318.228 247.114 318.177 246.858C318.125 246.603 318.074 246.398 317.921 246.245C317.768 246.091 317.665 245.938 317.461 245.836C317.256 245.733 317.052 245.682 316.745 245.682C316.489 245.682 316.234 245.733 316.029 245.836C315.825 245.938 315.671 246.091 315.569 246.245C315.467 246.398 315.364 246.603 315.313 246.858C315.262 247.114 315.262 247.37 315.262 247.625C315.262 247.881 315.262 248.136 315.313 248.392C315.364 248.648 315.467 248.852 315.569 249.006C315.671 249.21 315.825 249.312 316.029 249.415C316.234 249.517 316.438 249.568 316.745 249.568H318.228V247.625ZM317.256 242.768C317.052 242.563 316.949 242.308 316.949 242.052C316.949 241.745 317.052 241.49 317.256 241.285C317.461 241.081 317.716 240.978 318.023 240.978C318.33 240.978 318.534 241.081 318.739 241.285C318.943 241.49 319.046 241.745 319.046 242.052C319.046 242.359 318.943 242.563 318.739 242.768C318.534 242.972 318.279 243.075 318.023 243.075C317.716 243.075 317.461 242.972 317.256 242.768Z" fill="#D4D3F2" fill-opacity="0.1"/>
<path d="M320.887 251.306C320.785 251.306 320.734 251.306 320.683 251.255C320.631 251.255 320.58 251.204 320.529 251.153C320.478 251.102 320.478 251.051 320.478 251V249.824C320.478 249.773 320.478 249.721 320.529 249.67C320.58 249.619 320.631 249.619 320.734 249.568C320.785 249.568 320.887 249.517 320.938 249.517C321.04 249.517 321.092 249.517 321.143 249.517H323.392H323.444V243.944H325.438V249.517C325.438 249.773 325.386 249.977 325.284 250.182C325.182 250.386 325.08 250.591 324.926 250.744C324.773 250.897 324.568 251.051 324.364 251.102C324.159 251.153 323.904 251.255 323.699 251.255H321.194C321.04 251.306 320.989 251.306 320.887 251.306ZM323.597 242.768C323.392 242.563 323.29 242.308 323.29 242.052C323.29 241.745 323.392 241.49 323.597 241.285C323.801 241.081 324.057 240.978 324.364 240.978C324.671 240.978 324.875 241.081 325.08 241.285C325.284 241.49 325.386 241.745 325.386 242.052C325.386 242.359 325.284 242.563 325.08 242.768C324.875 242.972 324.619 243.075 324.364 243.075C324.057 243.075 323.801 242.972 323.597 242.768Z" fill="#D4D3F2" fill-opacity="0.1"/>
<path d="M76.4384 250.898C75.876 250.591 75.3647 250.233 74.9045 249.773L75.4158 248.904C75.5181 248.751 75.5692 248.7 75.6715 248.648C75.7737 248.597 75.876 248.546 75.9783 248.546C76.1316 248.546 76.2339 248.597 76.3362 248.648C76.4384 248.7 76.5918 248.802 76.6941 248.904C76.9497 249.109 77.2053 249.211 77.461 249.313C77.6655 249.415 77.9723 249.467 78.2791 249.467C78.7392 249.467 79.0971 249.364 79.3528 249.109C79.6084 248.904 79.7618 248.597 79.7618 248.188C79.7618 248.035 79.7107 247.881 79.6084 247.728C79.5062 247.626 79.4039 247.472 79.2505 247.421C79.0971 247.319 78.9437 247.268 78.7392 247.217C78.5347 247.166 78.3302 247.115 78.1257 247.012C77.7678 246.91 77.461 246.808 77.1031 246.654C76.7452 246.501 76.4895 246.348 76.1828 246.143C75.9271 245.939 75.6715 245.632 75.5181 245.325C75.3647 245.018 75.2625 244.558 75.2625 244.047C75.2625 243.587 75.3647 243.178 75.5181 242.82C75.6715 242.462 75.9271 242.155 76.2339 241.899C76.5407 241.644 76.8986 241.439 77.2565 241.337C77.6655 241.184 78.0745 241.132 78.4836 241.132C79.6084 241.132 80.631 241.541 81.5002 242.411L81.04 243.28C80.8866 243.587 80.6821 243.689 80.4776 243.689C80.3753 243.689 80.222 243.638 80.0686 243.587C79.9152 243.536 79.8129 243.433 79.7107 243.382C79.6084 243.331 79.5062 243.229 79.4039 243.178C79.3016 243.126 79.1483 243.075 79.046 243.024C78.8926 242.973 78.7392 242.973 78.5347 242.973C78.1257 242.973 77.8189 243.075 77.5633 243.28C77.3587 243.484 77.2565 243.689 77.2565 243.996C77.2565 244.149 77.3076 244.251 77.4099 244.405C77.5121 244.558 77.6144 244.609 77.7678 244.711C77.9212 244.814 78.0745 244.865 78.2791 244.967C78.4836 245.018 78.6881 245.121 78.8926 245.172C79.2505 245.274 79.5573 245.376 79.9152 245.53C80.2731 245.683 80.5799 245.836 80.8355 246.041C81.0912 246.245 81.2957 246.501 81.5002 246.808C81.7047 247.115 81.7558 247.524 81.7558 248.035C81.7558 248.546 81.6536 249.006 81.5002 249.415C81.3468 249.824 81.0912 250.182 80.7844 250.438C80.4776 250.745 80.1197 250.949 79.6596 251.103C79.2505 251.256 78.7904 251.307 78.2791 251.307C77.6144 251.307 77.0008 251.205 76.4384 250.898Z" fill="#D4D3F2" fill-opacity="0.1"/>
<path d="M85.5905 251.204V243.125H82.625V241.234H90.6011V243.125H87.6356V251.204H85.5905Z" fill="#D4D3F2" fill-opacity="0.1"/>
<path d="M95.8163 241.234L99.7532 251.204H98.2194C97.8103 251.204 97.5547 250.999 97.4013 250.641L96.6855 248.75H93.1576L92.4418 250.693C92.3907 250.846 92.2884 250.999 92.135 251.102C91.9816 251.204 91.8282 251.255 91.6237 251.255H90.0898L94.0779 241.285H95.8163V241.234ZM96.0208 247.011L94.9471 244.199L93.8734 247.011H96.0208Z" fill="#D4D3F2" fill-opacity="0.1"/>
<path d="M102.412 241.336C102.514 241.387 102.617 241.489 102.719 241.643L107.218 247.523C107.218 247.42 107.218 247.369 107.218 247.267V246.96V241.285H109.161V251.255H108.138C107.934 251.255 107.781 251.204 107.678 251.153C107.576 251.102 107.474 250.999 107.32 250.846L102.821 244.966V251.255H100.878V241.285H101.952C102.156 241.234 102.31 241.285 102.412 241.336Z" fill="#D4D3F2" fill-opacity="0.1"/>
<path d="M110.951 241.234H114.785C115.552 241.234 116.217 241.336 116.779 241.592C117.342 241.847 117.904 242.154 118.313 242.614C118.722 243.074 119.08 243.586 119.336 244.199C119.591 244.813 119.694 245.477 119.694 246.244C119.694 246.96 119.591 247.625 119.336 248.238C119.08 248.852 118.773 249.363 118.313 249.823C117.904 250.283 117.342 250.59 116.779 250.846C116.217 251.102 115.501 251.204 114.785 251.204H110.951V241.234ZM116.831 248.545C117.342 247.983 117.597 247.216 117.597 246.244C117.597 245.273 117.342 244.506 116.831 243.943C116.319 243.381 115.655 243.125 114.785 243.125H113.047V249.414H114.785C115.655 249.363 116.319 249.108 116.831 248.545Z" fill="#D4D3F2" fill-opacity="0.1"/>
<path d="M121.33 251.204V241.234H123.426V251.204H121.33Z" fill="#D4D3F2" fill-opacity="0.1"/>
<path d="M126.698 241.336C126.8 241.387 126.903 241.489 127.005 241.643L131.504 247.523C131.504 247.42 131.504 247.369 131.504 247.267V246.96V241.285H133.447V251.255H132.425C132.22 251.255 132.067 251.204 131.964 251.153C131.862 251.102 131.76 250.999 131.607 250.846L127.107 244.966V251.255H125.164V241.285H126.238C126.443 241.234 126.596 241.285 126.698 241.336Z" fill="#D4D3F2" fill-opacity="0.1"/>
<path d="M138.151 250.949C137.486 250.693 136.975 250.387 136.515 249.926C136.055 249.466 135.697 248.955 135.441 248.341C135.186 247.728 135.032 247.012 135.032 246.245C135.032 245.478 135.134 244.762 135.39 244.149C135.646 243.535 136.004 242.973 136.413 242.564C136.822 242.155 137.384 241.797 137.998 241.541C138.611 241.286 139.327 241.183 140.094 241.183C141.526 241.183 142.804 241.695 143.878 242.666C143.775 242.819 143.673 242.973 143.622 243.126C143.52 243.28 143.469 243.433 143.366 243.535C143.264 243.689 143.162 243.791 143.059 243.842C142.957 243.893 142.855 243.944 142.753 243.944C142.702 243.944 142.599 243.944 142.548 243.893C142.395 243.842 142.241 243.74 142.088 243.689C141.935 243.586 141.781 243.535 141.628 243.433C141.474 243.331 141.27 243.28 141.014 243.229C140.759 243.177 140.452 243.126 140.094 243.126C139.634 243.126 139.225 243.177 138.867 243.331C138.509 243.484 138.202 243.689 137.947 243.995C137.691 244.302 137.486 244.609 137.333 245.018C137.18 245.427 137.129 245.836 137.129 246.347C137.129 247.37 137.384 248.137 137.947 248.75C138.509 249.313 139.276 249.62 140.196 249.62C140.503 249.62 140.81 249.569 141.117 249.517C141.423 249.466 141.628 249.364 141.884 249.262V247.932H140.861C140.656 247.932 140.503 247.881 140.35 247.779C140.247 247.677 140.145 247.523 140.145 247.319V246.194H143.775V250.335C143.213 250.744 142.65 251.051 142.088 251.256C141.474 251.46 140.861 251.563 140.196 251.563C139.532 251.307 138.816 251.205 138.151 250.949Z" fill="#D4D3F2" fill-opacity="0.1"/>
<path d="M149.758 241.234C150.218 241.234 150.473 241.438 150.576 241.847L152.263 247.471L154.206 241.796C154.257 241.643 154.359 241.489 154.513 241.387C154.666 241.285 154.819 241.234 155.024 241.234H155.382C155.791 241.234 156.098 241.438 156.2 241.796L158.143 247.471L159.83 241.796C159.881 241.643 159.983 241.489 160.137 241.387C160.29 241.285 160.443 241.234 160.648 241.234H162.182L159.063 251.204H157.376L155.228 244.762L153.081 251.204H151.343L148.224 241.234H149.758Z" fill="#D4D3F2" fill-opacity="0.1"/>
<path d="M163.205 251.204V241.234H165.301V251.204H163.205Z" fill="#D4D3F2" fill-opacity="0.1"/>
<path d="M169.749 251.204V243.125H166.783V241.234H174.76V243.125H171.794V251.204H169.749Z" fill="#D4D3F2" fill-opacity="0.1"/>
<path d="M182.429 251.204V247.062H178.339V251.204H176.243V241.234H178.339V245.324H182.429V241.234H184.526V251.204H182.429Z" fill="#D4D3F2" fill-opacity="0.1"/>
<path d="M190.66 241.234C191.018 241.234 191.274 241.387 191.427 241.745L193.524 245.273L195.62 241.745C195.722 241.592 195.824 241.438 195.927 241.387C196.029 241.285 196.182 241.234 196.387 241.234H198.227L194.546 247.267V251.204H192.45V247.267L188.769 241.234H190.66Z" fill="#D4D3F2" fill-opacity="0.1"/>
<path d="M201.193 250.948C200.58 250.693 200.068 250.335 199.659 249.875C199.25 249.415 198.893 248.903 198.688 248.239C198.432 247.625 198.33 246.96 198.33 246.193C198.33 245.427 198.432 244.762 198.688 244.148C198.944 243.535 199.25 242.972 199.659 242.512C200.068 242.052 200.58 241.694 201.193 241.438C201.807 241.183 202.472 241.081 203.238 241.081C204.005 241.081 204.67 241.183 205.284 241.438C205.897 241.694 206.408 242.052 206.818 242.512C207.227 242.972 207.584 243.484 207.789 244.148C208.045 244.762 208.147 245.427 208.147 246.193C208.147 246.96 208.045 247.625 207.789 248.239C207.533 248.852 207.227 249.415 206.818 249.875C206.408 250.335 205.846 250.693 205.284 250.948C204.721 251.204 204.005 251.306 203.238 251.306C202.472 251.306 201.807 251.204 201.193 250.948ZM205.284 248.545C205.795 247.983 206.051 247.216 206.051 246.245C206.051 245.222 205.795 244.455 205.284 243.893C204.772 243.33 204.108 243.075 203.238 243.075C202.369 243.075 201.705 243.33 201.193 243.893C200.682 244.455 200.426 245.222 200.426 246.245C200.426 247.216 200.682 248.034 201.193 248.545C201.705 249.108 202.369 249.363 203.238 249.363C204.108 249.415 204.772 249.108 205.284 248.545Z" fill="#D4D3F2" fill-opacity="0.1"/>
<path d="M212.135 250.999C211.624 250.795 211.215 250.488 210.857 250.13C210.499 249.772 210.243 249.312 210.039 248.852C209.834 248.392 209.732 247.829 209.732 247.216V241.234H211.777V247.216C211.777 247.523 211.828 247.829 211.931 248.085C212.033 248.341 212.135 248.596 212.34 248.801C212.493 249.005 212.697 249.159 212.953 249.261C213.209 249.363 213.464 249.414 213.771 249.414C214.385 249.414 214.896 249.21 215.254 248.801C215.612 248.392 215.765 247.88 215.765 247.216V241.234H217.861V247.216C217.861 247.778 217.759 248.341 217.606 248.852C217.401 249.363 217.146 249.772 216.788 250.13C216.43 250.488 216.021 250.795 215.51 250.999C214.998 251.204 214.436 251.306 213.822 251.306C213.158 251.306 212.646 251.204 212.135 250.999Z" fill="#D4D3F2" fill-opacity="0.1"/>
<path d="M226.247 252.278V239.496H227.934V252.278H226.247Z" fill="#D4D3F2" fill-opacity="0.1"/>
</g>
</svg>
