<svg width="24" height="24" viewBox="0 0 24 24" fill="none" xmlns="http://www.w3.org/2000/svg">
<g clip-path="url(#clip0_65_128)">
<path d="M18.1357 11.4481H22.8526C22.9263 11.4481 23 11.3745 23 11.3009C22.6683 6.37118 19.0938 2.28757 14.3769 1.25747C14.2663 1.22068 14.1558 1.36784 14.2663 1.47821C16.4774 3.94309 17.8777 7.47486 18.0251 11.3377C17.9883 11.4113 18.062 11.4481 18.1357 11.4481Z" fill="white"/>
<path d="M12.0921 1C12.0553 1 12.0184 1 11.9816 1C11.9447 1 11.9079 1 11.871 1C9.03348 3.17057 7.26464 7.03345 7.08038 11.301C7.08038 11.3746 7.15409 11.4482 7.22779 11.4482H16.7353C16.809 11.4482 16.8827 11.3746 16.8827 11.301C16.7353 7.03345 14.9296 3.17057 12.0921 1Z" fill="white"/>
<path d="M7.22779 12.5518C7.15409 12.5518 7.08038 12.6253 7.08038 12.6989C7.26464 17.0033 9.03348 20.8294 11.871 22.9999C11.9079 22.9999 11.9447 22.9999 11.9816 22.9999C12.0184 22.9999 12.0553 22.9999 12.0921 22.9999C14.9296 20.8294 16.6985 16.9665 16.8827 12.6989C16.8827 12.6253 16.809 12.5518 16.7353 12.5518H7.22779Z" fill="white"/>
<path d="M17.9883 12.6621C17.8409 16.525 16.4774 20.0568 14.2664 22.5217C14.1927 22.632 14.2664 22.7792 14.3769 22.7424C19.0938 21.7123 22.7052 17.6287 23 12.6989C23 12.6253 22.9263 12.5518 22.8526 12.5518H18.1357C18.062 12.5518 17.9883 12.6253 17.9883 12.6621Z" fill="white"/>
<path d="M5.86432 12.5518H1.1474C1.0737 12.5518 1 12.6253 1 12.6989C1.29481 17.6287 4.9062 21.7123 9.62312 22.7424C9.73367 22.7792 9.84422 22.632 9.73367 22.5217C7.48576 20.0568 6.12228 16.525 5.97487 12.6621C6.01172 12.6253 5.93802 12.5518 5.86432 12.5518Z" fill="white"/>
<path d="M6.01173 11.3377C6.15913 7.47486 7.52261 3.94309 9.73367 1.47821C9.80737 1.36784 9.73367 1.22068 9.62312 1.25747C4.9062 2.28757 1.29481 6.37118 1 11.3009C1 11.3745 1.0737 11.4481 1.1474 11.4481H5.86432C5.93802 11.4481 6.01173 11.4113 6.01173 11.3377Z" fill="white"/>
</g>
<defs>
<clipPath id="clip0_65_128">
<rect width="22" height="22" fill="white" transform="translate(1 1)"/>
</clipPath>
</defs>
</svg>
