<?xml version="1.0" encoding="UTF-8"?>
<svg id="Layer_1" data-name="Layer 1" xmlns="http://www.w3.org/2000/svg" viewBox="0 0 1000 1000">
  <defs>
    <style>
      .cls-1 {
        fill: #fff;
        stroke-width: 0px;
      }
    </style>
  </defs>
  <path class="cls-1" d="M401.52,121.4c-13.47,6.37-25.63,11.83-37.42,17.74-58.37,29.31-89.02,79.1-97.28,145.54-7.88,63.4-7.87,129.77-8.03,196.03-.32,130.3.19,260.89.87,391.53.05,9.16-3.29,11.77-12.95,11.69-56.99-.49-113.68-.24-170.72-.24-.74-1.36-1.88-2.66-1.88-3.56,1.7-173.65-2.36-349.33,3.37-521.57,1.65-49.54,7.02-97.17,30.18-136.08,36.91-62.01,99.6-94.61,182.6-104.06,34.55-3.93,70.95-3.14,111.26,2.98Z"/>
  <path class="cls-1" d="M627,121.34c-11.98,5.47-22.2,10.02-32.27,14.75-65.96,31.02-97.92,86.77-104.57,161.19-8.24,92.19-6.58,187.95-6.7,283.06-.13,97,.52,194.27,1.23,291.56.06,8.69-2.42,12.2-12.59,12.08-54.59-.65-108.84-.44-163.06-.17-8.01.04-10.28-1.09-10.22-9.21,1.3-171.9-.83-345,3.06-516,1.12-49.31,7.58-96.26,30.1-135.05,36.81-63.41,100.17-96.67,185.15-105.25,34.12-3.44,69.93-2.34,109.87,3.04Z"/>
  <path class="cls-1" d="M743.61,883.65c-.07-71.23.1-140.45-.26-209.85-.51-99.86,1.49-198.88-2.18-299.8-1.19-32.74-5.68-66.28-20.42-101.76-17.35-41.75-47.79-76.57-89.79-104.23-13.91-9.16-10.27-11.22-3.8-15.8,50.16-35.5,165.85-22.54,245.73,91.46,34.17,48.76,45.74,96.4,49.69,143.31,5.84,69.39,2.09,135.6,2.44,203.16.5,94.61-.19,188.81-.41,283.17-.01,4.96,1.84,10.58-6.52,10.53-57.67-.36-115.13-.19-174.49-.19Z"/>
  <path class="cls-1" d="M523.94,883.67c-.22-47.58-.7-93.4-.6-139.01.27-131.8-3.81-265.11.76-395.4,1.89-54.03,10.57-104.78,38.87-145.14,7.65-10.92,16.9-20.47,26.46-29.81,4.17-4.07,7.76-3.66,14.85,1.55,60.56,44.43,91.26,96.51,95.85,153.12,5.46,67.31,3.06,132.15,3.36,197.81.54,115.59.21,230.88.65,346.43.03,8-2.65,10.75-11.44,10.68-55.71-.44-111.15-.22-168.76-.22Z"/>
</svg>