<?xml version="1.0" encoding="UTF-8"?>
<svg id="Layer_1" data-name="Layer 1" xmlns="http://www.w3.org/2000/svg" viewBox="0 0 1000 1000">
  <defs>
    <style>
      .cls-1 {
        fill: #312e75;
        stroke-width: 0px;
      }
    </style>
  </defs>
  <g id="Legal_Advice" data-name="Legal Advice">
    <path class="cls-1" d="M730.58,639.75c35.19-28.99,56.09-71.8,57.32-117.37,0-55.65-33.24-107.25-91.24-142.06-33.58-72.79-126.45-125.27-235.55-125.27-137.31,0-249.02,83.08-249.02,185.21,1.26,46.28,22.5,89.75,58.24,119.19,2.61,8.69-6.64,50.3-34.19,82.3-4.03,4.6-4.77,11.23-1.86,16.61,2.63,4.91,7.75,7.95,13.31,7.92.68,0,1.35-.04,2.02-.13,35.14-4.02,69.27-14.4,100.69-30.64,46.27,43.47,117.45,69.27,192.39,69.27,26.24.05,52.38-3.09,77.86-9.36,1.29.82,3.01,1.99,4.6,3.07,37.34,25.7,80.53,41.63,125.62,46.32.67.09,1.35.13,2.03.13,5.53.03,10.61-3,13.23-7.86,2.91-5.36,2.17-11.96-1.83-16.55-26.98-31.32-36.13-72.16-33.64-80.78ZM284.73,544.65c-31.68-25.58-50.67-63.68-52.01-104.38,0-90.75,102.45-164.58,228.39-164.58s228.38,73.83,228.38,164.58-102.45,164.58-228.38,164.58c-26.03.06-51.96-3.19-77.18-9.67-5.92-1.56-10.31,1.45-18.28,6.85-31.35,21.67-67.23,35.9-104.91,41.6,24.4-34.74,40.02-84.92,23.98-98.98ZM636.74,681.42c-7.92-5.37-12.36-8.3-18.13-6.77-24.8,6.37-50.3,9.57-75.91,9.51-67.37,0-131.21-22.08-173.79-59.55,3.2-2.06,5.99-3.94,8.31-5.51,1.64-1.11,3.42-2.32,4.73-3.15,25.9,6.37,52.48,9.57,79.16,9.52,137.3,0,249.01-83.08,249.01-185.2,0-9.31-.94-18.6-2.8-27.72,38.38,29.8,59.95,68.7,59.95,109.84-1.32,40-19.98,77.45-51.12,102.59-15.79,13.84-.56,63.07,23.35,97.29-36.91-5.64-72.06-19.6-102.78-40.84Z"/>
    <path class="cls-1" d="M603.18,454.82l-33.95-59.92c4.26-1.61,8.33-3.67,12.14-6.16,4.76-3.13,6.08-9.53,2.95-14.29-3.13-4.76-9.53-6.08-14.29-2.95h0c-5.67,3.94-12.37,6.13-19.28,6.28-11.21-1.85-21.45-7.51-28.97-16.03-10.84-9.44-23.32-20.14-40.2-18.83-3.18.29-6.31.99-9.32,2.07v-10.02c0-5.7-4.62-10.31-10.31-10.31s-10.31,4.62-10.31,10.31v10.66c-3.5-1.44-7.2-2.36-10.98-2.71-16.98-1.25-29.37,9.39-40.2,18.83-7.52,8.51-17.75,14.18-28.96,16.03-6.93-.04-13.68-2.23-19.3-6.29-4.77-3.12-11.16-1.78-14.27,2.99-3.11,4.75-1.79,11.13,2.95,14.25,3.81,2.48,7.88,4.55,12.13,6.15l-33.95,59.92c-4.78.89-8.26,5.04-8.3,9.91,1.01,31.14,27.01,55.6,58.15,54.72,31.14.88,57.14-23.58,58.15-54.72-.04-4.86-3.51-9.01-8.29-9.9l-33.34-58.82c10.67-4.26,20.39-10.61,28.57-18.68,8.92-7.76,16.76-14.48,25.11-13.82,4.67.62,9.04,2.64,12.53,5.81v109.81c-8.69,4.01-14.26,12.69-14.28,22.26v29.55h-16.74c-5.7,0-10.31,4.62-10.31,10.31s4.62,10.31,10.31,10.31h82c5.7,0,10.31-4.62,10.31-10.31s-4.62-10.31-10.31-10.31h-16.06v-29.55c-.02-9.57-5.6-18.25-14.29-22.26v-111.14c3.14-2.47,6.9-4.02,10.87-4.48,8.67-.72,16.2,6.06,25.11,13.82,8.19,8.07,17.9,14.42,28.58,18.68l-33.33,58.82c-4.78.89-8.26,5.04-8.3,9.91,1.95,32.12,29.57,56.57,61.69,54.61,29.39-1.79,52.83-25.22,54.61-54.61-.04-4.86-3.52-9.02-8.3-9.91ZM394.81,454.42h-51.83l25.91-45.73,25.92,45.73ZM368.89,498.83c-15.74.4-30.05-9.11-35.77-23.78h71.55c-5.72,14.67-20.03,24.18-35.77,23.78ZM457.97,530.94v-29.55c-.01-2.19,1.76-3.98,3.95-3.99,2.19-.01,3.98,1.76,3.99,3.95,0,.01,0,.03,0,.04v29.55h-7.95ZM579.24,454.42h-51.82l25.91-45.73,25.91,45.73ZM553.33,498.83c-15.74.4-30.05-9.11-35.77-23.78h71.55c-5.72,14.67-20.03,24.18-35.77,23.78Z"/>
  </g>
</svg>