<?xml version="1.0" encoding="UTF-8"?>
<svg id="Layer_1" data-name="Layer 1" xmlns="http://www.w3.org/2000/svg" viewBox="0 0 1000 1000">
  <defs>
    <style>
      .cls-1 {
        fill: #312e75;
        stroke-width: 0px;
      }
    </style>
  </defs>
  <path class="cls-1" d="M689.19,245h-378.38c-4.54,0-8.23,3.68-8.23,8.23v493.54c0,4.54,3.68,8.23,8.23,8.23h378.38c4.54,0,8.23-3.68,8.23-8.23V253.23c0-4.54-3.68-8.23-8.23-8.23ZM680.96,738.54h-361.93v-477.09h361.93v477.09Z"/>
  <path class="cls-1" d="M543.18,401.02c0-27.26-22.1-49.35-49.35-49.35s-49.35,22.1-49.35,49.35,22.1,49.35,49.35,49.35c27.25-.03,49.33-22.11,49.35-49.35ZM460.93,401.02c0-18.17,14.73-32.9,32.9-32.9s32.9,14.73,32.9,32.9-14.73,32.9-32.9,32.9-32.9-14.73-32.9-32.9Z"/>
  <path class="cls-1" d="M617.22,499.73h-82.26v-25.97c7.07-1.57,14.38-1.79,21.53-.63,4.48.73,8.71-2.32,9.44-6.8.14-.88.14-1.77,0-2.65-3.48-21.15,5.12-42.47,22.29-55.29l1.04-.82c3.63-2.73,4.37-7.88,1.65-11.52-.47-.62-1.02-1.18-1.65-1.65l-1.06-.82c-17.17-12.82-25.76-34.14-22.28-55.28.74-4.48-2.3-8.71-6.79-9.45-.88-.14-1.77-.14-2.65,0-21.12,3.51-42.43-5.05-55.26-22.19l-.82-1.04c-2.99-3.63-8.36-4.16-12-1.17-.43.35-.82.74-1.17,1.17l-.78,1.04c-12.82,17.18-34.15,25.77-55.3,22.27-4.48-.73-8.71,2.32-9.44,6.8-.14.88-.14,1.77,0,2.65,3.48,21.15-5.12,42.47-22.29,55.29l-1.04.82c-3.63,2.73-4.37,7.88-1.65,11.52.47.62,1.02,1.18,1.65,1.65l1.04.82c17.17,12.82,25.76,34.14,22.28,55.28-.74,4.48,2.3,8.71,6.79,9.45.88.14,1.77.14,2.65,0,7.15-1.18,14.47-.99,21.55.57v25.96h-82.26c-4.54,0-8.23,3.68-8.23,8.23v164.51c0,4.54,3.68,8.23,8.23,8.23h246.77c4.54,0,8.23-3.68,8.23-8.23v-164.51c0-4.54-3.68-8.23-8.23-8.23ZM438.92,455.92c.46-20.69-7.8-40.61-22.76-54.91,14.96-14.3,23.22-34.22,22.76-54.91,20.69.47,40.62-7.79,54.91-22.76,14.31,14.94,34.23,23.19,54.91,22.76-.46,20.69,7.8,40.61,22.76,54.91-14.96,14.3-23.22,34.22-22.76,54.91-20.68-.42-40.59,7.84-54.91,22.76-13.91-14.56-33.17-22.79-53.3-22.78l-1.6.02ZM486.47,495.41l.78,1.04c2.73,3.63,7.88,4.37,11.52,1.65.62-.47,1.18-1.02,1.65-1.65l.82-1.04c4.66-6.24,10.54-11.46,17.27-15.37v44.36l-19.74-14.81c-2.92-2.19-6.95-2.19-9.87,0l-19.74,14.81v-44.36c6.75,3.89,12.64,9.11,17.32,15.35v.02ZM608.99,664.24h-230.32v-148.06h74.03v24.68c0,4.54,3.68,8.23,8.23,8.23,1.78,0,3.51-.58,4.94-1.65l27.97-20.98,27.97,20.98c1.42,1.07,3.16,1.65,4.94,1.65,4.54,0,8.23-3.68,8.23-8.23v-24.68h74.03v148.06Z"/>
  <path class="cls-1" d="M444.48,549.08h-16.45v16.45h-32.9v16.45h48.78c-1.09,7.63-3.69,14.96-7.65,21.57-2.87-4.79-5.04-9.97-6.45-15.37l-15.94,4.06c2.29,8.86,6.2,17.23,11.52,24.68-3.96,3.6-8.38,6.64-13.16,9.05l-12.57,6.28,7.35,14.72,12.57-6.28c6.07-3.04,11.69-6.89,16.73-11.44,4.98,4.55,10.56,8.4,16.58,11.44l12.57,6.28,7.35-14.72-12.57-6.28c-4.77-2.4-9.18-5.45-13.12-9.05,7.33-10.32,11.89-22.35,13.24-34.93h17.02v-16.45h-32.9v-16.45Z"/>
  <path class="cls-1" d="M493.83,631.34h98.71v16.45h-98.71v-16.45Z"/>
  <path class="cls-1" d="M493.83,598.43h98.71v16.45h-98.71v-16.45Z"/>
  <path class="cls-1" d="M493.83,565.53h98.71v16.45h-98.71v-16.45Z"/>
</svg>