<?xml version="1.0" encoding="UTF-8"?>
<svg id="Layer_1" data-name="Layer 1" xmlns="http://www.w3.org/2000/svg" viewBox="0 0 1000 1000">
  <defs>
    <style>
      .cls-1 {
        fill: #312e75;
        stroke-width: 0px;
      }
    </style>
  </defs>
  <path class="cls-1" d="M791.63,457.42c-7.41,39.64-16.11,81.27-33.77,116.18-22.38,44.27-54.8,67.3-96.37,68.48h-.26c-4.92,0-8.98-3.92-9.11-8.86-.14-5.04,3.83-9.24,8.86-9.38,75.12-2.12,97.56-88.75,112.71-169.76.93-4.96,5.69-8.22,10.64-7.3,4.96.93,8.22,5.69,7.3,10.64ZM643.67,611.34c-11.21.21-17.77.54-22.03,5.18-8.54,9.31-11.08,37.32-7.78,85.65.45,6.73-2.83,12.84-9,16.78-5.14,3.28-12.16,4.95-19.2,4.95-6.38,0-12.79-1.37-17.84-4.13-6.68-3.65-10.59-9.62-10.78-16.41-.79-7.5-1.71-15.29-2.62-22.82-6-50.25-12.2-102.22,15.81-128.56,15.06-14.17,37.7-19,68.98-14.7,13.6-68.67,33.21-106.83,59.87-116.55,16.75-6.11,35.25-.94,55,15.35,2.56,2.11,3.78,5.46,3.16,8.73-13.45,71.62-31.09,118.41-53.92,143.02-21.18,22.83-43.42,23.22-59.66,23.51h0ZM689.95,575.41c19.59-21.12,35.84-64.34,48.32-128.54-12.64-9.33-23.71-12.37-32.94-9-14.36,5.23-34.65,28.81-49.84,111.46-.91,4.96-5.65,8.23-10.61,7.33-29.45-5.37-50.36-2.48-62.15,8.61-21.3,20.02-15.65,67.33-10.19,113.1.93,7.73,1.87,15.73,2.68,23.48.03.31.05.62.05.93.49.7,3.44,2.56,9.11,2.84,6.2.31,10.26-1.5,11.25-2.48-3.84-56.38-.19-85.06,12.56-98.96,9.75-10.63,22.67-10.87,35.15-11.09,15.09-.27,30.7-.56,46.6-17.69h0ZM666.16,368.37c0-23.81,18.65-42.46,42.46-42.46s42.82,19.05,42.82,42.46-19.21,42.82-42.82,42.82-42.46-19.21-42.46-42.82ZM684.41,368.37c0,13.54,10.86,24.57,24.21,24.57s24.57-11.02,24.57-24.57-11.02-24.21-24.57-24.21-24.21,10.63-24.21,24.21ZM509.3,501.37v213.36c0,5.04-4.09,9.12-9.12,9.12s-9.12-4.09-9.12-9.12v-213.36h-84.23c-5.04,0-9.12-4.09-9.12-9.12s4.09-9.12,9.12-9.12h18.95v-88.09c0-18.19,14.8-32.98,32.98-32.98h25.62c3.27,0,6.28,1.75,7.91,4.58,1.62,2.83,1.61,6.33-.03,9.15l-7.77,13.29h31.19l-7.64-13.37c-1.61-2.82-1.6-6.29.03-9.1,1.63-2.81,4.64-4.55,7.89-4.55h25.26c18.19,0,32.98,14.8,32.98,32.98v88.09h18.95c5.04,0,9.12,4.09,9.12,9.12s-4.09,9.12-9.12,9.12h-83.85ZM444.03,483.12h19.65v-36.5c0-5.04,4.09-9.12,9.12-9.12s9.12,4.09,9.12,9.12v36.5h36.15v-36.5c0-5.04,4.09-9.12,9.12-9.12s9.12,4.09,9.12,9.12v36.5h19.65v-88.09c0-8.13-6.61-14.74-14.74-14.74h-9.55l7.64,13.37c1.61,2.82,1.6,6.29-.03,9.1-1.63,2.81-4.64,4.55-7.89,4.55h-62.81c-3.27,0-6.28-1.75-7.91-4.58-1.62-2.83-1.61-6.33.03-9.15l7.77-13.29h-9.72c-8.13,0-14.74,6.61-14.74,14.74v88.09h.01ZM457.37,318.88c0-23.61,19.21-42.82,42.82-42.82s42.46,19.21,42.46,42.82-19.05,42.46-42.46,42.46c-23.62.01-42.82-19.04-42.82-42.46h0ZM475.61,318.88c0,13.35,11.02,24.21,24.57,24.21s24.21-11.09,24.21-24.21-10.86-24.57-24.21-24.57c-13.54.01-24.57,11.02-24.57,24.57h0ZM339.01,623.84c-75.12-2.12-97.56-88.75-112.71-169.76-.93-4.96-5.69-8.22-10.64-7.3-4.96.93-8.22,5.69-7.29,10.64,7.41,39.64,16.11,81.27,33.77,116.18,22.38,44.27,54.8,67.3,96.37,68.48h.26c4.92,0,8.98-3.92,9.11-8.86.14-5.04-3.84-9.24-8.87-9.38ZM429.98,552c28.14,26.52,21.74,78.94,15.54,129.63-.88,7.15-1.78,14.54-2.56,21.66-.1,6.77-3.91,12.71-10.52,16.4-5.08,2.83-11.53,4.24-17.95,4.24-7.07,0-14.1-1.69-19.27-5.05-6.11-3.96-9.3-10.07-8.74-16.79,3.29-48.24.73-76.22-7.82-85.55-4.28-4.67-10.87-5.01-22.16-5.22-16.27-.3-38.57-.69-59.79-23.51-22.88-24.61-40.53-71.4-53.98-143.02-.62-3.27.59-6.61,3.16-8.73,19.75-16.26,38.25-21.44,54.98-15.36,26.67,9.67,46.4,47.84,60.23,116.57,31.22-4.32,53.81.54,68.86,14.72h0ZM417.47,565.28c-11.76-11.09-32.63-13.99-61.99-8.61-4.95.9-9.68-2.35-10.61-7.3-15.47-82.72-35.85-106.29-50.2-111.51-9.24-3.35-20.31-.32-32.94,9.01,12.48,64.19,28.76,107.42,48.38,128.53,15.93,17.14,31.6,17.43,46.74,17.69,12.53.23,25.49.46,35.28,11.12,12.78,13.92,16.42,42.62,12.59,99.04,1.05.94,5,2.6,10.87,2.38,5.54-.23,8.54-2,9.14-2.72,0-.37.01-.74.06-1.1.8-7.4,1.74-15.02,2.64-22.4,5.65-46.18,11.49-93.94-9.95-114.14h0ZM248.92,368.37c0-23.81,18.65-42.46,42.46-42.46s42.82,19.05,42.82,42.46-19.21,42.82-42.82,42.82-42.46-19.21-42.46-42.82ZM267.16,368.37c0,13.54,10.86,24.57,24.21,24.57s24.57-11.02,24.57-24.57-11.02-24.21-24.57-24.21-24.21,10.63-24.21,24.21Z"/>
</svg>