<?xml version="1.0" encoding="UTF-8"?>
<svg id="Layer_1" data-name="Layer 1" xmlns="http://www.w3.org/2000/svg" viewBox="0 0 1000 1000">
  <defs>
    <style>
      .cls-1 {
        fill: #312e75;
        stroke-width: 0px;
      }
    </style>
  </defs>
  <path class="cls-1" d="M377.06,469.51h245.88c4.43,0,8.02-3.59,8.02-8.02v-139.73c0-4.43-3.59-8.02-8.02-8.02h-52.07v-54.26c0-4.43-3.59-8.02-8.02-8.02h-125.71c-4.43,0-8.02,3.59-8.02,8.02v21.6h-52.07c-4.43,0-8.02,3.59-8.02,8.02v172.38c0,4.43,3.59,8.02,8.02,8.02h0ZM614.92,329.78v123.69h-44.05v-123.69h44.05ZM517.96,453.47h-34.12v-45.92c0-.54.47-1.01,1.01-1.01h32.11c.54,0,1,.47,1,1.01v45.92h0ZM445.16,267.51h109.68v185.97h-20.84v-45.92c0-9.39-7.64-17.04-17.04-17.04h-32.11c-9.39,0-17.04,7.64-17.04,17.04v45.92h-22.65v-185.97ZM385.08,297.13h44.05v156.35h-44.05v-156.35ZM475.36,294.14h-16.03v-16.03h16.03v16.03ZM508.02,294.14h-16.03v-16.03h16.03v16.03ZM540.67,294.14h-16.03v-16.03h16.03v16.03ZM475.36,323.27h-16.03v-16.03h16.03v16.03ZM508.02,323.27h-16.03v-16.03h16.03v16.03ZM540.67,323.27h-16.03v-16.03h16.03v16.03ZM540.67,352.41h-16.03v-16.03h16.03v16.03ZM508.02,352.41h-16.03v-16.03h16.03v16.03ZM475.36,352.41h-16.03v-16.03h16.03v16.03ZM540.67,381.54h-16.03v-16.03h16.03v16.03ZM475.36,381.54h-16.03v-16.03h16.03v16.03ZM508.02,381.54h-16.03v-16.03h16.03v16.03ZM399.08,416.26h16.03v16.03h-16.03v-16.03ZM399.08,383.61h16.03v16.03h-16.03v-16.03ZM399.08,350.95h16.03v16.03h-16.03v-16.03ZM584.88,432.3v-16.03h16.03v16.03h-16.03ZM600.92,399.64h-16.03v-16.03h16.03v16.03ZM600.92,366.99h-16.03v-16.03h16.03v16.03ZM415.12,318.3v16.03h-16.03v-16.03h16.03ZM426.55,491.98c-4.43,0-8.02,3.59-8.02,8.02,0,44.92,36.54,81.46,81.46,81.46s81.46-36.54,81.46-81.46c0-4.43-3.59-8.02-8.02-8.02h-146.89ZM500,565.43c-33.36,0-60.98-25.1-64.94-57.41h129.88c-3.96,32.31-31.58,57.41-64.94,57.41ZM740.51,491.98h-126.98c-4.43,0-8.02,3.59-8.02,8.02,0,58.18-47.33,105.51-105.51,105.51s-105.51-47.33-105.51-105.51c0-4.43-3.59-8.02-8.02-8.02h-126.98c-4.43,0-8.02,3.59-8.02,8.02v32.55c0,3.32,2.04,6.29,5.14,7.48l35.95,13.84c4.98,19.21,12.59,37.57,22.68,54.7l-15.65,35.23c-1.35,3.03-.69,6.58,1.66,8.92l46.03,46.03c2.34,2.34,5.89,3,8.92,1.66l35.24-15.65c17.13,10.09,35.49,17.7,54.68,22.67l13.84,35.96c1.19,3.09,4.16,5.14,7.48,5.14h65.1c3.32,0,6.29-2.04,7.48-5.14l13.84-35.95c19.21-4.98,37.57-12.59,54.7-22.68l35.23,15.65c3.03,1.35,6.58.69,8.92-1.66l46.03-46.03c2.34-2.34,3-5.89,1.66-8.92l-15.65-35.24c10.09-17.13,17.7-35.49,22.67-54.68l35.96-13.84c3.09-1.19,5.14-4.16,5.14-7.48v-32.55c0-4.43-3.59-8.02-8.02-8.02h0ZM732.49,527.04l-34.72,13.36c-2.47.95-4.31,3.05-4.92,5.62-4.86,20.41-12.91,39.84-23.95,57.76-1.39,2.25-1.57,5.04-.5,7.46l15.11,34.03-38.25,38.25-34.01-15.11c-2.42-1.07-5.21-.89-7.46.5-17.91,11.03-37.35,19.09-57.77,23.95-2.57.61-4.68,2.45-5.63,4.92l-13.36,34.71h-54.09l-13.36-34.72c-.95-2.47-3.05-4.31-5.63-4.92-20.41-4.86-39.84-12.91-57.76-23.95-2.25-1.39-5.04-1.57-7.46-.5l-34.03,15.11-38.25-38.25,15.11-34.01c1.07-2.42.89-5.21-.5-7.46-11.03-17.91-19.09-37.35-23.95-57.77-.61-2.57-2.45-4.68-4.92-5.62l-34.71-13.36v-19.03h111.21c4.14,63.3,56.96,113.53,121.29,113.53s117.15-50.23,121.29-113.53h111.21v19.03ZM658.11,364.77l18-23.04c1.52-1.95,3.85-3.08,6.32-3.08s4.8,1.14,6.32,3.08l18,23.04c2.72,3.49,2.11,8.53-1.38,11.25-1.47,1.15-3.2,1.7-4.93,1.7-2.38,0-4.74-1.06-6.32-3.08l-3.66-4.69v91.54c0,4.43-3.59,8.02-8.02,8.02s-8.02-3.59-8.02-8.02v-91.54l-3.66,4.69c-2.73,3.49-7.76,4.11-11.25,1.38-3.49-2.73-4.11-7.76-1.38-11.25h0ZM293.26,364.77l18-23.04c1.52-1.95,3.85-3.08,6.32-3.08s4.8,1.14,6.32,3.08l18,23.04c2.72,3.49,2.11,8.53-1.38,11.25-1.47,1.15-3.2,1.7-4.93,1.7-2.38,0-4.74-1.06-6.32-3.08l-3.66-4.69v91.54c0,4.43-3.59,8.02-8.02,8.02s-8.02-3.59-8.02-8.02v-91.54l-3.66,4.69c-2.73,3.49-7.76,4.11-11.25,1.38-3.49-2.73-4.11-7.76-1.38-11.25Z"/>
</svg>