<?xml version="1.0" encoding="UTF-8"?>
<svg id="Layer_1" data-name="Layer 1" xmlns="http://www.w3.org/2000/svg" viewBox="0 0 1000 1000">
  <defs>
    <style>
      .cls-1 {
        fill: #312e75;
        stroke-width: 0px;
      }
    </style>
  </defs>
  <path class="cls-1" d="M781.62,635.56c-11.06-16.68-33.62-21.27-50.29-10.22l-90.83,60.13c-4.44-11.08-14.21-19.62-26.46-22.1l-149.66-30.43c-13.41-2.74-26.2-.66-38.02,6.17l-27.6,15.93-18.34,10.61-9.44-16.35c-5.44-9.42-17.54-12.67-26.95-7.24l-36.49,21.08c-4.55,2.63-7.81,6.9-9.19,11.99-1.37,5.11-.68,10.44,1.95,14.99l93.4,161.75c2.63,4.55,6.88,7.81,11.97,9.19,1.71.46,3.45.69,5.17.69,3.42,0,6.78-.9,9.81-2.64l36.49-21.07c9.43-5.45,12.68-17.56,7.24-26.98l-9.43-16.33,10.67-6.16c10.35-5.97,21.69-6.82,32.77-2.48l52.43,20.56c6.71,2.64,13.51,3.95,20.24,3.95,10.5,0,20.79-3.2,30.1-9.51l170.24-115.25c16.66-11.04,21.25-33.61,10.22-50.29h0ZM448.9,823.75l-36.49,21.07c-.99.57-1.95.43-2.44.31-.49-.13-1.39-.51-1.97-1.51l-93.4-161.75c-.58-.99-.43-1.97-.31-2.46.13-.5.51-1.4,1.5-1.98l36.49-21.07c.99-.57,1.95-.43,2.44-.31.49.13,1.39.51,1.97,1.5l79.62,137.87c.07.13.13.28.21.4.08.13.17.26.25.38l13.33,23.08c.89,1.55.34,3.58-1.19,4.46ZM762.21,672.14l-170.3,115.28c-10.63,7.2-23.08,8.58-35.05,3.86l-52.44-20.57c-15.93-6.24-32.2-5.02-47.05,3.55l-10.68,6.16-58.02-100.49,18.35-10.62,27.6-15.92c8.34-4.82,17-6.22,26.47-4.29l149.67,30.43c9.24,1.87,15.89,10.07,15.82,19.51,0,.09.01.19.02.28-.01.14-.03.29-.04.44-.04,1.03-.17,2.06-.37,3.11-2.18,10.68-12.64,17.62-23.34,15.44l-101.13-20.57c-4.47-.91-8.83,1.97-9.73,6.44-.91,4.47,1.97,8.83,6.44,9.73l101.13,20.57c2.43.5,4.85.73,7.24.73,16.9,0,32.06-11.89,35.57-29.12.15-.79.28-1.57.38-2.34l97.67-64.66c9.08-6.02,21.39-3.52,27.42,5.57,6.03,9.09,3.53,21.4-5.63,27.47h0ZM332.55,352.52c3.61,1.09,7.29,1.62,10.95,1.62,6.08,0,12.11-1.5,17.61-4.42v187.14c0,14.84,12.08,26.9,26.9,26.9h56.38l9.03,9.03c7.41,7.41,18.65,9.17,27.91,4.42l19.22-9.77,6.66,20.5c3.23,9.92,12.4,16.59,22.84,16.59h25.13c10.47,0,19.67-6.66,22.9-16.6l6.63-20.5,19.18,9.75c9.29,4.78,20.51,3.01,27.91-4.39l9.06-9.03h56.41c14.81,0,26.86-12.08,26.86-26.9v-187.14c18.33,9.69,41.17,2.77,51.03-15.55,9.86-18.37,2.94-41.35-15.44-51.21l-199.19-106.9c-11.33-6.1-24.84-6.02-36.15.2l-65.01,34.88v-24.84c0-12.49-10.15-22.67-22.62-22.67h-33.8c-12.47,0-22.62,10.17-22.62,22.67v67.23l-54.83,29.41c-8.9,4.77-15.41,12.73-18.31,22.43-2.9,9.69-1.86,19.92,2.9,28.77,4.8,8.94,12.76,15.45,22.46,18.37h0ZM614.76,555.31l-25.21-12.83c-3.36-1.71-7.32-1.77-10.73-.17-2.66,1.25-5.14,2.26-7.57,3.12-3.62,1.25-6.44,4.14-7.61,7.78l-8.7,26.9h-24.57l-8.74-26.92c-1.18-3.64-3.99-6.51-7.61-7.77-2.45-.86-4.95-1.88-7.46-3.09-3.42-1.64-7.41-1.59-10.79.14l-25.24,12.84-17.35-17.35,12.84-25.24c1.73-3.38,1.77-7.37.14-10.79-1.19-2.51-2.23-5.03-3.09-7.46-1.25-3.61-4.13-6.42-7.77-7.61l-26.92-8.74v-24.57l26.89-8.7c3.64-1.18,6.53-3.99,7.78-7.61.84-2.43,1.86-4.91,3.12-7.57,1.61-3.41,1.54-7.37-.17-10.73l-12.83-25.21,17.34-17.38,25.22,12.87c3.38,1.73,7.38,1.77,10.81.14,2.45-1.16,5.01-2.23,7.61-3.18,3.55-1.28,6.3-4.13,7.46-7.7l8.74-26.87h24.57l8.7,26.86c1.16,3.59,3.91,6.44,7.46,7.72,2.6.95,5.12,1.99,7.72,3.21,3.42,1.61,7.38,1.54,10.75-.17l25.21-12.86,17.37,17.37-12.86,25.19c-1.71,3.36-1.77,7.34-.17,10.75,1.22,2.58,2.26,5.12,3.21,7.72,1.28,3.55,4.14,6.3,7.72,7.46l26.86,8.7v24.57l-26.87,8.74c-3.58,1.16-6.42,3.91-7.7,7.46-.95,2.6-2.02,5.17-3.18,7.61-1.64,3.42-1.59,7.43.14,10.81l12.87,25.22-17.38,17.34ZM697.28,539.34h-40.68c.23-4.13-.6-8.35-2.55-12.23l-9.78-19.18,20.48-6.66c9.92-3.23,16.59-12.4,16.59-22.84v-25.13c0-10.47-6.66-19.67-16.6-22.9l-20.5-6.63,9.83-19.26c4.66-9.25,2.9-20.41-4.43-27.84l-17.81-17.81c-7.35-7.35-18.53-9.13-27.88-4.42l-19.22,9.8-6.63-20.5c-3.23-9.92-12.41-16.6-22.88-16.6h-25.13c-10.44,0-19.63,6.66-22.84,16.59l-6.66,20.5-19.23-9.81c-9.32-4.71-20.53-2.92-27.9,4.45l-17.76,17.79c-7.4,7.4-9.17,18.62-4.42,27.87l9.78,19.23-20.53,6.65c-9.92,3.23-16.6,12.41-16.6,22.88v25.13c0,10.44,6.66,19.63,16.59,22.84l20.5,6.66-9.74,19.15c-2,3.9-2.84,8.12-2.61,12.26h-40.63c-1.36,0-2.48-1.1-2.48-2.48v-200.26l157.09-84.28,157.09,84.28v200.26c0,1.36-1.12,2.49-2.43,2.49h0ZM404.8,188.08h30.16v36.17l-30.16,16.17v-52.34ZM330.63,312.42c1.02-3.42,3.32-6.24,6.45-7.92l198.94-106.73s.09-.05.14-.08c2.05-1.13,4.28-1.7,6.53-1.7s4.34.54,6.31,1.59l199.2,106.9c6.5,3.49,8.94,11.62,5.46,18.1-3.52,6.51-11.65,8.97-18.16,5.47h-.02l-17.66-9.48s-.09-.05-.15-.08l-169.27-90.8c-3.61-1.94-7.95-1.94-11.56,0l-169.27,90.8s-.09.05-.14.08l-17.69,9.49c-3.13,1.7-6.74,2.06-10.17,1.02-3.42-1.02-6.24-3.33-7.95-6.53-1.68-3.12-2.05-6.73-1.01-10.15h0ZM542.64,404.53c-33.81,0-61.31,27.5-61.31,61.31s27.5,61.31,61.31,61.31,61.31-27.5,61.31-61.31-27.52-61.31-61.31-61.31ZM542.64,502.73c-20.33,0-36.87-16.54-36.87-36.87s16.54-36.87,36.87-36.87,36.87,16.54,36.87,36.87-16.54,36.87-36.87,36.87Z"/>
</svg>