<?xml version="1.0" encoding="UTF-8"?>
<svg id="Layer_1" data-name="Layer 1" xmlns="http://www.w3.org/2000/svg" viewBox="0 0 1000 1000">
  <defs>
    <style>
      .cls-1 {
        fill: #312e75;
        stroke-width: 0px;
      }
    </style>
  </defs>
  <path class="cls-1" d="M360.23,687.38c16.48-12.13,27.2-31.66,27.2-53.65,0-36.72-29.87-66.59-66.59-66.59s-66.59,29.87-66.59,66.59c0,21.99,10.72,41.51,27.2,53.65-43.98,14.89-76.93,54.1-82.13,102.63-.29,2.74.59,5.47,2.43,7.52,1.84,2.05,4.46,3.22,7.22,3.22h223.75c2.75,0,5.38-1.17,7.22-3.22,1.84-2.05,2.72-4.78,2.43-7.52-5.19-48.53-38.15-87.74-82.13-102.63h0ZM273.65,633.73c0-26.02,21.17-47.19,47.19-47.19s47.19,21.17,47.19,47.19-21.16,47.18-47.17,47.19h-.05c-26.01-.01-47.17-21.18-47.17-47.19h0ZM220.32,781.34c10.04-46.87,51.48-81,100.49-81.01h.05c49,.01,90.44,34.15,100.49,81.01h-201.03ZM800.68,790c-5.19-48.53-38.15-87.74-82.13-102.63,16.48-12.13,27.2-31.66,27.2-53.65,0-36.72-29.88-66.59-66.59-66.59s-66.59,29.87-66.59,66.59c0,21.99,10.72,41.52,27.2,53.65-43.98,14.89-76.93,54.1-82.13,102.63-.29,2.74.59,5.47,2.43,7.52,1.84,2.05,4.46,3.22,7.22,3.22h223.75c2.75,0,5.38-1.17,7.22-3.22,1.84-2.05,2.72-4.78,2.43-7.52h0ZM631.97,633.73c0-26.02,21.17-47.19,47.19-47.19s47.19,21.17,47.19,47.19-21.16,47.18-47.17,47.19h-.05c-26.01-.01-47.17-21.18-47.17-47.19h0ZM578.65,781.34c10.04-46.87,51.48-81,100.49-81.01h.05c49,.01,90.44,34.14,100.49,81.01h-201.03ZM597.02,532.1c91.76,0,166.42-74.66,166.42-166.42s-74.66-166.42-166.42-166.42-166.42,74.66-166.42,166.42,74.66,166.42,166.42,166.42h0ZM597.02,218.66c81.07,0,147.02,65.95,147.02,147.02s-65.95,147.02-147.02,147.02-147.02-65.95-147.02-147.02,65.95-147.02,147.02-147.02h0ZM553.85,366.02s0-.04,0-.06c.11-.67.15-1.35.12-2.03,0-.06-.01-.11-.01-.17-.02-.28-.04-.56-.09-.83-.01-.09-.03-.18-.05-.27-.04-.24-.09-.48-.15-.71-.03-.11-.06-.22-.09-.33-.06-.21-.13-.42-.21-.63-.05-.13-.1-.25-.15-.37-.08-.18-.16-.36-.25-.54-.07-.14-.14-.27-.21-.41-.04-.08-.08-.16-.13-.25l-24.59-41.49c.06,0,.13,0,.19,0,8.81,0,14.6-2.19,19.95-4.22,6.26-2.37,11.81-4.46,24.21-2.73,2.3,7.38,7.83,13.33,14.92,16.22l.02,74.33c-22.49,3.24-42.47,17.56-52.53,38.31-1.46,3.01-1.27,6.55.51,9.38,1.77,2.83,4.88,4.55,8.22,4.55h107.02c3.34,0,6.45-1.72,8.22-4.55,1.77-2.83,1.97-6.38.51-9.38-10.06-20.75-30.05-35.08-52.55-38.31l-.02-74.33c7.09-2.89,12.62-8.84,14.91-16.22,12.41-1.72,17.95.36,24.21,2.73,5.35,2.03,11.14,4.22,19.95,4.22.06,0,.13,0,.19,0l-24.59,41.49c-.05.08-.08.16-.13.25-.08.13-.15.27-.21.41-.09.18-.17.36-.25.54-.05.12-.1.25-.15.37-.08.21-.14.42-.21.63-.03.11-.07.22-.09.33-.06.24-.11.47-.15.71-.02.09-.04.18-.05.27-.04.28-.07.56-.09.83,0,.06-.01.11-.01.17-.03.68.01,1.36.12,2.03,0,.02,0,.04,0,.06,3.74,21.77,22.52,37.58,44.64,37.58s40.89-15.8,44.64-37.58c0-.02,0-.04,0-.06.11-.67.15-1.35.12-2.03,0-.06-.01-.11-.01-.17-.02-.28-.04-.56-.09-.83-.01-.09-.03-.18-.05-.27-.04-.24-.09-.48-.15-.71-.03-.11-.06-.22-.09-.33-.06-.21-.13-.42-.21-.63-.05-.13-.1-.25-.15-.37-.08-.18-.16-.36-.25-.54-.07-.14-.14-.27-.21-.41-.04-.08-.08-.16-.13-.25l-35.08-59.18s-.04-.06-.06-.09c-.41-.67-.89-1.29-1.44-1.83-.06-.06-.12-.11-.18-.17-.22-.21-.45-.41-.69-.6-.08-.06-.15-.12-.23-.17-.61-.45-1.27-.83-1.97-1.12-.08-.04-.16-.06-.25-.1-.28-.11-.57-.21-.87-.29-.08-.02-.17-.05-.25-.07-.75-.19-1.52-.3-2.31-.3-.03,0-.06,0-.09,0-.06,0-.11,0-.16.01-.3,0-.61.03-.91.06-.11.01-.22.02-.33.04-.3.04-.6.11-.9.18-.08.02-.16.03-.24.05-.01,0-.03,0-.04,0-16.63,4.61-22.31,2.45-29.5-.27-7.22-2.74-15.96-6.04-32.76-3.93-4.27-8.35-12.94-14.09-22.94-14.09s-18.67,5.74-22.94,14.09c-16.8-2.12-25.55,1.19-32.76,3.93-7.19,2.72-12.88,4.88-29.5.27-.01,0-.03,0-.04,0-.08-.02-.16-.04-.25-.05-.3-.07-.59-.13-.89-.18-.12-.02-.24-.03-.35-.04-.29-.03-.58-.05-.86-.06-.07,0-.13-.01-.2-.01-.04,0-.07,0-.11,0-.39,0-.77.03-1.16.08-.01,0-.02,0-.04,0-.36.05-.71.12-1.06.21-.12.03-.24.07-.35.1-.25.07-.49.16-.73.25-.12.05-.24.09-.36.14-.32.14-.63.29-.94.46-.07.04-.14.09-.21.13-.26.15-.51.32-.75.5-.1.08-.2.16-.3.23-.21.16-.41.34-.61.52-.08.08-.16.15-.24.23-.27.27-.53.55-.76.85,0,0,0,.01-.01.02-.23.3-.44.61-.64.94-.02.03-.05.06-.07.1l-35.08,59.18c-.05.08-.08.16-.13.25-.08.13-.15.27-.21.41-.09.18-.17.36-.25.54-.05.12-.1.25-.15.37-.08.21-.14.42-.21.63-.03.11-.07.22-.09.33-.06.24-.11.47-.15.71-.02.09-.04.18-.05.27-.04.28-.07.56-.09.83,0,.06-.01.11-.01.17-.03.68.01,1.36.12,2.03,0,.02,0,.04,0,.06,3.74,21.77,22.52,37.58,44.64,37.58,22.12,0,40.89-15.8,44.63-37.57h0ZM702.87,354.68h-36.1l18.05-30.45,18.05,30.45ZM684.82,384.2c-8.32,0-15.81-3.9-20.57-10.12h41.13c-4.76,6.21-12.25,10.12-20.57,10.12ZM562.24,434.39c9.11-8.96,21.46-14.14,34.8-14.14s25.69,5.18,34.8,14.14h-69.61ZM597.02,296.97c3.51,0,6.37,2.86,6.37,6.37s-2.86,6.37-6.37,6.37-6.37-2.86-6.37-6.37,2.86-6.37,6.37-6.37ZM527.26,354.68h-36.1l18.05-30.45,18.05,30.45ZM488.65,374.08h41.13c-4.76,6.21-12.25,10.12-20.57,10.12s-15.81-3.9-20.57-10.12h0ZM508.66,709.61c-1.8,3.11-5.06,4.85-8.41,4.85-1.65,0-3.31-.42-4.84-1.3l-38.42-22.18c-3-1.73-4.85-4.93-4.85-8.4s1.85-6.67,4.85-8.4l38.42-22.18c4.64-2.68,10.57-1.09,13.25,3.55,2.68,4.64,1.09,10.57-3.55,13.25l-7.07,4.08h71.97c5.36,0,9.7,4.34,9.7,9.7s-4.34,9.7-9.7,9.7h-71.98l7.07,4.08c4.64,2.68,6.23,8.61,3.55,13.25h0ZM460.05,491.64l-11.26,42.04c-1.39,5.18-6.71,8.25-11.88,6.86-5.18-1.39-8.25-6.71-6.86-11.88l1.89-7.07-49.43,49.43c-1.89,1.89-4.38,2.84-6.86,2.84s-4.97-.95-6.86-2.84c-3.79-3.79-3.79-9.93,0-13.72l49.43-49.43-7.07,1.89c-5.17,1.38-10.49-1.69-11.88-6.86-1.39-5.17,1.69-10.49,6.86-11.88l42.04-11.26c3.34-.9,6.92.06,9.37,2.51,2.45,2.45,3.41,6.02,2.51,9.37h0Z"/>
</svg>