<?xml version="1.0" encoding="UTF-8"?>
<svg id="Layer_1" data-name="Layer 1" xmlns="http://www.w3.org/2000/svg" viewBox="0 0 1000 1000">
  <defs>
    <style>
      .cls-1 {
        fill: #312e75;
        stroke-width: 0px;
      }
    </style>
  </defs>
  <path class="cls-1" d="M528.55,502.91c8.73-14.92,16.98-29.01,16.98-56.31,0-58.05-47.23-105.28-105.28-105.28s-105.28,47.23-105.28,105.28c0,27.29,8.25,41.39,16.98,56.31,9.57,16.35,19.46,33.26,21.83,73.16v15.36c0,10.41,6.5,19.32,15.65,22.91v8.4c0,10.56,6.69,19.59,16.05,23.07v8.24c0,13.57,11.04,24.6,24.6,24.6h20.32c13.57,0,24.6-11.04,24.6-24.6v-8.24c9.36-3.48,16.05-12.51,16.05-23.07v-8.4c9.15-3.59,15.65-12.5,15.65-22.91v-15.36c2.38-39.9,12.27-56.81,21.84-73.16ZM466.46,629.43h-52.42c-3.7,0-6.7-3.01-6.7-6.7v-6.7h65.83v6.7c0,3.7-3.01,6.7-6.7,6.7ZM482.11,598.12h-83.73c-3.7,0-6.7-3.01-6.7-6.7v-6.71h97.13v6.71c0,3.7-3.01,6.7-6.7,6.7ZM414.66,460.74h-13.44c-7.41,0-13.43-6.03-13.43-13.43s6.03-13.43,13.43-13.43,13.44,6.03,13.44,13.43v13.43ZM447.93,566.81h-15.37v-88.17h15.37v88.17ZM352.87,446.6c0-48.18,39.2-87.38,87.38-87.38s87.38,39.2,87.38,87.38c0,22.44-6.41,33.4-14.53,47.27-9.02,15.41-20.1,34.35-23.64,72.94h-23.63v-88.17h13.43c17.28,0,31.34-14.06,31.34-31.34s-14.06-31.34-31.34-31.34-31.34,14.06-31.34,31.34v13.43h-15.37v-13.43c0-17.28-14.06-31.34-31.34-31.34s-31.34,14.06-31.34,31.34,14.06,31.34,31.34,31.34h13.44v88.17h-23.63c-3.54-38.6-14.62-57.53-23.64-72.94-8.12-13.87-14.53-24.83-14.53-47.27h0ZM465.83,460.74v-13.43c0-7.41,6.03-13.43,13.43-13.43s13.43,6.03,13.43,13.43-6.03,13.43-13.43,13.43h-13.43ZM450.41,660.74h-20.32c-3.7,0-6.7-3.01-6.7-6.7v-6.71h33.72v6.71c0,3.7-3.01,6.7-6.7,6.7ZM431.3,317.71v-22.69c0-4.94,4.01-8.95,8.95-8.95s8.95,4.01,8.95,8.95v22.69c0,4.94-4.01,8.95-8.95,8.95s-8.95-4.01-8.95-8.95ZM348.5,322c-2.47-4.28-1-9.76,3.28-12.23,4.28-2.47,9.76-1,12.23,3.28l11.35,19.65c2.47,4.28,1,9.76-3.28,12.23-1.41.81-2.95,1.2-4.47,1.2-3.09,0-6.1-1.61-7.76-4.48l-11.34-19.65ZM322.16,394.84c-1.66,2.87-4.67,4.48-7.76,4.48-1.52,0-3.06-.39-4.47-1.2l-19.65-11.35c-4.28-2.47-5.75-7.95-3.28-12.23,2.47-4.28,7.95-5.75,12.23-3.28l19.65,11.35c4.28,2.47,5.75,7.95,3.28,12.23h0ZM505.15,332.7l11.35-19.65c2.47-4.28,7.95-5.75,12.23-3.28,4.28,2.47,5.75,7.95,3.28,12.23l-11.35,19.65c-1.66,2.87-4.67,4.48-7.76,4.48-1.52,0-3.06-.39-4.47-1.2-4.28-2.47-5.75-7.95-3.27-12.23ZM558.34,394.84c-2.47-4.28-1-9.76,3.28-12.23l19.65-11.35c4.28-2.47,9.76-1,12.23,3.28s1,9.76-3.28,12.23l-19.65,11.35c-1.41.81-2.95,1.2-4.47,1.2-3.09,0-6.1-1.61-7.76-4.48h0ZM770.23,584.12c1.03-2.01,2.18-4.24,3.45-6.76,7.02-13.89,4.11-30.38-7.24-41.04-2.06-1.93-3.9-3.64-5.55-5.17-6.57-6.09-9.86-9.15-11.54-12.06-1.68-2.91-2.68-7.3-4.67-16.03-.5-2.2-1.06-4.65-1.7-7.4-3.55-15.16-16.38-25.92-31.92-26.78-2.82-.16-5.33-.28-7.58-.39-8.95-.45-13.44-.67-16.6-1.82-3.16-1.15-6.75-3.87-13.88-9.27-1.8-1.36-3.8-2.88-6.06-4.57-2.8-2.09-5.82-3.69-8.95-4.85v-125.53c0-3.58-2.13-6.82-5.43-8.23l-208.77-89.47c-2.25-.96-4.8-.96-7.05,0l-208.76,89.47c-3.29,1.41-5.43,4.65-5.43,8.23v168.81c0,62.26,21.31,119.25,61.61,164.79,38.85,43.89,93.74,73.9,154.57,84.51.51.09,1.02.13,1.54.13s1.03-.04,1.54-.13c36.09-6.29,65.86-16.76,92.96-32.97l-12.1,26c-1.41,3.02-1.02,6.58,1.01,9.22,2.03,2.65,5.36,3.95,8.64,3.37l36.06-6.3,18.39,31.65c1.61,2.76,4.56,4.45,7.74,4.45.14,0,.27,0,.41,0,3.33-.15,6.3-2.14,7.71-5.16l32.88-70.62c5.01-1.5,8.07-2.25,10.6-2.25,3.36,0,7.66,1.33,16.22,3.97.88.27,1.82.56,2.79.86l23.53,54.63c1.32,3.06,4.23,5.14,7.56,5.39.22.02.45.02.67.02,3.08,0,5.96-1.59,7.6-4.23l19.3-31.1,35.86,7.34c3.27.67,6.63-.53,8.74-3.12,2.1-2.59,2.6-6.13,1.28-9.19l-26.73-62.05c.58-.25,1.17-.5,1.78-.76,14.31-6.13,22.68-20.63,20.84-36.09-.33-2.8-.65-5.29-.93-7.53-1.12-8.89-1.67-13.35-1.09-16.66.58-3.31,2.64-7.31,6.72-15.28h0ZM440.25,722.64c-117.73-21.22-199.82-116.16-199.82-231.39v-162.91l199.82-85.63,199.82,85.63v118.02c-5.23.93-10.3,3.07-14.81,6.44-2.26,1.69-4.26,3.21-6.06,4.57-7.14,5.41-10.72,8.12-13.88,9.27-3.16,1.15-7.65,1.37-16.6,1.82-2.25.11-4.76.24-7.58.39-15.54.86-28.37,11.63-31.92,26.78-.64,2.75-1.2,5.2-1.7,7.4-1.99,8.73-2.99,13.12-4.67,16.03-1.68,2.91-4.98,5.97-11.54,12.06-1.65,1.54-3.5,3.24-5.56,5.17-11.35,10.65-14.26,27.14-7.23,41.04,1.27,2.52,2.42,4.75,3.45,6.76,4.09,7.97,6.14,11.97,6.72,15.29.58,3.31.02,7.77-1.09,16.66-.28,2.24-.59,4.73-.93,7.53-1.85,15.46,6.53,29.96,20.83,36.09,2.59,1.11,4.91,2.09,6.99,2.96.34.14.67.28,1,.42l-5.86,12.58c-31.77,24.88-64.68,39.02-109.36,47h0ZM593.61,747.7l-12.91-22.22c-1.88-3.24-5.59-4.97-9.28-4.32l-25.31,4.42,25.07-53.84c2.05,2.32,4.37,5.9,8.15,11.75,1.22,1.9,2.59,4.01,4.13,6.37,6.73,10.3,17.98,16.01,29.76,15.74l-19.6,42.1ZM721.24,708.67c-3.67-.75-7.42.86-9.4,4.05l-13.55,21.83-12.68-29.43c9.25-1.59,17.66-6.93,23.11-15.26,1.54-2.36,2.91-4.47,4.13-6.37,4.86-7.52,7.3-11.3,9.88-13.46.98-.83,2.2-1.59,3.78-2.42l19.9,46.21-25.17-5.15ZM757.7,569.28c-1.26,2.48-2.39,4.69-3.4,6.67-9.79,19.08-10.14,21.06-7.47,42.34.28,2.21.59,4.67.92,7.43.91,7.61-3.06,14.49-10.11,17.51-2.56,1.1-4.84,2.06-6.89,2.92-19.76,8.33-21.3,9.62-32.94,27.64-1.21,1.87-2.55,3.95-4.07,6.28-4.2,6.42-11.65,9.13-18.99,6.91-2.66-.81-5.03-1.54-7.16-2.19-10.25-3.16-15.87-4.74-21.5-4.74s-11.25,1.58-21.5,4.74c-2.13.66-4.49,1.39-7.16,2.19-7.34,2.22-14.8-.49-18.99-6.91-1.52-2.33-2.87-4.41-4.07-6.28-11.63-18.02-13.17-19.31-32.94-27.64-2.05-.86-4.34-1.83-6.89-2.92-7.05-3.02-11.02-9.89-10.11-17.51.33-2.76.64-5.22.92-7.43,2.67-21.28,2.32-23.26-7.47-42.34-1.02-1.98-2.15-4.18-3.4-6.67-3.46-6.85-2.08-14.66,3.51-19.91,2.03-1.91,3.85-3.59,5.48-5.1,15.72-14.59,16.73-16.33,21.5-37.23.49-2.17,1.05-4.59,1.68-7.3,1.75-7.47,7.83-12.57,15.48-12.99,2.78-.15,5.25-.28,7.48-.39,21.42-1.07,23.31-1.75,40.4-14.71,1.77-1.34,3.75-2.84,5.98-4.51,6.14-4.6,14.08-4.6,20.21,0,2.23,1.67,4.2,3.17,5.98,4.51,17.09,12.95,18.98,13.64,40.4,14.71,2.22.11,4.7.23,7.48.39,7.66.43,13.74,5.53,15.48,12.99.63,2.71,1.19,5.13,1.68,7.29,4.77,20.91,5.77,22.65,21.5,37.24,1.63,1.51,3.45,3.2,5.48,5.1,5.59,5.25,6.97,13.06,3.51,19.9h0ZM646.08,494.52c-44.78,0-81.21,36.43-81.21,81.21s36.43,81.21,81.21,81.21,81.21-36.43,81.21-81.21-36.43-81.21-81.21-81.21h0ZM646.08,639.03c-34.91,0-63.31-28.4-63.31-63.3s28.4-63.3,63.31-63.3,63.3,28.4,63.3,63.3-28.4,63.3-63.3,63.3h0Z"/>
</svg>