<?xml version="1.0" encoding="UTF-8"?>
<svg id="Layer_1" data-name="Layer 1" xmlns="http://www.w3.org/2000/svg" viewBox="0 0 1000 1000">
  <defs>
    <style>
      .cls-1 {
        fill: #312e75;
        stroke-width: 0px;
      }
    </style>
  </defs>
  <g>
    <path class="cls-1" d="M579.66,351.2h-99.2c-5.49,0-9.92-4.44-9.92-9.92v-19.84c0-27.35,22.25-49.6,49.6-49.6h19.84c27.35,0,49.6,22.25,49.6,49.6v19.84c0,5.48-4.43,9.92-9.92,9.92ZM490.38,331.36h79.36v-9.92c0-16.41-13.35-29.76-29.76-29.76h-19.84c-16.41,0-29.76,13.35-29.76,29.76v9.92Z"/>
    <path class="cls-1" d="M530.06,321.44c-5.49,0-9.92-4.44-9.92-9.92v-39.68c0-5.48,4.43-9.92,9.92-9.92s9.92,4.44,9.92,9.92v39.68c0,5.48-4.43,9.92-9.92,9.92Z"/>
    <path class="cls-1" d="M589.28,351.2h-119.04c-5.49,0-9.92-4.44-9.92-9.92s4.43-9.92,9.92-9.92h119.04c5.49,0,9.92,4.44,9.92,9.92s-4.43,9.92-9.92,9.92Z"/>
  </g>
  <g>
    <path class="cls-1" d="M718.24,698.4h-376.96c-5.49,0-9.92-4.44-9.92-9.92V192.48c0-5.48,4.43-9.92,9.92-9.92h376.96c5.49,0,9.92,4.44,9.92,9.92v495.99c0,5.48-4.43,9.92-9.92,9.92ZM351.2,678.56h357.12V202.4h-357.12v476.15Z"/>
    <path class="cls-1" d="M718.24,817.44h-376.96c-38.28,0-69.44-31.15-69.44-69.44s31.16-69.44,69.44-69.44h376.96c5.49,0,9.92,4.44,9.92,9.92s-4.43,9.92-9.92,9.92h-376.96c-27.35,0-49.6,22.25-49.6,49.6s22.25,49.6,49.6,49.6h376.96c5.49,0,9.92,4.44,9.92,9.92s-4.43,9.92-9.92,9.92Z"/>
    <path class="cls-1" d="M718.24,817.44c-20.55,0-29.76-34.88-29.76-69.44s9.21-69.44,29.76-69.44c5.49,0,9.92,4.44,9.92,9.92,0,5.18-3.97,9.43-9.03,9.88-3.43,2.81-10.81,19.85-10.81,49.64s7.38,46.83,10.81,49.64c5.06.45,9.03,4.7,9.03,9.88,0,5.48-4.43,9.92-9.92,9.92Z"/>
    <path class="cls-1" d="M281.76,261.92c-5.49,0-9.92-4.44-9.92-9.92,0-38.29,31.16-69.44,69.44-69.44,5.49,0,9.92,4.44,9.92,9.92s-4.43,9.92-9.92,9.92c-27.35,0-49.6,22.25-49.6,49.6,0,5.48-4.43,9.92-9.92,9.92Z"/>
    <path class="cls-1" d="M281.76,757.92c-5.49,0-9.92-4.44-9.92-9.92V252c0-5.48,4.43-9.92,9.92-9.92s9.92,4.44,9.92,9.92v495.99c0,5.48-4.43,9.92-9.92,9.92Z"/>
    <path class="cls-1" d="M698.4,738.08h-347.2c-5.49,0-9.92-4.44-9.92-9.92s4.43-9.92,9.92-9.92h347.2c5.49,0,9.92,4.44,9.92,9.92s-4.43,9.92-9.92,9.92Z"/>
    <path class="cls-1" d="M658.72,787.68c-2.21,0-4.4-.74-6.2-2.17l-18.6-14.88-18.6,14.88c-2.99,2.39-7.04,2.84-10.51,1.2-3.43-1.66-5.61-5.13-5.61-8.94v-49.6c0-5.48,4.43-9.92,9.92-9.92h49.6c5.49,0,9.92,4.44,9.92,9.92v49.6c0,3.81-2.19,7.29-5.61,8.94-1.37.65-2.84.98-4.31.98h0ZM633.92,748c2.19,0,4.38.72,6.2,2.17l8.68,6.94v-19.04h-29.76v19.04l8.68-6.94c1.82-1.45,4.01-2.17,6.2-2.17Z"/>
  </g>
  <path class="cls-1" d="M632.7,619.04h-7.48c-23.85,0-45.01-17.73-55.19-46.27-1.08-3.04-.62-6.41,1.23-9.06,1.86-2.64,4.88-4.21,8.1-4.21h99.2c3.22,0,6.25,1.57,8.1,4.21,1.86,2.64,2.31,6.01,1.23,9.06-10.19,28.53-31.35,46.27-55.19,46.27h0ZM595.07,579.36c7.79,12.37,18.78,19.84,30.15,19.84h7.48c11.37,0,22.36-7.47,30.15-19.84h-67.77Z"/>
  <path class="cls-1" d="M658.72,579.36h-59.52c-3.08,0-5.98-1.43-7.86-3.86-1.87-2.43-2.52-5.59-1.75-8.57l23.38-89.28c1.14-4.36,5.09-7.41,9.6-7.41h12.75c4.51,0,8.46,3.05,9.6,7.41l23.38,89.28c.77,2.98.14,6.14-1.75,8.57-1.87,2.44-4.78,3.86-7.86,3.86h0ZM612.06,559.52h33.81l-16.9-64.55-16.9,64.55Z"/>
  <path class="cls-1" d="M434.3,619.04h-7.48c-23.85,0-45.01-17.73-55.19-46.27-1.08-3.04-.62-6.41,1.23-9.06,1.86-2.64,4.88-4.21,8.1-4.21h99.2c3.22,0,6.25,1.57,8.1,4.21,1.86,2.64,2.31,6.01,1.23,9.06-10.19,28.53-31.35,46.27-55.19,46.27h0ZM396.67,579.36c7.79,12.37,18.78,19.84,30.15,19.84h7.48c11.37,0,22.36-7.47,30.15-19.84h-67.77Z"/>
  <path class="cls-1" d="M460.32,579.36h-59.52c-3.08,0-5.98-1.43-7.86-3.86-1.87-2.43-2.52-5.59-1.75-8.57l23.38-89.28c1.14-4.36,5.09-7.41,9.6-7.41h12.75c4.51,0,8.46,3.05,9.6,7.41l23.38,89.28c.77,2.98.14,6.14-1.75,8.57-1.87,2.44-4.78,3.86-7.86,3.86h0ZM413.66,559.52h33.81l-16.9-64.55-16.9,64.55Z"/>
  <path class="cls-1" d="M529.76,648.8c-5.49,0-9.92-4.44-9.92-9.92v-188.48c0-5.48,4.43-9.92,9.92-9.92s9.92,4.44,9.92,9.92v188.48c0,5.48-4.43,9.92-9.92,9.92Z"/>
  <path class="cls-1" d="M579.36,648.8h-99.2c-5.49,0-9.92-4.44-9.92-9.92s4.43-9.92,9.92-9.92h99.2c5.49,0,9.92,4.44,9.92,9.92s-4.43,9.92-9.92,9.92Z"/>
  <path class="cls-1" d="M430.56,490.08c-5.49,0-9.92-4.44-9.92-9.92v-29.76c0-5.48,4.43-9.92,9.92-9.92s9.92,4.44,9.92,9.92v29.76c0,5.48-4.43,9.92-9.92,9.92Z"/>
  <path class="cls-1" d="M628.96,490.08c-5.49,0-9.92-4.44-9.92-9.92v-29.76c0-5.48,4.43-9.92,9.92-9.92s9.92,4.44,9.92,9.92v29.76c0,5.48-4.43,9.92-9.92,9.92Z"/>
  <path class="cls-1" d="M648.8,480.16h-238.08c-5.49,0-9.92-4.44-9.92-9.92s4.43-9.92,9.92-9.92h238.08c5.49,0,9.92,4.44,9.92,9.92s-4.43,9.92-9.92,9.92Z"/>
  <path class="cls-1" d="M529.76,420.64c-54.7,0-99.2-44.5-99.2-99.2s44.5-99.2,99.2-99.2,99.2,44.5,99.2,99.2-44.5,99.2-99.2,99.2ZM529.76,242.08c-43.76,0-79.36,35.6-79.36,79.36s35.6,79.36,79.36,79.36,79.36-35.6,79.36-79.36-35.6-79.36-79.36-79.36Z"/>
</svg>