<?xml version="1.0" encoding="UTF-8"?>
<svg id="Layer_1" data-name="Layer 1" xmlns="http://www.w3.org/2000/svg" viewBox="0 0 1000 1000">
  <defs>
    <style>
      .cls-1 {
        fill: #312e75;
        stroke-width: 0px;
      }
    </style>
  </defs>
  <path class="cls-1" d="M500,512.08c-6.69,0-12.12-5.43-12.12-12.12v-58.76c0-6.69,5.43-12.12,12.12-12.12s12.12,5.43,12.12,12.12v58.76c0,6.69-5.43,12.12-12.12,12.12Z"/>
  <path class="cls-1" d="M264.94,701.51c-28.29,0-51.3-23.01-51.3-51.3s23.01-51.3,51.3-51.3,51.3,23.01,51.3,51.3-23.01,51.3-51.3,51.3ZM264.94,623.16c-14.92,0-27.06,12.14-27.06,27.06s12.14,27.06,27.06,27.06,27.06-12.14,27.06-27.06-12.14-27.06-27.06-27.06Z"/>
  <path class="cls-1" d="M330.23,799.46h-130.59c-6.69,0-12.12-5.43-12.12-12.12v-55.5c0-30.09,24.48-54.56,54.56-54.56h45.71c30.09,0,54.56,24.48,54.56,54.56v55.5c0,6.69-5.43,12.12-12.12,12.12ZM211.76,775.21h106.35v-43.38c0-16.72-13.6-30.32-30.32-30.32h-45.71c-16.72,0-30.32,13.6-30.32,30.32v43.38Z"/>
  <path class="cls-1" d="M735.06,701.51c-28.29,0-51.3-23.01-51.3-51.3s23.01-51.3,51.3-51.3,51.3,23.01,51.3,51.3-23.01,51.3-51.3,51.3ZM735.06,623.16c-14.92,0-27.06,12.14-27.06,27.06s12.14,27.06,27.06,27.06,27.06-12.14,27.06-27.06-12.14-27.06-27.06-27.06Z"/>
  <path class="cls-1" d="M800.36,799.46h-130.59c-6.69,0-12.12-5.43-12.12-12.12v-55.5c0-30.09,24.48-54.56,54.56-54.56h45.71c30.09,0,54.56,24.48,54.56,54.56v55.5c0,6.69-5.43,12.12-12.12,12.12ZM681.89,775.21h106.35v-43.38c0-16.72-13.6-30.32-30.32-30.32h-45.71c-16.72,0-30.32,13.6-30.32,30.32v43.38Z"/>
  <path class="cls-1" d="M500,701.51c-28.29,0-51.3-23.01-51.3-51.3s23.01-51.3,51.3-51.3,51.3,23.01,51.3,51.3-23.01,51.3-51.3,51.3ZM500,623.16c-14.92,0-27.06,12.14-27.06,27.06s12.14,27.06,27.06,27.06,27.06-12.14,27.06-27.06-12.14-27.06-27.06-27.06Z"/>
  <path class="cls-1" d="M565.29,799.46h-37.01c-6.69,0-12.12-5.43-12.12-12.12s5.43-12.12,12.12-12.12h24.89v-43.39c0-16.72-13.6-30.32-30.32-30.32h-45.7c-16.72,0-30.32,13.6-30.32,30.32v43.39h24.89c6.69,0,12.12,5.43,12.12,12.12s-5.43,12.12-12.12,12.12h-37.01c-6.69,0-12.12-5.43-12.12-12.12v-55.51c0-30.08,24.48-54.56,54.56-54.56h45.7c30.08,0,54.56,24.48,54.56,54.56v55.51c0,6.69-5.43,12.12-12.12,12.12Z"/>
  <path class="cls-1" d="M500,322.72c-33.69,0-61.09-27.41-61.09-61.09s27.41-61.09,61.09-61.09,61.09,27.41,61.09,61.09-27.41,61.09-61.09,61.09ZM500,224.78c-20.32,0-36.85,16.53-36.85,36.85s16.53,36.85,36.85,36.85,36.85-16.53,36.85-36.85-16.53-36.85-36.85-36.85Z"/>
  <path class="cls-1" d="M597.94,453.32h-195.87c-6.69,0-12.12-5.43-12.12-12.12v-78.36c0-35.49,28.87-64.35,64.35-64.35h91.41c35.48,0,64.35,28.87,64.35,64.35v7.34c0,6.69-5.43,12.12-12.12,12.12s-12.12-5.43-12.12-12.12v-7.34c0-22.12-17.99-40.11-40.11-40.11h-91.41c-22.12,0-40.11,18-40.11,40.11v66.24h171.63v-2.34c0-6.69,5.43-12.12,12.12-12.12s12.12,5.43,12.12,12.12v14.46c0,6.69-5.43,12.12-12.12,12.12Z"/>
  <path class="cls-1" d="M500,623.16c-6.69,0-12.12-5.43-12.12-12.12v-111.08c0-6.69,5.43-12.12,12.12-12.12s12.12,5.43,12.12,12.12v111.08c0,6.69-5.43,12.12-12.12,12.12Z"/>
  <path class="cls-1" d="M735.06,623.16c-6.69,0-12.12-5.43-12.12-12.12v-38.52h-445.88v38.52c0,6.69-5.43,12.12-12.12,12.12s-12.12-5.43-12.12-12.12v-50.64c0-6.69,5.43-12.12,12.12-12.12h470.12c6.69,0,12.12,5.43,12.12,12.12v50.64c0,6.69-5.43,12.12-12.12,12.12Z"/>
</svg>