<?xml version="1.0" encoding="UTF-8"?>
<svg id="Layer_1" data-name="Layer 1" xmlns="http://www.w3.org/2000/svg" viewBox="0 0 1000 1000">
  <defs>
    <style>
      .cls-1 {
        fill: #312e75;
        stroke-width: 0px;
      }
    </style>
  </defs>
  <g>
    <rect class="cls-1" x="382.38" y="741.65" width="36.48" height="14.38"/>
    <g>
      <g>
        <polygon class="cls-1" points="430.13 546.79 415.75 546.79 415.75 474.48 388.01 474.48 388.01 425.04 415.75 425.04 415.75 404.76 295.36 404.76 295.36 439.41 279.3 439.41 279.3 460.1 295.36 460.1 295.36 512.6 280.98 512.6 280.98 474.48 264.92 474.48 264.92 425.04 280.98 425.04 280.98 390.39 430.13 390.39 430.13 439.41 402.39 439.41 402.39 460.1 430.13 460.1 430.13 546.79"/>
        <rect class="cls-1" x="288.17" y="425.04" width="107.03" height="14.38"/>
        <rect class="cls-1" x="288.17" y="460.1" width="107.03" height="14.38"/>
        <rect class="cls-1" x="288.17" y="494.89" width="134.77" height="14.38"/>
        <rect class="cls-1" x="379.48" y="530.37" width="43.46" height="14.38"/>
      </g>
      <g>
        <rect class="cls-1" x="342.32" y="431.81" width="14.38" height="35.48"/>
        <rect class="cls-1" x="318.32" y="431.81" width="14.38" height="35.48"/>
        <rect class="cls-1" x="294.31" y="431.81" width="14.38" height="17.74"/>
      </g>
    </g>
  </g>
  <g>
    <g>
      <g>
        <path class="cls-1" d="M362.01,790.53h-149.14v-84.64h27.74v-20.69h-27.74v-49.03h149.14v34.65h16.06v49.44h-16.06v70.27ZM227.25,776.16h120.39v-70.27h16.06v-20.69h-16.06v-34.65h-120.39v20.28h27.74v49.44h-27.74v55.89Z"/>
        <rect class="cls-1" x="247.79" y="670.83" width="107.03" height="14.38"/>
        <rect class="cls-1" x="247.79" y="705.89" width="107.03" height="14.38"/>
        <rect class="cls-1" x="220.06" y="740.68" width="134.77" height="14.38"/>
      </g>
      <g>
        <path class="cls-1" d="M362.01,685.06h-149.14v-84.36h27.74v-20.9h-27.74v-49.43h149.14v35.06h16.06v49.66h-16.06v69.98ZM227.25,670.68h120.39v-69.98h16.06v-20.9h-16.06v-35.06h-120.39v20.68h27.74v49.66h-27.74v55.61Z"/>
        <rect class="cls-1" x="247.79" y="565.42" width="107.03" height="14.38"/>
        <rect class="cls-1" x="247.79" y="600.7" width="107.03" height="14.38"/>
        <rect class="cls-1" x="220.06" y="635.2" width="134.77" height="14.38"/>
      </g>
      <g>
        <g>
          <rect class="cls-1" x="315.76" y="572.61" width="14.38" height="35.28"/>
          <rect class="cls-1" x="291.75" y="572.61" width="14.38" height="35.28"/>
          <rect class="cls-1" x="267.75" y="572.61" width="14.38" height="17.67"/>
        </g>
        <g>
          <rect class="cls-1" x="321.58" y="713.35" width="14.38" height="35.48"/>
          <rect class="cls-1" x="297.58" y="713.35" width="14.38" height="35.48"/>
          <rect class="cls-1" x="273.57" y="713.35" width="14.38" height="17.74"/>
        </g>
        <g>
          <rect class="cls-1" x="321.58" y="642.39" width="14.38" height="35.48"/>
          <rect class="cls-1" x="297.58" y="642.39" width="14.38" height="35.48"/>
          <rect class="cls-1" x="273.57" y="642.39" width="14.38" height="17.74"/>
        </g>
      </g>
    </g>
    <g>
      <g>
        <path class="cls-1" d="M560.82,790.53h-149.14v-70.27h-16.06v-49.44h16.06v-34.65h149.14v49.03h-27.74v20.69h27.74v84.64ZM426.05,776.16h120.39v-55.89h-27.74v-49.44h27.74v-20.28h-120.39v34.65h-16.06v20.69h16.06v70.27Z"/>
        <rect class="cls-1" x="418.86" y="670.83" width="107.03" height="14.38"/>
        <rect class="cls-1" x="418.86" y="705.89" width="107.03" height="14.38"/>
        <rect class="cls-1" x="418.86" y="740.68" width="134.77" height="14.38"/>
      </g>
      <g>
        <polygon class="cls-1" points="560.82 685.06 411.67 685.06 411.67 615.08 395.61 615.08 395.61 565.42 418.86 565.42 418.86 579.8 409.99 579.8 409.99 600.7 426.05 600.7 426.05 670.68 546.44 670.68 546.44 615.08 518.71 615.08 518.71 572.61 533.08 572.61 533.08 600.7 560.82 600.7 560.82 685.06"/>
        <rect class="cls-1" x="418.86" y="565.42" width="107.03" height="14.38"/>
        <rect class="cls-1" x="418.86" y="600.7" width="107.03" height="14.38"/>
        <rect class="cls-1" x="418.86" y="635.2" width="134.77" height="14.38"/>
      </g>
      <g>
        <g>
          <rect class="cls-1" x="443.55" y="572.61" width="14.38" height="35.28"/>
          <rect class="cls-1" x="467.56" y="572.61" width="14.38" height="35.28"/>
          <rect class="cls-1" x="491.56" y="572.61" width="14.38" height="17.67"/>
        </g>
        <g>
          <rect class="cls-1" x="437.73" y="713.35" width="14.38" height="35.48"/>
          <rect class="cls-1" x="461.73" y="713.35" width="14.38" height="35.48"/>
          <rect class="cls-1" x="485.74" y="713.35" width="14.38" height="17.74"/>
        </g>
        <g>
          <rect class="cls-1" x="437.73" y="642.39" width="14.38" height="35.48"/>
          <rect class="cls-1" x="461.73" y="642.39" width="14.38" height="35.48"/>
          <rect class="cls-1" x="485.74" y="642.39" width="14.38" height="17.74"/>
        </g>
      </g>
    </g>
    <path class="cls-1" d="M588.2,719.87l-3.31-13.99c52.61-12.44,100.31-42.67,134.32-85.11,35.02-43.71,53.54-96.49,53.54-152.63,0-134.7-109.59-244.29-244.29-244.29-45.73,0-90.31,12.71-128.93,36.76-37.57,23.39-68.13,56.53-88.37,95.81l-12.78-6.58c21.43-41.59,53.78-76.67,93.55-101.43,40.9-25.47,88.12-38.93,136.53-38.93,69.09,0,134.05,26.91,182.91,75.76,48.86,48.86,75.76,113.81,75.76,182.91,0,58.59-20.13,115.99-56.69,161.62-36,44.94-86.52,76.94-142.23,90.12Z"/>
    <polygon class="cls-1" points="518.71 484.98 518.71 292.9 533.08 292.9 533.08 459.59 623.53 405.33 630.92 417.66 518.71 484.98"/>
    <rect class="cls-1" x="518.71" y="248.01" width="14.38" height="5.95"/>
    <rect class="cls-1" x="361.04" y="313.32" width="14.38" height="5.95" transform="translate(-115.8 353.05) rotate(-45)"/>
    <rect class="cls-1" x="670.38" y="622.66" width="14.38" height="5.95" transform="translate(-243.93 662.36) rotate(-45)"/>
    <rect class="cls-1" x="680.58" y="309.11" width="5.95" height="14.38" transform="translate(-23.43 576.03) rotate(-45)"/>
    <rect class="cls-1" x="745.89" y="466.77" width="5.95" height="14.38"/>
  </g>
</svg>