<?xml version="1.0" encoding="UTF-8"?>
<svg id="Layer_1" data-name="Layer 1" xmlns="http://www.w3.org/2000/svg" viewBox="0 0 1000 1000">
  <defs>
    <style>
      .cls-1 {
        fill: #312e75;
        stroke-width: 0px;
      }
    </style>
  </defs>
  <circle class="cls-1" cx="500" cy="485.89" r="66.05"/>
  <path class="cls-1" d="M785.88,480.3c-5.22-5.2-129.6-127.43-285.88-127.43s-280.66,122.23-285.88,127.43c-1.48,1.48-2.32,3.49-2.32,5.58s.84,4.11,2.32,5.58c5.22,5.2,129.6,127.44,285.88,127.44s280.66-122.23,285.88-127.44c1.48-1.48,2.32-3.49,2.32-5.58s-.84-4.11-2.32-5.58ZM231.23,485.89c20.91-18.96,94.61-80.97,189.13-106.29-32.33,24.29-53.38,62.83-53.38,106.29s21.05,82,53.38,106.29c-94.52-25.33-168.22-87.33-189.13-106.29ZM579.64,592.18c32.34-24.29,53.38-62.83,53.38-106.29,0-12.73-1.8-25.34-5.35-37.45-1.22-4.18-5.62-6.59-9.79-5.35-4.18,1.22-6.57,5.6-5.35,9.79,3.12,10.67,4.71,21.78,4.71,33.02,0,64.65-52.59,117.24-117.24,117.24s-117.24-52.59-117.24-117.24,52.59-117.24,117.24-117.24c33.96,0,66.23,14.71,88.53,40.37,2.86,3.28,7.84,3.64,11.13.78,3.29-2.86,3.64-7.84.78-11.13-6.16-7.09-13.01-13.4-20.38-18.96,94.32,25.4,167.83,87.25,188.71,106.18-20.91,18.96-94.61,80.97-189.13,106.29Z"/>
  <path class="cls-1" d="M500,324.66c4.36,0,7.89-3.53,7.89-7.89v-84.86c0-4.36-3.53-7.89-7.89-7.89s-7.89,3.53-7.89,7.89v84.86c0,4.36,3.53,7.89,7.89,7.89Z"/>
  <path class="cls-1" d="M316.01,376.85c1.55,2.06,3.91,3.14,6.31,3.14,1.65,0,3.32-.52,4.74-1.59,3.48-2.62,4.17-7.57,1.55-11.05l-51.1-67.75c-2.62-3.48-7.56-4.18-11.05-1.55-3.48,2.62-4.17,7.57-1.55,11.05l51.1,67.75Z"/>
  <path class="cls-1" d="M677.69,379.99c2.39,0,4.75-1.08,6.31-3.14l51.1-67.75c2.62-3.48,1.93-8.42-1.55-11.05-3.48-2.63-8.42-1.93-11.05,1.55l-51.1,67.75c-2.62,3.48-1.93,8.42,1.55,11.05,1.42,1.07,3.09,1.59,4.74,1.59Z"/>
  <path class="cls-1" d="M500,647.12c-4.36,0-7.89,3.53-7.89,7.89v84.86c0,4.36,3.53,7.89,7.89,7.89s7.89-3.53,7.89-7.89v-84.86c0-4.36-3.53-7.89-7.89-7.89Z"/>
  <path class="cls-1" d="M316.01,594.93l-51.1,67.75c-2.62,3.48-1.93,8.42,1.55,11.05,1.42,1.07,3.09,1.59,4.74,1.59,2.39,0,4.75-1.08,6.31-3.14l51.1-67.75c2.62-3.48,1.93-8.42-1.55-11.05-3.48-2.64-8.42-1.93-11.05,1.55Z"/>
  <path class="cls-1" d="M683.99,594.93c-2.63-3.47-7.57-4.18-11.05-1.55-3.48,2.62-4.17,7.57-1.55,11.05l51.1,67.75c1.55,2.06,3.91,3.14,6.31,3.14,1.65,0,3.32-.52,4.74-1.59,3.48-2.62,4.17-7.57,1.55-11.05l-51.1-67.75Z"/>
</svg>