<?xml version="1.0" encoding="UTF-8"?>
<svg id="Layer_1" data-name="Layer 1" xmlns="http://www.w3.org/2000/svg" viewBox="0 0 1000 1000">
  <defs>
    <style>
      .cls-1 {
        fill: #312e75;
        stroke-width: 0px;
      }
    </style>
  </defs>
  <path class="cls-1" d="M708.63,336.14c83.7,105.95,76.64,260.64-21.14,358.42-105.34,105.34-276.74,105.4-382.08.06-105.34-105.34-105.34-276.8,0-382.14,97.78-97.78,252.53-104.78,358.48-21.08l4.55-18.44c-112.53-84.01-273.18-74.92-375.32,27.23-112.1,112.1-112.16,294.56,0,406.72,112.1,112.1,294.56,112.04,406.66-.06,102.14-102.14,111.24-262.79,27.23-375.32l-18.38,4.61Z"/>
  <path class="cls-1" d="M609.13,354.02c-73.32-55.37-178.35-49.66-245.09,17.08-73.01,73.01-72.95,191.81.06,264.82,73.01,73.01,191.75,73.01,264.76,0,66.74-66.74,72.46-171.77,17.15-245.03l-12.48,12.48c48.61,66.31,43.02,160.28-16.96,220.26-66.25,66.25-173.98,66.19-240.17,0-66.25-66.25-66.31-173.98-.06-240.23,59.98-59.98,153.95-65.57,220.32-16.9l12.48-12.48Z"/>
  <path class="cls-1" d="M523.58,439.57l13.09-13.09c-32.82-17.08-74.18-11.86-101.65,15.61-33.86,33.86-33.92,88.99,0,122.91,33.86,33.86,89.05,33.86,122.91,0,27.47-27.47,32.63-68.89,15.61-101.65l-13.09,13.09c10.75,25.26,5.78,55.68-14.81,76.27-27.1,27.1-71.23,27.1-98.33,0-27.1-27.1-27.1-71.23,0-98.33,20.59-20.59,51.01-25.57,76.27-14.81Z"/>
  <path class="cls-1" d="M610.23,377.5l-58.75,58.75-12.35,12.35-48.8,48.8c-3.38,3.38-3.38,8.91,0,12.29,3.38,3.38,8.91,3.38,12.29,0l48.8-48.8,12.35-12.35,58.75-58.75,12.29-12.29,54.51-54.51,6.7-1.66,18.99-4.73,28.21-6.94,47.75-47.75h-52.85v-52.85s-47.75,47.75-47.75,47.75l-6.94,28.21-4.73,18.99-1.66,6.7-54.51,54.51-12.29,12.29Z"/>
</svg>