<svg width="40" height="40" viewBox="0 0 40 40" fill="none" xmlns="http://www.w3.org/2000/svg">
<circle cx="20" cy="20" r="19.5" stroke="#FDFDFF"/>
<path d="M16.6112 7.00418L20.0231 6H21.3354L25.0098 8.34309L26.847 13.364V17.046L29.2091 16.7112V17.7154V19.3891L27.6344 20.0585L27.1095 21.0627L28.4217 24.41L31.8337 26.753L31.0463 28.0919L28.6842 29.0961L28.1593 30.435L27.6344 31.4392H24.7474L23.4351 32.1087L20.5481 34.117L18.7109 33.4476L16.6112 32.1087L15.0365 31.4392H12.9368L12.1495 30.7698L11.3621 29.0961L10.0498 28.7614L9 27.7572V26.753L10.3123 25.7489L12.6744 23.4058L13.1993 21.0627L11.0996 19.3891L11.3621 17.7154L12.1495 16.7112L13.7242 17.046L14.5116 11.0209L16.6112 7.00418Z" fill="#F0F0F9"/>
</svg>
