<svg width="1441" height="596" viewBox="0 0 1441 596" fill="none" xmlns="http://www.w3.org/2000/svg">
<g clip-path="url(#clip0_100_2244)">
<rect width="1441" height="596" fill="#EFF1FF"/>
<g opacity="0.6">
<ellipse cx="91.3653" cy="333.932" rx="4.36526" ry="4.45331" fill="#D4D3F2"/>
<ellipse cx="91.3653" cy="358.658" rx="4.36526" ry="4.45331" fill="#D4D3F2"/>
<ellipse cx="91.3653" cy="383.383" rx="4.36526" ry="4.45331" fill="#D4D3F2"/>
<ellipse cx="91.3653" cy="408.109" rx="4.36526" ry="4.45331" fill="#D4D3F2"/>
<ellipse cx="91.3653" cy="432.834" rx="4.36526" ry="4.45331" fill="#D4D3F2"/>
<ellipse cx="91.3653" cy="457.56" rx="4.36526" ry="4.45331" fill="#D4D3F2"/>
<ellipse cx="91.3653" cy="482.285" rx="4.36526" ry="4.45331" fill="#D4D3F2"/>
<ellipse cx="91.3653" cy="507.01" rx="4.36526" ry="4.45331" fill="#D4D3F2"/>
<ellipse cx="91.3653" cy="531.736" rx="4.36526" ry="4.45331" fill="#D4D3F2"/>
<ellipse cx="91.3653" cy="556.461" rx="4.36526" ry="4.45331" fill="#D4D3F2"/>
<ellipse cx="91.3653" cy="581.187" rx="4.36526" ry="4.45331" fill="#D4D3F2"/>
<ellipse cx="91.3653" cy="581.187" rx="4.36526" ry="4.45331" fill="#D4D3F2"/>
<ellipse cx="91.3653" cy="581.187" rx="4.36526" ry="4.45331" fill="#D4D3F2"/>
<ellipse cx="91.3653" cy="581.187" rx="4.36526" ry="4.45331" fill="#D4D3F2"/>
<ellipse cx="113.13" cy="333.932" rx="4.36526" ry="4.45331" fill="#D4D3F2"/>
<ellipse cx="113.13" cy="358.658" rx="4.36526" ry="4.45331" fill="#D4D3F2"/>
<ellipse cx="113.13" cy="383.383" rx="4.36526" ry="4.45331" fill="#D4D3F2"/>
<ellipse cx="113.13" cy="408.109" rx="4.36526" ry="4.45331" fill="#D4D3F2"/>
<ellipse cx="113.13" cy="432.834" rx="4.36526" ry="4.45331" fill="#D4D3F2"/>
<ellipse cx="113.13" cy="457.56" rx="4.36526" ry="4.45331" fill="#D4D3F2"/>
<ellipse cx="113.13" cy="482.285" rx="4.36526" ry="4.45331" fill="#D4D3F2"/>
<ellipse cx="113.13" cy="507.01" rx="4.36526" ry="4.45331" fill="#D4D3F2"/>
<ellipse cx="113.13" cy="531.736" rx="4.36526" ry="4.45331" fill="#D4D3F2"/>
<ellipse cx="113.13" cy="556.461" rx="4.36526" ry="4.45331" fill="#D4D3F2"/>
<ellipse cx="113.13" cy="581.187" rx="4.36526" ry="4.45331" fill="#D4D3F2"/>
<ellipse cx="113.13" cy="581.187" rx="4.36526" ry="4.45331" fill="#D4D3F2"/>
<ellipse cx="113.13" cy="581.187" rx="4.36526" ry="4.45331" fill="#D4D3F2"/>
<ellipse cx="113.13" cy="581.187" rx="4.36526" ry="4.45331" fill="#D4D3F2"/>
<ellipse cx="134.893" cy="333.932" rx="4.36526" ry="4.45331" fill="#D4D3F2"/>
<ellipse cx="134.893" cy="358.658" rx="4.36526" ry="4.45331" fill="#D4D3F2"/>
<ellipse cx="134.893" cy="383.383" rx="4.36526" ry="4.45331" fill="#D4D3F2"/>
<ellipse cx="134.892" cy="408.109" rx="4.36526" ry="4.45331" fill="#D4D3F2"/>
<ellipse cx="134.892" cy="432.834" rx="4.36526" ry="4.45331" fill="#D4D3F2"/>
<ellipse cx="134.892" cy="457.56" rx="4.36526" ry="4.45331" fill="#D4D3F2"/>
<ellipse cx="134.892" cy="482.285" rx="4.36526" ry="4.45331" fill="#D4D3F2"/>
<ellipse cx="134.892" cy="507.01" rx="4.36526" ry="4.45331" fill="#D4D3F2"/>
<ellipse cx="134.892" cy="531.736" rx="4.36526" ry="4.45331" fill="#D4D3F2"/>
<ellipse cx="134.892" cy="556.461" rx="4.36526" ry="4.45331" fill="#D4D3F2"/>
<ellipse cx="134.892" cy="581.187" rx="4.36526" ry="4.45331" fill="#D4D3F2"/>
<ellipse cx="134.892" cy="581.187" rx="4.36526" ry="4.45331" fill="#D4D3F2"/>
<ellipse cx="134.892" cy="581.187" rx="4.36526" ry="4.45331" fill="#D4D3F2"/>
<ellipse cx="134.892" cy="581.187" rx="4.36526" ry="4.45331" fill="#D4D3F2"/>
<ellipse cx="156.655" cy="333.932" rx="4.36526" ry="4.45331" fill="#D4D3F2"/>
<ellipse cx="156.655" cy="358.658" rx="4.36526" ry="4.45331" fill="#D4D3F2"/>
<ellipse cx="156.655" cy="383.383" rx="4.36526" ry="4.45331" fill="#D4D3F2"/>
<ellipse cx="156.655" cy="408.109" rx="4.36526" ry="4.45331" fill="#D4D3F2"/>
<ellipse cx="156.655" cy="432.834" rx="4.36526" ry="4.45331" fill="#D4D3F2"/>
<ellipse cx="156.655" cy="457.56" rx="4.36526" ry="4.45331" fill="#D4D3F2"/>
<ellipse cx="156.655" cy="482.285" rx="4.36526" ry="4.45331" fill="#D4D3F2"/>
<ellipse cx="156.655" cy="507.01" rx="4.36526" ry="4.45331" fill="#D4D3F2"/>
<ellipse cx="156.655" cy="531.736" rx="4.36526" ry="4.45331" fill="#D4D3F2"/>
<ellipse cx="156.655" cy="556.461" rx="4.36526" ry="4.45331" fill="#D4D3F2"/>
<ellipse cx="156.655" cy="581.187" rx="4.36526" ry="4.45331" fill="#D4D3F2"/>
<ellipse cx="156.655" cy="581.187" rx="4.36526" ry="4.45331" fill="#D4D3F2"/>
<ellipse cx="156.655" cy="581.187" rx="4.36526" ry="4.45331" fill="#D4D3F2"/>
<ellipse cx="156.655" cy="581.187" rx="4.36526" ry="4.45331" fill="#D4D3F2"/>
</g>
</g>
<defs>
<clipPath id="clip0_100_2244">
<rect width="1441" height="596" fill="white"/>
</clipPath>
</defs>
</svg>
